<?xml version="1.0" encoding="UTF-8"?>
<svg id="Lag_1" data-name="Lag 1" xmlns="http://www.w3.org/2000/svg" xmlns:xlink="http://www.w3.org/1999/xlink" viewBox="0 0 363 248.24">
  <defs>
    <style>
      .cls-1 {
        fill: #eab642;
      }

      .cls-2 {
        fill: #1f5b00;
      }

      .cls-3 {
        fill: url(#Ikke-navngivet_forløb);
      }
    </style>
    <linearGradient id="Ikke-navngivet_forløb" data-name="Ikke-navngivet forløb" x1="32.25" y1="335.36" x2="348.18" y2="335.36" gradientTransform="translate(0 483.22) scale(1 -1)" gradientUnits="userSpaceOnUse">
      <stop offset="0" stop-color="#1f5b00"/>
      <stop offset=".49" stop-color="#eab642"/>
    </linearGradient>
  </defs>
  <path class="cls-3" d="M27.75,52.27c5.84,62.21,29.23,128.33,81.84,165.86,47.29,33.73,113.12,38.7,166.44,17.04,32.38-13.15,59.88-36.17,76.02-67.47,2.95-5.71-5.68-10.77-8.63-5.05-26.86,52.08-85.33,77.42-142.13,75.35-26.95-.98-53.9-8.14-77.03-22.18-25.36-15.39-45-38.08-58.61-64.28-15.76-30.33-24.71-65.34-27.9-99.28-.6-6.35-10.6-6.41-10,0h0Z"/>
  <g>
    <path class="cls-1" d="M104.57,117.59c-1.77,0-3.39-.44-4.86-1.32s-2.65-2.05-3.53-3.51c-.89-1.46-1.33-3.07-1.33-4.83l-.03-30.7c0-1.76,.44-3.37,1.32-4.83s2.06-2.63,3.52-3.51c1.47-.88,3.08-1.32,4.85-1.32l30.8-.03c1.77,0,3.4,.44,4.89,1.32s2.68,2.05,3.57,3.51c.89,1.46,1.33,3.07,1.33,4.83v2.66c0,.68-.55,1.23-1.24,1.23h-6.81c-.68,0-1.24-.54-1.24-1.23v-2.24c0-.23-.1-.43-.28-.59-.19-.16-.4-.24-.63-.24l-30.03,.03c-.23,0-.43,.08-.59,.24-.16,.16-.24,.36-.24,.59l.03,29.87c0,.23,.08,.43,.24,.59s.36,.24,.59,.24l30.03-.03c.23,0,.44-.08,.63-.24s.28-.36,.28-.59v-7.8c0-.68-.56-1.23-1.25-1.23h-8.91c-.68,0-1.24-.54-1.24-1.22v-6.77c0-.68,.55-1.23,1.23-1.23l18.2-.02c.68,0,1.24,.55,1.24,1.23v17.45c.02,1.76-.43,3.37-1.31,4.83s-2.07,2.63-3.56,3.51c-1.49,.88-3.12,1.32-4.89,1.32l-30.8,.03h.02Z"/>
    <path class="cls-1" d="M153.79,117.55c-.68,0-1.24-.55-1.24-1.23l-.03-29.47c0-1.76,.44-3.36,1.32-4.79,.88-1.44,2.06-2.59,3.52-3.48,1.47-.88,3.06-1.32,4.78-1.32l21.25-.02c.68,0,1.24,.55,1.24,1.23v6.64c0,.68-.55,1.23-1.23,1.23l-20.9,.02c-.23,0-.43,.08-.59,.24-.16,.16-.24,.36-.24,.59l.02,29.12c0,.68-.55,1.23-1.24,1.23h-6.66Z"/>
    <path class="cls-1" d="M194.28,116.2c-1.47-.88-2.65-2.05-3.53-3.51-.89-1.46-1.33-3.04-1.33-4.76l-.02-21.12c0-1.76,.44-3.36,1.32-4.79,.88-1.44,2.06-2.59,3.52-3.48,1.47-.88,3.06-1.32,4.78-1.32l21.86-.02c1.77,0,3.39,.43,4.86,1.28,1.47,.86,2.63,2.01,3.5,3.47,.86,1.46,1.29,3.07,1.3,4.83v13.91c.01,.68-.54,1.23-1.23,1.23l-29.51,.02c-.68,0-1.24,.55-1.24,1.23v4.39c0,.23,.08,.43,.25,.59,.16,.16,.36,.24,.59,.24l29.91-.03c.68,0,1.24,.55,1.24,1.23v6.64c0,.68-.55,1.23-1.23,1.23l-30.26,.03c-1.72,0-3.32-.44-4.79-1.32v.03Zm5.53-22.44l20.36-.02c.68,0,1.24-.55,1.24-1.23v-5.37c0-.23-.09-.43-.25-.59s-.36-.24-.59-.24l-21.16,.02c-.23,0-.43,.08-.59,.24s-.24,.36-.24,.59v5.37c0,.68,.56,1.23,1.24,1.23h0Z"/>
    <path class="cls-1" d="M241.08,116.16c-1.47-.88-2.64-2.05-3.53-3.51-.89-1.46-1.33-3.04-1.33-4.76l-.02-21.12c0-1.76,.44-3.36,1.32-4.79,.88-1.44,2.06-2.59,3.52-3.48,1.47-.88,3.06-1.32,4.78-1.32l21.86-.02c1.77,0,3.39,.43,4.86,1.28,1.47,.86,2.63,2.01,3.5,3.47,.86,1.46,1.29,3.07,1.3,4.83v13.91c.01,.68-.54,1.23-1.23,1.23l-29.51,.02c-.68,0-1.24,.55-1.24,1.23v4.39c0,.23,.08,.43,.25,.59,.16,.16,.36,.24,.59,.24l29.91-.03c.68,0,1.24,.55,1.24,1.23v6.64c0,.68-.55,1.23-1.23,1.23l-30.26,.03c-1.72,0-3.32-.44-4.79-1.32v.03Zm5.53-22.44l20.36-.02c.68,0,1.24-.55,1.24-1.23v-5.37c0-.23-.09-.43-.25-.59s-.36-.24-.59-.24l-21.16,.02c-.23,0-.43,.08-.59,.24-.16,.16-.24,.36-.24,.59v5.37c0,.68,.56,1.23,1.24,1.23h0Z"/>
    <path class="cls-1" d="M284.77,116.21l-.03-37.83c0-.68,.55-1.23,1.24-1.23l30.26-.03c1.77,0,3.39,.44,4.86,1.32s2.63,2.04,3.5,3.47c.86,1.44,1.29,3.03,1.3,4.79l.03,29.47c0,.68-.55,1.23-1.24,1.23h-6.67c-.68,0-1.24-.55-1.24-1.23l-.02-29.12c0-.23-.08-.43-.25-.59-.16-.16-.36-.24-.59-.24l-21.16,.02c-.23,0-.43,.08-.59,.24-.16,.16-.24,.36-.24,.59l.02,29.12c0,.68-.55,1.23-1.24,1.23h-6.67c-.68,0-1.24-.55-1.24-1.23l-.03,.02Z"/>
    <path class="cls-1" d="M101.14,182.76l-17.44-47.54c-.29-.8,.3-1.65,1.16-1.65h7.14c.52,0,.98,.32,1.16,.8l10.72,29.02c.4,1.08,1.93,1.08,2.33,0l10.67-29.04c.18-.49,.64-.81,1.16-.81h7.28c.52,0,.98,.32,1.16,.8l10.71,29.01c.4,1.08,1.93,1.08,2.33,0l10.6-29.03c.18-.49,.64-.81,1.16-.81h7.21c.86,0,1.46,.84,1.17,1.65l-17.36,47.57c-.18,.49-.64,.81-1.16,.81h-5.53c-.52,0-.98-.32-1.16-.8l-11.62-31.45c-.4-1.08-1.93-1.08-2.33,0l-11.51,31.46c-.18,.49-.64,.81-1.16,.81h-5.53c-.52,0-.99-.32-1.17-.81h.01Z"/>
    <path class="cls-1" d="M165.35,182.28l-.04-51.02c0-.68,.55-1.23,1.24-1.23h6.67c.68,0,1.24,.55,1.24,1.23v10.73c0,.68,.56,1.23,1.25,1.23l21.11-.02c1.77,0,3.38,.44,4.82,1.32s2.61,2.04,3.5,3.47c.89,1.44,1.33,3.03,1.33,4.79l.03,29.47c0,.68-.55,1.23-1.24,1.23h-6.67c-.68,0-1.24-.55-1.24-1.23l-.02-29.12c0-.23-.08-.43-.24-.59s-.36-.24-.59-.24l-21.16,.02c-.23,0-.43,.08-.59,.24-.16,.16-.24,.36-.24,.59l.02,29.12c0,.68-.55,1.23-1.24,1.23h-6.67c-.68,0-1.24-.55-1.24-1.23h-.03Z"/>
    <path class="cls-1" d="M216.58,182.15c-1.47-.88-2.64-2.05-3.53-3.51-.89-1.46-1.33-3.04-1.33-4.76l-.02-21.12c0-1.76,.44-3.36,1.32-4.79,.88-1.44,2.06-2.59,3.52-3.48,1.47-.88,3.06-1.32,4.78-1.32l21.86-.02c1.77,0,3.39,.43,4.86,1.28,1.47,.86,2.63,2.01,3.5,3.47,.86,1.46,1.29,3.07,1.3,4.83v13.91c.01,.68-.54,1.23-1.23,1.23l-29.51,.02c-.68,0-1.24,.55-1.24,1.23v4.39c0,.23,.08,.43,.25,.59,.16,.16,.36,.24,.59,.24l29.91-.03c.68,0,1.24,.55,1.24,1.23v6.64c0,.68-.55,1.23-1.23,1.23l-30.26,.03c-1.72,0-3.32-.44-4.79-1.32v.03Zm5.53-22.44l20.36-.02c.68,0,1.24-.55,1.24-1.23v-5.37c0-.23-.09-.43-.25-.59s-.36-.24-.59-.24l-21.16,.02c-.23,0-.43,.08-.59,.24s-.24,.36-.24,.59v5.37c0,.68,.56,1.23,1.24,1.23h0Z"/>
    <path class="cls-1" d="M263.38,182.11c-1.47-.88-2.64-2.05-3.53-3.51-.89-1.46-1.33-3.04-1.33-4.76l-.02-21.12c0-1.76,.44-3.36,1.32-4.79,.88-1.44,2.06-2.59,3.52-3.48,1.47-.88,3.06-1.32,4.78-1.32l21.86-.02c1.77,0,3.39,.43,4.86,1.28,1.47,.86,2.63,2.01,3.5,3.47,.86,1.46,1.29,3.07,1.3,4.83v13.91c.01,.68-.54,1.23-1.23,1.23l-29.51,.02c-.68,0-1.24,.55-1.24,1.23v4.39c0,.23,.08,.43,.25,.59,.16,.16,.36,.24,.59,.24l29.91-.03c.68,0,1.24,.55,1.24,1.23v6.64c0,.68-.55,1.23-1.23,1.23l-30.26,.03c-1.72,0-3.32-.44-4.79-1.32v.03Zm5.53-22.44l20.36-.02c.68,0,1.24-.55,1.24-1.23v-5.37c0-.23-.09-.43-.25-.59s-.36-.24-.59-.24l-21.16,.02c-.23,0-.43,.08-.59,.24s-.24,.36-.24,.59v5.37c0,.68,.56,1.23,1.24,1.23h0Z"/>
    <path class="cls-1" d="M310.1,182.07c-1.47-.88-2.64-2.05-3.53-3.51-.89-1.46-1.33-3.04-1.33-4.76l-.04-42.74c0-.68,.55-1.23,1.24-1.23h6.74c.68,0,1.24,.54,1.24,1.23l.04,42.39c0,.23,.08,.43,.25,.59,.16,.16,.36,.24,.59,.24h7.75v9.09h-8.17c-1.72,0-3.32-.43-4.79-1.31h.01Z"/>
    <path id="Path_13" data-name="Path 13" class="cls-1" d="M340.96,127.9l19.83-1.57c1.8-.14,2.89,1.94,1.74,3.33l-18.87,22.74c-.7,.85-.6,2.1,.23,2.83,3.02,2.64,12.41,5.36,10.11,10.36-1.01,2.2-3.21,5.76-4.8,7.51-1.69,1.85-12.84,16.5-15.2,17.49-4.16,1.74,6.94-19.43,6-22-1.35-3.68-7.85-2.62-11.11-4.66-2.1-1.31-6.52-2.89-5.67-5.82,.41-1.43,1.63-2.95,2.34-4.24l10.35-18.74c1.14-2.05,2.27-4.11,3.41-6.16,.33-.6,.94-.99,1.63-1.05v-.02Z"/>
  </g>
  <rect class="cls-2" y="19.83" width="72" height="41.45" rx="4.58" ry="4.58"/>
  <rect class="cls-2" x="8.45" y="55.57" width="55.6" height="24.72" rx="4.77" ry="4.77"/>
  <path class="cls-2" d="M20.07,0h0c2.73,0,4.93,2.21,4.93,4.94V24.61c0,2.73-2.21,4.94-4.93,4.94h0c-2.73,0-4.93-2.21-4.93-4.94V4.94c0-2.73,2.21-4.94,4.93-4.94Z"/>
  <path class="cls-2" d="M50.04,.4h0c2.66,0,4.81,2.15,4.81,4.81V24.39c0,2.66-2.15,4.81-4.81,4.81h0c-2.66,0-4.81-2.15-4.81-4.81V5.21c0-2.66,2.15-4.81,4.81-4.81Z"/>
</svg>