<?xml version="1.0" encoding="UTF-8"?>
<svg id="Lag_1" data-name="Lag 1" xmlns="http://www.w3.org/2000/svg" xmlns:xlink="http://www.w3.org/1999/xlink" viewBox="0 0 5403.86 12194.84">
  <defs>
    <style>
      .cls-1, .cls-2, .cls-3, .cls-4, .cls-5, .cls-6 {
        fill: none;
      }

      .cls-7 {
        letter-spacing: -.04em;
      }

      .cls-8 {
        clip-path: url(#clippath);
      }

      .cls-9, .cls-10, .cls-11, .cls-12 {
        fill: #f8d7ee;
      }

      .cls-13 {
        fill: #efa919;
      }

      .cls-14 {
        fill: #fff;
      }

      .cls-15 {
        fill: #ffe300;
      }

      .cls-16 {
        fill: #ffe200;
      }

      .cls-17 {
        fill: #edb92e;
      }

      .cls-18 {
        fill: #e82d41;
      }

      .cls-19 {
        fill: #e3ae21;
      }

      .cls-20 {
        fill: #edcde4;
      }

      .cls-21 {
        fill: #e4eddf;
      }

      .cls-22 {
        fill: #aeb0b3;
      }

      .cls-23 {
        fill: #cac9c9;
      }

      .cls-24, .cls-25 {
        fill: #1f4acd;
      }

      .cls-26, .cls-27, .cls-28 {
        fill: #21471d;
      }

      .cls-29 {
        fill: #5272d5;
      }

      .cls-30 {
        fill: #818080;
      }

      .cls-2 {
        stroke-width: .22px;
      }

      .cls-2, .cls-4 {
        stroke: #21471d;
      }

      .cls-2, .cls-4, .cls-5, .cls-6 {
        stroke-miterlimit: 3.73;
      }

      .cls-31 {
        letter-spacing: 0em;
      }

      .cls-32 {
        clip-path: url(#clippath-1);
      }

      .cls-33 {
        clip-path: url(#clippath-4);
      }

      .cls-34 {
        clip-path: url(#clippath-3);
      }

      .cls-35 {
        clip-path: url(#clippath-2);
      }

      .cls-36 {
        clip-path: url(#clippath-5);
      }

      .cls-25 {
        stroke: #1f4acd;
        stroke-miterlimit: 4;
        stroke-width: 5px;
      }

      .cls-3 {
        stroke: #edb92e;
        stroke-miterlimit: 2.81;
        stroke-width: 3.51px;
      }

      .cls-37 {
        letter-spacing: -.02em;
      }

      .cls-38 {
        letter-spacing: 0em;
      }

      .cls-39 {
        letter-spacing: 0em;
      }

      .cls-4 {
        stroke-width: .44px;
      }

      .cls-10 {
        font-size: 12.81px;
      }

      .cls-10, .cls-27, .cls-12 {
        font-family: KohinoorDevanagari-Bold, 'Kohinoor Devanagari';
      }

      .cls-10, .cls-12 {
        isolation: isolate;
      }

      .cls-27 {
        font-size: 16.08px;
      }

      .cls-11 {
        fill-rule: evenodd;
      }

      .cls-5 {
        stroke-width: .48px;
      }

      .cls-5, .cls-6 {
        stroke: #10418f;
      }

      .cls-40 {
        letter-spacing: -.01em;
      }

      .cls-28 {
        font-family: KohinoorDevanagari-Regular, 'Kohinoor Devanagari';
        font-size: 22.31px;
      }

      .cls-6 {
        stroke-width: .37px;
      }

      .cls-12 {
        font-size: 21.95px;
      }

      .cls-41 {
        letter-spacing: -.06em;
      }
    </style>
    <clipPath id="clippath">
      <rect class="cls-1" x="2492.88" y="3638.05" width="184.12" height="399.78"/>
    </clipPath>
    <clipPath id="clippath-1">
      <rect class="cls-1" x="1245.16" y="2688.84" width="510.5" height="327.57" transform="translate(-1030.12 856.36) rotate(-23.99)"/>
    </clipPath>
    <clipPath id="clippath-2">
      <rect class="cls-1" x="2436.62" y="289.71" width="62.44" height="97.77"/>
    </clipPath>
    <clipPath id="clippath-3">
      <rect class="cls-1" x="2022.92" y="268.31" width="116.24" height="167.68" transform="translate(1513.29 2384.98) rotate(-84)"/>
    </clipPath>
    <clipPath id="clippath-4">
      <rect class="cls-1" x="2142.18" y="3678.18" width="356.54" height="228.77" transform="translate(-2124.05 3672.53) rotate(-56.99)"/>
    </clipPath>
    <clipPath id="clippath-5">
      <rect class="cls-1" x="2075.09" y="3807.94" width="119.86" height="203.8" transform="translate(-2110.37 5259.6) rotate(-79)"/>
    </clipPath>
  </defs>
  <rect class="cls-21" x="1735.7" width="1172.42" height="10264.54"/>
  <path class="cls-23" d="M2830.01,272.39c-10.32,11.92-25.7,29.16-44.84,49.28-62.81,66.16-113.7,119.75-177.56,157.91-88.87,53-179.2,62.26-222.33,66.09-137.83,12.25-195.24-33.25-321.95-45.09-84.35-7.91-205.52-1.49-359.83,66.09v-106.55c99.74-43.89,186.02-57.34,241.54-61.9,66.16-5.4,159.96-13.01,264.9,19.43,83.55,25.85,76.95,23.51,118.18,25.15,141.91,5.72,254.66-84.68,281.74-106.48,34.05-27.27,25.41-28.07,113.51-112.75,44.69-42.94,82.82-77.21,108.78-100.14-.62,49.65-1.35,99.26-2.15,148.95h0Z"/>
  <path class="cls-23" d="M2903.58,676.98c9.22,54.61,18.55,109.18,27.89,163.78-19.36-13.2-52.6-34.74-96.49-58.18-158.28-84.42-247.73-81.73-330.48-152.96-27.08-23.22-64.12-63.65-87.38-132.18,51.65-16.33,103.34-32.66,155.03-48.99,3.94,25.63,15.16,61.9,46.51,95.11,35.07,37.07,79.47,53.7,109.14,64.7,40.9,15.31,55.92,11.19,99.41,28.07,34.48,13.56,60.07,29.34,76.37,40.64h0Z"/>
  <path class="cls-23" d="M2898.89,2477.68c-156.82,154.52-292.43,178.66-384.4,179.6-104.4,1.13-171.73-39.08-338.32-25.15-63.28,5.29-132.03,22.89-213.25,41.7-125.18,29.02-198.6,63.28-266.98,87.82-2.52-42.47-5.21-84.94-7.76-127.4,39.41-15.31,94.41-35.29,161.81-55.55,59.2-17.79,108.01-32.48,175.01-44.47,36.34-6.49,115.59-18.88,216.57-18.88,122.74-.07,174.86,18.26,233.92,21.65,93.61,5.47,229.65-24.93,410.64-188.86,4.26,43.12,8.49,86.36,12.76,129.55h0Z"/>
  <path class="cls-23" d="M2908.2,4459.65c-160.03-222.87-287.47-266.07-376.34-261.73-72.58,3.68-143.08,40.24-240.81,3.9-73.71-27.41-68.6-61.24-149.89-98.57-110.96-50.96-165.5-8.64-259.18-46.48-51.73-20.89-118.14-67.33-177.09-181.35,6.38-54.21,12.61-108.37,18.99-162.51,69.52,129.08,146.14,180.3,204.68,202.82,91.21,35.14,138.12,.58,247.55,48.26,99.74,43.38,93.54,86.25,178.15,113.88,105.17,34.23,160.32-17.02,258.82-12.18,74.98,3.68,183.29,40.46,308.57,204.68-4.56,63.17-9,126.2-13.45,189.26h0Z"/>
  <path class="cls-23" d="M1727.69,5608.25c201.58-287.98,377.87-392.71,505.27-433.46,60.44-19.28,150.15-37.15,270.04-97.95,73.2-37.15,126.78-74.58,235.78-118.76,52.71-21.36,97.8-35.98,128.06-45.09-3.32-43.6-6.6-87.34-9.84-130.87-39,3.24-99.88,11.63-167.06,36.89-100.28,37.58-134.88,82.78-225.86,130.87-98.82,52.31-179.53,63.39-235.78,77.61-123.39,31.17-296.11,119.78-505.86,376.74,1.71,67.88,3.43,135.97,5.25,204.03h0Z"/>
  <path class="cls-23" d="M2843.26,6180.82c-46.81-74.18-129.08-150.81-264.1-200.56-141.04-51.95-192.87,7.84-337.52-47.75-161.92-62.3-174.17-167.03-344.59-219.63-81.33-25.15-155.29-24.93-205.48-20.89-3.5-44.87-7.04-89.67-10.53-134.47,73.63-1.64,181.94,5.03,296.4,52.2,157.91,65,158.31,137.32,308.14,192.18,152.15,55.77,214.71,4.19,366.9,68.6,90.99,38.46,153.47,92.85,190.79,130.68v179.64h0Z"/>
  <path class="cls-23" d="M1748.68,7360.48c46.73-31.64,131.49-90.37,231.04-113.44,207.31-48.12,318.31,48.81,527.07,22.82,82.02-10.21,198.09-39.44,330.85-127.51v-139.14c-197.57,119.38-353.74,138.78-461.42,133.38-139.83-7.04-231.99-57.56-385.93-30.58-108.56,19.03-189.96,66.53-241.5,103.34v151.21h-.11v-.07Z"/>
  <path class="cls-14" d="M2813.36,204.3c-8.09,7.84-16.29,15.71-24.39,23.62-2.41,2.33,1.68,5.8,4.16,3.46,8.09-7.84,16.29-15.71,24.39-23.62,2.41-2.33-1.75-5.8-4.16-3.46h0Z"/>
  <path class="cls-14" d="M2757.84,259.63c-9.22,9.11-18.26,18.41-26.9,27.85-2.26,2.48,2.84,4.88,5.03,2.41,8.38-9.19,17.1-18.15,26.06-26.94,2.26-2.19-1.82-5.65-4.19-3.32h0Z"/>
  <path class="cls-14" d="M2700.75,321.2c-8.38,8.68-17.39,16.88-26.9,24.68-3.17,2.62,1.68,6.67,4.96,4.16,9.59-7.8,18.55-16,26.9-24.68,2.84-2.99-2.08-7.04-4.96-4.16h0Z"/>
  <path class="cls-14" d="M2645.6,373.73c-9.19,9.04-19.65,17.1-31.35,23.8-3.65,2.15-.22,7.18,3.57,5.03,12.18-7.04,23.15-15.31,32.73-24.68,2.84-2.84-2.04-7-4.96-4.16h0Z"/>
  <path class="cls-14" d="M2572.15,425.06c-6.2,3.94-12.28,8.13-18.99,11.45-6.71,3.32-13.78,5.72-20.74,8.27-4.16,1.46-.58,6.49,3.57,5.03,7.25-2.62,14.69-5.21,21.47-8.6,6.89-3.5,13.31-7.8,19.72-11.92,3.54-2.33-1.49-6.49-5.03-4.23h0Z"/>
  <path class="cls-14" d="M2041.03,440.08c-17.32-2.7-34.89-1.82-52.27-.07-4.37,.51-4.45,6.27,0,5.83,16.73-1.64,33.76-2.77,50.45-.15,4.48,.66,6.38-4.92,1.82-5.61h0Z"/>
  <polygon class="cls-14" points="2529.9 527.42 2524.07 523.08 2517.8 518.74 2525.3 516.52 2532.78 514.4 2531.39 520.67 2529.9 527.42"/>
  <polygon class="cls-14" points="2563.43 515.5 2557.09 511.63 2550.35 507.92 2557.53 505.11 2564.67 502.19 2564.09 508.61 2563.43 515.5"/>
  <polygon class="cls-14" points="2546.85 521.91 2540.69 517.83 2534.2 513.82 2541.45 511.31 2548.89 508.75 2547.87 515.1 2546.85 521.91"/>
  <polygon class="cls-14" points="2579.58 508.46 2572.99 505.11 2565.84 501.79 2572.8 498.47 2579.69 495.23 2579.69 501.65 2579.58 508.46"/>
  <path class="cls-14" d="M2478.54,466.72c-12.83,5.1-26.43,8.68-40.32,10.83-4.37,.69-2.55,6.27,1.82,5.58,14.54-2.19,28.65-6.09,41.99-11.45,4.05-1.6,.47-6.56-3.5-4.96h0Z"/>
  <path class="cls-14" d="M2367.17,487.32c-14.14,1.24-28.4,1.02-42.29-.84-4.37-.55-6.23,5.03-1.82,5.58,14.62,1.93,29.49,2.33,44.18,1.13,4.3-.44,4.37-6.23-.07-5.87h0Z"/>
  <path class="cls-14" d="M2252.78,479.15c-13.78-1.49-27.27-4.78-39.88-9.66-4.01-1.57-7.66,3.46-3.57,5.03,13.78,5.4,28.29,8.82,43.38,10.5,1.9,.18,3.5-1.46,3.5-2.88,.11-1.79-1.57-2.7-3.43-2.99h0Z"/>
  <path class="cls-14" d="M2102.89,452.14c14.18,1.13,28.11,3.83,41.48,7.98,4.19,1.31,6.05-4.34,1.82-5.58-13.96-4.34-28.54-7.04-43.38-8.2-4.34-.33-4.34,5.47,.07,5.8h0Z"/>
  <path class="cls-14" d="M1931.23,443.72c-7.07-.18-14.54,.55-21.62,1.46-9.04,1.17-17.86,3.39-26.36,6.09-4.16,1.31-2.41,6.96,1.82,5.58,14.51-4.52,30.44-7.8,46.08-7.29,4.59,.11,4.59-5.72,.07-5.83h0Z"/>
  <path class="cls-14" d="M1828.4,463.81c-16,2.08-31.35,7.04-45.6,13.38-3.94,1.82-.44,6.85,3.57,5.03,13.78-6.16,28.47-10.68,43.89-12.76,4.37-.62,2.52-6.2-1.86-5.65h0Z"/>
  <path class="cls-14" d="M2565.77,582.28c-4.52-3.83-9.11-7.8-13.12-11.99-4.16-4.34-7.51-9.19-10.9-13.85-2.33-3.17-8.38-.26-6.05,2.95,3.57,4.88,7.07,9.92,11.34,14.33,4.19,4.48,9.04,8.6,13.78,12.61,3.13,2.77,8.09-1.35,4.96-4.05h0Z"/>
  <path class="cls-14" d="M2636.52,632.18c-5.5-2.84-11.15-5.58-16.37-8.82-5.32-3.32-10.06-7.22-14.8-11.12-3.17-2.62-8.17,1.46-4.96,4.16,4.96,4.01,9.88,7.98,15.35,11.52,5.47,3.46,11.34,6.34,17.21,9.3,3.86,1.93,7.33-3.1,3.57-5.03h0Z"/>
  <path class="cls-14" d="M2723.61,663.68c-6.53-1.71-13.23-3.39-19.65-5.47-5.87-1.86-12.21-4.41-18.34-6.89-4.01-1.64-7.55,3.39-3.57,5.03,6.23,2.55,12.65,5.1,19.21,7.22,6.71,2.19,13.67,3.94,20.52,5.72,4.26,1.17,6.05-4.45,1.82-5.61h0Z"/>
  <path class="cls-14" d="M2764.65,683.95c6.49,2,12.94,4.08,19.21,6.49,6.27,2.41,11.92,5.1,17.86,7.8,3.94,1.86,7.44-3.17,3.57-5.03-6.12-2.84-12.21-5.72-18.63-8.13-6.53-2.48-13.31-4.52-20.09-6.78-4.34-1.31-6.12,4.34-1.93,5.65h0Z"/>
  <path class="cls-14" d="M1843.4,2643.36c14.07-4.88,28.65-8.75,43.49-11.56,3.72-.69,2.08-5.4-1.57-4.7-15.42,2.95-30.37,7.04-44.91,12.07-3.54,1.24-.47,5.39,2.99,4.19h0Z"/>
  <path class="cls-14" d="M1952.43,2613.14c14.65-4.19,29.78-7.36,45.06-9.37,3.83-.51,2.19-5.18-1.57-4.7-15.35,2-30.37,5.18-45.06,9.37-3.65,1.02-2.08,5.72,1.57,4.7h0Z"/>
  <path class="cls-14" d="M2056.83,2591.56c14.54-3.57,29.89-5.29,44.84-7.44,3.72-.51,2.19-5.18-1.57-4.7-14.87,2.08-30.22,3.83-44.84,7.44-3.61,.84-2.08,5.58,1.57,4.7h0Z"/>
  <path class="cls-14" d="M2164.36,2574.72c7.87-1.13,15.93-1.24,23.77-1.64,7.87-.33,16.22-.62,24.42-.77,3.83-.07,3.86-4.88,0-4.85-16.48,.33-33.43,.44-49.76,2.62-3.79,.44-2.19,5.1,1.57,4.63h0Z"/>
  <path class="cls-14" d="M2277.88,2571.7c15.2,.26,30.58,2.19,45.6,3.83,3.72,.44,5.36-4.26,1.57-4.7-15.57-1.71-31.42-3.79-47.13-4.08-3.9,.11-3.9,4.96-.04,4.96h0Z"/>
  <path class="cls-14" d="M2392.81,2587.77c15.27,1.86,30.47,5.5,45.35,8.82,3.65,.84,5.29-3.83,1.57-4.7-14.87-3.32-30.07-6.89-45.35-8.82-3.75-.4-5.32,4.19-1.57,4.7h0Z"/>
  <path class="cls-14" d="M2552.77,2594.22c-15.06,1.71-30.58,1.71-45.82,2-3.83,.07-3.86,4.88,0,4.85,15.71-.26,31.71-.44,47.35-2.19,3.83-.44,2.15-5.07-1.53-4.67h0Z"/>
  <path class="cls-14" d="M2670.47,2562.76c-13.23,6.42-27.85,11.37-41.99,16.48-3.5,1.24-.51,5.47,2.99,4.16,14.07-5.1,28.65-10.06,41.99-16.48,3.35-1.64,.29-5.76-2.99-4.16h0Z"/>
  <path class="cls-14" d="M2766.21,2517.14c-12.54,7.44-26.36,13.56-39.84,19.79-3.28,1.49-.29,5.72,2.99,4.16,13.41-6.2,27.34-12.25,39.84-19.79,3.03-1.79,.15-6.09-2.99-4.16h0Z"/>
  <path class="cls-14" d="M2849.49,2461.5c-11.23,8.35-23.18,16.08-34.85,23.88-2.99,2,1.28,5.4,4.23,3.46,11.77-7.8,23.69-15.53,34.85-23.88,2.77-2.15-1.46-5.61-4.23-3.46h0Z"/>
  <path class="cls-14" d="M1821.25,3897.33c9.11,11.52,19.03,22.64,29.42,33.35,2.41,2.55,6.53-1.17,4.16-3.65-10.06-10.35-19.76-21.14-28.51-32.33-2.15-2.7-7.22-.07-5.07,2.62h0Z"/>
  <path class="cls-14" d="M1875.97,3964.4c12.39,8.86,25.44,17.21,38.68,24.9,3.13,1.82,6.05-2.62,2.92-4.37-12.98-7.51-25.52-15.46-37.55-24.13-2.81-2.04-6.96,1.57-4.05,3.61h0Z"/>
  <path class="cls-14" d="M1978.47,4004.1c15.82,2.26,31.75,3.65,47.72,4.37,3.72,.15,3.72-4.96,0-5.1-15.57-.73-31.09-2.11-46.19-4.23-3.68-.47-5.25,4.41-1.53,4.96h0Z"/>
  <path class="cls-14" d="M2143.24,4023.78c-14.87-4.67-29.93-8.46-45.31-11.74-3.65-.8-5.18,4.16-1.53,4.96,15.27,3.28,30.47,7.14,45.31,11.74,3.5,1.09,4.96-3.86,1.53-4.96h0Z"/>
  <path class="cls-14" d="M2239.99,4076.9c-12.39-8.86-25.33-17.24-38.6-24.97-3.13-1.82-6.05,2.62-2.92,4.37,12.98,7.51,25.52,15.53,37.44,24.2,2.77,2.08,6.89-1.49,4.08-3.61h0Z"/>
  <path class="cls-14" d="M2323.68,4133.43c-12.39-8.86-25.33-17.24-38.6-24.97-3.13-1.82-6.05,2.62-2.92,4.37,12.98,7.51,25.52,15.53,37.44,24.2,2.84,2.08,7.04-1.57,4.08-3.61h0Z"/>
  <path class="cls-14" d="M2376.14,4153.45c17.06,1.75,34.08,2.11,51.22,1.9,3.72-.07,3.79-5.18,0-5.1-17.13,.22-34.19-.15-51.22-1.9-3.72-.4-3.72,4.74,0,5.1h0Z"/>
  <path class="cls-14" d="M2486.63,4147.94c17.35-1.31,34.45-4.08,51.36-7.44,3.65-.73,2.11-5.69-1.53-4.96-16.4,3.28-32.99,5.98-49.83,7.29-3.68,.29-3.75,5.47,0,5.1h0Z"/>
  <path class="cls-14" d="M2651.79,4132.49c-17.97-3.72-36.71-4.67-55.08-2.92-3.65,.36-3.72,5.47,0,5.1,17.86-1.75,35.98-.95,53.48,2.77,3.72,.73,5.25-4.23,1.6-4.96h0Z"/>
  <path class="cls-14" d="M2734.91,4174.3c-12.21-9.51-25.44-18.08-39.04-25.99-3.13-1.82-6.05,2.55-2.92,4.37,13.2,7.73,25.99,15.93,37.8,25.23,2.84,2.22,7.04-1.42,4.16-3.61h0Z"/>
  <path class="cls-14" d="M2799.9,4228.8c-9.99-11.15-20.96-21.43-32.55-31.31-2.7-2.33-6.85,1.31-4.16,3.65,11.56,9.88,22.64,20.12,32.55,31.31,2.33,2.62,6.49-1.09,4.16-3.65h0Z"/>
  <path class="cls-14" d="M2773.59,4855.47c-14.76,3.94-29.09,9.19-43.16,14.84-3.24,1.31-.44,5.5,2.77,4.16,13.63-5.5,27.52-10.53,41.85-14.33,3.35-.98,1.9-5.65-1.46-4.67h0Z"/>
  <path class="cls-14" d="M2682.21,4890.06c-13.71,6.6-27.27,13.31-40.94,19.98-3.1,1.49-.33,5.72,2.77,4.16,13.63-6.67,27.23-13.38,40.94-19.98,3.13-1.53,.29-5.65-2.77-4.16h0Z"/>
  <path class="cls-14" d="M2586.34,4941.82c-13.38,6.49-25.85,14.07-38.13,22.05-2.84,1.82-.07,6.09,2.77,4.16,12.18-7.98,24.75-15.57,38.13-22.05,3.06-1.53,.33-5.65-2.77-4.16h0Z"/>
  <path class="cls-14" d="M2463.89,5015.38c13.92-5.5,27.08-12.18,40.03-19.28,3.03-1.64,.18-5.83-2.77-4.16-12.87,7.11-26.14,13.78-40.03,19.28-3.21,1.24-.44,5.43,2.77,4.16h0Z"/>
  <path class="cls-14" d="M2366.09,5048.81c14.87-2.95,29.34-7.04,43.6-11.74,3.32-1.13,1.86-5.8-1.46-4.7-14.25,4.7-28.76,8.82-43.6,11.74-3.5,.69-2,5.43,1.46,4.7h0Z"/>
  <path class="cls-14" d="M2303.94,5061.32c-14.95,3.57-29.34,8.42-43.6,13.71-3.24,1.24-.51,5.39,2.77,4.16,13.78-5.1,27.85-9.73,42.32-13.23,3.43-.73,1.97-5.4-1.49-4.63h0Z"/>
  <path class="cls-14" d="M2207.77,5091.46c-15.09,4.16-29.53,9.73-43.6,15.89-3.17,1.46-.44,5.58,2.77,4.16,13.71-6.09,27.63-11.52,42.25-15.53,3.43-.73,1.97-5.4-1.42-4.52h0Z"/>
  <path class="cls-14" d="M2121.82,5125.84c-13.93,6.16-26.9,13.63-39.33,21.73-2.84,1.82-.07,6.09,2.77,4.16,12.54-8.06,25.44-15.57,39.33-21.73,3.24-1.31,.4-5.54-2.77-4.16h0Z"/>
  <path class="cls-14" d="M2043.37,5176.8c-13.93,6.6-26.76,14.62-39.15,23.18-2.77,1.93,1.17,5.29,3.94,3.46,12.07-8.27,24.61-16,38.06-22.42,3.06-1.57,.29-5.69-2.84-4.23h0Z"/>
  <path class="cls-14" d="M1963.32,5233.01c-11.92,8.82-22.6,18.74-32.59,29.16-2.26,2.41,1.57,5.8,3.94,3.46,10.06-10.43,20.74-20.34,32.59-29.16,2.66-2.08-1.28-5.47-3.94-3.46h0Z"/>
  <path class="cls-14" d="M1901.57,5290.57c-11.3,9.73-21.18,20.56-30.47,31.71-2.08,2.55,2.7,4.88,4.78,2.41,9.04-10.86,18.66-21.29,29.64-30.73,2.48-2.08-1.42-5.54-3.94-3.39h0Z"/>
  <path class="cls-14" d="M1839.56,5349.62c-10.35,10.5-19.28,21.91-27.52,33.68-1.86,2.7,2.88,5.1,4.78,2.41,7.98-11.52,16.55-22.6,26.57-32.73,2.41-2.22-1.49-5.69-3.83-3.35h0Z"/>
  <path class="cls-14" d="M1787.18,5415.53c-10.35,10.5-19.28,21.91-27.52,33.68-1.86,2.7,2.88,5.1,4.78,2.41,7.98-11.52,16.55-22.6,26.57-32.73,2.41-2.19-1.46-5.69-3.83-3.35h0Z"/>
  <path class="cls-14" d="M1809.71,5620.03c-15.53-2.77-31.17-3.94-46.99-4.34-3.5-.07-3.5,4.78,0,4.85,15.31,.51,30.47,1.49,45.49,4.19,3.5,.55,4.99-4.05,1.49-4.7h0Z"/>
  <path class="cls-14" d="M1917.64,5644.23c-14.47-5.5-29.53-9.59-44.87-12.94-3.46-.77-4.88,3.94-1.46,4.7,14.84,3.24,29.53,7.04,43.56,12.39,3.24,1.31,6.01-2.84,2.77-4.16h0Z"/>
  <path class="cls-14" d="M2010.56,5688.01c-12.61-7.98-26.21-14.54-40.13-20.6-3.17-1.39-5.91,2.84-2.77,4.16,14,5.98,27.56,12.61,40.13,20.6,2.88,1.82,5.65-2.33,2.77-4.16h0Z"/>
  <path class="cls-14" d="M2084.78,5745.9c-10.17-10.35-21.73-19.5-33.72-28.21-2.7-2-6.6,1.46-3.94,3.46,11.99,8.68,23.51,17.86,33.72,28.21,2.37,2.33,6.23-1.17,3.94-3.46h0Z"/>
  <path class="cls-14" d="M2119.05,5786.51c11.05,9.92,23.29,18.59,36.12,26.76,2.88,1.82,5.58-2.41,2.77-4.16-12.32-7.91-24.24-16.4-34.92-26.06-2.55-2.26-6.38,1.28-3.97,3.46h0Z"/>
  <path class="cls-14" d="M2203.22,5843.16c13.78,6.78,28.32,12.07,43.23,16.77,3.39,1.13,4.85-3.65,1.46-4.7-14.4-4.52-28.54-9.73-41.85-16.26-3.13-1.53-5.98,2.59-2.84,4.19h0Z"/>
  <path class="cls-14" d="M2300.84,5878.66c15.38,3.03,30.91,4.96,46.55,6.42,3.5,.26,3.5-4.52,0-4.85-15.09-1.46-30.22-3.32-45.09-6.27-3.5-.69-4.96,4.08-1.46,4.7h0Z"/>
  <path class="cls-14" d="M2405.64,5889.82c15.46,1.02,30.91,1.02,46.37,.51,3.5-.07,3.57-4.96,0-4.85-15.53,.51-30.95,.55-46.37-.51-3.61-.18-3.54,4.63,0,4.85h0Z"/>
  <path class="cls-14" d="M2573.87,5901.12c-16.88-4.7-34.19-7.98-51.62-10.68-3.46-.55-4.96,4.16-1.46,4.7,17.46,2.7,34.74,5.98,51.62,10.68,3.46,.87,4.92-3.83,1.46-4.7h0Z"/>
  <path class="cls-14" d="M2672.91,5944.82c-14.07-9.44-29.02-17.72-44.4-25.44-3.03-1.57-5.83,2.62-2.77,4.16,15.38,7.73,30.33,16,44.4,25.44,2.77,1.9,5.54-2.3,2.77-4.16h0Z"/>
  <path class="cls-14" d="M2760.43,6008.29c-11.92-11.52-25.01-21.98-38.57-31.97-2.7-2-6.6,1.46-3.94,3.46,13.56,9.99,26.57,20.49,38.57,31.97,2.44,2.33,6.27-1.09,3.94-3.46h0Z"/>
  <path class="cls-14" d="M2755.08,7129.05c15.57-7.29,30.4-15.89,44.8-24.93,2.84-1.82,.15-5.98-2.77-4.16-14.4,9.11-29.16,17.64-44.8,24.93-3.1,1.46-.33,5.65,2.77,4.16h0Z"/>
  <path class="cls-14" d="M2643.97,7167.43c17.02-4.85,33.61-10.61,50.2-16.77,3.24-1.24,.51-5.39-2.77-4.16-16.08,5.98-32.22,11.52-48.88,16.26-3.32,.95-1.86,5.61,1.46,4.67h0Z"/>
  <path class="cls-14" d="M2536.21,7196.3c17.46-2.41,34.67-5.8,51.76-9.59,3.46-.77,1.93-5.47-1.46-4.7-17.17,3.79-34.38,7.18-51.76,9.55-3.5,.55-2.04,5.21,1.46,4.74h0Z"/>
  <path class="cls-14" d="M2415.95,7201.08c17.57,.88,35.29,.88,52.93,.44,3.5-.07,3.57-4.88,0-4.85-17.64,.51-35.29,.51-52.93-.44-3.57-.26-3.57,4.63,0,4.85h0Z"/>
  <path class="cls-14" d="M2294.09,7190.61c17.35,2.62,34.74,4.96,52.2,7.22,3.46,.51,4.96-4.19,1.46-4.7-17.46-2.19-34.89-4.52-52.2-7.22-3.46-.58-4.88,4.12-1.46,4.7h0Z"/>
  <path class="cls-14" d="M2230.59,7177.16c-17.64-2.33-35.43-4.16-53.22-5.72-3.5-.26-3.5,4.52,0,4.85,17.28,1.49,34.59,3.32,51.76,5.5,3.54,.51,4.92-4.19,1.46-4.63h0Z"/>
  <path class="cls-14" d="M2126.55,7164.95c-17.64-2.19-35.43-4.01-53.22-5.5-3.5-.26-3.5,4.52,0,4.85,17.28,1.46,34.59,3.17,51.76,5.39,3.35,.36,4.92-4.27,1.46-4.74h0Z"/>
  <path class="cls-14" d="M2019.46,7160.32c-17.46,2.41-34.74,5.39-51.95,8.6-3.46,.69-2,5.29,1.46,4.7,17.21-3.17,34.59-6.16,51.95-8.6,3.5-.47,2.04-5.1-1.46-4.7h0Z"/>
  <path class="cls-14" d="M1919.25,7186.02c-16.19,6.2-32.11,12.83-47.94,19.72-3.17,1.39-.44,5.58,2.77,4.16,15.86-6.85,31.79-13.52,47.94-19.72,3.28-1.17,.44-5.36-2.77-4.16h0Z"/>
  <path class="cls-14" d="M1827.82,7229.04c-14.76,8.53-29.09,17.53-43.27,26.76-2.84,1.82-.15,6.09,2.77,4.16,14.18-9.19,28.58-18.15,43.27-26.76,2.95-1.68,.18-5.83-2.77-4.16h0Z"/>
  <path class="cls-23" d="M0,5386.67c46.73-31.64,131.49-90.37,231.04-113.44,207.31-48.12,318.31,48.81,527.07,22.82,82.02-10.17,198.08-39.44,330.85-127.51v-139.14c-197.57,119.38-353.74,138.78-461.42,133.38-139.83-7.04-231.99-57.56-385.93-30.58-108.56,18.96-189.96,66.45-241.5,103.27v151.21h-.11Z"/>
  <path class="cls-14" d="M1006.35,5155.2c15.57-7.29,30.4-15.89,44.8-24.93,2.84-1.82,.15-5.98-2.77-4.16-14.4,9.11-29.16,17.64-44.8,24.93-3.13,1.49-.29,5.69,2.77,4.16h0Z"/>
  <path class="cls-14" d="M4122.25,12114.46c45.52-12.96,89.88-28.37,134.23-44.84,8.68-3.31,1.36-14.43-7.41-11.11-42.99,15.99-86.17,30.8-130.72,43.48-8.97,2.54-5.07,15.11,3.9,12.48h0Z"/>
  <path class="cls-14" d="M770.21,5159.5c17.46-2.41,34.67-5.8,51.76-9.59,3.46-.77,1.93-5.47-1.46-4.7-17.17,3.79-34.38,7.18-51.76,9.59-3.5,.51-2.11,5.21,1.46,4.7h0Z"/>
  <path class="cls-14" d="M649.88,5164.27c17.57,.88,35.29,.88,52.93,.44,3.5-.07,3.57-4.88,0-4.85-17.64,.51-35.29,.51-52.93-.44-3.57-.18-3.57,4.63,0,4.85h0Z"/>
  <path class="cls-14" d="M528.09,5153.77c17.35,2.62,34.74,4.96,52.2,7.22,3.46,.51,4.96-4.19,1.46-4.7-17.46-2.19-34.89-4.52-52.2-7.22-3.46-.44-4.96,4.16-1.46,4.7h0Z"/>
  <path class="cls-14" d="M464.63,5140.32c-17.64-2.33-35.43-4.16-53.22-5.72-3.5-.26-3.5,4.52,0,4.85,17.28,1.49,34.59,3.32,51.76,5.5,3.46,.55,4.92-4.12,1.46-4.63h0Z"/>
  <path class="cls-14" d="M360.48,5128.15c-17.64-2.19-35.43-4.01-53.22-5.5-3.5-.26-3.5,4.52,0,4.85,17.28,1.46,34.59,3.17,51.76,5.39,3.46,.36,4.96-4.26,1.46-4.74h0Z"/>
  <path class="cls-14" d="M253.42,5123.52c-17.46,2.41-34.74,5.39-51.95,8.6-3.46,.69-2,5.29,1.46,4.7,17.21-3.17,34.59-6.16,51.95-8.6,3.54-.51,2-5.1-1.46-4.7h0Z"/>
  <path class="cls-14" d="M153.21,5149.25c-16.19,6.2-32.11,12.83-47.94,19.72-3.17,1.39-.44,5.58,2.77,4.16,15.86-6.85,31.79-13.52,47.94-19.72,3.28-1.2,.47-5.43-2.77-4.16h0Z"/>
  <path class="cls-14" d="M1893.51,12110.86c-39.48,22.81-77.79,46.89-115.71,71.55-7.6,4.87-.39,16.28,7.41,11.11,37.92-24.57,76.43-48.55,115.71-71.55,7.7-4.39,.29-15.7-7.41-11.11h0Z"/>
  <g id="mand">
    <g id="mand-2">
      <g id="Group_106" data-name="Group 106">
        <g class="cls-8">
          <g id="Group_105" data-name="Group 105">
            <path id="Path_287" data-name="Path 287" class="cls-26" d="M2589.11,3642.58s-9.08-8.75-14.03-2c-3.43,4.7,.77,9.33,3.68,11.74,.11,.07,.22,.18,.33,.26,.07,.04,.18,.15,.29,.22,.15,.11,.29,.22,.33,.26,.84,.62,1.39,.95,1.39,.95,0,0,5.21,1.35,1.13,5.76,0,0-3.03,2.26,6.89,4.59,0,0,8.2,1.9,.58,6.23-7.58,4.3,.8,5.43,.8,5.43,0,0,11.01-5.43,10.46,.55,0,0-10.21,15.16,2.19,9.66,12.39-5.5,12.47-7.29,12.47-7.29,2.37-3.17,2.62-7.47,.69-10.9,0,0,6.71-12.43,0-18.15,0,0-.33-2.44-10.83-2.37,0,0-.8-5.76-7.58-7.51-6.78-1.64-8.79,2.59-8.79,2.59"/>
            <path id="Path_288" data-name="Path 288" class="cls-13" d="M2580.15,3652.31s-17.72,17.17-12.69,17.57c5.03,.4-3.68,12.72-3.68,12.72,0,0-3.28,4.45,4.59,4.99,4.45,1.39,9.08,2.19,13.78,2.33h.22c7.04,.04,14.03-2.88,14.03-2.88l1.28-1.09s-1.97-.33,3.68-9.51c0,0,.91-4.52-5.03-2.7s-10.24,2.95-8.79-1.42c0,0,9.37-5.18,4.3-7.47s-12.14-2.92-8.68-5.91-1.06-5.25-3.03-6.63"/>
            <path id="Path_289" data-name="Path 289" class="cls-20" d="M2576.43,3702.9s14.47,2.84,24.24-4.23c0,0-6.12,64.67-5.14,68.42l.66,12.03s8.89,13.78,8.02,16.66c-.87,2.84-1.28,14.62-.55,21.54,.77,6.96,1.57,5.5,.55,12.43-1.06,6.93-1.49,11.26-1.49,11.26,0,0-.51,7.8,4.48,10.57,4.99,2.77-41.37,1.28-41.37,1.28l10.61-149.97Z"/>
            <path id="Path_290" data-name="Path 290" class="cls-13" d="M2581.75,3688.98s-4.92,13.45-6.63,15.24,22.13,1.6,28.98-5.07l.84-14.62-23.18,4.45Z"/>
            <path id="Path_291" data-name="Path 291" class="cls-24" d="M2576.43,3758.57c4.45,6.2-4.81,87.78-4.81,87.78,0,0-2.33,5.69-8.42,7.87s-17.75-12.21-17.75-12.21c0,0-5.4-19.21,4.05-53.88,9.44-34.63,3.21-32.63,3.21-32.63,0,0-14.4,12.36-35.36,18.48-20.96,6.12-23.44-8.02-23.44-8.02-5.4-2.19,19.94-61.71,29.67-66.09,9.73-4.37,19.36,10.21,19.36,10.21,0,0-42.5,58.51-17.02,30.69,25.48-27.81,50.52-37.69,50.52-37.69,0,0-2.3,52.27,0,55.48"/>
            <path id="Path_292" data-name="Path 292" class="cls-6" d="M2576.43,3758.57c4.45,6.2-4.81,87.78-4.81,87.78,0,0-2.33,5.69-8.42,7.87s-17.75-12.21-17.75-12.21c0,0-5.4-19.21,4.05-53.88,9.44-34.63,3.21-32.63,3.21-32.63,0,0-14.4,12.36-35.36,18.48-20.96,6.12-23.44-8.02-23.44-8.02-5.4-2.19,19.94-61.71,29.67-66.09,9.73-4.37,19.36,10.21,19.36,10.21,0,0-42.5,58.51-17.02,30.69,25.48-27.81,50.52-37.69,50.52-37.69,0,0-2.3,52.27,0,55.48Z"/>
            <path id="Path_293" data-name="Path 293" class="cls-24" d="M2600.71,3698.64s-8.71,72.25-3.65,82.89c5.07,10.61,4.52,25.92,7,38.13,2.48,12.21-6.23,24.61,2.88,31.71,9.15,7.14,31.86,17.61,31.86,17.61,0,0,9.04-25.48,2.88-53.26-6.12-27.81-2.33-35.8-2.33-35.8l12.36,15.13s-17.17,55.15-33.03,65.8l19.36,8.89,32.88-52.97s13.56-19.36,0-37.15c0,0-37.4-71.34-46.15-72.32,.11,.04-12.43-8.6-24.06-8.68"/>
            <path id="Path_294" data-name="Path 294" class="cls-13" d="M2529.99,3699.7s12.28-27.85,17.83-24.64c5.5,3.21-8.89,17.28-8.89,17.28,0,0,25.04,.33,.62,14.11l-9.55-6.74Z"/>
            <path id="Path_295" data-name="Path 295" class="cls-24" d="M2634.75,3861.07l3.35,160.39c.07,2.08-1.24,3.79-2.84,3.79h-21.43c-1.42,0-2.62-1.35-2.81-3.17l-17.42-161.71c-.36-3.32-3.68-4.34-5.14-1.57l-3.94,7.55c-.15,.26-.26,.55-.33,.84-.04,.11-.07,.18-.07,.33-.11,.4-.22,.84-.33,1.28-4.45,18.04-10.17,74.95-10.94,82.57-.07,.58,0,1.13,.15,1.68l14.36,53.77c.36,1.35,.07,2.77-.73,3.9l-14.29,17.24c-1.42,1.75-3.75,1.09-4.52-1.24l-20.92-61.97c-.18-.44-.4-.87-.69-1.28-4.63-6.09,.77-97.88,1.9-116.65,.11-1.9,1.35-3.35,2.77-3.39l80.34-1.2c.95,.04,1.86,.58,2.3,1.46,.33,.58,.55,1.31,.58,2l.66,15.38Z"/>
            <path id="Path_296" data-name="Path 296" class="cls-5" d="M2634.75,3861.07l3.35,160.39c.07,2.08-1.24,3.79-2.84,3.79h-21.43c-1.42,0-2.62-1.35-2.81-3.17l-17.42-161.71c-.36-3.32-3.68-4.34-5.14-1.57l-3.94,7.55c-.15,.26-.26,.55-.33,.84-.04,.11-.07,.18-.07,.33-.11,.4-.22,.84-.33,1.28-4.45,18.04-10.17,74.95-10.94,82.57-.07,.58,0,1.13,.15,1.68l14.36,53.77c.36,1.35,.07,2.77-.73,3.9l-14.29,17.24c-1.42,1.75-3.75,1.09-4.52-1.24l-20.92-61.97c-.18-.44-.4-.87-.69-1.28-4.63-6.09,.77-97.88,1.9-116.65,.11-1.9,1.35-3.35,2.77-3.39l80.34-1.2c1.49-.04,2.77,1.49,2.88,3.43l.66,15.42Z"/>
            <path id="Path_297" data-name="Path 297" class="cls-26" d="M2567.5,4012.79s-28.8,6.2-31.57,15.97c-2.77,9.77,11.99,5.83,11.99,5.83,0,0,29.53-7.25,33.21-8.75s8.06-4.96,8.06-4.96c0,0,7.98-3.35,3.32-9.22-4.63-5.91-25.01,1.13-25.01,1.13"/>
            <path id="Path_298" data-name="Path 298" class="cls-4" d="M2567.5,4012.79s-28.8,6.2-31.57,15.97c-2.77,9.77,11.99,5.83,11.99,5.83,0,0,29.53-7.25,33.21-8.75s8.06-4.96,8.06-4.96c0,0,7.98-3.35,3.32-9.22-4.63-5.91-25.01,1.13-25.01,1.13Z"/>
            <path id="Path_299" data-name="Path 299" class="cls-26" d="M2617.26,4020.66s-29.45-.47-34.34,8.42c-4.88,8.93,10.35,8.38,10.35,8.38,0,0,30.4-.4,34.3-.98,3.94-.62,8.97-2.99,8.97-2.99,0,0,8.53-1.46,5.32-8.24-3.17-6.78-24.61-4.59-24.61-4.59"/>
            <path id="Path_300" data-name="Path 300" class="cls-4" d="M2617.26,4020.66s-29.45-.47-34.34,8.42c-4.88,8.93,10.35,8.38,10.35,8.38,0,0,30.4-.4,34.3-.98,3.94-.62,8.97-2.99,8.97-2.99,0,0,8.53-1.46,5.32-8.24-3.17-6.78-24.61-4.59-24.61-4.59Z"/>
            <path id="Path_301" data-name="Path 301" class="cls-26" d="M2553.9,3958.62v-85.7h122.85v85.7h-122.85Z"/>
            <path id="Path_302" data-name="Path 302" class="cls-2" d="M2553.9,3958.62v-85.7h122.85v85.7h-122.85Z"/>
            <path id="Path_303" data-name="Path 303" class="cls-26" d="M2592.98,3874.71c4.23-4.56,9.73-7.73,15.75-9.19,14.84-3.46,29.27,6.49,28.91,7.58-.18,.62-5.47-1.75-14.54-2.52-10.21-.8-20.49,.62-30.11,4.12"/>
            <path id="Path_304" data-name="Path 304" class="cls-2" d="M2592.98,3874.71c4.23-4.56,9.73-7.73,15.75-9.19,14.84-3.46,29.27,6.49,28.91,7.58-.18,.62-5.47-1.75-14.54-2.52-10.21-.8-20.49,.62-30.11,4.12Z"/>
            <path id="Path_305" data-name="Path 305" class="cls-13" d="M2621.05,3862.13s-17.42,.36-13.41,8.57c4.01,8.2,27.27-2.41,27.27-2.41l-13.85-6.16Z"/>
            <path id="Path_673" data-name="Path 673" class="cls-24" d="M2571.43,3842.26s-20.19-3.17-22.82,1.64,23.62,0,23.62,0l-.8-1.64Z"/>
          </g>
        </g>
      </g>
      <text class="cls-12" transform="translate(2557.93 3935.29)"><tspan x="0" y="0">17 ton CO</tspan></text>
      <text class="cls-10" transform="translate(2654.26 3942.6)"><tspan x="0" y="0">2</tspan></text>
    </g>
    <path id="Path_674" data-name="Path 674" class="cls-24" d="M2600.63,3852.03s31.82-3.83,36.09,0c4.3,3.83-.33,28.11-.33,28.11l-1.75-.58-2.26-24.86-32.15-.87,.4-1.79Z"/>
  </g>
  <g class="cls-32">
    <g id="røg">
      <path id="Path_672" data-name="Path 672" class="cls-14" d="M2507.26,2817.88c25.19-38.78,11.73-92.23-30.05-119.37-8.75-5.68-18.4-9.91-28.51-12.48,3.18-31.81-20.01-60.18-51.82-63.36-31.81-3.18-60.18,20.01-63.36,51.82-.23,2.37-.33,4.79-.27,7.18-33.79-9.51-69.4,7.63-83.08,39.93-.31-.2-.59-.43-.87-.61-26.96-17.55-63.06-9.91-80.61,17.05-16.54,25.4-10.83,59.25,13.13,77.81-36.13,11.1-56.42,49.37-45.32,85.5,11.1,36.13,49.37,56.42,85.5,45.32,4.18-1.28,8.25-2.99,12.11-5.05,.57,2.94,1.32,5.86,2.27,8.69-15.25,3.05-28.58,12.14-37.05,25.16-2.24,3.46-4.12,7.15-5.57,10.99-24.96-4.43-48.76,12.2-53.19,37.16s12.2,48.76,37.16,53.19c17.12,3.03,34.48-3.87,44.83-17.8,28.68,14.02,63.3,2.11,77.32-26.58,5.75-11.79,7.34-25.15,4.48-37.97,34.78-3.2,60.89-33.21,59.14-68.09,38.2,5.94,73.93-20.21,79.88-58.36,.71-4.58,.97-9.2,.76-13.82,25.39-1.86,48.9-14.42,63.12-36.32"/>
    </g>
  </g>
  <g id="lille_faktaboks" data-name="lille faktaboks">
    <path id="Rectangle_122-2" data-name="Rectangle 122-2" class="cls-9" d="M1892.77,3987.84h502.54c5.91,0,10.72,4.78,10.72,10.72v157.88c0,5.91-4.78,10.72-10.72,10.72h-502.54c-5.91,0-10.72-4.78-10.72-10.72v-157.88c0-5.91,4.81-10.72,10.72-10.72Z"/>
  </g>
  <g id="skilt">
    <g id="Group_191" data-name="Group 191">
      <g class="cls-35">
        <g id="Group_190" data-name="Group 190">
          <path id="Path_689" data-name="Path 689" class="cls-24" d="M2440.89,355.62v-63.87c0-2.73-4.26-2.73-4.26,0v63.87c0,2.73,4.26,2.73,4.26,0"/>
          <path id="Path_690" data-name="Path 690" class="cls-11" d="M2438.88,291.9l58.76,34.08-.47,43.31-58.18-29.31-.11-48.08Z"/>
          <path id="Path_691" data-name="Path 691" class="cls-24" d="M2499.07,385.43v-59.89c0-2.73-4.26-2.73-4.26,0v59.89c0,2.73,4.26,2.73,4.26,0"/>
        </g>
      </g>
    </g>
    <path id="Path_692" data-name="Path 692" class="cls-24" d="M2454.85,323.17v-4.81l20.67,12.03v-2.41l5.76,7.22-5.76,2.41v-2.41l-20.67-12.03Z"/>
    <path id="Path_693" data-name="Path 693" class="cls-24" d="M2454.85,338.08l3.35,1.93v-14.87l-3.35-1.97v14.91Z"/>
  </g>
  <g id="elbil">
    <g class="cls-34">
      <g id="elbil-2">
        <path id="Path_550" data-name="Path 550" class="cls-17" d="M2046.5,364.87c.72-13.8-9.87-25.56-23.66-26.28-13.8-.72-25.56,9.87-26.28,23.66-.72,13.8,9.87,25.56,23.66,26.28h0c13.8,.72,25.56-9.87,26.28-23.66"/>
        <path id="Path_551" data-name="Path 551" class="cls-17" d="M2163.97,371.03c.72-13.8-9.87-25.56-23.66-26.28-13.8-.72-25.56,9.87-26.28,23.66-.72,13.8,9.87,25.56,23.66,26.28h0c13.8,.72,25.56-9.87,26.28-23.66"/>
        <path id="Path_552" data-name="Path 552" class="cls-17" d="M2125.92,344.03c1.38-26.32-18.8-48.77-45.12-50.15-26.32-1.38-48.77,18.8-50.15,45.12-1.38,26.32,18.8,48.77,45.12,50.15h.04c26.28,1.38,48.73-18.83,50.11-45.12h0"/>
        <rect id="Rectangle_110" data-name="Rectangle 110" class="cls-17" x="2055.99" y="307.16" width="49.98" height="119.09" transform="translate(1605.88 2425.64) rotate(-87)"/>
        <path id="Path_553" data-name="Path 553" class="cls-24" d="M2038.81,339.46s8.92-38.59,41.32-33.5,33.35,21.79,35.19,37.51l-76.52-4.01Z"/>
        <path id="Path_554" data-name="Path 554" class="cls-16" d="M2161.74,359.3c-3.44-7.48-10.32-12.77-18.42-14.18-3.5,5.4-1.98,12.64,3.43,16.13,4.8,3.14,11.16,2.3,15-1.95"/>
        <line id="Line_71" data-name="Line 71" class="cls-1" x1="2080.33" y1="302.95" x2="2077.84" y2="350.45"/>
        <path id="Path_575" data-name="Path 575" class="cls-3" d="M2080.33,302.95l-2.49,47.51"/>
        <path id="Path_555" data-name="Path 555" class="cls-18" d="M1998.03,355.03l13.4,.7c1.38,.07,2.53-1,2.64-2.38l.51-9.76c.07-1.38-1-2.57-2.38-2.64l-1.24-.06c-5.99,2.83-10.67,7.91-12.93,14.14"/>
        <path id="Path_556" data-name="Path 556" class="cls-22" d="M2129.72,394.2c-.53,10.19-9.23,18.06-19.43,17.53-10.19-.53-18.06-9.23-17.53-19.43s9.23-18.06,19.43-17.53h0c10.23,.54,18.06,9.23,17.53,19.43"/>
        <path id="Path_557" data-name="Path 557" class="cls-19" d="M2112.23,374.78c10.19,.53,18.02,9.23,17.53,19.43l5.64,.3c.7-13.32-9.55-24.7-22.87-25.4-13.32-.7-24.7,9.55-25.4,22.87l5.64,.3c.53-10.19,9.23-18.02,19.46-17.49"/>
        <path id="Path_558" data-name="Path 558" class="cls-22" d="M2057.16,390.55c-.53,10.19-9.23,18.06-19.43,17.53s-18.06-9.23-17.53-19.43,9.23-18.06,19.43-17.53h0c10.23,.54,18.06,9.23,17.53,19.43"/>
        <path id="Path_559" data-name="Path 559" class="cls-19" d="M2039.67,371.12c10.19,.53,18.02,9.23,17.49,19.42l5.64,.3c.7-13.32-9.55-24.7-22.87-25.4-13.32-.7-24.7,9.55-25.4,22.87h0l5.64,.3c.57-10.19,9.27-18.02,19.5-17.49"/>
      </g>
    </g>
  </g>
  <text class="cls-28" transform="translate(1919.61 4052.66)"><tspan x="0" y="0">FN’s klimapanel mene</tspan><tspan class="cls-41" x="222.74" y="0">r</tspan><tspan x="229.5" y="0" xml:space="preserve">, at dette skal helt  </tspan><tspan x="0" y="26.77">ned på 2</tspan><tspan class="cls-7" x="86.06" y="26.77">-</tspan><tspan x="92.73" y="26.77">3 tons </tspan><tspan class="cls-37" x="161.32" y="26.77">C</tspan><tspan x="173.66" y="26.77">O2, </tspan><tspan class="cls-38" x="211.45" y="26.77">f</tspan><tspan x="219.37" y="26.77">or at være med til at </tspan><tspan x="0" y="53.55">sæn</tspan><tspan class="cls-31" x="42.33" y="53.55">k</tspan><tspan x="53.37" y="53.55">e den globale o</tspan><tspan class="cls-39" x="209.09" y="53.55">p</tspan><tspan class="cls-40" x="221.38" y="53.55">v</tspan><tspan x="231.94" y="53.55">armning</tspan></text>
  <g class="cls-33">
    <g id="røg-2" data-name="røg">
      <path id="Path_672-2" data-name="Path 672" class="cls-14" d="M2471.62,3769.83c17.6-27.1,8.2-64.45-20.99-83.41-6.13-3.97-12.86-6.91-19.93-8.71,2.23-22.22-13.98-42.04-36.2-44.28-22.22-2.23-42.04,13.98-44.28,36.2-.17,1.67-.23,3.34-.19,5.01-23.62-6.64-48.49,5.32-58.05,27.91-.21-.14-.4-.3-.61-.44-18.84-12.26-44.05-6.93-56.31,11.91-11.55,17.75-7.56,41.39,9.17,54.36-25.25,7.75-39.43,34.5-31.67,59.75,7.75,25.25,34.5,39.43,59.75,31.67,2.93-.9,5.77-2.08,8.47-3.52,.39,2.06,.93,4.09,1.6,6.08-10.65,2.13-19.98,8.47-25.89,17.59-1.56,2.42-2.87,4.99-3.89,7.68-17.43-3.09-34.07,8.53-37.17,25.97-3.09,17.43,8.53,34.07,25.97,37.17,11.96,2.12,24.08-2.7,31.33-12.44,20.05,9.79,44.24,1.47,54.03-18.57,4.02-8.23,5.12-17.59,3.13-26.53,24.3-2.22,42.53-23.2,41.33-47.57,26.67,4.15,51.66-14.11,55.81-40.79,.5-3.19,.68-6.43,.53-9.66,17.68-1.31,34.12-10.06,44.06-25.37"/>
    </g>
  </g>
  <g id="brændstofsbil">
    <rect id="Rectangle_112" data-name="Rectangle 112" class="cls-30" x="2164" y="3932.17" width="7.71" height="24.84" transform="translate(-2117.91 5319.95) rotate(-79)"/>
    <g id="Group_170" data-name="Group 170">
      <g class="cls-36">
        <g id="Group_169" data-name="Group 169">
          <path id="Path_561" data-name="Path 561" class="cls-24" d="M2133.21,3932.91c2.23-11.49,13.81-18.91,25.86-16.56,12.05,2.34,20,13.55,17.77,25.04-2.23,11.49-13.81,18.91-25.86,16.56-12.05-2.34-20-13.55-17.77-25.04"/>
          <path id="Path_562" data-name="Path 562" class="cls-24" d="M2030.6,3912.96c2.23-11.49,13.81-18.91,25.86-16.56,12.05,2.34,20,13.55,17.77,25.04-2.23,11.49-13.81,18.91-25.86,16.56-12.05-2.34-20-13.55-17.77-25.04"/>
          <path id="Path_563" data-name="Path 563" class="cls-24" d="M2069.03,3898.84c4.26-21.91,26.33-36.05,49.31-31.59,22.97,4.47,38.14,25.85,33.88,47.76-4.26,21.91-26.33,36.05-49.31,31.59-22.97-4.47-38.14-25.85-33.88-47.76"/>
          <path id="Path_573" data-name="Path 573" class="cls-24" d="M2159.06,3916.34l-103.85-20.19-8.09,41.61,103.85,20.19,8.09-41.61Z"/>
          <path id="Path_564" data-name="Path 564" class="cls-9" d="M2145.1,3913.63s.31-33.62-28.72-36.33c-29.03-2.71-33.28,10.82-38.11,23.34l66.83,12.99Z"/>
          <path id="Path_565" data-name="Path 565" class="cls-15" d="M2034.98,3903.8c4.66-5.47,11.67-8.36,18.83-7.74,.61,1.63,.75,3.4,.42,5.11-1.04,5.36-6.45,8.82-12.07,7.73-3.03-.57-5.65-2.43-7.19-5.1"/>
          <path id="Path_574" data-name="Path 574" class="cls-25" d="M2116.87,3874.78l-7.7,39.59"/>
          <path id="Path_566" data-name="Path 566" class="cls-18" d="M2177.06,3935.12l-11.7-2.27c-1.18-.2-1.98-1.33-1.78-2.51l1.58-8.12c.26-1.17,1.42-1.91,2.59-1.66l1.06,.21c4.56,3.49,7.52,8.66,8.25,14.36"/>
          <path id="Path_567" data-name="Path 567" class="cls-22" d="M2055.35,3939.3c-1.65,8.5,4.23,16.79,13.14,18.52s17.47-3.75,19.13-12.25c1.65-8.5-4.23-16.79-13.14-18.52s-17.47,3.75-19.13,12.25"/>
          <path id="Path_568" data-name="Path 568" class="cls-29" d="M2074.48,3927.05c-8.91-1.73-17.47,3.75-19.13,12.25l-4.94-.96c2.16-11.1,13.34-18.27,24.98-16.01s19.33,13.1,17.17,24.2l-4.94-.96c1.65-8.5-4.23-16.79-13.14-18.52"/>
          <path id="Path_569" data-name="Path 569" class="cls-22" d="M2118.69,3951.75c-1.65,8.5,4.23,16.79,13.14,18.52,8.91,1.73,17.47-3.75,19.13-12.25s-4.23-16.79-13.14-18.52c-8.91-1.73-17.47,3.75-19.13,12.25"/>
          <path id="Path_570" data-name="Path 570" class="cls-29" d="M2137.82,3939.49c-8.91-1.73-17.47,3.75-19.13,12.25l-4.94-.96c2.16-11.1,13.34-18.27,24.98-16.01,11.64,2.26,19.33,13.1,17.17,24.2l-4.94-.96c1.65-8.5-4.23-16.79-13.14-18.52"/>
        </g>
      </g>
    </g>
  </g>
  <text class="cls-27" transform="translate(2264.41 3739.73)"><tspan x="0" y="0">En gennemsnitlig person </tspan><tspan x="5.84" y="19.3">udleder 17 tons CO2 om </tspan><tspan x="60" y="38.59">måneden</tspan></text>
  <path class="cls-23" d="M1739.17,8496.87c46.73-31.64,131.49-90.37,231.04-113.44,207.31-48.12,318.31,48.81,527.07,22.82,82.02-10.21,198.09-39.44,330.85-127.51v-139.14c-197.57,119.38-353.74,138.78-461.42,133.38-139.83-7.04-231.99-57.56-385.93-30.58-108.56,19.03-189.96,66.53-241.5,103.34v151.21h-.11v-.07Z"/>
  <path class="cls-14" d="M2745.56,8265.43c15.57-7.29,30.4-15.89,44.8-24.93,2.84-1.82,.15-5.98-2.77-4.16-14.4,9.11-29.16,17.64-44.8,24.93-3.1,1.46-.33,5.65,2.77,4.16h0Z"/>
  <path class="cls-14" d="M2634.45,8303.82c17.02-4.85,33.61-10.61,50.2-16.77,3.24-1.24,.51-5.39-2.77-4.16-16.08,5.98-32.22,11.52-48.88,16.26-3.32,.95-1.86,5.61,1.46,4.67h0Z"/>
  <path class="cls-14" d="M2526.7,8332.69c17.46-2.41,34.67-5.8,51.76-9.59,3.46-.77,1.93-5.47-1.46-4.7-17.17,3.79-34.38,7.18-51.76,9.55-3.5,.55-2.04,5.21,1.46,4.74h0Z"/>
  <path class="cls-14" d="M2406.44,8337.46c17.57,.88,35.29,.88,52.93,.44,3.5-.07,3.57-4.88,0-4.85-17.64,.51-35.29,.51-52.93-.44-3.57-.26-3.57,4.63,0,4.85h0Z"/>
  <path class="cls-14" d="M2284.58,8327c17.35,2.62,34.74,4.96,52.2,7.22,3.46,.51,4.96-4.19,1.46-4.7-17.46-2.19-34.89-4.52-52.2-7.22-3.46-.58-4.88,4.12-1.46,4.7h0Z"/>
  <path class="cls-14" d="M2221.08,8313.55c-17.64-2.33-35.43-4.16-53.22-5.72-3.5-.26-3.5,4.52,0,4.85,17.28,1.49,34.59,3.32,51.76,5.5,3.54,.51,4.92-4.19,1.46-4.63h0Z"/>
  <path class="cls-14" d="M2117.04,8301.34c-17.64-2.19-35.43-4.01-53.22-5.5-3.5-.26-3.5,4.52,0,4.85,17.28,1.46,34.59,3.17,51.76,5.39,3.35,.36,4.92-4.27,1.46-4.74h0Z"/>
  <path class="cls-14" d="M2009.94,8296.71c-17.46,2.41-34.74,5.39-51.95,8.6-3.46,.69-2,5.29,1.46,4.7,17.21-3.17,34.59-6.16,51.95-8.6,3.5-.47,2.04-5.1-1.46-4.7h0Z"/>
  <path class="cls-14" d="M1909.73,8322.41c-16.19,6.2-32.11,12.83-47.94,19.72-3.17,1.39-.44,5.58,2.77,4.16,15.86-6.85,31.79-13.52,47.94-19.72,3.28-1.17,.44-5.36-2.77-4.16h0Z"/>
  <path class="cls-14" d="M1818.31,8365.42c-14.76,8.53-29.09,17.53-43.27,26.76-2.84,1.82-.15,6.09,2.77,4.16,14.18-9.19,28.58-18.15,43.27-26.76,2.95-1.68,.18-5.83-2.77-4.16h0Z"/>
  <path class="cls-23" d="M1757.22,9420.73c46.73-31.64,131.49-90.37,231.04-113.44,207.31-48.12,318.31,48.81,527.07,22.82,82.02-10.21,198.09-39.44,330.85-127.51v-139.14c-197.57,119.38-353.74,138.78-461.42,133.38-139.83-7.04-231.99-57.56-385.93-30.58-108.56,19.03-189.96,66.53-241.5,103.34v151.21h-.11v-.07Z"/>
  <path class="cls-14" d="M2763.61,9189.29c15.57-7.29,30.4-15.89,44.8-24.93,2.84-1.82,.15-5.98-2.77-4.16-14.4,9.11-29.16,17.64-44.8,24.93-3.1,1.46-.33,5.65,2.77,4.16h0Z"/>
  <path class="cls-14" d="M2652.51,9227.68c17.02-4.85,33.61-10.61,50.2-16.77,3.24-1.24,.51-5.39-2.77-4.16-16.08,5.98-32.22,11.52-48.88,16.26-3.32,.95-1.86,5.61,1.46,4.67h0Z"/>
  <path class="cls-14" d="M2544.75,9256.55c17.46-2.41,34.67-5.8,51.76-9.59,3.46-.77,1.93-5.47-1.46-4.7-17.17,3.79-34.38,7.18-51.76,9.55-3.5,.55-2.04,5.21,1.46,4.74h0Z"/>
  <path class="cls-14" d="M2424.49,9261.32c17.57,.88,35.29,.88,52.93,.44,3.5-.07,3.57-4.88,0-4.85-17.64,.51-35.29,.51-52.93-.44-3.57-.26-3.57,4.63,0,4.85h0Z"/>
  <path class="cls-14" d="M2302.63,9250.86c17.35,2.62,34.74,4.96,52.2,7.22,3.46,.51,4.96-4.19,1.46-4.7-17.46-2.19-34.89-4.52-52.2-7.22-3.46-.58-4.88,4.12-1.46,4.7h0Z"/>
  <path class="cls-14" d="M2239.13,9237.41c-17.64-2.33-35.43-4.16-53.22-5.72-3.5-.26-3.5,4.52,0,4.85,17.28,1.49,34.59,3.32,51.76,5.5,3.54,.51,4.92-4.19,1.46-4.63h0Z"/>
  <path class="cls-14" d="M2135.09,9225.2c-17.64-2.19-35.43-4.01-53.22-5.5-3.5-.26-3.5,4.52,0,4.85,17.28,1.46,34.59,3.17,51.76,5.39,3.35,.36,4.92-4.27,1.46-4.74h0Z"/>
  <path class="cls-14" d="M2028,9220.57c-17.46,2.41-34.74,5.39-51.95,8.6-3.46,.69-2,5.29,1.46,4.7,17.21-3.17,34.59-6.16,51.95-8.6,3.5-.47,2.04-5.1-1.46-4.7h0Z"/>
  <path class="cls-14" d="M1927.79,9246.27c-16.19,6.2-32.11,12.83-47.94,19.72-3.17,1.39-.44,5.58,2.77,4.16,15.86-6.85,31.79-13.52,47.94-19.72,3.28-1.17,.44-5.36-2.77-4.16h0Z"/>
  <path class="cls-14" d="M1836.36,9289.28c-14.76,8.53-29.09,17.53-43.27,26.76-2.84,1.82-.15,6.09,2.77,4.16,14.18-9.19,28.58-18.15,43.27-26.76,2.95-1.68,.18-5.83-2.77-4.16h0Z"/>
</svg>