<?xml version="1.0" encoding="UTF-8"?>
<svg id="Lag_1" data-name="Lag 1" xmlns="http://www.w3.org/2000/svg" xmlns:xlink="http://www.w3.org/1999/xlink" viewBox="0 0 2904.03 11661.07">
  <defs>
    <style>
      .cls-1, .cls-2, .cls-3, .cls-4, .cls-5, .cls-6 {
        fill: none;
      }

      .cls-7 {
        font-size: 35.13px;
      }

      .cls-7, .cls-8, .cls-9, .cls-10 {
        fill: #f8d7ee;
      }

      .cls-7, .cls-11, .cls-10, .cls-12 {
        font-family: KohinoorDevanagari-Bold, 'Kohinoor Devanagari';
        isolation: isolate;
      }

      .cls-13 {
        clip-path: url(#clippath);
      }

      .cls-14 {
        fill: #efa919;
      }

      .cls-15 {
        fill: #fff;
      }

      .cls-16 {
        fill: #ffe300;
      }

      .cls-17 {
        fill: #ffe200;
      }

      .cls-18 {
        fill: #edb92e;
      }

      .cls-19 {
        fill: #e82d41;
      }

      .cls-20 {
        fill: #e3ae21;
      }

      .cls-21 {
        fill: #edcde4;
      }

      .cls-22 {
        fill: #e4eddf;
      }

      .cls-23 {
        fill: #aeb0b3;
      }

      .cls-24 {
        fill: #cac9c9;
      }

      .cls-25, .cls-26 {
        fill: #1f4acd;
      }

      .cls-27, .cls-11, .cls-12 {
        fill: #21471d;
      }

      .cls-28 {
        fill: #5272d5;
      }

      .cls-29 {
        fill: #818080;
      }

      .cls-11 {
        font-size: 67.75px;
      }

      .cls-2 {
        stroke-width: .32px;
      }

      .cls-2, .cls-3, .cls-4, .cls-5 {
        stroke-miterlimit: 5.31;
      }

      .cls-2, .cls-4 {
        stroke: #21471d;
      }

      .cls-30 {
        clip-path: url(#clippath-1);
      }

      .cls-31 {
        clip-path: url(#clippath-4);
      }

      .cls-32 {
        clip-path: url(#clippath-3);
      }

      .cls-33 {
        clip-path: url(#clippath-2);
      }

      .cls-34 {
        clip-path: url(#clippath-5);
      }

      .cls-26 {
        stroke: #1f4acd;
        stroke-miterlimit: 4;
        stroke-width: 5px;
      }

      .cls-3 {
        stroke-width: .53px;
      }

      .cls-3, .cls-5 {
        stroke: #10418f;
      }

      .cls-4 {
        stroke-width: .63px;
      }

      .cls-9 {
        fill-rule: evenodd;
      }

      .cls-10 {
        font-size: 60.22px;
      }

      .cls-5 {
        stroke-width: .69px;
      }

      .cls-6 {
        stroke: #edb92e;
        stroke-miterlimit: 4;
        stroke-width: 5px;
      }

      .cls-12 {
        font-size: 39.52px;
      }
    </style>
    <clipPath id="clippath">
      <rect class="cls-1" x="1982.47" y="3811.69" width="505.12" height="1096.67"/>
    </clipPath>
    <clipPath id="clippath-1">
      <rect class="cls-1" x="682.13" y="3611.78" width="1399.83" height="898.2" transform="translate(-2776.28 3007.74) rotate(-56.99)"/>
    </clipPath>
    <clipPath id="clippath-2">
      <rect class="cls-1" x="-1487.63" y="3578" width="1436.22" height="921.51" transform="translate(-1708.39 35.98) rotate(-23.99)"/>
    </clipPath>
    <clipPath id="clippath-3">
      <rect class="cls-1" x="648.54" y="4041.81" width="470.58" height="800.15" transform="translate(-3645.08 4461.92) rotate(-79)"/>
    </clipPath>
    <clipPath id="clippath-4">
      <rect class="cls-1" x="1854.03" y="620.3" width="171.29" height="268.23"/>
    </clipPath>
    <clipPath id="clippath-5">
      <rect class="cls-1" x="719.11" y="561.57" width="318.86" height="459.95" transform="translate(42.1 1627.45) rotate(-87)"/>
    </clipPath>
  </defs>
  <rect class="cls-22" x="-68.8" y="-67.08" width="2955.54" height="11776.94"/>
  <path class="cls-24" d="M2933.24,572.82c-28.31,32.73-70.51,79.97-122.98,135.15-172.3,181.49-311.86,328.45-487.14,433.22-243.79,145.43-491.55,170.76-609.93,181.31-378.13,33.63-535.64-91.15-883.21-123.7-231.35-21.73-563.77-4.15-987.07,181.31v-292.3c273.55-120.45,510.31-157.33,662.59-169.77,181.49-14.79,438.81-35.7,726.69,53.28,229.19,70.87,211.07,64.46,324.22,68.97,389.31,15.69,698.56-232.34,772.85-292.12,93.41-74.83,69.69-77,311.41-309.34,122.62-117.84,227.2-211.79,298.43-274.72-1.71,136.23-3.7,272.37-5.86,408.7h0Z"/>
  <path class="cls-24" d="M3135.01,1682.7c25.34,149.76,50.94,299.51,76.46,449.27-53.1-36.15-144.35-95.3-264.71-159.58-434.21-231.62-679.63-224.23-906.56-419.61-74.29-63.74-175.9-174.55-239.74-362.62,141.73-44.81,283.46-89.62,425.29-134.43,10.82,70.32,41.56,169.77,127.58,260.92,96.2,101.7,218.01,147.32,299.42,177.53,112.16,42.01,153.36,30.65,272.73,77,94.58,37.24,164.81,80.51,209.53,111.53h0Z"/>
  <path class="cls-24" d="M3049.9,3038.44c-430.24,423.93-802.25,490.11-1054.51,492.73-286.44,3.07-471.09-107.2-928.11-68.97-173.65,14.52-362.17,62.75-585.05,114.41-343.42,79.61-544.84,173.56-732.37,240.91-6.94-116.49-14.34-232.97-21.28-349.46,108.1-42.01,259.03-96.83,443.95-152.37,162.38-48.78,296.27-89.08,480.1-121.99,99.72-17.76,317.09-51.84,594.07-51.84,336.66-.18,479.65,50.13,641.67,59.42,256.78,14.97,630.04-68.43,1126.46-518.06,11.72,118.11,23.35,236.67,35.07,355.23h0Z"/>
  <path class="cls-24" d="M3121.8,6065.64c-438.99-611.38-788.63-729.94-1032.42-718.04-199.07,10.1-392.47,110.36-660.6,10.73-202.23-75.19-188.16-168.06-411.22-270.39-304.38-139.84-454.05-23.71-711-127.49-141.91-57.25-324.13-184.74-485.78-497.5,17.49-148.67,34.62-297.35,52.11-445.75,190.69,354.15,400.94,494.62,561.52,556.38,250.19,96.38,378.85,1.62,679.09,132.45,273.64,119.01,256.6,236.58,488.67,312.41,288.51,93.86,439.8-46.7,710.01-33.36,205.75,10.1,502.82,110.99,846.51,561.52-12.53,173.11-24.7,346.03-36.88,519.05h0Z"/>
  <path class="cls-24" d="M-22.17,8009.67c553.04-789.98,1036.57-1077.32,1386.12-1189.12,165.8-52.92,411.85-101.88,740.85-268.68,200.79-101.88,347.75-204.57,646.81-325.75,144.62-58.6,268.32-98.73,351.26-123.7-9.11-119.64-18.12-239.56-27.05-359.02-107.02,8.93-274,31.92-458.28,101.16-275.08,103.05-370.02,227.11-619.58,359.02-271.11,143.54-492.55,173.92-646.81,212.87-338.46,85.47-812.25,328.63-1387.66,1033.51,4.69,186.27,9.38,373.08,14.34,559.71h0Z"/>
  <path class="cls-24" d="M3038.22,9580.35c-128.39-203.49-354.15-413.75-724.53-550.25-386.88-142.54-529.06,21.55-925.95-131-444.13-170.76-477.76-458.1-945.24-602.36-223.15-68.97-426.01-68.43-563.68-57.25-9.65-123.07-19.29-245.96-28.94-368.94,201.96-4.51,499.13,13.79,813.06,143.17,433.22,178.34,434.3,376.69,845.34,527.17,417.44,153,589.02,11.54,1006.46,188.16,249.56,105.49,421.05,254.7,523.38,358.48l.09,492.82h0Z"/>
  <path class="cls-24" d="M-55.8,10629.19c128.21-86.82,360.73-247.85,633.83-311.23,568.73-131.99,873.2,133.89,1445.9,62.57,225.04-27.95,543.4-108.19,907.55-349.82v-381.74c-542.04,327.46-970.39,380.66-1265.85,365.87-383.63-19.29-636.44-157.87-1058.66-83.94-297.8,52.2-521.13,182.48-662.5,283.46v414.83h-.27Z"/>
  <path class="cls-15" d="M2887.52,386.01c-22.18,21.55-44.72,43.1-66.9,64.83-6.58,6.4,4.6,15.87,11.36,9.47,22.18-21.55,44.72-43.1,66.9-64.83,6.58-6.4-4.78-15.87-11.36-9.47h0Z"/>
  <path class="cls-15" d="M2735.15,537.84c-25.34,24.97-50.13,50.49-73.84,76.37-6.22,6.76,7.75,13.43,13.79,6.58,22.99-25.15,46.88-49.77,71.5-73.93,6.31-5.95-4.87-15.42-11.45-9.02h0Z"/>
  <path class="cls-15" d="M2578.64,706.71c-22.99,23.8-47.69,46.34-73.84,67.71-8.75,7.21,4.6,18.3,13.61,11.36,26.33-21.37,50.94-43.91,73.84-67.71,7.75-8.2-5.77-19.29-13.61-11.36h0Z"/>
  <path class="cls-15" d="M2427.35,850.79c-25.15,24.79-53.92,46.88-86.01,65.28-10.01,5.86-.63,19.65,9.83,13.79,33.36-19.29,63.47-42.01,89.8-67.71,7.75-7.75-5.68-19.11-13.61-11.36h0Z"/>
  <path class="cls-15" d="M2225.84,991.62c-16.95,10.82-33.72,22.27-52.11,31.38-18.39,9.11-37.78,15.69-56.89,22.72-11.36,3.97-1.62,17.76,9.83,13.79,19.93-7.21,40.3-14.34,58.87-23.62,18.93-9.65,36.51-21.37,54.1-32.73,9.65-6.4-4.15-17.76-13.79-11.54h0Z"/>
  <path class="cls-15" d="M768.85,1032.82c-47.51-7.39-95.66-4.96-143.35-.18-11.99,1.35-12.17,17.22,0,16.05,45.89-4.51,92.59-7.57,138.4-.36,12.17,1.71,17.4-13.61,4.96-15.51h0Z"/>
  <polygon class="cls-15" points="2109.89 1272.38 2093.93 1260.48 2076.71 1248.58 2097.27 1242.53 2117.83 1236.67 2114.04 1253.89 2109.89 1272.38"/>
  <polygon class="cls-15" points="2201.95 1239.74 2184.55 1229.1 2165.97 1218.91 2185.72 1211.16 2205.28 1203.22 2203.75 1220.81 2201.95 1239.74"/>
  <polygon class="cls-15" points="2156.42 1257.32 2139.47 1246.14 2121.7 1235.14 2141.63 1228.2 2162.01 1221.17 2159.21 1238.57 2156.42 1257.32"/>
  <polygon class="cls-15" points="2246.21 1220.45 2228.09 1211.16 2208.53 1202.05 2227.64 1193.04 2246.49 1184.11 2246.49 1201.69 2246.21 1220.45"/>
  <path class="cls-15" d="M1968.97,1105.85c-35.16,13.97-72.49,23.8-110.63,29.66-11.99,1.89-7.03,17.22,4.96,15.33,39.94-6.04,78.62-16.68,115.22-31.38,11.18-4.33,1.35-17.94-9.56-13.61h0Z"/>
  <path class="cls-15" d="M1663.51,1162.38c-38.77,3.43-77.9,2.79-116.04-2.25-11.99-1.53-17.13,13.79-4.96,15.33,40.12,5.32,80.87,6.4,121.18,3.07,11.81-1.17,11.99-17.13-.18-16.14h0Z"/>
  <path class="cls-15" d="M1349.66,1140.02c-37.78-4.15-74.83-13.07-109.36-26.51-11-4.33-21.01,9.47-9.83,13.79,37.78,14.79,77.63,24.16,119.01,28.76,5.23,.54,9.56-3.97,9.56-7.93,.36-4.87-4.24-7.3-9.38-8.11h0Z"/>
  <path class="cls-15" d="M938.53,1065.91c38.95,3.07,77.09,10.55,113.78,21.91,11.54,3.61,16.59-11.9,4.96-15.33-38.32-11.9-78.26-19.29-119.01-22.54-11.9-.81-11.9,15.06,.27,15.96h0Z"/>
  <path class="cls-15" d="M467.62,1042.83c-19.38-.54-39.94,1.53-59.33,3.97-24.79,3.25-48.96,9.29-72.31,16.68-11.36,3.61-6.58,19.11,4.96,15.33,39.76-12.44,83.49-21.37,126.4-20.02,12.62,.36,12.62-15.69,.27-15.96h0Z"/>
  <path class="cls-15" d="M185.51,1097.92c-43.91,5.68-86.01,19.29-125.14,36.7-10.82,4.96-1.17,18.75,9.83,13.79,37.78-16.86,78.08-29.3,120.36-34.98,12.08-1.71,6.94-17.04-5.05-15.51h0Z"/>
  <path class="cls-15" d="M2208.35,1422.94c-12.35-10.55-24.97-21.37-35.97-32.91-11.36-11.9-20.56-25.15-29.93-38.05-6.4-8.66-22.99-.72-16.59,8.11,9.83,13.43,19.38,27.23,31.11,39.31,11.54,12.26,24.79,23.62,37.78,34.62,8.56,7.57,22.18-3.7,13.61-11.09h0Z"/>
  <path class="cls-15" d="M2402.37,1559.81c-15.15-7.75-30.56-15.33-44.9-24.16-14.61-9.11-27.59-19.84-40.57-30.47-8.75-7.21-22.36,3.97-13.61,11.36,13.61,11,27.14,21.91,42.1,31.56,14.97,9.47,31.11,17.4,47.15,25.52,10.64,5.32,20.2-8.47,9.83-13.79h0Z"/>
  <path class="cls-15" d="M2641.3,1646.18c-17.94-4.69-36.33-9.29-53.92-14.97-16.14-5.14-33.54-12.08-50.31-18.93-11-4.51-20.74,9.29-9.83,13.79,17.13,7.03,34.71,13.97,52.74,19.84,18.39,6.04,37.51,10.82,56.26,15.69,11.72,3.16,16.68-12.17,5.05-15.42h0Z"/>
  <path class="cls-15" d="M2753.91,1701.81c17.76,5.5,35.52,11.18,52.74,17.76,17.22,6.58,32.73,13.97,48.96,21.37,10.82,5.14,20.38-8.66,9.83-13.79-16.77-7.75-33.54-15.69-51.12-22.27-17.94-6.76-36.51-12.44-55.09-18.57-11.9-3.61-16.86,11.9-5.32,15.51h0Z"/>
  <path class="cls-15" d="M154.41,3492.93c38.59-13.43,78.62-23.98,119.28-31.74,10.19-1.89,5.68-14.79-4.33-12.89-42.29,8.11-83.31,19.29-123.16,33.09-9.74,3.43-1.35,14.79,8.2,11.54h0Z"/>
  <path class="cls-15" d="M453.47,3409.99c40.21-11.54,81.69-20.2,123.61-25.7,10.46-1.35,5.95-14.16-4.33-12.89-42.1,5.5-83.31,14.16-123.61,25.7-9.92,2.8-5.68,15.69,4.33,12.89h0Z"/>
  <path class="cls-15" d="M739.91,3350.75c39.85-9.83,81.96-14.52,122.98-20.38,10.19-1.35,5.95-14.16-4.33-12.89-40.84,5.68-82.95,10.55-122.98,20.38-9.92,2.34-5.68,15.33,4.33,12.89h0Z"/>
  <path class="cls-15" d="M1034.91,3304.59c21.64-3.07,43.73-3.43,65.19-4.51,21.64-.9,44.54-1.71,66.99-2.07,10.46-.18,10.64-13.43,0-13.25-45.17,.9-91.69,1.17-136.5,7.21-10.37,1.17-6.04,13.97,4.33,12.62h0Z"/>
  <path class="cls-15" d="M1346.24,3296.29c41.65,.72,83.94,6.04,125.05,10.55,10.19,1.17,14.7-11.72,4.33-12.89-42.74-4.69-86.19-10.37-129.29-11.18-10.64,.27-10.64,13.52-.09,13.52h0Z"/>
  <path class="cls-15" d="M1661.53,3340.38c41.92,5.14,83.58,15.15,124.42,24.16,10.01,2.25,14.52-10.55,4.33-12.89-40.84-9.11-82.5-18.93-124.42-24.16-10.28-1.08-14.61,11.54-4.33,12.89h0Z"/>
  <path class="cls-15" d="M2100.34,3358.14c-41.29,4.69-83.94,4.69-125.68,5.5-10.46,.18-10.64,13.43,0,13.25,43.1-.72,87-1.17,129.92-6.04,10.46-1.17,5.95-13.88-4.24-12.71h0Z"/>
  <path class="cls-15" d="M2423.29,3271.77c-36.33,17.58-76.37,31.2-115.22,45.17-9.56,3.43-1.44,14.97,8.2,11.36,38.59-13.97,78.62-27.59,115.22-45.17,9.2-4.42,.81-15.78-8.2-11.36h0Z"/>
  <path class="cls-15" d="M2709.1,2992.4c-34.35,20.38-72.31,37.24-109.27,54.28-9.02,4.15-.81,15.69,8.2,11.36,36.79-17.04,75.01-33.63,109.27-54.28,8.29-4.87,.36-16.68-8.2-11.36h0Z"/>
  <path class="cls-15" d="M2914.39,2993.99c-30.83,22.9-63.56,44.09-95.57,65.46-8.2,5.5,3.52,14.79,11.63,9.47,32.28-21.37,65.01-42.56,95.57-65.46,7.57-5.86-4.06-15.33-11.63-9.47h0Z"/>
  <path class="cls-15" d="M140,4522.96c24.97,31.56,52.2,62.12,80.69,91.51,6.58,7.03,17.94-3.16,11.36-10.01-27.59-28.4-54.19-57.97-78.17-88.72-5.86-7.39-19.84-.18-13.88,7.21h0Z"/>
  <path class="cls-15" d="M290.05,4707.01c33.99,24.34,69.78,47.15,106.12,68.34,8.57,4.96,16.59-7.21,8.02-11.99-35.61-20.56-69.96-42.38-102.96-66.18-7.75-5.68-19.2,4.24-11.18,9.83h0Z"/>
  <path class="cls-15" d="M571.26,4815.93c43.37,6.22,87.09,10.01,130.91,11.99,10.19,.36,10.19-13.61,0-13.97-42.74-1.98-85.29-5.77-126.68-11.63-10.1-1.35-14.43,12.08-4.24,13.61h0Z"/>
  <path class="cls-15" d="M1023.23,4869.93c-40.75-12.8-82.14-23.17-124.33-32.19-10.01-2.16-14.16,11.36-4.24,13.61,41.92,9.02,83.58,19.56,124.33,32.19,9.65,2.98,13.7-10.64,4.24-13.61h0Z"/>
  <path class="cls-15" d="M1288.67,5015.63c-33.99-24.34-69.51-47.33-105.94-68.52-8.57-4.96-16.59,7.21-8.02,11.99,35.61,20.56,69.96,42.56,102.69,66.36,7.66,5.77,19.02-4.06,11.27-9.83h0Z"/>
  <path class="cls-15" d="M1518.3,5170.71c-33.99-24.34-69.51-47.33-105.94-68.52-8.57-4.96-16.59,7.21-8.02,11.99,35.61,20.56,69.96,42.56,102.69,66.36,7.84,5.77,19.29-4.24,11.27-9.83h0Z"/>
  <path class="cls-15" d="M1662.2,5225.62c46.79,4.78,93.5,5.77,140.47,5.23,10.19-.18,10.37-14.16,0-13.97-46.97,.63-93.77-.36-140.47-5.23-10.19-1.17-10.19,12.98,0,13.97h0Z"/>
  <path class="cls-15" d="M1965.32,5210.47c47.6-3.61,94.49-11.18,140.92-20.38,10.01-1.98,5.77-15.6-4.24-13.61-44.99,9.02-90.52,16.41-136.68,20.02-10.19,.81-10.37,14.97,0,13.97h0Z"/>
  <path class="cls-15" d="M2418.37,5168.09c-49.32-10.19-100.71-12.8-151.11-8.02-10.01,.99-10.19,14.97,0,13.97,48.96-4.78,98.73-2.61,146.69,7.57,10.19,2.07,14.43-11.54,4.42-13.52h0Z"/>
  <path class="cls-15" d="M2646.39,5282.78c-33.54-26.15-69.78-49.59-107.11-71.32-8.57-4.96-16.59,7.03-8.02,11.99,36.15,21.19,71.32,43.73,103.68,69.15,7.84,6.22,19.29-3.79,11.45-9.83h0Z"/>
  <path class="cls-15" d="M2824.63,5432.26c-27.41-30.56-57.52-58.78-89.35-85.92-7.39-6.4-18.75,3.61-11.36,10.01,31.74,27.14,62.12,55.18,89.35,85.92,6.4,7.21,17.76-2.98,11.36-10.01h0Z"/>
  <path class="cls-15" d="M2987.73,5617.18c-25.15-32.82-53.74-63.11-83.76-92.5-6.76-6.76-17.94,3.16-11.36,10.01,29.21,28.4,56.71,57.97,81.14,89.71,5.77,7.3,19.74,.36,13.97-7.21h0Z"/>
  <path class="cls-15" d="M2847.08,5944.55c-40.48,10.82-79.79,25.15-118.38,40.66-8.93,3.61-1.17,15.15,7.57,11.36,37.42-15.15,75.46-28.94,114.77-39.31,9.2-2.52,5.23-15.33-3.97-12.71h0Z"/>
  <path class="cls-15" d="M2596.35,6039.49c-37.6,18.12-74.83,36.51-112.34,54.82-8.47,4.15-.9,15.69,7.57,11.36,37.42-18.3,74.65-36.7,112.34-54.82,8.66-4.15,.9-15.51-7.57-11.36h0Z"/>
  <path class="cls-15" d="M2333.35,6181.49c-36.7,17.76-70.87,38.59-104.59,60.5-7.75,4.96-.18,16.68,7.57,11.36,33.45-21.91,67.89-42.74,104.59-60.5,8.48-4.15,.9-15.51-7.57-11.36h0Z"/>
  <path class="cls-15" d="M1997.51,6383.27c38.23-15.15,74.29-33.45,109.82-52.92,8.29-4.51,.54-16.05-7.57-11.36-35.34,19.47-71.68,37.78-109.82,52.92-8.84,3.34-1.26,14.88,7.57,11.36h0Z"/>
  <path class="cls-15" d="M1729.19,6474.97c40.84-8.11,80.51-19.29,119.64-32.19,9.11-3.07,5.14-15.87-3.97-12.89-39.13,12.89-78.89,24.16-119.64,32.19-9.65,1.89-5.5,14.97,3.97,12.89h0Z"/>
  <path class="cls-15" d="M1558.7,6509.32c-41.02,9.83-80.51,23.08-119.64,37.6-8.93,3.43-1.35,14.79,7.57,11.36,37.78-13.97,76.37-26.69,116.13-36.33,9.38-1.98,5.41-14.7-4.06-12.62h0Z"/>
  <path class="cls-15" d="M1294.89,6591.99c-41.38,11.36-80.96,26.69-119.64,43.64-8.66,3.97-1.17,15.33,7.57,11.36,37.6-16.68,75.82-31.56,115.95-42.56,9.38-2.07,5.41-14.88-3.88-12.44h0Z"/>
  <path class="cls-15" d="M1059.12,6686.3c-38.23,16.86-73.75,37.42-107.92,59.6-7.75,4.96-.18,16.68,7.57,11.36,34.44-22.09,69.78-42.74,107.92-59.6,8.84-3.61,1.08-15.15-7.57-11.36h0Z"/>
  <path class="cls-15" d="M843.91,6826.05c-38.23,18.12-73.39,40.12-107.38,63.56-7.57,5.32,3.25,14.52,10.82,9.47,33.09-22.72,67.53-43.91,104.41-61.49,8.29-4.15,.72-15.51-7.84-11.54h0Z"/>
  <path class="cls-15" d="M624.28,6980.31c-32.73,24.16-62.03,51.39-89.44,79.97-6.22,6.58,4.33,15.87,10.82,9.47,27.59-28.58,56.89-55.81,89.44-79.97,7.3-5.68-3.52-14.97-10.82-9.47h0Z"/>
  <path class="cls-15" d="M454.86,7138.18c-31.02,26.69-58.06,56.35-83.58,87-5.68,7.03,7.39,13.43,13.07,6.58,24.79-29.84,51.21-58.42,81.32-84.3,6.76-5.68-3.88-15.15-10.82-9.29h0Z"/>
  <path class="cls-15" d="M284.82,7300.2c-28.4,28.76-52.92,60.14-75.46,92.41-5.14,7.39,7.93,13.97,13.07,6.58,21.91-31.56,45.35-62.03,72.94-89.8,6.49-6.13-4.15-15.6-10.55-9.2h0Z"/>
  <path class="cls-15" d="M141.11,7480.97c-28.4,28.76-52.92,60.14-75.46,92.41-5.14,7.39,7.93,13.97,13.07,6.58,21.91-31.56,45.35-62.03,72.94-89.8,6.49-5.95-4.06-15.6-10.55-9.2h0Z"/>
  <path class="cls-15" d="M202.87,8042.04c-42.56-7.57-85.47-10.82-128.93-11.9-9.65-.18-9.65,13.07,0,13.25,42.01,1.35,83.58,4.15,124.78,11.54,9.65,1.44,13.79-11.18,4.15-12.89h0Z"/>
  <path class="cls-15" d="M498.95,8108.4c-39.67-15.15-80.96-26.33-123.07-35.52-9.47-2.07-13.43,10.82-3.97,12.89,40.66,8.93,80.96,19.29,119.46,33.99,8.93,3.61,16.5-7.75,7.57-11.36h0Z"/>
  <path class="cls-15" d="M753.84,8228.49c-34.62-21.91-71.86-39.85-110.09-56.53-8.66-3.79-16.23,7.75-7.57,11.36,38.41,16.41,75.64,34.62,110.09,56.53,7.93,5.05,15.51-6.31,7.57-11.36h0Z"/>
  <path class="cls-15" d="M957.51,8387.26c-27.95-28.4-59.6-53.46-92.5-77.36-7.39-5.5-18.12,3.97-10.82,9.47,32.91,23.8,64.46,48.96,92.5,77.36,6.49,6.49,17.04-3.16,10.82-9.47h0Z"/>
  <path class="cls-15" d="M1051.45,8498.7c30.29,27.23,63.92,51.03,99.09,73.39,7.93,4.96,15.33-6.58,7.57-11.36-33.81-21.73-66.54-44.99-95.84-71.5-6.85-6.22-17.4,3.43-10.82,9.47h0Z"/>
  <path class="cls-15" d="M1282.35,8654.05c37.78,18.57,77.72,33.09,118.56,45.98,9.29,3.07,13.25-10.01,3.97-12.89-39.49-12.44-78.26-26.69-114.77-44.63-8.57-4.15-16.32,7.21-7.75,11.54h0Z"/>
  <path class="cls-15" d="M1550.22,8751.51c42.2,8.29,84.75,13.61,127.67,17.58,9.65,.72,9.65-12.44,0-13.25-41.38-3.97-82.86-9.11-123.7-17.22-9.65-1.89-13.61,11.18-3.97,12.89h0Z"/>
  <path class="cls-15" d="M1837.65,8782.07c42.38,2.79,84.75,2.79,127.22,1.35,9.65-.18,9.83-13.61,0-13.25-42.56,1.35-84.93,1.53-127.22-1.35-9.83-.54-9.65,12.71,0,13.25h0Z"/>
  <path class="cls-15" d="M2299.18,8813.09c-46.34-12.89-93.77-21.91-141.64-29.3-9.47-1.53-13.61,11.36-3.97,12.89,47.88,7.39,95.3,16.41,141.64,29.3,9.47,2.43,13.43-10.46,3.97-12.89h0Z"/>
  <path class="cls-15" d="M2570.92,8933c-38.59-25.88-79.61-48.6-121.81-69.78-8.29-4.33-16.05,7.21-7.57,11.36,42.2,21.19,83.22,43.91,121.81,69.78,7.57,5.23,15.15-6.31,7.57-11.36h0Z"/>
  <path class="cls-15" d="M2811.02,9107.1c-32.73-31.56-68.61-60.32-105.85-87.73-7.39-5.5-18.12,3.97-10.82,9.47,37.24,27.41,72.94,56.17,105.85,87.73,6.67,6.4,17.22-2.98,10.82-9.47h0Z"/>
  <path class="cls-15" d="M2704.99,9994.28c42.74-20.02,83.4-43.64,122.89-68.43,7.75-4.96,.36-16.41-7.57-11.36-39.49,24.97-79.97,48.42-122.89,68.43-8.57,3.97-.99,15.51,7.57,11.36h0Z"/>
  <path class="cls-15" d="M2400.16,10099.59c46.7-13.25,92.23-29.12,137.67-45.98,8.93-3.43,1.35-14.79-7.57-11.36-44.09,16.41-88.45,31.56-134.07,44.63-9.11,2.52-5.14,15.33,3.97,12.71h0Z"/>
  <path class="cls-15" d="M2104.62,10178.84c47.88-6.58,95.12-15.87,142-26.33,9.47-2.07,5.32-14.97-3.97-12.89-47.06,10.37-94.31,19.65-142,26.24-9.65,1.44-5.68,14.25,3.97,12.98h0Z"/>
  <path class="cls-15" d="M1774.72,10191.91c48.24,2.43,96.83,2.43,145.25,1.17,9.65-.18,9.83-13.43,0-13.25-48.42,1.35-96.83,1.35-145.25-1.17-9.83-.81-9.83,12.62,0,13.25h0Z"/>
  <path class="cls-15" d="M1440.41,10163.15c47.6,7.21,95.3,13.61,143.17,19.84,9.47,1.35,13.61-11.54,3.97-12.89-47.88-6.04-95.66-12.44-143.17-19.84-9.47-1.53-13.43,11.36-3.97,12.89h0Z"/>
  <path class="cls-15" d="M1266.22,10126.27c-48.42-6.4-97.19-11.36-145.97-15.69-9.65-.72-9.65,12.44,0,13.25,47.42,4.15,94.94,9.11,142,15.15,9.65,1.44,13.43-11.45,3.97-12.71h0Z"/>
  <path class="cls-15" d="M980.77,10092.82c-48.42-6.04-97.19-11-145.97-15.15-9.65-.72-9.65,12.44,0,13.25,47.42,3.97,94.94,8.66,142,14.79,9.2,1.08,13.43-11.63,3.97-12.89h0Z"/>
  <path class="cls-15" d="M686.94,10080.11c-47.88,6.58-95.3,14.79-142.54,23.62-9.47,1.89-5.5,14.52,3.97,12.89,47.24-8.66,94.94-16.86,142.54-23.62,9.65-1.35,5.68-13.97-3.97-12.89h0Z"/>
  <path class="cls-15" d="M412.04,10150.62c-44.45,17.04-88.09,35.16-131.45,54.1-8.66,3.79-1.17,15.33,7.57,11.36,43.46-18.75,87.18-37.06,131.45-54.1,9.02-3.16,1.26-14.7-7.57-11.36h0Z"/>
  <path class="cls-15" d="M161.3,10268.64c-40.48,23.44-79.79,48.06-118.74,73.39-7.75,4.96-.36,16.68,7.57,11.36,38.95-25.16,78.44-49.77,118.74-73.39,8.11-4.6,.54-16.05-7.57-11.36h0Z"/>
  <path class="cls-24" d="M-53.1,12481.08c128.21-86.82,360.73-247.85,633.83-311.23,568.73-131.99,873.2,133.89,1445.9,62.57,225.04-27.95,543.4-108.19,907.55-349.82v-381.74c-542.04,327.46-970.39,380.66-1265.85,365.87-383.63-19.29-636.44-157.87-1058.66-83.94-297.8,52.2-521.13,182.48-662.5,283.46v414.83h-.27Z"/>
  <g id="mand">
    <g id="mand-2">
      <g id="Group_106" data-name="Group 106">
        <g class="cls-13">
          <g id="Group_105" data-name="Group 105">
            <path id="Path_287" data-name="Path 287" class="cls-27" d="M2246.41,3824.16s-24.86-24-38.5-5.45c-9.43,12.86,2.1,25.56,10.13,32.18,.31,.23,.62,.47,.86,.7,.16,.08,.47,.39,.78,.62,.39,.31,.78,.62,.94,.7,2.26,1.71,3.82,2.65,3.82,2.65,0,0,14.34,3.74,3.12,15.82,0,0-8.34,6.16,18.86,12.62,0,0,22.52,5.22,1.64,17.07-20.81,11.85,2.18,14.88,2.18,14.88,0,0,30.16-14.88,28.68,1.48,0,0-27.98,41.61,6,26.5,33.98-15.12,34.21-20.03,34.21-20.03,6.55-8.73,7.25-20.49,1.95-29.92,0,0,18.39-34.13,0-49.8,0,0-.94-6.7-29.69-6.47,0,0-2.18-15.82-20.81-20.57-18.62-4.6-24.16,7.01-24.16,7.01"/>
            <path id="Path_288" data-name="Path 288" class="cls-14" d="M2221.79,3850.81s-48.63,47.07-34.83,48.16-10.13,34.91-10.13,34.91c0,0-8.96,12.23,12.62,13.72,12.23,3.82,24.94,6,37.79,6.39h.62c19.33,.08,38.5-7.87,38.5-7.87l3.51-3.04s-5.38-.94,10.13-26.11c0,0,2.49-12.39-13.79-7.4-16.29,4.99-28.13,8.1-24.08-3.9,0,0,25.72-14.18,11.77-20.49s-33.27-8.03-23.77-16.21c9.51-8.18-2.88-14.34-8.34-18.16"/>
            <path id="Path_289" data-name="Path 289" class="cls-21" d="M2211.66,3989.6s39.67,7.79,66.55-11.61c0,0-16.83,177.36-14.1,187.73l1.79,33.04s24.39,37.79,21.98,45.67c-2.42,7.79-3.51,40.05-1.48,59.15,2.1,19.09,4.29,15.12,1.48,34.13-2.88,19.01-4.05,30.86-4.05,30.86,0,0-1.4,21.43,12.31,28.99,13.72,7.56-113.54,3.51-113.54,3.51l29.07-411.46Z"/>
            <path id="Path_290" data-name="Path 290" class="cls-14" d="M2226.23,3951.41s-13.48,36.86-18.24,41.77,60.71,4.36,79.49-13.87l2.26-40.13-63.51,12.23Z"/>
            <path id="Path_291" data-name="Path 291" class="cls-25" d="M2211.66,4142.33c12.16,16.99-13.25,240.8-13.25,240.8,0,0-6.39,15.59-23.14,21.59-16.75,6-48.7-33.51-48.7-33.51,0,0-14.81-52.68,11.14-147.75,25.95-94.99,8.81-89.46,8.81-89.46,0,0-39.51,33.9-97.02,50.73-57.51,16.75-64.29-21.98-64.29-21.98-14.81-6,54.7-169.26,81.43-181.26s53.07,27.98,53.07,27.98c0,0-116.58,160.53-46.68,84.24,69.9-76.29,138.63-103.41,138.63-103.41,0,0-6.31,143.23,0,152.04"/>
            <path id="Path_292" data-name="Path 292" class="cls-3" d="M2211.66,4142.33c12.16,16.99-13.25,240.8-13.25,240.8,0,0-6.39,15.59-23.14,21.59-16.75,6-48.7-33.51-48.7-33.51,0,0-14.81-52.68,11.14-147.75,25.95-94.99,8.81-89.46,8.81-89.46,0,0-39.51,33.9-97.02,50.73-57.51,16.75-64.29-21.98-64.29-21.98-14.81-6,54.7-169.26,81.43-181.26s53.07,27.98,53.07,27.98c0,0-116.58,160.53-46.68,84.24,69.9-76.29,138.63-103.41,138.63-103.41,0,0-6.31,143.23,0,152.04Z"/>
            <path id="Path_293" data-name="Path 293" class="cls-25" d="M2278.2,3977.99s-23.92,198.25-9.97,227.39c13.95,29.14,12.39,71.07,19.17,104.58,6.78,33.51-17.14,67.49,7.95,87.04,25.09,19.56,87.43,48.31,87.43,48.31,0,0,24.78-69.9,7.95-146.11-16.75-76.29-6.39-98.19-6.39-98.19l33.9,41.54s-47.15,151.33-90.63,180.48l53.07,24.39,90.24-145.33s37.17-53.07,0-101.85c0,0-102.63-195.68-126.55-198.4,.16,0-34.21-23.69-66.16-23.85"/>
            <path id="Path_294" data-name="Path 294" class="cls-14" d="M2084.24,3980.87s33.66-76.45,48.86-67.64c15.12,8.81-24.39,47.38-24.39,47.38,0,0,68.73,.86,1.71,38.73l-26.18-18.47Z"/>
            <path id="Path_295" data-name="Path 295" class="cls-25" d="M2371.64,4423.57l9.2,439.98c.16,5.69-3.43,10.36-7.79,10.36h-58.84c-3.9,0-7.17-3.74-7.71-8.73l-47.85-443.56c-1.01-9.12-10.13-11.92-14.1-4.29l-10.83,20.65c-.39,.7-.7,1.48-.86,2.26-.08,.31-.16,.55-.23,.86-.31,1.09-.62,2.26-.86,3.51-12.16,49.48-27.9,205.57-30,226.53-.16,1.56,0,3.12,.39,4.6l39.35,147.52c1.01,3.66,.23,7.64-2.03,10.68l-39.2,47.3c-3.9,4.75-10.29,3.04-12.39-3.35l-57.43-169.96c-.47-1.25-1.09-2.42-1.95-3.51-12.7-16.68,2.1-268.46,5.22-319.97,.31-5.22,3.66-9.2,7.64-9.27l220.38-3.27c2.65,.08,5.07,1.64,6.31,3.97,.94,1.64,1.48,3.58,1.56,5.45l2.03,42.24Z"/>
            <path id="Path_296" data-name="Path 296" class="cls-5" d="M2371.64,4423.57l9.2,439.98c.16,5.69-3.43,10.36-7.79,10.36h-58.84c-3.9,0-7.17-3.74-7.71-8.73l-47.85-443.56c-1.01-9.12-10.13-11.92-14.1-4.29l-10.83,20.65c-.39,.7-.7,1.48-.86,2.26-.08,.31-.16,.55-.23,.86-.31,1.09-.62,2.26-.86,3.51-12.16,49.48-27.9,205.57-30,226.53-.16,1.56,0,3.12,.39,4.6l39.35,147.52c1.01,3.66,.23,7.64-2.03,10.68l-39.2,47.3c-3.9,4.75-10.29,3.04-12.39-3.35l-57.43-169.96c-.47-1.25-1.09-2.42-1.95-3.51-12.7-16.68,2.1-268.46,5.22-319.97,.31-5.22,3.66-9.2,7.64-9.27l220.38-3.27c4.13-.08,7.56,4.13,7.87,9.43l2.03,42.24Z"/>
            <path id="Path_297" data-name="Path 297" class="cls-27" d="M2187.11,4839.71s-79.02,16.99-86.58,43.8c-7.56,26.81,32.89,15.98,32.89,15.98,0,0,80.97-19.87,91.1-24s22.13-13.56,22.13-13.56c0,0,21.9-9.2,9.12-25.33-12.78-16.13-68.65,3.12-68.65,3.12"/>
            <path id="Path_298" data-name="Path 298" class="cls-4" d="M2187.11,4839.71s-79.02,16.99-86.58,43.8c-7.56,26.81,32.89,15.98,32.89,15.98,0,0,80.97-19.87,91.1-24s22.13-13.56,22.13-13.56c0,0,21.9-9.2,9.12-25.33-12.78-16.13-68.65,3.12-68.65,3.12Z"/>
            <path id="Path_299" data-name="Path 299" class="cls-27" d="M2323.64,4861.37s-80.81-1.32-94.21,23.14c-13.4,24.47,28.44,22.99,28.44,22.99,0,0,83.38-1.09,94.14-2.73,10.83-1.71,24.62-8.18,24.62-8.18,0,0,23.38-3.97,14.57-22.6-8.81-18.7-67.56-12.62-67.56-12.62"/>
            <path id="Path_300" data-name="Path 300" class="cls-4" d="M2323.64,4861.37s-80.81-1.32-94.21,23.14c-13.4,24.47,28.44,22.99,28.44,22.99,0,0,83.38-1.09,94.14-2.73,10.83-1.71,24.62-8.18,24.62-8.18,0,0,23.38-3.97,14.57-22.6-8.81-18.7-67.56-12.62-67.56-12.62Z"/>
            <path id="Path_301" data-name="Path 301" class="cls-27" d="M2149.78,4691.18v-235.11h336.96v235.11h-336.96Z"/>
            <path id="Path_302" data-name="Path 302" class="cls-2" d="M2149.78,4691.18v-235.11h336.96v235.11h-336.96Z"/>
            <path id="Path_303" data-name="Path 303" class="cls-27" d="M2257.01,4460.98c11.61-12.47,26.65-21.2,43.17-25.25,40.68-9.51,80.34,17.85,79.33,20.81-.55,1.71-15.04-4.75-39.9-6.86-27.98-2.26-56.19,1.64-82.6,11.3"/>
            <path id="Path_304" data-name="Path 304" class="cls-2" d="M2257.01,4460.98c11.61-12.47,26.65-21.2,43.17-25.25,40.68-9.51,80.34,17.85,79.33,20.81-.55,1.71-15.04-4.75-39.9-6.86-27.98-2.26-56.19,1.64-82.6,11.3Z"/>
            <path id="Path_305" data-name="Path 305" class="cls-14" d="M2334,4426.46s-47.85,1.01-36.78,23.53c11.07,22.52,74.81-6.62,74.81-6.62l-38.03-16.91Z"/>
            <path id="Path_673" data-name="Path 673" class="cls-25" d="M2197.94,4371.91s-55.41-8.65-62.58,4.52c-7.17,13.17,64.84,0,64.84,0l-2.26-4.52Z"/>
          </g>
        </g>
      </g>
      <text class="cls-10" transform="translate(2160.87 4627.12)"><tspan x="0" y="0">17 ton CO</tspan></text>
      <text class="cls-7" transform="translate(2425.13 4647.2)"><tspan x="0" y="0">2</tspan></text>
    </g>
    <path id="Path_674" data-name="Path 674" class="cls-25" d="M2278.05,4398.72s87.28-10.52,99.05,0c11.77,10.52-.94,77.15-.94,77.15l-4.83-1.56-6.23-68.19-88.21-2.42,1.17-4.99Z"/>
  </g>
  <g class="cls-30">
    <g id="røg">
      <path id="Path_672" data-name="Path 672" class="cls-15" d="M1975.56,3971.63c69.11-106.39,32.2-253.02-82.41-327.48-24.05-15.58-50.49-27.14-78.27-34.2,8.76-87.25-54.87-165.07-142.12-173.83-87.25-8.76-165.07,54.87-173.83,142.12-.66,6.54-.91,13.11-.75,19.68-92.73-26.07-190.37,20.88-227.92,109.58-.81-.55-1.57-1.2-2.38-1.72-73.96-48.14-172.94-27.21-221.08,46.75-45.35,69.68-29.7,162.49,36,213.43-99.12,30.44-154.79,135.47-124.35,234.59,30.44,99.12,135.47,154.79,234.59,124.35,11.5-3.53,22.64-8.16,33.26-13.83,1.54,8.09,3.64,16.06,6.27,23.86-41.81,8.37-78.46,33.27-101.65,69.05-6.14,9.49-11.25,19.6-15.26,30.17-68.45-12.14-133.78,33.51-145.92,101.95-12.14,68.45,33.51,133.78,101.95,145.92,46.94,8.33,94.56-10.58,123-48.85,78.71,38.44,173.68,5.79,212.12-72.93,15.78-32.32,20.11-69.05,12.27-104.16,95.41-8.71,166.98-91.1,162.28-186.78,104.73,16.29,202.83-55.41,219.11-160.14,1.95-12.54,2.65-25.24,2.09-37.92,69.42-5.13,133.95-39.51,172.99-99.61"/>
    </g>
  </g>
  <g id="lille_faktaboks" data-name="lille faktaboks">
    <rect id="Rectangle_122-2" data-name="Rectangle 122-2" class="cls-8" x="306.79" y="4771.31" width="1437.33" height="491.83" rx="29.36" ry="29.36"/>
  </g>
  <g id="Røg_med_tekst" data-name="Røg med tekst">
    <g class="cls-33">
      <g id="røg-2" data-name="røg">
        <path id="Path_672-2" data-name="Path 672" class="cls-15" d="M1974.26,3964.78c70.88-109.12,33.02-259.5-84.54-335.86-24.65-16.01-51.73-27.84-80.26-35.03,8.95-89.48-56.25-169.3-145.74-178.25-89.48-8.95-169.3,56.25-178.25,145.74-.65,6.73-.92,13.44-.73,20.16-95.12-26.74-195.19,21.4-233.74,112.38-.85-.55-1.62-1.24-2.46-1.79-75.86-49.37-177.38-27.92-226.75,47.94-46.53,71.48-30.43,166.64,36.91,218.84-101.63,31.23-158.74,138.89-127.55,240.58,31.23,101.63,138.89,158.74,240.58,127.55,11.81-3.58,23.19-8.36,34.13-14.18,1.59,8.28,3.72,16.46,6.43,24.45-42.87,8.6-80.45,34.11-104.21,70.83-6.33,9.74-11.57,20.1-15.63,30.94-70.21-12.42-137.21,34.33-149.63,104.55-12.42,70.21,34.33,137.21,104.55,149.63,48.13,8.49,96.94-10.84,126.15-50.07,80.74,39.43,178.11,5.9,217.5-74.78,16.17-33.19,20.63-70.83,12.59-106.83,97.85-8.95,171.22-93.41,166.43-191.53,107.42,16.69,208-56.87,224.72-164.17,2.01-12.83,2.68-25.87,2.11-38.89,71.13-5.3,137.35-40.56,177.4-102.22"/>
      </g>
    </g>
    <text class="cls-11" transform="translate(1210.16 3817.14)"><tspan x="0" y="0">En gennemsnitlig </tspan></text>
    <text class="cls-11" transform="translate(1124.32 3922.54)"><tspan x="0" y="0">person udleder 17 tons </tspan></text>
    <text class="cls-11" transform="translate(1218.56 4027.93)"><tspan x="0" y="0">CO</tspan></text>
    <text class="cls-12" transform="translate(1304.2 4050.51)"><tspan x="0" y="0">2</tspan></text>
    <text class="cls-11" transform="translate(1325.34 4027.93)"><tspan x="0" y="0" xml:space="preserve"> om måneden</tspan></text>
  </g>
  <g id="brændstofsbil">
    <rect id="Rectangle_112" data-name="Rectangle 112" class="cls-29" x="997.61" y="4529.55" width="30.25" height="97.53" transform="translate(-3674.7 4698.86) rotate(-79)"/>
    <g id="Group_170" data-name="Group 170">
      <g class="cls-32">
        <g id="Group_169" data-name="Group 169">
          <path id="Path_561" data-name="Path 561" class="cls-25" d="M876.72,4532.45c8.77-45.11,54.21-74.22,101.51-65.03,47.3,9.19,78.53,53.21,69.76,98.32-8.77,45.11-54.21,74.22-101.51,65.03-47.3-9.19-78.53-53.21-69.76-98.32"/>
          <path id="Path_562" data-name="Path 562" class="cls-25" d="M473.88,4454.15c8.77-45.11,54.21-74.22,101.51-65.03,47.3,9.19,78.53,53.21,69.76,98.32-8.77,45.11-54.21,74.22-101.51,65.03-47.3-9.19-78.53-53.21-69.76-98.32"/>
          <path id="Path_563" data-name="Path 563" class="cls-25" d="M624.75,4398.71c16.72-86.02,103.39-141.54,193.58-124.01,90.19,17.53,149.76,101.47,133.04,187.5-16.72,86.02-103.39,141.55-193.59,124.01-90.19-17.53-149.75-101.48-133.03-187.5"/>
          <path id="Path_573" data-name="Path 573" class="cls-25" d="M978.23,4467.42l-407.73-79.26-31.75,163.35,407.73,79.26,31.75-163.35Z"/>
          <path id="Path_564" data-name="Path 564" class="cls-8" d="M923.42,4456.76s1.21-131.99-112.75-142.64c-113.96-10.65-130.67,42.49-149.64,91.63l262.39,51Z"/>
          <path id="Path_565" data-name="Path 565" class="cls-16" d="M491.06,4418.16c18.28-21.49,45.83-32.81,73.94-30.4,2.39,6.41,2.96,13.35,1.67,20.07-4.09,21.05-25.3,34.64-47.38,30.35-11.88-2.23-22.19-9.55-28.23-20.03"/>
          <path id="Path_574" data-name="Path 574" class="cls-26" d="M812.59,4304.24l-30.21,155.43"/>
          <path id="Path_566" data-name="Path 566" class="cls-19" d="M1048.89,4541.13l-45.94-8.93c-4.64-.8-7.76-5.2-6.99-9.85l6.2-31.89c1.02-4.6,5.56-7.5,10.17-6.51l4.18,.81c17.88,13.71,29.54,34.01,32.38,56.36"/>
          <path id="Path_567" data-name="Path 567" class="cls-23" d="M571.07,4557.57c-6.49,33.36,16.62,65.93,51.6,72.73,34.98,6.8,68.6-14.74,75.09-48.1,6.49-33.36-16.61-65.93-51.6-72.73s-68.6,14.74-75.09,48.1"/>
          <path id="Path_568" data-name="Path 568" class="cls-28" d="M646.16,4509.46c-34.98-6.8-68.6,14.74-75.09,48.1l-19.4-3.77c8.47-43.59,52.39-71.72,98.09-62.84,45.7,8.88,75.88,51.42,67.41,95.01l-19.4-3.77c6.49-33.36-16.62-65.93-51.6-72.73"/>
          <path id="Path_569" data-name="Path 569" class="cls-23" d="M819.74,4606.42c-6.49,33.36,16.62,65.93,51.6,72.73,34.98,6.8,68.6-14.74,75.09-48.1,6.49-33.36-16.61-65.93-51.6-72.73-34.99-6.8-68.6,14.74-75.09,48.1"/>
          <path id="Path_570" data-name="Path 570" class="cls-28" d="M894.82,4558.31c-34.98-6.8-68.6,14.74-75.09,48.1l-19.4-3.77c8.47-43.59,52.39-71.72,98.09-62.84,45.7,8.88,75.88,51.42,67.41,95.01l-19.4-3.77c6.49-33.36-16.62-65.93-51.6-72.73"/>
        </g>
      </g>
    </g>
  </g>
  <g id="skilt">
    <g id="Group_191" data-name="Group 191">
      <g class="cls-31">
        <g id="Group_190" data-name="Group 190">
          <path id="Path_689" data-name="Path 689" class="cls-25" d="M1865.73,801.11v-175.16c0-7.52-11.7-7.54-11.7,0v175.16c0,7.53,11.7,7.54,11.7,0"/>
          <path id="Path_690" data-name="Path 690" class="cls-9" d="M1860.22,626.35l161.23,93.53-1.32,118.81-159.59-80.45-.32-131.89Z"/>
          <path id="Path_691" data-name="Path 691" class="cls-25" d="M2025.32,882.88v-164.31c0-7.53-11.7-7.54-11.7,0v164.31c0,7.53,11.7,7.54,11.7,0"/>
        </g>
      </g>
    </g>
    <path id="Path_692" data-name="Path 692" class="cls-25" d="M1904.06,712.08v-13.19l56.71,32.97v-6.6l15.83,19.78-15.83,6.59v-6.59l-56.71-32.97Z"/>
    <path id="Path_693" data-name="Path 693" class="cls-25" d="M1904.06,752.97l9.23,5.28v-40.8l-9.23-5.37v40.89Z"/>
  </g>
  <g id="elbil">
    <g class="cls-34">
      <g id="elbil-2">
        <path id="Path_550" data-name="Path 550" class="cls-18" d="M783.81,826.54c2-37.84-27.05-70.14-64.88-72.14-37.84-2-70.14,27.05-72.14,64.88-2,37.84,27.05,70.14,64.88,72.14,.01,0,.02,0,.04,0,37.83,1.99,70.11-27.06,72.1-64.89"/>
        <path id="Path_551" data-name="Path 551" class="cls-18" d="M1106.11,843.43c2-37.84-27.05-70.14-64.88-72.14-37.84-2-70.14,27.05-72.14,64.88-2,37.84,27.05,70.14,64.88,72.14,.01,0,.02,0,.04,0,37.83,1.99,70.11-27.06,72.1-64.89"/>
        <path id="Path_552" data-name="Path 552" class="cls-18" d="M1001.7,769.29c3.82-72.16-51.57-133.75-123.73-137.57-72.16-3.82-133.75,51.57-137.57,123.73-3.82,72.16,51.57,133.75,123.73,137.57,.02,0,.05,0,.07,0,72.14,3.8,133.7-51.6,137.5-123.74h0"/>
        <rect id="Rectangle_110" data-name="Rectangle 110" class="cls-18" x="809.83" y="668.17" width="137.14" height="326.66" transform="translate(2.08 1665.18) rotate(-87)"/>
        <path id="Path_553" data-name="Path 553" class="cls-25" d="M762.74,756.77s24.44-105.83,113.41-91.85c88.96,13.98,91.5,59.79,96.52,102.85l-209.92-11Z"/>
        <path id="Path_554" data-name="Path 554" class="cls-17" d="M1099.92,811.25c-9.42-20.5-28.33-35.05-50.55-38.92-9.62,14.83-5.39,34.65,9.44,44.26,13.16,8.54,30.57,6.27,41.12-5.35"/>
        <line id="Line_71" data-name="Line 71" class="cls-1" x1="876.59" y1="656.63" x2="869.76" y2="786.94"/>
        <path id="Path_575" data-name="Path 575" class="cls-6" d="M876.59,656.63l-6.83,130.31"/>
        <path id="Path_555" data-name="Path 555" class="cls-19" d="M650.83,799.49l36.75,1.93c3.78,.18,7-2.72,7.21-6.5l1.4-26.74c.18-3.78-2.72-7-6.5-7.21l-3.35-.18c-16.5,7.69-29.28,21.6-35.53,38.7"/>
        <path id="Path_556" data-name="Path 556" class="cls-23" d="M1012.11,906.98c-1.45,27.99-25.32,49.51-53.31,48.05-27.99-1.45-49.51-25.32-48.05-53.31,1.45-27.99,25.32-49.51,53.31-48.05,0,0,.02,0,.03,0,27.98,1.46,49.48,25.33,48.02,53.31"/>
        <path id="Path_557" data-name="Path 557" class="cls-20" d="M964.08,853.67c27.98,1.46,49.48,25.33,48.03,53.31l15.52,.81c1.92-36.56-26.17-67.76-62.74-69.68s-67.76,26.17-69.68,62.74l15.52,.81c1.48-27.98,25.35-49.47,53.34-48"/>
        <path id="Path_558" data-name="Path 558" class="cls-23" d="M813.06,896.96c-1.45,27.99-25.32,49.51-53.31,48.05-27.99-1.45-49.51-25.32-48.05-53.31,1.45-27.99,25.32-49.51,53.31-48.05,0,0,.02,0,.03,0,27.98,1.46,49.48,25.33,48.02,53.31"/>
        <path id="Path_559" data-name="Path 559" class="cls-20" d="M765.03,843.66c27.98,1.46,49.48,25.33,48.02,53.31l15.52,.81c1.92-36.56-26.17-67.76-62.74-69.68-36.56-1.92-67.76,26.17-69.68,62.74h0l15.52,.81c1.48-27.98,25.35-49.47,53.34-48"/>
      </g>
    </g>
  </g>
</svg>