<?xml version="1.0" encoding="UTF-8"?>
<svg id="Lag_1" data-name="Lag 1" xmlns="http://www.w3.org/2000/svg" viewBox="0 0 3275.56 15433.84">
  <defs>
    <style>
      .cls-1 {
        fill: #fff;
      }

      .cls-2 {
        fill: #e4eddf;
      }

      .cls-3 {
        fill: #cac9c9;
      }
    </style>
  </defs>
  <rect class="cls-2" x="-103.56" y="-63.08" width="3455.24" height="15715.6"/>
  <g id="Lag_1-2" data-name="Lag 1">
    <path class="cls-3" d="M3293.31,647.5c-29.78,36.28-74.03,88.71-129.18,149.95-180.98,201.33-327.57,364.27-511.7,480.45-256.06,161.27-516.32,189.37-640.68,201.12-397.2,37.33-562.66-101.08-927.77-137.15-243.06-24.12-592.23-4.61-1036.82,201.12v-324.22c287.31-133.59,536.03-174.48,696.04-188.32,190.63-16.36,460.95-39.64,763.36,59.14,240.75,78.64,221.67,71.51,340.58,76.55,408.94,17.41,733.79-257.74,811.8-324.01,98.15-83.05,73.19-85.35,327.15-343.09,128.76-130.65,238.65-234.88,313.52-304.71-1.89,150.99-3.98,301.99-6.29,453.19h0Z"/>
    <path class="cls-3" d="M3505.34,1878.52c26.63,166.09,53.48,332.19,80.32,498.28-55.78-40.06-151.62-105.7-278.08-177-456.13-256.9-713.87-248.72-952.31-465.35-78.01-70.67-184.76-193.57-251.87-402.23,148.9-49.7,297.79-99.4,446.69-149.11,11.32,78.01,43.62,188.32,134.01,289.4,101.08,112.83,229.01,163.37,314.57,196.92,117.86,46.56,161.06,33.97,286.47,85.35,99.4,41.31,173.22,89.34,220.2,123.73h0Z"/>
    <path class="cls-3" d="M3406.35,3382.17c-441.66,470.18-823.55,543.58-1082.54,546.51-294.02,3.36-483.6-118.91-952.73-76.55-178.26,16.15-371.82,69.62-600.62,126.88-352.53,88.29-559.31,192.52-751.82,267.18-7.13-129.18-14.68-258.37-21.81-387.55,110.94-46.56,265.92-107.37,455.71-169.03,166.72-54.11,304.08-98.78,492.83-135.27,102.34-19.71,325.48-57.46,609.85-57.46,345.61-.21,492.41,55.57,658.71,65.85,263.61,16.57,646.76-75.92,1156.36-574.62,12.16,131.07,24.12,262.56,36.07,394.05h0Z"/>
    <path class="cls-3" d="M3353.08,7208.19c-447.11-622.64-803.2-743.44-1051.5-731.27-202.79,10.28-399.71,112.41-672.76,10.91-205.94-76.55-191.68-171.13-418.8-275.35-309.96-142.4-462.42-24.12-724.14-129.81-144.49-58.3-330.09-188.11-494.71-506.67,17.83-151.41,35.23-302.83,53.06-454.03,194.19,360.71,408.31,503.73,571.89,566.65,254.8,98.15,385.87,1.68,691.64,134.85,278.71,121.21,261.3,240.96,497.65,318.14,293.81,95.63,447.95-47.6,723.09-33.97,209.5,10.28,512.12,113.04,862.13,571.89-12.79,176.37-25.17,352.53-37.54,528.69h0Z"/>
    <path class="cls-3" d="M14.65,9935.51c613.41-876.18,1149.65-1194.95,1537.41-1318.89,183.92-58.72,456.76-113.04,821.66-298,222.72-113.04,385.66-226.91,717.43-361.34,160.43-65.01,297.58-109.47,389.65-137.15-10.07-132.75-20.13-265.71-29.99-398.25-118.7,9.86-303.88,35.44-508.35,112.2-305.13,114.29-410.41,251.87-687.23,398.25-300.73,159.17-546.3,192.94-717.43,236.14-375.39,94.79-900.93,364.48-1539.09,1146.29,5.24,206.57,10.49,413.77,15.94,620.75h0Z"/>
    <path class="cls-3" d="M3417.47,11690.19c-142.4-225.65-392.79-458.85-803.62-610.27-429.07-158.12-586.78,23.91-1026.97-145.33-492.62-189.37-529.95-508.14-1048.36-668.15-247.46-76.55-472.49-75.92-625.16-63.54-10.7-136.52-21.39-272.84-32.09-409.15,223.97-5.03,553.64,15.31,901.77,158.75,480.45,197.76,481.71,417.75,937.63,584.68,463.05,169.66,653.26,12.79,1116.31,208.67,276.82,117.02,467.03,282.48,580.49,397.62v546.72h0Z"/>
    <path class="cls-3" d="M-9.68,12867.52c142.19-96.26,400.13-274.93,702.96-345.19,630.82-146.38,968.46,148.48,1603.68,69.42,249.56-31.04,602.72-119.96,1006.63-387.97v-423.41c-601.25,363.22-1076.25,422.15-1404.03,405.8-425.51-21.39-705.9-175.11-1174.19-93.11-330.3,57.88-577.97,202.37-734.84,314.36v460.11h-.21Z"/>
    <path class="cls-1" d="M3245.29,440.3c-23.28,23.91-46.98,47.81-70.25,71.93-6.92,7.13,4.82,17.62,11.95,10.49,23.28-23.91,46.98-47.81,70.25-71.93,6.92-7.13-5.03-17.62-11.95-10.49h0Z"/>
    <path class="cls-1" d="M3085.28,608.7c-26.63,27.68-52.64,55.99-77.59,84.72-6.5,7.55,8.18,14.89,14.47,7.34,24.12-27.89,49.28-55.15,75.08-82,6.71-6.71-5.03-17.2-11.95-10.07h0Z"/>
    <path class="cls-1" d="M2920.86,795.98c-24.12,26.42-50.12,51.38-77.59,75.08-9.23,7.97,4.82,20.34,14.26,12.58,27.68-23.7,53.48-48.65,77.59-75.08,8.18-9.02-6.08-21.39-14.26-12.58h0Z"/>
    <path class="cls-1" d="M2761.9,955.78c-26.42,27.47-56.62,52.01-90.39,72.35-10.49,6.5-.63,21.81,10.28,15.31,35.02-21.39,66.69-46.56,94.37-75.08,8.18-8.6-5.87-21.18-14.26-12.58h0Z"/>
    <path class="cls-1" d="M2550.3,1112.02c-17.83,11.95-35.44,24.75-54.74,34.81-19.29,10.07-39.64,17.41-59.77,25.17-11.95,4.4-1.68,19.71,10.28,15.31,20.97-7.97,42.36-15.94,61.87-26.21,19.92-10.7,38.38-23.7,56.83-36.28,10.07-7.13-4.4-19.71-14.47-12.79h0Z"/>
    <path class="cls-1" d="M1019.81,1157.73c-49.91-8.18-100.45-5.45-150.57-.21-12.58,1.47-12.79,19.08,0,17.83,48.23-5.03,97.31-8.39,145.33-.42,12.79,1.89,18.24-15.1,5.24-17.2h0Z"/>
    <polygon class="cls-1" points="2428.46 1423.44 2411.68 1410.23 2393.64 1397.02 2415.24 1390.31 2436.84 1383.81 2432.86 1402.89 2428.46 1423.44"/>
    <polygon class="cls-1" points="2525.13 1387.16 2506.89 1375.42 2487.38 1364.09 2508.15 1355.49 2528.7 1346.69 2527.02 1366.19 2525.13 1387.16"/>
    <polygon class="cls-1" points="2477.32 1406.67 2459.49 1394.29 2440.83 1382.13 2461.8 1374.37 2483.19 1366.61 2480.25 1385.9 2477.32 1406.67"/>
    <polygon class="cls-1" points="2571.69 1365.77 2552.61 1355.49 2532.05 1345.43 2552.19 1335.36 2571.9 1325.51 2571.9 1345.01 2571.69 1365.77"/>
    <path class="cls-1" d="M2280.4,1238.68c-36.91,15.52-76.13,26.42-116.18,32.93-12.58,2.1-7.34,19.08,5.24,16.99,41.94-6.71,82.63-18.45,121-34.81,11.74-4.82,1.47-19.92-10.07-15.1h0Z"/>
    <path class="cls-1" d="M1959.54,1301.39c-40.68,3.77-81.79,3.15-121.84-2.52-12.58-1.68-18.04,15.31-5.24,16.99,42.15,5.87,84.93,7.13,127.3,3.36,12.37-1.26,12.58-18.87-.21-17.83h0Z"/>
    <path class="cls-1" d="M1629.87,1276.64c-39.64-4.61-78.64-14.47-114.92-29.36-11.53-4.82-22.02,10.49-10.28,15.31,39.64,16.36,81.58,26.84,124.99,31.88,5.45,.63,10.07-4.4,10.07-8.81,.42-5.45-4.4-8.18-9.86-9.02h0Z"/>
    <path class="cls-1" d="M1198.06,1194.43c40.89,3.36,80.95,11.74,119.54,24.33,12.16,3.98,17.41-13.21,5.24-16.99-40.26-13.21-82.21-21.39-124.99-24.96-12.58-1.05-12.58,16.57,.21,17.62h0Z"/>
    <path class="cls-1" d="M703.35,1168.85c-20.34-.63-41.94,1.68-62.28,4.4-26,3.57-51.38,10.28-75.92,18.45-11.95,3.98-6.92,21.18,5.24,16.99,41.73-13.84,87.66-23.7,132.75-22.23,13.21,.42,13.21-17.41,.21-17.62h0Z"/>
    <path class="cls-1" d="M407.02,1229.88c-46.14,6.29-90.39,21.39-131.49,40.68-11.32,5.45-1.26,20.76,10.28,15.31,39.64-18.66,82-32.51,126.46-38.8,12.79-1.89,7.34-18.87-5.24-17.2h0Z"/>
    <path class="cls-1" d="M144.67,1313.55c-45.51,9.23-88.29,26.84-127.72,48.86-10.91,6.08-.84,21.39,10.28,15.31,37.96-21.18,78.85-38.17,122.89-47.19,12.58-2.52,7.13-19.5-5.45-16.99h0Z"/>
    <path class="cls-1" d="M2531.84,1590.37c-13-11.74-26.21-23.7-37.75-36.49-11.95-13.21-21.6-27.89-31.46-42.15-6.71-9.65-24.12-.84-17.41,9.02,10.28,14.89,20.34,30.2,32.72,43.62,12.16,13.63,26,26.21,39.64,38.38,9.02,8.39,23.28-4.19,14.26-12.37h0Z"/>
    <path class="cls-1" d="M2735.69,1742.21c-15.94-8.6-32.09-16.99-47.19-26.84-15.31-10.07-28.94-22.02-42.57-33.76-9.23-7.97-23.49,4.4-14.26,12.58,14.26,12.16,28.52,24.33,44.25,35.02,15.73,10.49,32.72,19.29,49.49,28.31,11.11,5.87,21.18-9.44,10.28-15.31h0Z"/>
    <path class="cls-1" d="M2986.71,1838.05c-18.87-5.24-38.17-10.28-56.62-16.57-16.99-5.66-35.23-13.42-52.85-20.97-11.53-5.03-21.81,10.28-10.28,15.31,18.04,7.76,36.49,15.52,55.36,22.02,19.29,6.71,39.43,11.95,59.14,17.41,12.16,3.36,17.41-13.63,5.24-17.2h0Z"/>
    <path class="cls-1" d="M3104.99,1899.7c18.66,6.08,37.33,12.37,55.36,19.71,18.04,7.34,34.39,15.52,51.38,23.7,11.32,5.66,21.39-9.65,10.28-15.31-17.62-8.6-35.23-17.41-53.69-24.75-18.87-7.55-38.38-13.84-57.88-20.55-12.37-3.98-17.62,13.21-5.45,17.2h0Z"/>
    <path class="cls-1" d="M272.39,3926.59c-43.41,13.63-85.77,29.57-127.3,47.19-9.65,3.98-1.26,16.78,8.39,12.58,40.26-16.99,81.37-32.3,123.31-45.51,10.28-3.36,5.87-17.41-4.4-14.26h0Z"/>
    <path class="cls-1" d="M434.08,3886.32c39.64-14.89,80.74-26.63,122.47-35.23,10.49-2.1,5.87-16.36-4.4-14.26-43.41,9.02-85.56,21.39-126.46,36.7-10.07,3.77-1.47,16.36,8.39,12.79h0Z"/>
    <path class="cls-1" d="M741.1,3794.26c41.31-12.79,83.89-22.44,126.88-28.52,10.7-1.47,6.08-15.73-4.4-14.26-43.2,6.08-85.56,15.73-126.88,28.52-10.28,3.15-5.87,17.41,4.4,14.26h0Z"/>
    <path class="cls-1" d="M1035.12,3728.62c40.89-10.91,84.1-16.15,126.25-22.65,10.49-1.47,6.08-15.73-4.4-14.26-41.94,6.29-85.14,11.74-126.25,22.65-10.28,2.52-5.87,16.99,4.4,14.26h0Z"/>
    <path class="cls-1" d="M1337.94,3677.45c22.23-3.36,44.88-3.77,66.9-5.03,22.23-1.05,45.72-1.89,68.79-2.31,10.7-.21,10.91-14.89,0-14.68-46.35,1.05-94.16,1.26-140.09,7.97-10.7,1.26-6.29,15.52,4.4,14.05h0Z"/>
    <path class="cls-1" d="M1657.55,3668.22c42.78,.84,86.19,6.71,128.34,11.74,10.49,1.26,15.1-13,4.4-14.26-43.83-5.24-88.5-11.53-132.75-12.37-10.9,.21-10.9,14.89,0,14.89h0Z"/>
    <path class="cls-1" d="M1981.14,3717.08c42.99,5.66,85.77,16.78,127.72,26.84,10.28,2.52,14.89-11.74,4.4-14.26-41.94-10.07-84.72-20.97-127.72-26.84-10.49-1.26-14.89,12.79-4.4,14.26h0Z"/>
    <path class="cls-1" d="M2431.6,3736.79c-42.36,5.24-86.19,5.24-128.97,6.08-10.7,.21-10.91,14.89,0,14.68,44.25-.84,89.34-1.26,133.38-6.71,10.7-1.26,6.08-15.31-4.4-14.05h0Z"/>
    <path class="cls-1" d="M2763.16,3640.96c-37.33,19.5-78.43,34.6-118.28,50.12-9.86,3.77-1.47,16.57,8.39,12.58,39.64-15.52,80.74-30.62,118.28-50.12,9.44-4.82,.84-17.41-8.39-12.58h0Z"/>
    <path class="cls-1" d="M3034.11,3497.72c-35.23,22.65-74.24,41.31-112.2,60.19-9.23,4.61-.84,17.41,8.39,12.58,37.75-18.87,76.96-37.33,112.2-60.19,8.6-5.45,.42-18.45-8.39-12.58h0Z"/>
    <path class="cls-1" d="M3267.31,3332.89c-31.67,25.38-65.22,48.86-98.15,72.56-8.39,6.08,3.57,16.36,11.95,10.49,33.13-23.7,66.69-47.19,98.15-72.56,7.76-6.5-4.19-16.99-11.95-10.49h0Z"/>
    <path class="cls-1" d="M153.27,5593.81c26.21,33.13,54.74,65.22,84.72,96.05,6.92,7.34,18.87-3.36,11.95-10.49-28.94-29.78-56.83-60.82-82-93.11-6.29-7.76-20.97-.21-14.68,7.55h0Z"/>
    <path class="cls-1" d="M384.59,5795.76c35.65,25.58,73.19,49.49,111.36,71.72,9.02,5.24,17.41-7.55,8.39-12.58-37.33-21.6-73.4-44.46-108-69.42-8.18-6.08-20.13,4.4-11.74,10.28h0Z"/>
    <path class="cls-1" d="M679.65,5910.06c45.51,6.5,91.44,10.49,137.36,12.58,10.7,.42,10.7-14.26,0-14.68-44.88-2.1-89.55-6.08-132.96-12.16-10.49-1.47-15.1,12.58-4.4,14.26h0Z"/>
    <path class="cls-1" d="M1154.03,5966.68c-42.78-13.42-86.19-24.33-130.44-33.76-10.49-2.31-14.89,11.95-4.4,14.26,44.04,9.44,87.66,20.55,130.44,33.76,10.07,3.15,14.26-11.11,4.4-14.26h0Z"/>
    <path class="cls-1" d="M1432.52,6119.56c-35.65-25.58-72.98-49.7-111.15-71.93-9.02-5.24-17.41,7.55-8.39,12.58,37.33,21.6,73.4,44.67,107.79,69.62,7.97,6.08,19.92-4.19,11.74-10.28h0Z"/>
    <path class="cls-1" d="M1673.49,6282.3c-35.65-25.58-72.98-49.7-111.15-71.93-9.02-5.24-17.41,7.55-8.39,12.58,37.33,21.6,73.4,44.67,107.79,69.62,8.18,6.08,20.13-4.4,11.74-10.28h0Z"/>
    <path class="cls-1" d="M1824.48,6339.97c49.07,5.03,98.15,6.08,147.43,5.45,10.7-.21,10.91-14.89,0-14.68-49.28,.63-98.36-.42-147.43-5.45-10.7-1.26-10.7,13.63,0,14.68h0Z"/>
    <path class="cls-1" d="M2142.62,6324.03c49.91-3.77,99.19-11.74,147.85-21.39,10.49-2.1,6.08-16.36-4.4-14.26-47.19,9.44-95,17.2-143.44,20.97-10.7,.84-10.91,15.73,0,14.68h0Z"/>
    <path class="cls-1" d="M2618.04,6279.57c-51.8-10.7-105.7-13.42-158.54-8.39-10.49,1.05-10.7,15.73,0,14.68,51.38-5.03,103.6-2.73,153.93,7.97,10.7,2.1,15.1-12.16,4.61-14.26h0Z"/>
    <path class="cls-1" d="M2857.32,6399.95c-35.23-27.47-73.19-52.01-112.41-74.87-9.02-5.24-17.41,7.34-8.39,12.58,37.96,22.23,74.87,45.93,108.84,72.56,8.18,6.5,20.13-3.98,11.95-10.28h0Z"/>
    <path class="cls-1" d="M3044.38,6556.81c-28.73-32.09-60.4-61.66-93.74-90.18-7.76-6.71-19.71,3.77-11.95,10.49,33.34,28.52,65.22,57.88,93.74,90.18,6.71,7.55,18.66-3.15,11.95-10.49h0Z"/>
    <path class="cls-1" d="M3215.51,6750.8c-26.42-34.39-56.41-66.27-87.87-97.1-7.13-7.13-18.87,3.36-11.95,10.49,30.62,29.78,59.56,60.82,85.14,94.16,6.08,7.76,20.76,.42,14.68-7.55h0Z"/>
    <path class="cls-1" d="M3197.06,7645.02c-44.88,11.95-88.5,27.89-131.28,45.09-9.86,3.98-1.26,16.78,8.39,12.58,41.52-16.78,83.68-32.09,127.3-43.62,10.28-2.73,5.87-16.99-4.4-14.05h0Z"/>
    <path class="cls-1" d="M2918.98,7750.3c-41.73,20.13-83.05,40.47-124.57,60.82-9.44,4.61-1.05,17.41,8.39,12.58,41.52-20.34,82.84-40.68,124.57-60.82,9.65-4.61,1.05-17.2-8.39-12.58h0Z"/>
    <path class="cls-1" d="M2627.26,7907.79c-40.68,19.71-78.64,42.78-115.97,67.11-8.6,5.45-.21,18.45,8.39,12.58,37.12-24.33,75.29-47.4,115.97-67.11,9.44-4.61,1.05-17.2-8.39-12.58h0Z"/>
    <path class="cls-1" d="M2254.81,8131.55c42.36-16.78,82.42-37.12,121.84-58.72,9.23-5.03,.63-17.83-8.39-12.58-39.22,21.6-79.48,41.94-121.84,58.72-9.86,3.77-1.47,16.57,8.39,12.58h0Z"/>
    <path class="cls-1" d="M1957.23,8233.27c45.3-9.02,89.34-21.39,132.75-35.65,10.07-3.36,5.66-17.62-4.4-14.26-43.41,14.26-87.45,26.84-132.75,35.65-10.7,2.1-6.08,16.57,4.4,14.26h0Z"/>
    <path class="cls-1" d="M1768.07,8271.43c-45.51,10.91-89.34,25.59-132.75,41.73-9.86,3.77-1.47,16.36,8.39,12.58,41.94-15.52,84.72-29.57,128.76-40.27,10.49-2.31,6.08-16.36-4.4-14.05h0Z"/>
    <path class="cls-1" d="M1475.52,8363.08c-45.93,12.58-89.76,29.57-132.75,48.44-9.65,4.4-1.26,16.99,8.39,12.58,41.73-18.45,84.1-35.02,128.55-47.19,10.49-2.31,6.08-16.57-4.19-13.84h0Z"/>
    <path class="cls-1" d="M1214,8467.73c-42.36,18.66-81.79,41.52-119.75,66.06-8.6,5.45-.21,18.45,8.39,12.58,38.17-24.54,77.38-47.4,119.75-66.06,9.86-3.98,1.26-16.78-8.39-12.58h0Z"/>
    <path class="cls-1" d="M975.35,8622.7c-42.36,20.13-81.37,44.46-119.12,70.46-8.39,5.87,3.57,16.15,11.95,10.49,36.7-25.17,74.87-48.65,115.76-68.16,9.23-4.61,.84-17.2-8.6-12.79h0Z"/>
    <path class="cls-1" d="M731.66,8793.83c-36.28,26.84-68.79,57.04-99.19,88.71-6.92,7.34,4.82,17.62,11.95,10.49,30.62-31.67,63.12-61.87,99.19-88.71,8.18-6.29-3.77-16.57-11.95-10.49h0Z"/>
    <path class="cls-1" d="M543.76,8968.94c-34.39,29.57-64.38,62.49-92.69,96.47-6.29,7.76,8.18,14.89,14.47,7.34,27.47-33.13,56.83-64.8,90.18-93.53,7.55-6.29-4.19-16.78-11.95-10.28h0Z"/>
    <path class="cls-1" d="M363.61,9161.25c-31.46,31.88-58.72,66.69-83.68,102.55-5.66,8.18,8.81,15.52,14.47,7.34,24.33-35.02,50.33-68.79,80.95-99.61,7.13-6.92-4.61-17.41-11.74-10.28h0Z"/>
    <path class="cls-1" d="M204.23,9361.74c-31.46,31.88-58.72,66.69-83.68,102.55-5.66,8.18,8.81,15.52,14.47,7.34,24.33-35.02,50.33-68.79,80.95-99.61,7.13-6.71-4.61-17.41-11.74-10.28h0Z"/>
    <path class="cls-1" d="M277.21,9998.01c-47.19-8.39-94.79-11.95-143.02-13.21-10.7-.21-10.7,14.47,0,14.68,46.56,1.47,92.69,4.61,138.41,12.79,10.7,1.68,15.31-12.37,4.61-14.26h0Z"/>
    <path class="cls-1" d="M605.62,10071.62c-44.04-16.78-89.76-29.15-136.52-39.43-10.49-2.31-14.89,11.95-4.4,14.26,45.09,9.86,89.76,21.39,132.54,37.75,9.86,3.99,18.24-8.6,8.39-12.58h0Z"/>
    <path class="cls-1" d="M888.32,10204.78c-38.38-24.33-79.69-44.25-122.05-62.7-9.65-4.19-18.04,8.6-8.39,12.58,42.57,18.25,83.89,38.38,122.05,62.7,8.81,5.66,17.2-6.92,8.39-12.58h0Z"/>
    <path class="cls-1" d="M1114.18,10380.94c-31.04-31.46-66.06-59.35-102.55-85.77-8.18-6.08-20.13,4.4-11.95,10.49,36.49,26.42,71.51,54.32,102.55,85.77,7.13,7.13,18.87-3.56,11.95-10.49h0Z"/>
    <path class="cls-1" d="M1218.41,10504.47c33.55,30.2,70.88,56.62,109.89,81.37,8.81,5.45,16.99-7.34,8.39-12.58-37.54-24.12-73.82-49.91-106.32-79.27-7.55-6.92-19.29,3.77-11.95,10.49h0Z"/>
    <path class="cls-1" d="M1474.47,10676.85c41.94,20.55,86.19,36.7,131.49,50.96,10.28,3.36,14.68-11.11,4.4-14.26-43.83-13.84-86.82-29.57-127.3-49.49-9.44-4.61-18.04,7.97-8.6,12.79h0Z"/>
    <path class="cls-1" d="M1771.63,10784.85c46.77,9.23,93.95,15.1,141.56,19.5,10.7,.84,10.7-13.84,0-14.68-45.93-4.4-91.85-10.07-137.15-19.08-10.7-2.1-15.1,12.37-4.4,14.26h0Z"/>
    <path class="cls-1" d="M2090.4,10818.83c46.98,3.15,93.95,3.15,141.14,1.47,10.7-.21,10.91-15.1,0-14.68-47.19,1.47-94.16,1.68-141.14-1.47-10.91-.63-10.7,14.05,0,14.68h0Z"/>
    <path class="cls-1" d="M2602.31,10853.22c-51.38-14.26-104.02-24.33-157.08-32.51-10.49-1.68-15.1,12.58-4.4,14.26,53.06,8.18,105.7,18.25,157.08,32.51,10.49,2.73,14.89-11.53,4.4-14.26h0Z"/>
    <path class="cls-1" d="M2903.67,10986.18c-42.78-28.73-88.29-53.9-135.06-77.38-9.23-4.82-17.83,7.97-8.39,12.58,46.77,23.49,92.27,48.65,135.06,77.38,8.39,5.87,16.78-6.92,8.39-12.58h0Z"/>
    <path class="cls-1" d="M3170,11179.32c-36.28-35.02-76.13-66.9-117.44-97.31-8.18-6.08-20.13,4.4-11.95,10.49,41.31,30.41,80.95,62.29,117.44,97.31,7.34,7.13,19.08-3.36,11.95-10.49h0Z"/>
    <path class="cls-1" d="M3052.35,12163.3c47.4-22.23,92.48-48.44,136.31-75.92,8.6-5.45,.42-18.25-8.39-12.58-43.83,27.68-88.71,53.69-136.31,75.92-9.44,4.4-1.05,17.2,8.39,12.58h0Z"/>
    <path class="cls-1" d="M2714.3,12280.11c51.8-14.68,102.34-32.3,152.67-50.96,9.86-3.77,1.47-16.36-8.39-12.58-48.86,18.25-98.15,35.02-148.69,49.49-10.07,2.73-5.66,16.99,4.4,14.05h0Z"/>
    <path class="cls-1" d="M2386.51,12367.98c53.06-7.34,105.49-17.62,157.49-29.15,10.49-2.31,5.87-16.57-4.4-14.26-52.22,11.53-104.65,21.81-157.49,29.15-10.7,1.47-6.29,15.73,4.4,14.26h0Z"/>
    <path class="cls-1" d="M2020.56,12382.45c53.48,2.73,107.37,2.73,161.06,1.26,10.7-.21,10.91-14.89,0-14.68-53.69,1.47-107.37,1.47-161.06-1.26-10.91-.84-10.91,14.05,0,14.68h0Z"/>
    <path class="cls-1" d="M1649.79,12350.58c52.85,7.97,105.7,15.1,158.75,22.02,10.49,1.47,15.1-12.79,4.4-14.26-53.06-6.71-106.12-13.84-158.75-22.02-10.49-1.68-14.89,12.58-4.4,14.26h0Z"/>
    <path class="cls-1" d="M1456.64,12309.68c-53.69-7.13-107.79-12.58-161.9-17.41-10.7-.84-10.7,13.84,0,14.68,52.64,4.61,105.28,10.07,157.49,16.78,10.7,1.68,14.89-12.58,4.4-14.05h0Z"/>
    <path class="cls-1" d="M1139.97,12272.56c-53.69-6.71-107.79-12.16-161.9-16.78-10.7-.84-10.7,13.84,0,14.68,52.64,4.4,105.28,9.65,157.49,16.36,10.28,1.26,14.89-12.79,4.4-14.26h0Z"/>
    <path class="cls-1" d="M814.08,12258.51c-53.06,7.34-105.7,16.36-158.12,26.21-10.49,2.1-6.08,16.15,4.4,14.26,52.43-9.65,105.28-18.66,158.12-26.21,10.7-1.47,6.29-15.52-4.4-14.26h0Z"/>
    <path class="cls-1" d="M509.16,12336.73c-49.28,18.87-97.73,39.01-145.75,59.98-9.65,4.19-1.26,16.99,8.39,12.58,48.23-20.76,96.68-41.1,145.75-59.98,10.07-3.56,1.47-16.36-8.39-12.58h0Z"/>
    <path class="cls-1" d="M231.08,12467.6c-44.88,26-88.5,53.27-131.7,81.37-8.6,5.45-.42,18.45,8.39,12.58,43.2-27.89,87.03-55.15,131.7-81.37,9.02-5.03,.63-17.83-8.39-12.58h0Z"/>
    <path class="cls-3" d="M-6.74,14921.46c142.19-96.26,400.13-274.93,702.96-345.19,630.82-146.38,968.46,148.48,1603.68,69.42,249.56-31.04,602.72-119.96,1006.63-387.97v-423.41c-601.25,363.22-1076.25,422.15-1404.03,405.8-425.51-21.39-705.9-175.11-1174.19-93.11-330.3,57.88-577.97,202.37-734.84,314.36v460.11h-.21Z"/>
    <path class="cls-1" d="M3055.29,14217.24c47.4-22.23,92.48-48.44,136.31-75.92,8.6-5.45,.42-18.25-8.39-12.58-43.83,27.68-88.71,53.69-136.31,75.92-9.65,4.4-1.05,17.2,8.39,12.58h0Z"/>
    <path class="cls-1" d="M2717.23,14334.05c51.8-14.68,102.34-32.3,152.67-50.96,9.86-3.77,1.47-16.36-8.39-12.58-48.86,18.25-98.15,35.02-148.69,49.49-10.28,2.73-5.87,16.99,4.4,14.05h0Z"/>
    <path class="cls-1" d="M2389.45,14421.92c53.06-7.34,105.49-17.62,157.49-29.15,10.49-2.31,5.87-16.57-4.4-14.26-52.22,11.53-104.65,21.81-157.49,29.15-10.7,1.47-6.5,15.73,4.4,14.26h0Z"/>
    <path class="cls-1" d="M2023.29,14436.39c53.48,2.73,107.37,2.73,161.06,1.26,10.7-.21,10.91-14.89,0-14.68-53.69,1.47-107.37,1.47-161.06-1.26-10.91-.63-10.91,14.05,0,14.68h0Z"/>
    <path class="cls-1" d="M1652.72,14404.51c52.85,7.97,105.7,15.1,158.75,22.02,10.49,1.47,15.1-12.79,4.4-14.26-53.06-6.71-106.12-13.84-158.75-22.02-10.49-1.47-15.1,12.58-4.4,14.26h0Z"/>
    <path class="cls-1" d="M1459.58,14363.62c-53.69-7.13-107.79-12.58-161.9-17.41-10.7-.84-10.7,13.84,0,14.68,52.64,4.61,105.28,10.07,157.49,16.78,10.49,1.68,14.89-12.58,4.4-14.05h0Z"/>
    <path class="cls-1" d="M1142.7,14326.5c-53.69-6.71-107.79-12.16-161.9-16.78-10.7-.84-10.7,13.84,0,14.68,52.64,4.4,105.28,9.65,157.49,16.36,10.49,1.26,15.1-12.79,4.4-14.26h0Z"/>
    <path class="cls-1" d="M817.02,14312.45c-53.06,7.34-105.7,16.36-158.12,26.21-10.49,2.1-6.08,16.15,4.4,14.26,52.43-9.65,105.28-18.66,158.12-26.21,10.7-1.47,6.08-15.52-4.4-14.26h0Z"/>
    <path class="cls-1" d="M512.09,14390.67c-49.28,18.87-97.73,39.01-145.75,59.98-9.65,4.19-1.26,16.99,8.39,12.58,48.23-20.76,96.68-41.1,145.75-59.98,10.07-3.56,1.47-16.36-8.39-12.58h0Z"/>
    <path class="cls-1" d="M234.01,14521.53c-44.88,26-88.5,53.27-131.7,81.37-8.6,5.45-.42,18.45,8.39,12.58,43.2-27.89,87.03-55.15,131.7-81.37,8.81-5.03,.42-17.83-8.39-12.58h0Z"/>
  </g>
</svg>