<?xml version="1.0" encoding="UTF-8"?>
<svg id="Lag_1" data-name="Lag 1" xmlns="http://www.w3.org/2000/svg" xmlns:xlink="http://www.w3.org/1999/xlink" viewBox="0 0 2904 11399.53">
  <defs>
    <style>
      .cls-1, .cls-2, .cls-3, .cls-4, .cls-5, .cls-6 {
        fill: none;
      }

      .cls-7 {
        font-size: 34.24px;
      }

      .cls-7, .cls-8, .cls-9, .cls-10 {
        fill: #f8d7ee;
      }

      .cls-7, .cls-9 {
        isolation: isolate;
      }

      .cls-7, .cls-9, .cls-11 {
        font-family: KohinoorDevanagari-Bold, 'Kohinoor Devanagari';
      }

      .cls-12 {
        letter-spacing: -.04em;
      }

      .cls-13 {
        clip-path: url(#clippath);
      }

      .cls-14 {
        fill: #efa919;
      }

      .cls-15 {
        fill: #fff;
      }

      .cls-16 {
        fill: #ffe300;
      }

      .cls-17 {
        fill: #ffe200;
      }

      .cls-18 {
        fill: #edb92e;
      }

      .cls-19 {
        fill: #e82d41;
      }

      .cls-20 {
        fill: #e3ae21;
      }

      .cls-21 {
        fill: #edcde4;
      }

      .cls-22 {
        fill: #e4eddf;
      }

      .cls-23 {
        fill: #aeb0b3;
      }

      .cls-24 {
        fill: #cac9c9;
      }

      .cls-25, .cls-26 {
        fill: #1f4acd;
      }

      .cls-27, .cls-11, .cls-28 {
        fill: #21471d;
      }

      .cls-29 {
        fill: #5272d5;
      }

      .cls-30 {
        fill: #818080;
      }

      .cls-2 {
        stroke-width: .22px;
      }

      .cls-2, .cls-4 {
        stroke: #21471d;
      }

      .cls-2, .cls-4, .cls-5, .cls-6 {
        stroke-miterlimit: 3.73;
      }

      .cls-9 {
        font-size: 58.71px;
      }

      .cls-31 {
        letter-spacing: 0em;
      }

      .cls-32 {
        clip-path: url(#clippath-1);
      }

      .cls-33 {
        clip-path: url(#clippath-4);
      }

      .cls-34 {
        clip-path: url(#clippath-3);
      }

      .cls-35 {
        clip-path: url(#clippath-2);
      }

      .cls-36 {
        clip-path: url(#clippath-5);
      }

      .cls-26 {
        stroke: #1f4acd;
        stroke-miterlimit: 4;
        stroke-width: 5px;
      }

      .cls-11 {
        font-size: 43px;
      }

      .cls-3 {
        stroke: #edb92e;
        stroke-miterlimit: 2.81;
        stroke-width: 3.51px;
      }

      .cls-37 {
        letter-spacing: -.02em;
      }

      .cls-38 {
        letter-spacing: 0em;
      }

      .cls-39 {
        letter-spacing: 0em;
      }

      .cls-4 {
        stroke-width: .44px;
      }

      .cls-28 {
        font-family: KohinoorDevanagari-Regular, 'Kohinoor Devanagari';
        font-size: 59.67px;
      }

      .cls-10 {
        fill-rule: evenodd;
      }

      .cls-5 {
        stroke-width: .48px;
      }

      .cls-5, .cls-6 {
        stroke: #10418f;
      }

      .cls-40 {
        letter-spacing: 0em;
      }

      .cls-6 {
        stroke-width: .37px;
      }

      .cls-41 {
        letter-spacing: -.06em;
      }
    </style>
    <clipPath id="clippath">
      <rect class="cls-1" x="1977.32" y="4171.99" width="492.38" height="1069.09"/>
    </clipPath>
    <clipPath id="clippath-1">
      <rect class="cls-1" x="-1404.49" y="3982.79" width="1365.17" height="875.98" transform="translate(-1859.58 88.33) rotate(-23.99)"/>
    </clipPath>
    <clipPath id="clippath-2">
      <rect class="cls-1" x="1882.93" y="601.08" width="166.99" height="261.45"/>
    </clipPath>
    <clipPath id="clippath-3">
      <rect class="cls-1" x="776.61" y="543.86" width="310.86" height="448.4" transform="translate(70.75 1614.71) rotate(-84)"/>
    </clipPath>
    <clipPath id="clippath-4">
      <rect class="cls-1" x="1039.49" y="4279.29" width="953.46" height="611.79" transform="translate(-3154.88 3358.95) rotate(-56.99)"/>
    </clipPath>
    <clipPath id="clippath-5">
      <rect class="cls-1" x="860.06" y="4626.29" width="320.52" height="545" transform="translate(-3983.15 4965.64) rotate(-79)"/>
    </clipPath>
  </defs>
  <rect class="cls-22" x="8.52" y="-69.01" width="2881.09" height="11480.38"/>
  <path class="cls-24" d="M2934.94,554.78c-27.59,31.88-68.72,77.99-119.9,131.8-167.96,176.93-304.05,320.23-474.84,422.29-237.66,141.74-479.22,166.5-594.54,176.74-368.58,32.75-522.11-88.9-860.96-120.59-225.57-21.15-549.6-4-962.25,176.74v-284.94c266.71-117.37,497.45-153.34,645.92-165.52,176.93-14.43,427.75-34.8,708.4,51.96,223.43,69.11,205.78,62.88,316.04,67.26,379.5,15.3,681.01-226.45,753.44-284.75,91.05-72.92,67.95-75.06,303.56-301.51,119.51-114.83,221.48-206.47,290.89-267.78-1.66,132.77-3.61,265.44-5.75,398.31h0Z"/>
  <path class="cls-24" d="M3131.66,1636.73c24.66,146.03,49.62,291.96,74.57,437.99-51.76-35.29-140.67-92.9-258.04-155.58-423.27-225.77-662.49-218.56-883.77-409.04-72.43-62.1-171.47-170.2-233.66-353.47,138.13-43.67,276.36-87.34,414.59-131.02,10.53,68.53,40.55,165.52,124.39,254.33,93.78,99.14,212.51,143.59,291.86,173.03,109.37,40.94,149.54,29.93,265.83,75.06,92.22,36.26,160.65,78.47,204.23,108.69h0Z"/>
  <path class="cls-24" d="M3017.89,3418.12c-419.37,413.23-782,477.76-1027.95,480.29-279.19,3.02-459.24-104.5-904.73-67.26-169.23,14.13-353.08,61.22-570.27,111.52-334.75,77.6-531.08,169.23-713.96,234.83-6.73-113.57-13.94-227.13-20.76-340.7,105.38-40.94,252.48-94.36,432.72-148.56,158.31-47.57,288.84-86.86,468.01-118.93,97.19-17.35,309.12-50.5,579.14-50.5,328.22-.19,467.62,48.84,625.54,57.9,250.33,14.62,614.14-66.68,1098.14-505.06,11.41,115.32,22.71,230.94,34.12,346.45h0Z"/>
  <path class="cls-24" d="M3087.98,6369.1c-427.95-596.01-768.74-711.52-1006.41-699.92-194.09,9.85-382.62,107.62-643.97,10.43-197.11-73.31-183.46-163.77-400.85-263.59-296.74-136.28-442.57-23.1-693.1-124.29-138.33-55.86-315.94-180.05-473.57-484.97,17.06-144.96,33.73-289.81,50.79-434.58,185.9,345.18,390.81,482.15,547.36,542.39,243.9,93.97,369.36,1.56,662,129.07,266.71,116,250.14,230.64,476.4,304.53,281.24,91.54,428.73-45.52,692.12-32.56,200.52,9.85,490.14,108.21,825.19,547.36-12.19,168.94-24.08,337.48-35.97,506.13h0Z"/>
  <path class="cls-24" d="M23.24,8264.25c539.08-770.11,1010.5-1050.18,1351.2-1159.16,161.63-51.57,401.53-99.33,722.15-261.93,195.74-99.33,339.04-199.45,630.51-317.6,140.96-57.12,261.54-96.22,342.46-120.59-8.87-116.59-17.64-233.57-26.32-349.96-104.31,8.68-267.1,31.1-446.76,98.65-268.17,100.5-360.68,221.38-604,349.96-264.27,139.89-480.1,169.52-630.51,207.54-329.98,83.35-791.85,320.33-1352.76,1007.48,4.58,181.51,9.16,363.61,14.04,545.61h0Z"/>
  <path class="cls-24" d="M3006.49,9795.41c-125.17-198.38-345.18-403.28-706.26-536.35-377.16-138.91-515.78,20.96-902.59-127.7-433.02-166.6-465.77-446.66-921.5-587.33-217.48-67.26-415.27-66.68-549.51-55.86-9.36-120-18.81-239.81-28.17-359.61,196.91-4.39,486.53,13.45,792.63,139.59,422.29,173.81,423.37,367.22,824.02,513.93,406.89,149.15,574.17,11.21,981.16,183.46,243.32,102.84,410.4,248.29,510.22,349.47v480.39h0Z"/>
  <path class="cls-24" d="M-9.61,10817.8c124.97-84.61,351.62-241.66,617.84-303.36,554.38-128.68,851.21,130.53,1409.5,61.02,219.33-27.3,529.72-105.48,884.75-340.99v-372.09c-528.35,319.25-945.97,371.11-1233.93,356.69-373.94-18.81-620.38-153.92-1032.04-81.79-290.3,50.89-507.98,177.91-645.82,276.36v404.36h-.29v-.19Z"/>
  <path class="cls-15" d="M2890.39,372.68c-21.64,20.96-43.57,42.01-65.22,63.17-6.43,6.24,4.48,15.5,11.11,9.26,21.64-20.96,43.57-42.01,65.22-63.17,6.43-6.24-4.68-15.5-11.11-9.26h0Z"/>
  <path class="cls-15" d="M2741.92,520.66c-24.66,24.37-48.84,49.23-71.94,74.48-6.04,6.63,7.6,13.06,13.45,6.43,22.42-24.57,45.72-48.55,69.7-72.04,6.04-5.85-4.87-15.11-11.21-8.87h0Z"/>
  <path class="cls-15" d="M2589.26,685.31c-22.42,23.2-46.5,45.13-71.94,66-8.48,7.02,4.48,17.84,13.26,11.11,25.64-20.86,49.62-42.79,71.94-66,7.6-7.99-5.56-18.81-13.26-11.11h0Z"/>
  <path class="cls-15" d="M2441.77,825.78c-24.57,24.18-52.54,45.72-83.83,63.66-9.75,5.75-.58,19.2,9.55,13.45,32.56-18.81,61.9-40.94,87.54-66,7.6-7.6-5.46-18.72-13.26-11.11h0Z"/>
  <path class="cls-15" d="M2245.35,963.03c-16.57,10.53-32.85,21.74-50.79,30.61-17.94,8.87-36.85,15.3-55.47,22.13-11.11,3.9-1.56,17.35,9.55,13.45,19.4-7.02,39.29-13.94,57.42-23.01,18.42-9.36,35.58-20.86,52.74-31.88,9.46-6.24-4-17.35-13.45-11.31h0Z"/>
  <path class="cls-15" d="M825.03,1003.2c-46.3-7.21-93.29-4.87-139.79-.19-11.7,1.36-11.89,16.77,0,15.6,44.74-4.39,90.27-7.41,134.92-.39,11.99,1.75,17.06-13.16,4.87-15.01h0Z"/>
  <polygon class="cls-15" points="2132.37 1236.76 2116.77 1225.16 2100 1213.56 2120.08 1207.62 2140.07 1201.96 2136.36 1218.73 2132.37 1236.76"/>
  <polygon class="cls-15" points="2222.05 1204.89 2205.09 1194.55 2187.05 1184.61 2206.26 1177.1 2225.36 1169.31 2223.8 1186.46 2222.05 1204.89"/>
  <polygon class="cls-15" points="2177.69 1222.04 2161.22 1211.12 2143.87 1200.4 2163.27 1193.68 2183.15 1186.85 2180.42 1203.81 2177.69 1222.04"/>
  <polygon class="cls-15" points="2265.23 1186.07 2247.59 1177.1 2228.48 1168.23 2247.1 1159.36 2265.53 1150.69 2265.53 1167.84 2265.23 1186.07"/>
  <path class="cls-15" d="M1995.01,1074.45c-34.31,13.65-70.67,23.2-107.82,28.95-11.7,1.85-6.82,16.77,4.87,14.91,38.9-5.85,76.62-16.28,112.3-30.61,10.82-4.29,1.27-17.55-9.36-13.26h0Z"/>
  <path class="cls-15" d="M1697.2,1129.53c-37.82,3.31-75.94,2.73-113.08-2.24-11.7-1.46-16.67,13.45-4.87,14.91,39.09,5.17,78.86,6.24,118.15,3.02,11.5-1.17,11.7-16.67-.19-15.69h0Z"/>
  <path class="cls-15" d="M1391.31,1107.7c-36.85-4-72.92-12.77-106.65-25.83-10.72-4.19-20.47,9.26-9.55,13.45,36.85,14.43,75.65,23.59,116,28.07,5.07,.49,9.36-3.9,9.36-7.7,.29-4.78-4.19-7.21-9.16-7.99h0Z"/>
  <path class="cls-15" d="M990.46,1035.46c37.92,3.02,75.16,10.24,110.93,21.35,11.21,3.51,16.18-11.6,4.87-14.91-37.34-11.6-76.33-18.81-116-21.93-11.6-.88-11.6,14.62,.19,15.5h0Z"/>
  <path class="cls-15" d="M531.42,1012.94c-18.91-.49-38.9,1.46-57.81,3.9-24.18,3.12-47.77,9.07-70.48,16.28-11.11,3.51-6.43,18.62,4.87,14.91,38.8-12.09,81.4-20.86,123.22-19.5,12.28,.29,12.28-15.3,.19-15.6h0Z"/>
  <path class="cls-15" d="M256.42,1066.66c-42.79,5.56-83.83,18.81-121.95,35.78-10.53,4.87-1.17,18.33,9.55,13.45,36.85-16.47,76.13-28.56,117.37-34.12,11.7-1.66,6.73-16.57-4.97-15.11h0Z"/>
  <path class="cls-15" d="M2228.29,1383.47c-12.09-10.24-24.37-20.86-35.09-32.07-11.11-11.6-20.08-24.57-29.15-37.04-6.24-8.48-22.42-.68-16.18,7.9,9.55,13.06,18.91,26.52,30.32,38.31,11.21,11.99,24.18,23.01,36.85,33.73,8.38,7.41,21.64-3.61,13.26-10.82h0Z"/>
  <path class="cls-15" d="M2417.5,1516.93c-14.72-7.6-29.83-14.91-43.77-23.59-14.23-8.87-26.91-19.3-39.58-29.73-8.48-7.02-21.84,3.9-13.26,11.11,13.26,10.72,26.42,21.35,41.04,30.8,14.62,9.26,30.32,16.96,46.01,24.86,10.33,5.17,19.59-8.29,9.55-13.45h0Z"/>
  <path class="cls-15" d="M2650.39,1601.15c-17.45-4.58-35.39-9.07-52.54-14.62-15.69-4.97-32.66-11.8-49.03-18.42-10.72-4.39-20.18,9.07-9.55,13.45,16.67,6.82,33.83,13.65,51.37,19.3,17.94,5.85,36.56,10.53,54.88,15.3,11.41,3.12,16.18-11.89,4.87-15.01h0Z"/>
  <path class="cls-15" d="M2760.15,1655.35c17.35,5.36,34.61,10.92,51.37,17.35,16.77,6.43,31.88,13.65,47.77,20.86,10.53,4.97,19.89-8.48,9.55-13.45-16.38-7.6-32.66-15.3-49.81-21.74-17.45-6.63-35.58-12.09-53.71-18.13-11.6-3.51-16.38,11.6-5.17,15.11h0Z"/>
  <path class="cls-15" d="M195.3,3861.18c37.63-13.06,76.62-23.4,116.3-30.9,9.94-1.85,5.56-14.43-4.19-12.58-41.23,7.9-81.2,18.81-120.1,32.27-9.46,3.31-1.27,14.43,7.99,11.21h0Z"/>
  <path class="cls-15" d="M486.87,3780.37c39.19-11.21,79.64-19.69,120.49-25.05,10.24-1.36,5.85-13.84-4.19-12.58-41.04,5.36-81.2,13.84-120.49,25.05-9.75,2.73-5.56,15.3,4.19,12.58h0Z"/>
  <path class="cls-15" d="M766.05,3722.66c38.9-9.55,79.94-14.13,119.9-19.89,9.94-1.36,5.85-13.84-4.19-12.58-39.77,5.56-80.81,10.24-119.9,19.89-9.65,2.24-5.56,14.91,4.19,12.58h0Z"/>
  <path class="cls-15" d="M1053.63,3677.62c21.06-3.02,42.6-3.31,63.56-4.39,21.06-.88,43.38-1.66,65.31-2.05,10.24-.19,10.33-13.06,0-12.97-44.06,.88-89.39,1.17-133.06,7.02-10.14,1.17-5.85,13.65,4.19,12.38h0Z"/>
  <path class="cls-15" d="M1357.19,3669.53c40.65,.68,81.79,5.85,121.95,10.24,9.94,1.17,14.33-11.41,4.19-12.58-41.62-4.58-84.03-10.14-126.04-10.92-10.43,.29-10.43,13.26-.1,13.26h0Z"/>
  <path class="cls-15" d="M1664.55,3712.52c40.85,4.97,81.5,14.72,121.27,23.59,9.75,2.24,14.13-10.24,4.19-12.58-39.77-8.87-80.42-18.42-121.27-23.59-10.04-1.07-14.23,11.21-4.19,12.58h0Z"/>
  <path class="cls-15" d="M2092.3,3729.77c-40.26,4.58-81.79,4.58-122.54,5.36-10.24,.19-10.33,13.06,0,12.97,42.01-.68,84.81-1.17,126.63-5.85,10.24-1.17,5.75-13.55-4.09-12.48h0Z"/>
  <path class="cls-15" d="M2407.07,3645.65c-35.39,17.16-74.48,30.41-112.3,44.06-9.36,3.31-1.36,14.62,7.99,11.11,37.63-13.65,76.62-26.91,112.3-44.06,8.97-4.39,.78-15.4-7.99-11.11h0Z"/>
  <path class="cls-15" d="M2685.67,3373.28c-33.53,19.89-70.48,36.26-106.55,52.93-8.77,4-.78,15.3,7.99,11.11,35.87-16.57,73.11-32.75,106.55-52.93,8.09-4.78,.39-16.28-7.99-11.11h0Z"/>
  <path class="cls-15" d="M2885.81,3374.84c-30.02,22.32-62,42.99-93.19,63.85-7.99,5.36,3.41,14.43,11.31,9.26,31.49-20.86,63.36-41.53,93.19-63.85,7.41-5.75-3.9-15.01-11.31-9.26h0Z"/>
  <path class="cls-15" d="M181.26,4865.34c24.37,30.8,50.89,60.54,78.67,89.2,6.43,6.82,17.45-3.12,11.11-9.75-26.91-27.68-52.84-56.54-76.23-86.47-5.75-7.21-19.3-.2-13.55,7.02h0Z"/>
  <path class="cls-15" d="M327.58,5044.71c33.14,23.69,68.04,46.01,103.43,66.58,8.38,4.87,16.18-7.02,7.8-11.7-34.7-20.08-68.24-41.33-100.41-64.53-7.51-5.46-18.62,4.19-10.82,9.65h0Z"/>
  <path class="cls-15" d="M601.7,5150.87c42.31,6.04,84.91,9.75,127.6,11.7,9.94,.39,9.94-13.26,0-13.65-41.62-1.95-83.15-5.65-123.51-11.31-9.85-1.27-14.04,11.8-4.09,13.26h0Z"/>
  <path class="cls-15" d="M1042.32,5203.51c-39.77-12.48-80.03-22.62-121.17-31.39-9.75-2.14-13.84,11.11-4.09,13.26,40.85,8.77,81.5,19.11,121.17,31.39,9.36,2.92,13.26-10.33,4.09-13.26h0Z"/>
  <path class="cls-15" d="M1301.04,5345.54c-33.14-23.69-67.75-46.11-103.23-66.78-8.38-4.87-16.18,7.02-7.8,11.7,34.7,20.08,68.24,41.53,100.11,64.73,7.41,5.56,18.42-4,10.92-9.65h0Z"/>
  <path class="cls-15" d="M1524.86,5496.73c-33.14-23.69-67.75-46.11-103.23-66.78-8.38-4.87-16.18,7.02-7.8,11.7,34.7,20.08,68.24,41.53,100.11,64.73,7.6,5.56,18.81-4.19,10.92-9.65h0Z"/>
  <path class="cls-15" d="M1665.13,5550.25c45.62,4.68,91.15,5.65,136.96,5.07,9.94-.2,10.14-13.84,0-13.65-45.82,.58-91.44-.39-136.96-5.07-9.94-1.07-9.94,12.67,0,13.65h0Z"/>
  <path class="cls-15" d="M1960.6,5535.53c46.4-3.51,92.12-10.92,137.35-19.89,9.75-1.95,5.65-15.21-4.09-13.26-43.87,8.77-88.22,15.99-133.26,19.5-9.85,.78-10.04,14.62,0,13.65h0Z"/>
  <path class="cls-15" d="M2402.29,5494.2c-48.06-9.94-98.16-12.48-147.3-7.8-9.75,.97-9.94,14.62,0,13.65,47.77-4.68,96.21-2.53,143.01,7.41,9.94,1.95,14.04-11.31,4.29-13.26h0Z"/>
  <path class="cls-15" d="M2624.55,5606.01c-32.66-25.44-68.04-48.35-104.4-69.5-8.38-4.87-16.18,6.82-7.8,11.7,35.29,20.67,69.5,42.6,101.09,67.46,7.6,5.95,18.81-3.8,11.11-9.65h0Z"/>
  <path class="cls-15" d="M2798.36,5751.75c-26.71-29.83-56.05-57.32-87.05-83.74-7.21-6.24-18.33,3.51-11.11,9.75,30.9,26.42,60.54,53.81,87.05,83.74,6.24,7.02,17.35-2.92,11.11-9.75h0Z"/>
  <path class="cls-15" d="M2957.36,5931.99c-24.57-31.97-52.35-61.51-81.69-90.17-6.63-6.63-17.45,3.12-11.11,9.75,28.46,27.68,55.27,56.54,79.06,87.44,5.75,7.12,19.3,.39,13.74-7.02h0Z"/>
  <path class="cls-15" d="M2820.2,6251.15c-39.48,10.53-77.79,24.57-115.42,39.68-8.68,3.51-1.17,14.72,7.41,11.11,36.46-14.72,73.6-28.17,111.91-38.31,8.97-2.63,5.07-15.11-3.9-12.48h0Z"/>
  <path class="cls-15" d="M2575.81,6343.66c-36.65,17.64-72.92,35.58-109.47,53.42-8.29,4-.88,15.3,7.41,11.11,36.46-17.84,72.82-35.78,109.47-53.42,8.38-4.09,.78-15.11-7.41-11.11h0Z"/>
  <path class="cls-15" d="M2319.43,6482.09c-35.78,17.35-69.11,37.63-101.97,58.98-7.6,4.87-.19,16.28,7.41,11.11,32.56-21.35,66.19-41.63,101.97-58.98,8.19-4.09,.88-15.11-7.41-11.11h0Z"/>
  <path class="cls-15" d="M1991.99,6678.8c37.24-14.72,72.43-32.56,107.04-51.57,8.09-4.39,.49-15.6-7.41-11.11-34.41,19.01-69.89,36.85-107.04,51.57-8.58,3.31-1.17,14.52,7.41,11.11h0Z"/>
  <path class="cls-15" d="M1730.45,6768.2c39.77-7.9,78.47-18.81,116.59-31.39,8.87-3.02,4.97-15.5-3.9-12.58-38.12,12.58-76.91,23.59-116.59,31.39-9.36,1.85-5.36,14.52,3.9,12.58h0Z"/>
  <path class="cls-15" d="M1564.24,6801.63c-39.97,9.55-78.47,22.52-116.59,36.65-8.68,3.31-1.36,14.43,7.41,11.11,36.85-13.65,74.48-26.03,113.18-35.39,9.16-1.95,5.26-14.43-4-12.38h0Z"/>
  <path class="cls-15" d="M1307.08,6882.25c-40.36,11.11-78.96,26.03-116.59,42.5-8.48,3.9-1.17,14.91,7.41,11.11,36.65-16.28,73.89-30.8,112.98-41.53,9.16-1.95,5.26-14.43-3.8-12.09h0Z"/>
  <path class="cls-15" d="M1077.22,6974.17c-37.24,16.47-71.94,36.46-105.18,58.1-7.6,4.87-.19,16.28,7.41,11.11,33.53-21.54,68.04-41.63,105.18-58.1,8.68-3.51,1.07-14.82-7.41-11.11h0Z"/>
  <path class="cls-15" d="M867.44,7110.45c-37.24,17.64-71.55,39.09-104.7,62-7.41,5.17,3.12,14.13,10.53,9.26,32.27-22.13,65.8-42.79,101.77-59.95,8.19-4.19,.78-15.21-7.6-11.31h0Z"/>
  <path class="cls-15" d="M653.37,7260.77c-31.88,23.59-60.44,50.11-87.15,77.99-6.04,6.43,4.19,15.5,10.53,9.26,26.91-27.88,55.47-54.39,87.15-77.99,7.12-5.56-3.41-14.62-10.53-9.26h0Z"/>
  <path class="cls-15" d="M488.23,7414.7c-30.22,26.03-56.64,54.98-81.5,84.81-5.56,6.82,7.21,13.06,12.77,6.43,24.18-29.05,49.91-56.93,79.25-82.18,6.63-5.56-3.8-14.82-10.53-9.07h0Z"/>
  <path class="cls-15" d="M322.41,7572.62c-27.68,28.07-51.57,58.59-73.6,90.07-4.97,7.21,7.7,13.65,12.77,6.43,21.35-30.8,44.26-60.44,71.06-87.54,6.43-5.95-4-15.21-10.24-8.97h0Z"/>
  <path class="cls-15" d="M182.33,7748.87c-27.68,28.07-51.57,58.59-73.6,90.07-4.97,7.21,7.7,13.65,12.77,6.43,21.35-30.8,44.26-60.44,71.06-87.54,6.43-5.85-3.9-15.21-10.24-8.97h0Z"/>
  <path class="cls-15" d="M242.58,8295.74c-41.53-7.41-83.35-10.53-125.65-11.6-9.36-.2-9.36,12.77,0,12.96,40.94,1.37,81.5,4,121.66,11.21,9.36,1.46,13.36-10.82,4-12.57h0Z"/>
  <path class="cls-15" d="M531.22,8360.47c-38.7-14.72-78.96-25.64-120-34.61-9.26-2.05-13.06,10.53-3.9,12.58,39.68,8.68,78.96,18.81,116.49,33.14,8.68,3.51,16.08-7.6,7.41-11.11h0Z"/>
  <path class="cls-15" d="M779.7,8477.55c-33.73-21.35-70.09-38.9-107.33-55.08-8.48-3.7-15.79,7.6-7.41,11.11,37.43,15.99,73.7,33.73,107.33,55.08,7.7,4.87,15.11-6.24,7.41-11.11h0Z"/>
  <path class="cls-15" d="M978.18,8632.35c-27.2-27.69-58.1-52.15-90.17-75.45-7.21-5.36-17.64,3.9-10.53,9.26,32.07,23.2,62.88,47.77,90.17,75.45,6.34,6.24,16.67-3.12,10.53-9.26h0Z"/>
  <path class="cls-15" d="M1069.81,8740.94c29.54,26.52,62.29,49.72,96.6,71.55,7.7,4.87,14.91-6.43,7.41-11.11-32.95-21.15-64.83-43.87-93.39-69.7-6.82-6.04-17.06,3.41-10.63,9.26h0Z"/>
  <path class="cls-15" d="M1294.9,8892.43c36.85,18.13,75.74,32.27,115.61,44.84,9.07,3.02,12.97-9.75,3.9-12.58-38.51-12.09-76.33-26.03-111.91-43.48-8.38-4.09-15.99,6.92-7.6,11.21h0Z"/>
  <path class="cls-15" d="M1555.95,8987.38c41.14,8.09,82.66,13.26,124.48,17.16,9.36,.68,9.36-12.09,0-12.96-40.36-3.9-80.81-8.87-120.59-16.77-9.36-1.85-13.26,10.92-3.9,12.58h0Z"/>
  <path class="cls-15" d="M1836.21,9017.21c41.33,2.73,82.66,2.73,124,1.37,9.36-.2,9.55-13.26,0-12.96-41.53,1.37-82.76,1.46-124-1.37-9.65-.49-9.46,12.38,0,12.96h0Z"/>
  <path class="cls-15" d="M2286.09,9047.43c-45.13-12.58-91.44-21.35-138.03-28.56-9.26-1.46-13.26,11.11-3.9,12.58,46.69,7.21,92.9,15.99,138.03,28.56,9.26,2.34,13.16-10.24,3.9-12.58h0Z"/>
  <path class="cls-15" d="M2550.95,9164.31c-37.63-25.25-77.6-47.38-118.73-68.04-8.09-4.19-15.6,7.02-7.41,11.11,41.14,20.67,81.11,42.8,118.73,68.04,7.41,5.07,14.82-6.14,7.41-11.11h0Z"/>
  <path class="cls-15" d="M2785.01,9334.02c-31.88-30.8-66.87-58.78-103.14-85.49-7.21-5.36-17.64,3.9-10.53,9.26,36.26,26.71,71.06,54.79,103.14,85.49,6.53,6.24,16.77-2.92,10.53-9.26h0Z"/>
  <path class="cls-15" d="M2681.68,10198.89c41.62-19.5,81.3-42.5,119.81-66.68,7.6-4.87,.39-15.99-7.41-11.11-38.51,24.37-77.99,47.18-119.81,66.68-8.29,3.9-.88,15.11,7.41,11.11h0Z"/>
  <path class="cls-15" d="M2384.55,10301.53c45.52-12.96,89.88-28.37,134.23-44.84,8.68-3.31,1.36-14.43-7.41-11.11-42.99,15.99-86.17,30.8-130.72,43.48-8.87,2.54-4.97,15.01,3.9,12.48h0Z"/>
  <path class="cls-15" d="M2096.39,10378.74c46.69-6.43,92.71-15.5,138.42-25.64,9.26-2.05,5.17-14.62-3.9-12.58-45.91,10.14-91.93,19.2-138.42,25.54-9.36,1.46-5.46,13.94,3.9,12.67h0Z"/>
  <path class="cls-15" d="M1774.8,10391.51c46.99,2.34,94.36,2.34,141.54,1.17,9.36-.2,9.55-13.06,0-12.96-47.18,1.37-94.36,1.37-141.54-1.17-9.55-.68-9.55,12.38,0,12.96h0Z"/>
  <path class="cls-15" d="M1448.92,10363.53c46.4,7.02,92.9,13.26,139.59,19.3,9.26,1.37,13.26-11.21,3.9-12.58-46.69-5.85-93.29-12.09-139.59-19.3-9.26-1.56-13.06,11.02-3.9,12.58h0Z"/>
  <path class="cls-15" d="M1279.1,10327.56c-47.18-6.24-94.75-11.11-142.32-15.3-9.36-.68-9.36,12.09,0,12.96,46.21,4,92.51,8.87,138.42,14.72,9.46,1.37,13.16-11.21,3.9-12.38h0Z"/>
  <path class="cls-15" d="M1000.89,10294.91c-47.18-5.85-94.75-10.72-142.32-14.72-9.36-.68-9.36,12.09,0,12.96,46.21,3.9,92.51,8.48,138.42,14.43,8.97,.97,13.16-11.41,3.9-12.67h0Z"/>
  <path class="cls-15" d="M714.49,10282.53c-46.69,6.43-92.9,14.43-138.91,23.01-9.26,1.85-5.36,14.13,3.9,12.58,46.01-8.48,92.51-16.47,138.91-23.01,9.36-1.27,5.46-13.65-3.9-12.58h0Z"/>
  <path class="cls-15" d="M446.51,10351.25c-43.28,16.57-85.88,34.31-128.19,52.74-8.48,3.7-1.17,14.91,7.41,11.11,42.4-18.33,85-36.17,128.19-52.74,8.77-3.12,1.17-14.33-7.41-11.11h0Z"/>
  <path class="cls-15" d="M202.02,10466.28c-39.48,22.81-77.79,46.89-115.71,71.55-7.6,4.87-.39,16.28,7.41,11.11,37.92-24.57,76.43-48.55,115.71-71.55,7.9-4.48,.49-15.6-7.41-11.11h0Z"/>
  <g id="mand">
    <g id="mand-2">
      <g id="Group_106" data-name="Group 106">
        <g class="cls-13">
          <g id="Group_105" data-name="Group 105">
            <path id="Path_287" data-name="Path 287" class="cls-27" d="M2234.67,4184.08s-24.27-23.4-37.53-5.36c-9.16,12.58,2.05,24.96,9.85,31.39,.29,.19,.58,.49,.88,.68,.19,.1,.49,.39,.78,.58,.39,.29,.78,.58,.88,.68,2.24,1.66,3.7,2.53,3.7,2.53,0,0,13.94,3.61,3.02,15.4,0,0-8.09,6.04,18.42,12.28,0,0,21.93,5.07,1.56,16.67-20.28,11.5,2.14,14.52,2.14,14.52,0,0,29.44-14.52,27.98,1.46,0,0-27.3,40.55,5.85,25.83,33.14-14.72,33.34-19.5,33.34-19.5,6.34-8.48,7.02-19.98,1.85-29.15,0,0,17.94-33.24,0-48.55,0,0-.88-6.53-28.95-6.34,0,0-2.14-15.4-20.28-20.08-18.13-4.39-23.49,6.92-23.49,6.92"/>
            <path id="Path_288" data-name="Path 288" class="cls-14" d="M2210.69,4210.11s-47.38,45.91-33.92,46.99c13.45,1.07-9.85,34.02-9.85,34.02,0,0-8.77,11.89,12.28,13.36,11.89,3.7,24.27,5.85,36.85,6.24h.58c18.81,.1,37.53-7.7,37.53-7.7l3.41-2.92s-5.26-.88,9.85-25.44c0,0,2.44-12.09-13.45-7.21-15.89,4.87-27.39,7.9-23.49-3.8,0,0,25.05-13.84,11.5-19.98-13.55-6.14-32.46-7.8-23.2-15.79,9.26-7.99-2.83-14.04-8.09-17.74"/>
            <path id="Path_289" data-name="Path 289" class="cls-21" d="M2200.75,4345.41s38.7,7.6,64.83-11.31c0,0-16.38,172.93-13.74,182.97l1.75,32.17s23.79,36.85,21.45,44.55c-2.34,7.6-3.41,39.09-1.46,57.61,2.05,18.62,4.19,14.72,1.46,33.24-2.83,18.52-4,30.12-4,30.12,0,0-1.36,20.86,11.99,28.27,13.36,7.41-110.64,3.41-110.64,3.41l28.37-401.04Z"/>
            <path id="Path_290" data-name="Path 290" class="cls-14" d="M2214.98,4308.18s-13.16,35.97-17.74,40.75c-4.58,4.78,59.17,4.29,77.5-13.55l2.24-39.09-62,11.89Z"/>
            <path id="Path_291" data-name="Path 291" class="cls-25" d="M2200.75,4494.27c11.89,16.57-12.87,234.74-12.87,234.74,0,0-6.24,15.21-22.52,21.06s-47.47-32.66-47.47-32.66c0,0-14.43-51.37,10.82-144.08,25.25-92.61,8.58-87.25,8.58-87.25,0,0-38.51,33.05-94.56,49.42-56.05,16.38-62.68-21.45-62.68-21.45-14.43-5.85,53.32-165.04,79.35-176.74s51.76,27.3,51.76,27.3c0,0-113.66,156.46-45.52,82.08,68.14-74.38,135.11-100.8,135.11-100.8,0,0-6.14,139.79,0,148.37"/>
            <path id="Path_292" data-name="Path 292" class="cls-6" d="M2200.75,4494.27c11.89,16.57-12.87,234.74-12.87,234.74,0,0-6.24,15.21-22.52,21.06s-47.47-32.66-47.47-32.66c0,0-14.43-51.37,10.82-144.08,25.25-92.61,8.58-87.25,8.58-87.25,0,0-38.51,33.05-94.56,49.42-56.05,16.38-62.68-21.45-62.68-21.45-14.43-5.85,53.32-165.04,79.35-176.74s51.76,27.3,51.76,27.3c0,0-113.66,156.46-45.52,82.08,68.14-74.38,135.11-100.8,135.11-100.8,0,0-6.14,139.79,0,148.37Z"/>
            <path id="Path_293" data-name="Path 293" class="cls-25" d="M2265.67,4334.01s-23.3,193.21-9.75,221.67c13.55,28.37,12.09,69.31,18.72,101.97,6.63,32.66-16.67,65.8,7.7,84.81,24.47,19.11,85.2,47.08,85.2,47.08,0,0,24.18-68.14,7.7-142.42-16.38-74.38-6.24-95.73-6.24-95.73l33.05,40.46s-45.91,147.49-88.32,175.96l51.76,23.79,87.93-141.64s36.26-51.76,0-99.33c0,0-100.02-190.77-123.41-193.4,.29,.1-33.24-23.01-64.34-23.2"/>
            <path id="Path_294" data-name="Path 294" class="cls-14" d="M2076.56,4336.84s32.85-74.48,47.67-65.9c14.72,8.58-23.79,46.21-23.79,46.21,0,0,66.97,.88,1.66,37.73l-25.54-18.03Z"/>
            <path id="Path_295" data-name="Path 295" class="cls-25" d="M2356.72,4768.39l8.97,428.92c.19,5.56-3.31,10.14-7.6,10.14h-57.32c-3.8,0-7.02-3.61-7.51-8.48l-46.6-432.43c-.97-8.87-9.85-11.6-13.74-4.19l-10.53,20.18c-.39,.68-.68,1.46-.88,2.24-.1,.29-.19,.49-.19,.88-.29,1.07-.58,2.24-.88,3.41-11.89,48.25-27.2,200.42-29.24,220.8-.19,1.56,0,3.02,.39,4.48l38.41,143.79c.97,3.61,.19,7.41-1.95,10.43l-38.21,46.11c-3.8,4.68-10.04,2.92-12.09-3.31l-55.95-165.72c-.49-1.17-1.07-2.34-1.85-3.41-12.38-16.28,2.05-261.74,5.07-311.94,.29-5.07,3.61-8.97,7.41-9.07l214.85-3.22c2.53,.1,4.97,1.56,6.14,3.9,.88,1.56,1.46,3.51,1.56,5.36l1.75,41.14Z"/>
            <path id="Path_296" data-name="Path 296" class="cls-5" d="M2356.72,4768.39l8.97,428.92c.19,5.56-3.31,10.14-7.6,10.14h-57.32c-3.8,0-7.02-3.61-7.51-8.48l-46.6-432.43c-.97-8.87-9.85-11.6-13.74-4.19l-10.53,20.18c-.39,.68-.68,1.46-.88,2.24-.1,.29-.19,.49-.19,.88-.29,1.07-.58,2.24-.88,3.41-11.89,48.25-27.2,200.42-29.24,220.8-.19,1.56,0,3.02,.39,4.48l38.41,143.79c.97,3.61,.19,7.41-1.95,10.43l-38.21,46.11c-3.8,4.68-10.04,2.92-12.09-3.31l-55.95-165.72c-.49-1.17-1.07-2.34-1.85-3.41-12.38-16.28,2.05-261.74,5.07-311.94,.29-5.07,3.61-8.97,7.41-9.07l214.85-3.22c4-.1,7.41,4,7.7,9.16l1.75,41.23Z"/>
            <path id="Path_297" data-name="Path 297" class="cls-27" d="M2176.87,5174.11s-77.01,16.57-84.42,42.7c-7.41,26.13,32.07,15.6,32.07,15.6,0,0,78.96-19.4,88.81-23.4,9.85-4,21.54-13.26,21.54-13.26,0,0,21.35-8.97,8.87-24.66-12.38-15.79-66.87,3.02-66.87,3.02"/>
            <path id="Path_298" data-name="Path 298" class="cls-4" d="M2176.87,5174.11s-77.01,16.57-84.42,42.7c-7.41,26.13,32.07,15.6,32.07,15.6,0,0,78.96-19.4,88.81-23.4,9.85-4,21.54-13.26,21.54-13.26,0,0,21.35-8.97,8.87-24.66-12.38-15.79-66.87,3.02-66.87,3.02Z"/>
            <path id="Path_299" data-name="Path 299" class="cls-27" d="M2309.93,5195.17s-78.77-1.27-91.83,22.52c-13.06,23.88,27.68,22.42,27.68,22.42,0,0,81.3-1.07,91.73-2.63,10.53-1.66,23.98-7.99,23.98-7.99,0,0,22.81-3.9,14.23-22.03-8.48-18.13-65.8-12.28-65.8-12.28"/>
            <path id="Path_300" data-name="Path 300" class="cls-4" d="M2309.93,5195.17s-78.77-1.27-91.83,22.52c-13.06,23.88,27.68,22.42,27.68,22.42,0,0,81.3-1.07,91.73-2.63,10.53-1.66,23.98-7.99,23.98-7.99,0,0,22.81-3.9,14.23-22.03-8.48-18.13-65.8-12.28-65.8-12.28Z"/>
            <path id="Path_301" data-name="Path 301" class="cls-27" d="M2140.51,5029.25v-229.18h328.52v229.18h-328.52Z"/>
            <path id="Path_302" data-name="Path 302" class="cls-2" d="M2140.51,5029.25v-229.18h328.52v229.18h-328.52Z"/>
            <path id="Path_303" data-name="Path 303" class="cls-27" d="M2245.01,4804.85c11.31-12.19,26.03-20.67,42.11-24.57,39.68-9.26,78.28,17.35,77.3,20.28-.49,1.66-14.62-4.68-38.9-6.73-27.3-2.14-54.78,1.66-80.52,11.02"/>
            <path id="Path_304" data-name="Path 304" class="cls-2" d="M2245.01,4804.85c11.31-12.19,26.03-20.67,42.11-24.57,39.68-9.26,78.28,17.35,77.3,20.28-.49,1.66-14.62-4.68-38.9-6.73-27.3-2.14-54.78,1.66-80.52,11.02Z"/>
            <path id="Path_305" data-name="Path 305" class="cls-14" d="M2320.07,4771.22s-46.6,.97-35.87,22.91c10.72,21.93,72.92-6.43,72.92-6.43l-37.04-16.47Z"/>
            <path id="Path_673" data-name="Path 673" class="cls-25" d="M2187.4,4718.09s-54.01-8.48-61.02,4.39c-7.02,12.87,63.17,0,63.17,0l-2.14-4.39Z"/>
          </g>
        </g>
      </g>
      <text class="cls-9" transform="translate(2151.27 4966.85)"><tspan x="0" y="0">17 ton CO</tspan></text>
      <text class="cls-7" transform="translate(2408.88 4986.42)"><tspan x="0" y="0">2</tspan></text>
    </g>
    <path id="Path_674" data-name="Path 674" class="cls-25" d="M2265.48,4744.21s85.1-10.24,96.51,0c11.5,10.24-.88,75.16-.88,75.16l-4.68-1.56-6.04-66.48-85.98-2.34,1.07-4.78Z"/>
  </g>
  <g class="cls-32">
    <g id="røg">
      <path id="Path_672" data-name="Path 672" class="cls-15" d="M1970.6,4327.87c67.37-103.71,31.36-246.65-80.36-319.22-23.39-15.19-49.2-26.49-76.25-33.37,8.51-85.07-53.51-160.94-138.58-169.45-85.07-8.51-160.94,53.51-169.45,138.58-.63,6.34-.88,12.81-.72,19.19-90.36-25.43-185.6,20.39-222.17,106.77-.82-.53-1.58-1.14-2.32-1.62-72.08-46.94-168.63-26.5-215.57,45.58-44.23,67.91-28.95,158.43,35.1,208.07-96.63,29.69-150.89,132.02-121.2,228.65,29.69,96.63,132.02,150.89,228.65,121.2,11.19-3.43,22.06-8,32.38-13.51,1.53,7.85,3.54,15.67,6.07,23.25-40.78,8.17-76.44,32.45-99.07,67.29-6,9.24-11.03,19.12-14.91,29.39-66.74-11.84-130.4,32.64-142.24,99.38-11.84,66.74,32.64,130.4,99.38,142.24,45.79,8.11,92.2-10.35,119.89-47.61,76.7,37.5,169.27,5.64,206.77-71.07,15.37-31.54,19.62-67.27,11.99-101.53,93.01-8.55,162.82-88.8,158.16-182.07,102.15,15.88,197.7-54.05,213.6-156.06,1.91-12.25,2.6-24.59,2.02-36.95,67.89-4.98,130.77-38.57,168.81-97.13"/>
    </g>
  </g>
  <g id="lille_faktaboks" data-name="lille faktaboks">
    <path id="Rectangle_122-2" data-name="Rectangle 122-2" class="cls-8" d="M372.52,5107.39H1716.41c15.79,0,28.66,12.77,28.66,28.66v422.2c0,15.79-12.77,28.66-28.66,28.66H372.52c-15.79,0-28.66-12.77-28.66-28.66v-422.2c0-15.79,12.87-28.66,28.66-28.66Z"/>
  </g>
  <g id="skilt">
    <g id="Group_191" data-name="Group 191">
      <g class="cls-35">
        <g id="Group_190" data-name="Group 190">
          <path id="Path_689" data-name="Path 689" class="cls-25" d="M1894.33,777.33v-170.79c0-7.31-11.41-7.31-11.41,0v170.79c0,7.31,11.41,7.31,11.41,0"/>
          <path id="Path_690" data-name="Path 690" class="cls-10" d="M1888.97,606.93l157.14,91.15-1.27,115.81-155.58-78.38-.29-128.58Z"/>
          <path id="Path_691" data-name="Path 691" class="cls-25" d="M2049.91,857.07v-160.16c0-7.31-11.41-7.31-11.41,0v160.16c0,7.31,11.41,7.31,11.41,0"/>
        </g>
      </g>
    </g>
    <path id="Path_692" data-name="Path 692" class="cls-25" d="M1931.67,690.57v-12.87l55.27,32.17v-6.43l15.4,19.3-15.4,6.43v-6.43l-55.27-32.17Z"/>
    <path id="Path_693" data-name="Path 693" class="cls-25" d="M1931.67,730.44l8.97,5.17v-39.77l-8.97-5.26v39.87Z"/>
  </g>
  <g id="elbil">
    <g class="cls-34">
      <g id="elbil-2">
        <path id="Path_550" data-name="Path 550" class="cls-18" d="M839.66,802.08c1.93-36.9-26.39-68.35-63.28-70.28-36.9-1.93-68.35,26.39-70.28,63.28-1.93,36.9,26.39,68.35,63.28,70.28h0c36.9,1.93,68.35-26.39,70.28-63.28"/>
        <path id="Path_551" data-name="Path 551" class="cls-18" d="M1153.8,818.55c1.93-36.9-26.39-68.35-63.28-70.28-36.9-1.93-68.35,26.39-70.28,63.28-1.93,36.9,26.39,68.35,63.28,70.28h0c36.9,1.93,68.35-26.39,70.28-63.28"/>
        <path id="Path_552" data-name="Path 552" class="cls-18" d="M1052.06,746.35c3.69-70.38-50.27-130.41-120.65-134.1-70.38-3.69-130.41,50.27-134.1,120.65-3.69,70.38,50.27,130.41,120.65,134.1h.1c70.29,3.69,130.32-50.37,134.01-120.65h0"/>
        <rect id="Rectangle_110" data-name="Rectangle 110" class="cls-18" x="865.05" y="647.74" width="133.65" height="318.47" transform="translate(77.23 1695.34) rotate(-87)"/>
        <path id="Path_553" data-name="Path 553" class="cls-25" d="M819.11,734.14s23.86-103.2,110.51-89.58c86.65,13.62,89.19,58.27,94.12,100.3l-204.63-10.72Z"/>
        <path id="Path_554" data-name="Path 554" class="cls-17" d="M1147.83,787.19c-9.2-20.01-27.59-34.15-49.26-37.92-9.35,14.45-5.29,33.79,9.16,43.14,12.84,8.38,29.84,6.15,40.1-5.22"/>
        <line id="Line_71" data-name="Line 71" class="cls-1" x1="930.14" y1="636.49" x2="923.48" y2="763.53"/>
        <path id="Path_575" data-name="Path 575" class="cls-3" d="M930.14,636.49l-6.66,127.04"/>
        <path id="Path_555" data-name="Path 555" class="cls-19" d="M710.03,775.77l35.82,1.88c3.7,.19,6.78-2.67,7.07-6.37l1.37-26.09c.19-3.7-2.67-6.88-6.37-7.07l-3.31-.17c-16.01,7.56-28.54,21.15-34.59,37.82"/>
        <path id="Path_556" data-name="Path 556" class="cls-23" d="M1062.21,880.52c-1.43,27.26-24.69,48.29-51.95,46.87-27.26-1.43-48.29-24.69-46.87-51.95,1.43-27.26,24.69-48.29,51.95-46.87h0c27.35,1.43,48.29,24.69,46.87,51.95"/>
        <path id="Path_557" data-name="Path 557" class="cls-20" d="M1015.44,828.57c27.26,1.43,48.2,24.68,46.87,51.95l15.09,.79c1.87-35.63-25.53-66.06-61.16-67.92-35.63-1.87-66.06,25.53-67.92,61.16l15.09,.79c1.43-27.26,24.68-48.2,52.04-46.76"/>
        <path id="Path_558" data-name="Path 558" class="cls-23" d="M868.17,870.74c-1.43,27.26-24.69,48.29-51.95,46.87-27.26-1.43-48.29-24.69-46.87-51.95,1.43-27.26,24.69-48.29,51.95-46.87h0c27.35,1.43,48.29,24.69,46.87,51.95"/>
        <path id="Path_559" data-name="Path 559" class="cls-20" d="M821.4,818.8c27.26,1.43,48.2,24.68,46.77,51.94l15.09,.79c1.87-35.63-25.53-66.06-61.16-67.92s-66.06,25.53-67.92,61.16h0l15.09,.79c1.53-27.25,24.78-48.19,52.14-46.76"/>
      </g>
    </g>
  </g>
  <text class="cls-28" transform="translate(444.28 5280.71)"><tspan x="0" y="0">FN’s klimapanel mene</tspan><tspan class="cls-41" x="595.66" y="0">r</tspan><tspan x="613.74" y="0" xml:space="preserve">, at dette skal helt  </tspan><tspan x="0" y="71.6">ned på 2</tspan><tspan class="cls-12" x="230.14" y="71.6">-</tspan><tspan x="247.98" y="71.6">3 tons </tspan><tspan class="cls-37" x="431.4" y="71.6">C</tspan><tspan x="464.39" y="71.6">O2, </tspan><tspan class="cls-38" x="565.47" y="71.6">f</tspan><tspan x="586.65" y="71.6">or at være med til at </tspan><tspan x="0" y="143.2">sæn</tspan><tspan class="cls-31" x="113.19" y="143.2">k</tspan><tspan x="142.73" y="143.2">e den globale o</tspan><tspan class="cls-39" x="559.15" y="143.2">p</tspan><tspan class="cls-40" x="592.02" y="143.2">v</tspan><tspan x="620.24" y="143.2">armning</tspan></text>
  <g class="cls-33">
    <g id="røg-2" data-name="røg">
      <path id="Path_672-2" data-name="Path 672" class="cls-15" d="M1920.47,4524.39c47.07-72.46,21.94-172.34-56.13-223.05-16.38-10.61-34.39-18.48-53.31-23.3,5.96-59.43-37.38-112.44-96.8-118.4-59.43-5.96-112.44,37.38-118.4,96.8-.45,4.45-.62,8.93-.51,13.4-63.16-17.76-129.67,14.22-155.24,74.64-.55-.37-1.07-.81-1.62-1.17-50.37-32.79-117.79-18.53-150.58,31.84-30.89,47.46-20.23,110.68,24.52,145.38-67.51,20.73-105.43,92.27-84.7,159.78,20.73,67.51,92.27,105.43,159.78,84.7,7.84-2.41,15.42-5.56,22.65-9.42,1.05,5.51,2.48,10.94,4.27,16.25-28.48,5.7-53.44,22.66-69.23,47.03-4.18,6.46-7.66,13.35-10.4,20.55-46.62-8.27-91.12,22.82-99.39,69.44-8.27,46.62,22.82,91.12,69.44,99.39,31.97,5.67,64.41-7.21,83.78-33.27,53.61,26.18,118.3,3.94,144.48-49.67,10.75-22.02,13.7-47.03,8.36-70.95,64.98-5.93,113.73-62.05,110.53-127.22,71.33,11.09,138.15-37.74,149.24-109.07,1.33-8.54,1.81-17.19,1.43-25.83,47.28-3.49,91.24-26.91,117.83-67.85"/>
    </g>
  </g>
  <g id="brændstofsbil">
    <rect id="Rectangle_112" data-name="Rectangle 112" class="cls-30" x="1097.82" y="4958.51" width="20.6" height="66.43" transform="translate(-4003.33 5127.03) rotate(-79)"/>
    <g id="Group_170" data-name="Group 170">
      <g class="cls-36">
        <g id="Group_169" data-name="Group 169">
          <path id="Path_561" data-name="Path 561" class="cls-25" d="M1015.48,4960.48c5.97-30.72,36.93-50.56,69.14-44.29,32.22,6.26,53.49,36.25,47.52,66.97s-36.93,50.56-69.14,44.29-53.49-36.25-47.52-66.97"/>
          <path id="Path_562" data-name="Path 562" class="cls-25" d="M741.1,4907.15c5.97-30.72,36.93-50.56,69.14-44.29s53.49,36.25,47.52,66.97c-5.97,30.72-36.93,50.56-69.14,44.29-32.22-6.26-53.49-36.25-47.52-66.97"/>
          <path id="Path_563" data-name="Path 563" class="cls-25" d="M843.86,4869.39c11.39-58.59,70.42-96.41,131.85-84.47s102,69.12,90.61,127.71c-11.39,58.59-70.42,96.41-131.86,84.47-61.43-11.94-102-69.12-90.61-127.71"/>
          <path id="Path_573" data-name="Path 573" class="cls-25" d="M1084.63,4916.19l-277.72-53.98-21.63,111.26,277.72,53.98,21.63-111.26Z"/>
          <path id="Path_564" data-name="Path 564" class="cls-8" d="M1047.29,4908.93s.82-89.9-76.8-97.15c-77.62-7.25-89,28.94-101.92,62.41l178.72,34.74Z"/>
          <path id="Path_565" data-name="Path 565" class="cls-16" d="M752.8,4882.64c12.45-14.64,31.22-22.35,50.36-20.7,1.63,4.37,2.02,9.09,1.14,13.67-2.79,14.34-17.24,23.59-32.27,20.67-8.09-1.52-15.12-6.51-19.23-13.64"/>
          <path id="Path_574" data-name="Path 574" class="cls-26" d="M971.8,4805.05l-20.58,105.87"/>
          <path id="Path_566" data-name="Path 566" class="cls-19" d="M1132.76,4966.4l-31.29-6.08c-3.16-.55-5.29-3.54-4.76-6.71l4.22-21.72c.7-3.13,3.79-5.11,6.92-4.44l2.85,.55c12.18,9.34,20.12,23.16,22.05,38.39"/>
          <path id="Path_567" data-name="Path 567" class="cls-23" d="M807.3,4977.59c-4.42,22.73,11.32,44.91,35.15,49.54,23.83,4.63,46.73-10.04,51.15-32.76s-11.32-44.91-35.15-49.54c-23.83-4.63-46.73,10.04-51.15,32.76"/>
          <path id="Path_568" data-name="Path 568" class="cls-29" d="M858.44,4944.83c-23.83-4.63-46.73,10.04-51.15,32.76l-13.22-2.57c5.77-29.69,35.69-48.85,66.81-42.8s51.68,35.03,45.91,64.71l-13.22-2.57c4.42-22.73-11.32-44.91-35.15-49.54"/>
          <path id="Path_569" data-name="Path 569" class="cls-23" d="M976.67,5010.87c-4.42,22.73,11.32,44.91,35.15,49.54,23.83,4.63,46.73-10.04,51.15-32.76s-11.32-44.91-35.15-49.54c-23.83-4.63-46.73,10.04-51.15,32.76"/>
          <path id="Path_570" data-name="Path 570" class="cls-29" d="M1027.81,4978.1c-23.83-4.63-46.73,10.04-51.15,32.76l-13.22-2.57c5.77-29.69,35.69-48.85,66.81-42.8,31.13,6.05,51.68,35.03,45.91,64.71l-13.22-2.57c4.42-22.73-11.32-44.91-35.15-49.54"/>
        </g>
      </g>
    </g>
  </g>
  <text class="cls-11" transform="translate(1366.35 4443.9)"><tspan x="0" y="0">En gennemsnitlig person </tspan><tspan x="15.61" y="51.6">udleder 17 tons CO2 om </tspan><tspan x="160.45" y="103.2">måneden</tspan></text>
</svg>