<?xml version="1.0" encoding="UTF-8"?>
<svg id="Lag_1" data-name="Lag 1" xmlns="http://www.w3.org/2000/svg" xmlns:xlink="http://www.w3.org/1999/xlink" viewBox="0 0 3275.56 15433.84">
  <defs>
    <style>
      .cls-1, .cls-2, .cls-3, .cls-4, .cls-5, .cls-6 {
        fill: none;
      }

      .cls-7 {
        clip-path: url(#clippath);
      }

      .cls-8, .cls-9 {
        fill: #f8d7ee;
      }

      .cls-10 {
        fill: #efa919;
      }

      .cls-11 {
        fill: #fff;
      }

      .cls-12 {
        fill: #ffe300;
      }

      .cls-13 {
        fill: #ffe200;
      }

      .cls-14 {
        fill: #edb92e;
      }

      .cls-15 {
        fill: #e82d41;
      }

      .cls-16 {
        fill: #e3ae21;
      }

      .cls-17 {
        fill: #edcde4;
      }

      .cls-18 {
        fill: #e4eddf;
      }

      .cls-19 {
        fill: #aeb0b3;
      }

      .cls-20 {
        fill: #cac9c9;
      }

      .cls-21, .cls-22 {
        fill: #1f4acd;
      }

      .cls-23 {
        fill: #21471d;
      }

      .cls-24 {
        fill: #5272d5;
      }

      .cls-25 {
        fill: #818080;
      }

      .cls-2 {
        stroke-width: 1.3px;
      }

      .cls-2, .cls-3, .cls-4, .cls-5 {
        stroke-miterlimit: 10;
      }

      .cls-2, .cls-4 {
        stroke: #10418f;
      }

      .cls-22 {
        stroke: #1f4acd;
        stroke-miterlimit: 4;
        stroke-width: 5px;
      }

      .cls-26 {
        clip-path: url(#clippath-1);
      }

      .cls-27 {
        clip-path: url(#clippath-4);
      }

      .cls-28 {
        clip-path: url(#clippath-3);
      }

      .cls-29 {
        clip-path: url(#clippath-2);
      }

      .cls-3 {
        stroke-width: 1.18px;
      }

      .cls-3, .cls-5 {
        stroke: #21471d;
      }

      .cls-5 {
        stroke-width: .6px;
      }

      .cls-9 {
        fill-rule: evenodd;
      }

      .cls-6 {
        stroke: #edb92e;
        stroke-miterlimit: 4;
        stroke-width: 5px;
      }
    </style>
    <clipPath id="clippath">
      <rect class="cls-1" x="676.8" y="5556.62" width="619.28" height="1052.99" transform="translate(-5154.62 5568.61) rotate(-76)"/>
    </clipPath>
    <clipPath id="clippath-1">
      <rect class="cls-1" x="2461.92" y="5190.42" width="648.22" height="1407.29"/>
    </clipPath>
    <clipPath id="clippath-2">
      <rect class="cls-1" x="869.55" y="4919.9" width="1842.17" height="1182.03" transform="translate(-3806.27 4010.52) rotate(-56.99)"/>
    </clipPath>
    <clipPath id="clippath-3">
      <rect class="cls-1" x="889.37" y="779.15" width="273.3" height="395.04" transform="translate(-68.38 1876.04) rotate(-83)"/>
    </clipPath>
    <clipPath id="clippath-4">
      <rect class="cls-1" x="2173.7" y="787.87" width="171.95" height="109.81" transform="translate(1202.23 3010.3) rotate(-84.45)"/>
    </clipPath>
  </defs>
  <rect class="cls-18" x="-103.56" y="-63.08" width="3455.24" height="15715.6"/>
  <path class="cls-20" d="M3276.98,647.5c-31.44,36.28-78.17,88.71-136.4,149.95-191.1,201.33-345.88,364.27-540.29,480.45-270.37,161.27-545.17,189.37-676.48,201.12-419.39,37.33-594.1-101.08-979.62-137.15-256.64-24.12-625.32-4.61-1094.76,201.12v-324.22c303.36-133.59,565.98-174.48,734.93-188.32,201.28-16.36,486.71-39.64,806.01,59.14,254.2,78.64,234.05,71.51,359.61,76.55,431.79,17.41,774.79-257.74,857.16-324.01,103.63-83.05,77.28-85.35,345.43-343.09,135.96-130.65,251.99-234.88,331.04-304.71-1.99,150.99-4.21,301.99-6.64,453.19h0Z"/>
  <path class="cls-20" d="M3500.85,1878.52c28.12,166.09,56.47,332.19,84.81,498.28-58.9-40.06-160.1-105.7-293.62-177-481.62-256.9-753.76-248.72-1005.52-465.35-82.37-70.67-195.08-193.57-265.94-402.23,157.22-49.7,314.43-99.4,471.65-149.11,11.96,78.01,46.06,188.32,141.5,289.4,106.73,112.83,241.8,163.37,332.15,196.92,124.44,46.56,170.06,33.97,302.48,85.35,104.96,41.31,182.9,89.34,232.5,123.73h0Z"/>
  <path class="cls-20" d="M3406.35,3382.17c-477.19,470.18-889.81,543.58-1169.65,546.51-317.68,3.36-522.51-118.91-1029.39-76.55-192.6,16.15-401.74,69.62-648.95,126.88-380.89,88.29-604.31,192.52-812.32,267.18-7.7-129.18-15.86-258.37-23.56-387.55,119.86-46.56,287.31-107.37,492.37-169.03,180.14-54.11,328.55-98.78,532.48-135.27,110.57-19.71,351.66-57.46,658.92-57.46,373.42-.21,532.03,55.57,711.71,65.85,284.82,16.57,698.8-75.92,1249.4-574.62,13.14,131.07,26.06,262.56,38.97,394.05h0Z"/>
  <path class="cls-20" d="M3501.81,7779.28c-486.91-678.07-874.71-809.62-1145.11-796.37-220.85,11.19-435.3,122.41-732.65,11.88-224.27-83.36-208.74-186.36-456.08-299.87-337.55-155.07-503.58-26.26-788.61-141.37-157.36-63.49-359.48-204.86-538.76-551.77,19.41-164.89,38.37-329.78,57.78-494.45,211.48,392.82,444.66,548.58,622.8,617.09,277.49,106.88,420.22,1.83,753.21,146.85,303.52,132.01,284.57,262.41,541.95,346.46,319.96,104.14,487.83-51.84,787.46-37,228.15,11.19,557.71,123.1,938.88,622.8-13.93,192.07-27.41,383.91-40.88,575.75h0Z"/>
  <path class="cls-20" d="M14.65,9935.51c613.41-876.18,1149.65-1194.95,1537.41-1318.89,183.92-58.72,456.76-113.04,821.66-298,222.72-113.04,385.66-226.91,717.43-361.34,160.43-65.01,297.58-109.47,389.65-137.15-10.07-132.75-20.13-265.71-29.99-398.25-118.7,9.86-303.88,35.44-508.35,112.2-305.13,114.29-410.41,251.87-687.23,398.25-300.73,159.17-546.3,192.94-717.43,236.14-375.39,94.79-900.93,364.48-1539.09,1146.29,5.24,206.57,10.49,413.77,15.94,620.75h0Z"/>
  <path class="cls-20" d="M3417.47,11690.19c-142.4-225.65-392.79-458.85-803.62-610.27-429.07-158.12-586.78,23.91-1026.97-145.33-492.62-189.37-529.95-508.14-1048.36-668.15-247.46-76.55-472.49-75.92-625.16-63.54-10.7-136.52-21.39-272.84-32.09-409.15,223.97-5.03,553.64,15.31,901.77,158.75,480.45,197.76,481.71,417.75,937.63,584.68,463.05,169.66,653.26,12.79,1116.31,208.67,276.82,117.02,467.03,282.48,580.49,397.62v546.72h0Z"/>
  <path class="cls-20" d="M-9.68,12867.52c142.19-96.26,400.13-274.93,702.96-345.19,630.82-146.38,968.46,148.48,1603.68,69.42,249.56-31.04,602.72-119.96,1006.63-387.97v-423.41c-601.25,363.22-1076.25,422.15-1404.03,405.8-425.51-21.39-705.9-175.11-1174.19-93.11-330.3,57.88-577.97,202.37-734.84,314.36v460.11h-.21Z"/>
  <path class="cls-11" d="M3226.27,440.3c-24.58,23.91-49.6,47.81-74.18,71.93-7.31,7.13,5.09,17.62,12.62,10.49,24.58-23.91,49.6-47.81,74.18-71.93,7.31-7.13-5.31-17.62-12.62-10.49h0Z"/>
  <path class="cls-11" d="M3057.32,608.7c-28.12,27.68-55.58,55.99-81.93,84.72-6.86,7.55,8.64,14.89,15.28,7.34,25.46-27.89,52.04-55.15,79.27-82,7.09-6.71-5.31-17.2-12.62-10.07h0Z"/>
  <path class="cls-11" d="M2883.72,795.98c-25.46,26.42-52.92,51.38-81.93,75.08-9.74,7.97,5.09,20.34,15.06,12.58,29.23-23.7,56.47-48.65,81.93-75.08,8.64-9.02-6.42-21.39-15.06-12.58h0Z"/>
  <path class="cls-11" d="M2715.87,955.78c-27.9,27.47-59.79,52.01-95.44,72.35-11.07,6.5-.66,21.81,10.85,15.31,36.98-21.39,70.42-46.56,99.64-75.08,8.64-8.6-6.2-21.18-15.06-12.58h0Z"/>
  <path class="cls-11" d="M2492.44,1112.02c-18.82,11.95-37.42,24.75-57.79,34.81-20.37,10.07-41.85,17.41-63.11,25.17-12.62,4.4-1.77,19.71,10.85,15.31,22.14-7.97,44.73-15.94,65.32-26.21,21.04-10.7,40.52-23.7,60.01-36.28,10.63-7.13-4.65-19.71-15.28-12.79h0Z"/>
  <path class="cls-11" d="M876.43,1157.73c-52.7-8.18-106.07-5.45-158.99-.21-13.29,1.47-13.51,19.08,0,17.83,50.93-5.03,102.74-8.39,153.45-.42,13.51,1.89,19.26-15.1,5.54-17.2h0Z"/>
  <polygon class="cls-11" points="2363.79 1423.44 2346.08 1410.23 2327.03 1397.02 2349.84 1390.31 2372.65 1383.81 2368.44 1402.89 2363.79 1423.44"/>
  <polygon class="cls-11" points="2465.87 1387.16 2446.61 1375.42 2426.01 1364.09 2447.94 1355.49 2469.64 1346.69 2467.87 1366.19 2465.87 1387.16"/>
  <polygon class="cls-11" points="2415.39 1406.67 2396.56 1394.29 2376.86 1382.13 2399 1374.37 2421.59 1366.61 2418.49 1385.9 2415.39 1406.67"/>
  <polygon class="cls-11" points="2515.03 1365.77 2494.88 1355.49 2473.18 1345.43 2494.44 1335.36 2515.25 1325.51 2515.25 1345.01 2515.03 1365.77"/>
  <path class="cls-11" d="M2207.46,1238.68c-38.97,15.52-80.38,26.42-122.67,32.93-13.29,2.1-7.75,19.08,5.54,16.99,44.29-6.71,87.24-18.45,127.77-34.81,12.4-4.82,1.55-19.92-10.63-15.1h0Z"/>
  <path class="cls-11" d="M1868.67,1301.39c-42.96,3.77-86.36,3.15-128.65-2.52-13.29-1.68-19.04,15.31-5.54,16.99,44.51,5.87,89.68,7.13,134.41,3.36,13.06-1.26,13.29-18.87-.22-17.83h0Z"/>
  <path class="cls-11" d="M1520.58,1276.64c-41.85-4.61-83.04-14.47-121.35-29.36-12.18-4.82-23.25,10.49-10.85,15.31,41.85,16.36,86.14,26.84,131.97,31.88,5.76,.63,10.63-4.4,10.63-8.81,.44-5.45-4.65-8.18-10.41-9.02h0Z"/>
  <path class="cls-11" d="M1064.65,1194.43c43.18,3.36,85.47,11.74,126.22,24.33,12.84,3.98,18.38-13.21,5.54-16.99-42.51-13.21-86.8-21.39-131.97-24.96-13.29-1.05-13.29,16.57,.22,17.62h0Z"/>
  <path class="cls-11" d="M542.29,1168.85c-21.48-.63-44.29,1.68-65.77,4.4-27.46,3.57-54.25,10.28-80.16,18.45-12.62,3.98-7.31,21.18,5.54,16.99,44.07-13.84,92.56-23.7,140.17-22.23,13.95,.42,13.95-17.41,.22-17.62h0Z"/>
  <path class="cls-11" d="M229.41,1229.88c-48.72,6.29-95.44,21.39-138.84,40.68-11.96,5.45-1.33,20.76,10.85,15.31,41.85-18.66,86.58-32.51,133.52-38.8,13.51-1.89,7.75-18.87-5.54-17.2h0Z"/>
  <path class="cls-11" d="M2472.96,1590.37c-13.73-11.74-27.68-23.7-39.86-36.49-12.62-13.21-22.81-27.89-33.21-42.15-7.09-9.65-25.46-.84-18.38,9.02,10.85,14.89,21.48,30.2,34.54,43.62,12.84,13.63,27.46,26.21,41.85,38.38,9.52,8.39,24.58-4.19,15.06-12.37h0Z"/>
  <path class="cls-11" d="M2688.19,1742.21c-16.83-8.6-33.88-16.99-49.82-26.84-16.16-10.07-30.56-22.02-44.95-33.76-9.74-7.97-24.8,4.4-15.06,12.58,15.06,12.16,30.11,24.33,46.72,35.02,16.61,10.49,34.54,19.29,52.26,28.31,11.74,5.87,22.36-9.44,10.85-15.31h0Z"/>
  <path class="cls-11" d="M2953.24,1838.05c-19.93-5.24-40.3-10.28-59.79-16.57-17.94-5.66-37.2-13.42-55.8-20.97-12.18-5.03-23.03,10.28-10.85,15.31,19.04,7.76,38.53,15.52,58.46,22.02,20.37,6.71,41.63,11.95,62.44,17.41,12.84,3.36,18.38-13.63,5.54-17.2h0Z"/>
  <path class="cls-11" d="M3078.13,1899.7c19.71,6.08,39.41,12.37,58.46,19.71,19.04,7.34,36.31,15.52,54.25,23.7,11.96,5.66,22.59-9.65,10.85-15.31-18.6-8.6-37.2-17.41-56.69-24.75-19.93-7.55-40.52-13.84-61.12-20.55-13.06-3.98-18.6,13.21-5.76,17.2h0Z"/>
  <path class="cls-11" d="M20.23,3926.59c-46.9,13.63-92.67,29.57-137.54,47.19-10.42,3.98-1.36,16.78,9.06,12.58,43.5-16.99,87.92-32.3,133.23-45.51,11.1-3.36,6.34-17.41-4.76-14.26h0Z"/>
  <path class="cls-11" d="M194.92,3886.32c42.83-14.89,87.24-26.63,132.33-35.23,11.33-2.1,6.34-16.36-4.76-14.26-46.9,9.02-92.45,21.39-136.63,36.7-10.88,3.77-1.59,16.36,9.06,12.79h0Z"/>
  <path class="cls-11" d="M526.65,3794.26c44.64-12.79,90.64-22.44,137.09-28.52,11.56-1.47,6.57-15.73-4.76-14.26-46.68,6.08-92.45,15.73-137.09,28.52-11.1,3.15-6.34,17.41,4.76,14.26h0Z"/>
  <path class="cls-11" d="M844.32,3728.62c44.18-10.91,90.86-16.15,136.41-22.65,11.33-1.47,6.57-15.73-4.76-14.26-45.32,6.29-91.99,11.74-136.41,22.65-11.1,2.52-6.34,16.99,4.76,14.26h0Z"/>
  <path class="cls-11" d="M1171.52,3677.45c24.02-3.36,48.49-3.77,72.28-5.03,24.02-1.05,49.4-1.89,74.32-2.31,11.56-.21,11.78-14.89,0-14.68-50.08,1.05-101.74,1.26-151.36,7.97-11.56,1.26-6.8,15.52,4.76,14.05h0Z"/>
  <path class="cls-11" d="M1516.84,3668.22c46.22,.84,93.13,6.71,138.67,11.74,11.33,1.26,16.31-13,4.76-14.26-47.36-5.24-95.62-11.53-143.43-12.37-11.78,.21-11.78,14.89,0,14.89h0Z"/>
  <path class="cls-11" d="M1866.46,3717.08c46.45,5.66,92.67,16.78,137.99,26.84,11.1,2.52,16.09-11.74,4.76-14.26-45.32-10.07-91.54-20.97-137.99-26.84-11.33-1.26-16.09,12.79-4.76,14.26h0Z"/>
  <path class="cls-11" d="M2353.17,3736.79c-45.77,5.24-93.13,5.24-139.35,6.08-11.56,.21-11.78,14.89,0,14.68,47.81-.84,96.53-1.26,144.11-6.71,11.56-1.26,6.57-15.31-4.76-14.05h0Z"/>
  <path class="cls-11" d="M2711.41,3640.96c-40.33,19.5-84.74,34.6-127.8,50.12-10.65,3.77-1.59,16.57,9.06,12.58,42.83-15.52,87.24-30.62,127.8-50.12,10.2-4.82,.91-17.41-9.06-12.58h0Z"/>
  <path class="cls-11" d="M3004.16,3497.72c-38.07,22.65-80.21,41.31-121.22,60.19-9.97,4.61-.91,17.41,9.06,12.58,40.79-18.87,83.16-37.33,121.22-60.19,9.29-5.45,.45-18.45-9.06-12.58h0Z"/>
  <path class="cls-11" d="M3256.12,3332.89c-34.21,25.38-70.47,48.86-106.04,72.56-9.06,6.08,3.85,16.36,12.92,10.49,35.8-23.7,72.05-47.19,106.04-72.56,8.38-6.5-4.53-16.99-12.92-10.49h0Z"/>
  <path class="cls-11" d="M121.01,6072.99c27.71,35.02,57.85,68.93,89.55,101.52,7.31,7.76,19.95-3.55,12.63-11.08-30.59-31.47-60.07-64.28-86.67-98.41-6.65-8.2-22.17-.22-15.52,7.98h0Z"/>
  <path class="cls-11" d="M365.5,6286.44c37.68,27.04,77.36,52.31,117.7,75.81,9.53,5.54,18.4-7.98,8.87-13.3-39.45-22.83-77.58-46.99-114.15-73.37-8.64-6.43-21.28,4.66-12.41,10.86h0Z"/>
  <path class="cls-11" d="M677.37,6407.24c48.1,6.87,96.64,11.08,145.18,13.3,11.3,.44,11.3-15.07,0-15.52-47.43-2.22-94.65-6.43-140.53-12.86-11.08-1.55-15.96,13.3-4.65,15.07h0Z"/>
  <path class="cls-11" d="M1178.75,6467.09c-45.22-14.19-91.1-25.71-137.87-35.69-11.08-2.44-15.74,12.63-4.65,15.07,46.55,9.97,92.65,21.72,137.87,35.69,10.64,3.32,15.07-11.75,4.65-15.07h0Z"/>
  <path class="cls-11" d="M1473.11,6628.68c-37.68-27.04-77.14-52.53-117.48-76.03-9.53-5.54-18.4,7.98-8.87,13.3,39.45,22.83,77.58,47.21,113.93,73.59,8.42,6.43,21.06-4.43,12.41-10.86h0Z"/>
  <path class="cls-11" d="M1727.79,6800.68c-37.68-27.04-77.14-52.53-117.48-76.03-9.53-5.54-18.4,7.98-8.87,13.3,39.45,22.83,77.58,47.21,113.93,73.59,8.64,6.43,21.28-4.65,12.41-10.86h0Z"/>
  <path class="cls-11" d="M1887.38,6861.63c51.87,5.32,103.73,6.43,155.82,5.76,11.3-.22,11.53-15.74,0-15.52-52.09,.67-103.96-.44-155.82-5.76-11.3-1.33-11.3,14.41,0,15.52h0Z"/>
  <path class="cls-11" d="M2223.63,6844.79c52.75-3.99,104.84-12.41,156.27-22.61,11.08-2.22,6.43-17.29-4.65-15.07-49.87,9.97-100.41,18.18-151.61,22.17-11.3,.89-11.53,16.62,0,15.52h0Z"/>
  <path class="cls-11" d="M2726.12,6797.8c-54.75-11.3-111.71-14.19-167.57-8.87-11.08,1.11-11.3,16.62,0,15.52,54.31-5.32,109.5-2.88,162.69,8.42,11.3,2.22,15.96-12.86,4.88-15.07h0Z"/>
  <path class="cls-11" d="M2979.02,6925.03c-37.24-29.04-77.36-54.97-118.81-79.13-9.53-5.54-18.4,7.76-8.87,13.3,40.12,23.5,79.13,48.54,115.04,76.69,8.64,6.87,21.28-4.21,12.63-10.86h0Z"/>
  <path class="cls-11" d="M3176.74,7090.82c-30.37-33.91-63.84-65.17-99.08-95.31-8.2-7.09-20.84,3.99-12.63,11.08,35.24,30.15,68.93,61.18,99.08,95.31,7.09,7.98,19.73-3.32,12.63-11.08h0Z"/>
  <path class="cls-11" d="M3357.61,7295.85c-27.93-36.35-59.63-70.04-92.87-102.63-7.54-7.54-19.95,3.55-12.63,11.08,32.36,31.47,62.95,64.28,89.99,99.52,6.43,8.2,21.94,.44,15.52-7.98h0Z"/>
  <path class="cls-11" d="M3197.06,7645.02c-44.88,11.95-88.5,27.89-131.28,45.09-9.86,3.98-1.26,16.78,8.39,12.58,41.52-16.78,83.68-32.09,127.3-43.62,10.28-2.73,5.87-16.99-4.4-14.05h0Z"/>
  <path class="cls-11" d="M2918.98,7750.3c-41.73,20.13-83.05,40.47-124.57,60.82-9.44,4.61-1.05,17.41,8.39,12.58,41.52-20.34,82.84-40.68,124.57-60.82,9.65-4.61,1.05-17.2-8.39-12.58h0Z"/>
  <path class="cls-11" d="M2627.26,7907.79c-40.68,19.71-78.64,42.78-115.97,67.11-8.6,5.45-.21,18.45,8.39,12.58,37.12-24.33,75.29-47.4,115.97-67.11,9.44-4.61,1.05-17.2-8.39-12.58h0Z"/>
  <path class="cls-11" d="M2254.81,8131.55c42.36-16.78,82.42-37.12,121.84-58.72,9.23-5.03,.63-17.83-8.39-12.58-39.22,21.6-79.48,41.94-121.84,58.72-9.86,3.77-1.47,16.57,8.39,12.58h0Z"/>
  <path class="cls-11" d="M1957.23,8233.27c45.3-9.02,89.34-21.39,132.75-35.65,10.07-3.36,5.66-17.62-4.4-14.26-43.41,14.26-87.45,26.84-132.75,35.65-10.7,2.1-6.08,16.57,4.4,14.26h0Z"/>
  <path class="cls-11" d="M1768.07,8271.43c-45.51,10.91-89.34,25.59-132.75,41.73-9.86,3.77-1.47,16.36,8.39,12.58,41.94-15.52,84.72-29.57,128.76-40.27,10.49-2.31,6.08-16.36-4.4-14.05h0Z"/>
  <path class="cls-11" d="M1475.52,8363.08c-45.93,12.58-89.76,29.57-132.75,48.44-9.65,4.4-1.26,16.99,8.39,12.58,41.73-18.45,84.1-35.02,128.55-47.19,10.49-2.31,6.08-16.57-4.19-13.84h0Z"/>
  <path class="cls-11" d="M1214,8467.73c-42.36,18.66-81.79,41.52-119.75,66.06-8.6,5.45-.21,18.45,8.39,12.58,38.17-24.54,77.38-47.4,119.75-66.06,9.86-3.98,1.26-16.78-8.39-12.58h0Z"/>
  <path class="cls-11" d="M975.35,8622.7c-42.36,20.13-81.37,44.46-119.12,70.46-8.39,5.87,3.57,16.15,11.95,10.49,36.7-25.17,74.87-48.65,115.76-68.16,9.23-4.61,.84-17.2-8.6-12.79h0Z"/>
  <path class="cls-11" d="M731.66,8793.83c-36.28,26.84-68.79,57.04-99.19,88.71-6.92,7.34,4.82,17.62,11.95,10.49,30.62-31.67,63.12-61.87,99.19-88.71,8.18-6.29-3.77-16.57-11.95-10.49h0Z"/>
  <path class="cls-11" d="M543.76,8968.94c-34.39,29.57-64.38,62.49-92.69,96.47-6.29,7.76,8.18,14.89,14.47,7.34,27.47-33.13,56.83-64.8,90.18-93.53,7.55-6.29-4.19-16.78-11.95-10.28h0Z"/>
  <path class="cls-11" d="M363.61,9161.25c-31.46,31.88-58.72,66.69-83.68,102.55-5.66,8.18,8.81,15.52,14.47,7.34,24.33-35.02,50.33-68.79,80.95-99.61,7.13-6.92-4.61-17.41-11.74-10.28h0Z"/>
  <path class="cls-11" d="M204.23,9361.74c-31.46,31.88-58.72,66.69-83.68,102.55-5.66,8.18,8.81,15.52,14.47,7.34,24.33-35.02,50.33-68.79,80.95-99.61,7.13-6.71-4.61-17.41-11.74-10.28h0Z"/>
  <path class="cls-11" d="M277.21,9998.01c-47.19-8.39-94.79-11.95-143.02-13.21-10.7-.21-10.7,14.47,0,14.68,46.56,1.47,92.69,4.61,138.41,12.79,10.7,1.68,15.31-12.37,4.61-14.26h0Z"/>
  <path class="cls-11" d="M605.62,10071.62c-44.04-16.78-89.76-29.15-136.52-39.43-10.49-2.31-14.89,11.95-4.4,14.26,45.09,9.86,89.76,21.39,132.54,37.75,9.86,3.99,18.24-8.6,8.39-12.58h0Z"/>
  <path class="cls-11" d="M888.32,10204.78c-38.38-24.33-79.69-44.25-122.05-62.7-9.65-4.19-18.04,8.6-8.39,12.58,42.57,18.25,83.89,38.38,122.05,62.7,8.81,5.66,17.2-6.92,8.39-12.58h0Z"/>
  <path class="cls-11" d="M1114.18,10380.94c-31.04-31.46-66.06-59.35-102.55-85.77-8.18-6.08-20.13,4.4-11.95,10.49,36.49,26.42,71.51,54.32,102.55,85.77,7.13,7.13,18.87-3.56,11.95-10.49h0Z"/>
  <path class="cls-11" d="M1218.41,10504.47c33.55,30.2,70.88,56.62,109.89,81.37,8.81,5.45,16.99-7.34,8.39-12.58-37.54-24.12-73.82-49.91-106.32-79.27-7.55-6.92-19.29,3.77-11.95,10.49h0Z"/>
  <path class="cls-11" d="M1474.47,10676.85c41.94,20.55,86.19,36.7,131.49,50.96,10.28,3.36,14.68-11.11,4.4-14.26-43.83-13.84-86.82-29.57-127.3-49.49-9.44-4.61-18.04,7.97-8.6,12.79h0Z"/>
  <path class="cls-11" d="M1771.63,10784.85c46.77,9.23,93.95,15.1,141.56,19.5,10.7,.84,10.7-13.84,0-14.68-45.93-4.4-91.85-10.07-137.15-19.08-10.7-2.1-15.1,12.37-4.4,14.26h0Z"/>
  <path class="cls-11" d="M2090.4,10818.83c46.98,3.15,93.95,3.15,141.14,1.47,10.7-.21,10.91-15.1,0-14.68-47.19,1.47-94.16,1.68-141.14-1.47-10.91-.63-10.7,14.05,0,14.68h0Z"/>
  <path class="cls-11" d="M2602.31,10853.22c-51.38-14.26-104.02-24.33-157.08-32.51-10.49-1.68-15.1,12.58-4.4,14.26,53.06,8.18,105.7,18.25,157.08,32.51,10.49,2.73,14.89-11.53,4.4-14.26h0Z"/>
  <path class="cls-11" d="M2903.67,10986.18c-42.78-28.73-88.29-53.9-135.06-77.38-9.23-4.82-17.83,7.97-8.39,12.58,46.77,23.49,92.27,48.65,135.06,77.38,8.39,5.87,16.78-6.92,8.39-12.58h0Z"/>
  <path class="cls-11" d="M3170,11179.32c-36.28-35.02-76.13-66.9-117.44-97.31-8.18-6.08-20.13,4.4-11.95,10.49,41.31,30.41,80.95,62.29,117.44,97.31,7.34,7.13,19.08-3.36,11.95-10.49h0Z"/>
  <path class="cls-11" d="M3052.35,12163.3c47.4-22.23,92.48-48.44,136.31-75.92,8.6-5.45,.42-18.25-8.39-12.58-43.83,27.68-88.71,53.69-136.31,75.92-9.44,4.4-1.05,17.2,8.39,12.58h0Z"/>
  <path class="cls-11" d="M2714.3,12280.11c51.8-14.68,102.34-32.3,152.67-50.96,9.86-3.77,1.47-16.36-8.39-12.58-48.86,18.25-98.15,35.02-148.69,49.49-10.07,2.73-5.66,16.99,4.4,14.05h0Z"/>
  <path class="cls-11" d="M2386.51,12367.98c53.06-7.34,105.49-17.62,157.49-29.15,10.49-2.31,5.87-16.57-4.4-14.26-52.22,11.53-104.65,21.81-157.49,29.15-10.7,1.47-6.29,15.73,4.4,14.26h0Z"/>
  <path class="cls-11" d="M2020.56,12382.45c53.48,2.73,107.37,2.73,161.06,1.26,10.7-.21,10.91-14.89,0-14.68-53.69,1.47-107.37,1.47-161.06-1.26-10.91-.84-10.91,14.05,0,14.68h0Z"/>
  <path class="cls-11" d="M1649.79,12350.58c52.85,7.97,105.7,15.1,158.75,22.02,10.49,1.47,15.1-12.79,4.4-14.26-53.06-6.71-106.12-13.84-158.75-22.02-10.49-1.68-14.89,12.58-4.4,14.26h0Z"/>
  <path class="cls-11" d="M1456.64,12309.68c-53.69-7.13-107.79-12.58-161.9-17.41-10.7-.84-10.7,13.84,0,14.68,52.64,4.61,105.28,10.07,157.49,16.78,10.7,1.68,14.89-12.58,4.4-14.05h0Z"/>
  <path class="cls-11" d="M1139.97,12272.56c-53.69-6.71-107.79-12.16-161.9-16.78-10.7-.84-10.7,13.84,0,14.68,52.64,4.4,105.28,9.65,157.49,16.36,10.28,1.26,14.89-12.79,4.4-14.26h0Z"/>
  <path class="cls-11" d="M814.08,12258.51c-53.06,7.34-105.7,16.36-158.12,26.21-10.49,2.1-6.08,16.15,4.4,14.26,52.43-9.65,105.28-18.66,158.12-26.21,10.7-1.47,6.29-15.52-4.4-14.26h0Z"/>
  <path class="cls-11" d="M509.16,12336.73c-49.28,18.87-97.73,39.01-145.75,59.98-9.65,4.19-1.26,16.99,8.39,12.58,48.23-20.76,96.68-41.1,145.75-59.98,10.07-3.56,1.47-16.36-8.39-12.58h0Z"/>
  <path class="cls-11" d="M231.08,12467.6c-44.88,26-88.5,53.27-131.7,81.37-8.6,5.45-.42,18.45,8.39,12.58,43.2-27.89,87.03-55.15,131.7-81.37,9.02-5.03,.63-17.83-8.39-12.58h0Z"/>
  <path class="cls-20" d="M-6.74,14921.46c142.19-96.26,400.13-274.93,702.96-345.19,630.82-146.38,968.46,148.48,1603.68,69.42,249.56-31.04,602.72-119.96,1006.63-387.97v-423.41c-601.25,363.22-1076.25,422.15-1404.03,405.8-425.51-21.39-705.9-175.11-1174.19-93.11-330.3,57.88-577.97,202.37-734.84,314.36v460.11h-.21Z"/>
  <path class="cls-11" d="M3055.29,14217.24c47.4-22.23,92.48-48.44,136.31-75.92,8.6-5.45,.42-18.25-8.39-12.58-43.83,27.68-88.71,53.69-136.31,75.92-9.65,4.4-1.05,17.2,8.39,12.58h0Z"/>
  <path class="cls-11" d="M2717.23,14334.05c51.8-14.68,102.34-32.3,152.67-50.96,9.86-3.77,1.47-16.36-8.39-12.58-48.86,18.25-98.15,35.02-148.69,49.49-10.28,2.73-5.87,16.99,4.4,14.05h0Z"/>
  <path class="cls-11" d="M2389.45,14421.92c53.06-7.34,105.49-17.62,157.49-29.15,10.49-2.31,5.87-16.57-4.4-14.26-52.22,11.53-104.65,21.81-157.49,29.15-10.7,1.47-6.5,15.73,4.4,14.26h0Z"/>
  <path class="cls-11" d="M2023.29,14436.39c53.48,2.73,107.37,2.73,161.06,1.26,10.7-.21,10.91-14.89,0-14.68-53.69,1.47-107.37,1.47-161.06-1.26-10.91-.63-10.91,14.05,0,14.68h0Z"/>
  <path class="cls-11" d="M1652.72,14404.51c52.85,7.97,105.7,15.1,158.75,22.02,10.49,1.47,15.1-12.79,4.4-14.26-53.06-6.71-106.12-13.84-158.75-22.02-10.49-1.47-15.1,12.58-4.4,14.26h0Z"/>
  <path class="cls-11" d="M1459.58,14363.62c-53.69-7.13-107.79-12.58-161.9-17.41-10.7-.84-10.7,13.84,0,14.68,52.64,4.61,105.28,10.07,157.49,16.78,10.49,1.68,14.89-12.58,4.4-14.05h0Z"/>
  <path class="cls-11" d="M1142.7,14326.5c-53.69-6.71-107.79-12.16-161.9-16.78-10.7-.84-10.7,13.84,0,14.68,52.64,4.4,105.28,9.65,157.49,16.36,10.49,1.26,15.1-12.79,4.4-14.26h0Z"/>
  <path class="cls-11" d="M817.02,14312.45c-53.06,7.34-105.7,16.36-158.12,26.21-10.49,2.1-6.08,16.15,4.4,14.26,52.43-9.65,105.28-18.66,158.12-26.21,10.7-1.47,6.08-15.52-4.4-14.26h0Z"/>
  <path class="cls-11" d="M512.09,14390.67c-49.28,18.87-97.73,39.01-145.75,59.98-9.65,4.19-1.26,16.99,8.39,12.58,48.23-20.76,96.68-41.1,145.75-59.98,10.07-3.56,1.47-16.36-8.39-12.58h0Z"/>
  <path class="cls-11" d="M234.01,14521.53c-44.88,26-88.5,53.27-131.7,81.37-8.6,5.45-.42,18.45,8.39,12.58,43.2-27.89,87.03-55.15,131.7-81.37,8.81-5.03,.42-17.83-8.39-12.58h0Z"/>
  <g id="brændstofsbil">
    <rect id="Rectangle_112" data-name="Rectangle 112" class="cls-25" x="1126.54" y="6207.12" width="39.81" height="128.35" transform="translate(-5215.92 5866.52) rotate(-76)"/>
    <g id="Group_170" data-name="Group 170">
      <g class="cls-7">
        <g id="Group_169" data-name="Group 169">
          <path id="Path_561" data-name="Path 561" class="cls-21" d="M970.86,6201.65c14.63-58.68,76.36-93.81,137.89-78.47,61.53,15.34,99.54,75.34,84.91,134.02-14.63,58.68-76.36,93.81-137.89,78.47s-99.54-75.34-84.91-134.02"/>
          <path id="Path_562" data-name="Path 562" class="cls-21" d="M446.84,6071c14.63-58.68,76.36-93.81,137.89-78.47,61.53,15.34,99.54,75.34,84.91,134.02-14.63,58.68-76.36,93.81-137.89,78.47-61.53-15.34-99.54-75.34-84.91-134.02"/>
          <path id="Path_563" data-name="Path 563" class="cls-21" d="M648.93,6008.54c27.9-111.9,145.63-178.89,262.94-149.64,117.32,29.25,189.82,143.67,161.92,255.57-27.9,111.9-145.63,178.9-262.95,149.65-117.32-29.25-189.81-143.68-161.91-255.58"/>
          <path id="Path_573" data-name="Path 573" class="cls-21" d="M1108.74,6123.18l-530.38-132.24-52.98,212.49,530.38,132.24,52.98-212.49Z"/>
          <path id="Path_564" data-name="Path 564" class="cls-8" d="M1037.44,6105.4s10.68-173.37-138.35-195.22c-149.03-21.84-174.65,46.84-202.97,110.12l341.32,85.1Z"/>
          <path id="Path_565" data-name="Path 565" class="cls-12" d="M471.9,6024.88c25.51-26.98,62.49-39.97,99.27-34.86,2.69,8.59,2.97,17.75,.81,26.49-6.83,27.38-35.64,43.78-64.35,36.62-15.46-3.76-28.51-14.08-35.72-28.26"/>
          <path id="Path_574" data-name="Path 574" class="cls-22" d="M902.29,5897.32l-50.41,202.18"/>
          <path id="Path_566" data-name="Path 566" class="cls-15" d="M1196.53,6224.91l-59.76-14.9c-6.04-1.38-9.84-7.37-8.5-13.42l10.34-41.48c1.66-5.97,7.83-9.48,13.81-7.86l5.44,1.36c22.56,19.25,36.48,46.73,38.67,76.3"/>
          <path id="Path_567" data-name="Path 567" class="cls-19" d="M567.44,6213.61c-10.82,43.4,17.3,87.79,62.81,99.13,45.51,11.35,91.17-14.64,101.99-58.04,10.82-43.4-17.29-87.79-62.81-99.13-45.51-11.35-91.17,14.64-101.99,58.04"/>
          <path id="Path_568" data-name="Path 568" class="cls-24" d="M669.44,6155.56c-45.51-11.35-91.17,14.64-101.99,58.04l-25.24-6.29c14.14-56.7,73.79-90.65,133.24-75.83,59.44,14.82,96.18,72.81,82.04,129.5l-25.24-6.29c10.82-43.4-17.3-87.79-62.81-99.13"/>
          <path id="Path_569" data-name="Path 569" class="cls-19" d="M890.87,6294.93c-10.82,43.4,17.3,87.79,62.81,99.13,45.51,11.35,91.17-14.64,101.99-58.04,10.82-43.4-17.29-87.79-62.81-99.13-45.51-11.35-91.17,14.64-101.99,58.04"/>
          <path id="Path_570" data-name="Path 570" class="cls-24" d="M992.87,6236.89c-45.51-11.35-91.17,14.64-101.99,58.04l-25.24-6.29c14.14-56.7,73.79-90.65,133.24-75.83,59.44,14.82,96.18,72.81,82.04,129.5l-25.24-6.29c10.82-43.4-17.3-87.79-62.81-99.13"/>
        </g>
      </g>
    </g>
  </g>
  <g id="mand">
    <g id="mand-2">
      <g id="Group_106" data-name="Group 106">
        <g class="cls-26">
          <g id="Group_105" data-name="Group 105">
            <path id="Path_287" data-name="Path 287" class="cls-23" d="M2800.69,5206.46s-31.92-30.82-49.42-7c-12.11,16.49,2.7,32.85,12.96,41.33,.39,.32,.76,.62,1.13,.92,.18,.14,.6,.47,1.03,.8,.49,.39,1,.77,1.18,.91,2.88,2.16,4.89,3.38,4.89,3.38,0,0,18.41,4.76,3.99,20.33,0,0-10.74,7.94,24.25,16.2,0,0,28.85,6.67,2.15,21.92-26.7,15.25,2.76,19.06,2.76,19.06,0,0,38.67-19.06,36.83,1.91,0,0-35.91,53.37,7.67,33.99,43.59-19.38,43.89-25.73,43.89-25.73,8.36-11.2,9.33-26.28,2.46-38.45,0,0,23.63-43.84,0-63.85,0,0-1.23-8.58-38.06-8.26,0,0-2.76-20.33-26.7-26.37-23.94-6.04-31,8.89-31,8.89"/>
            <path id="Path_288" data-name="Path 288" class="cls-10" d="M2769.04,5240.68s-62.39,60.4-44.66,61.83c17.72,1.43-13,44.79-13,44.79,0,0-11.51,15.73,16.23,17.63,15.7,4.94,32.01,7.7,48.46,8.22h.81c24.82,.13,49.38-10.15,49.38-10.15l4.5-3.9s-6.9-1.2,12.99-33.49c0,0,3.2-15.94-17.66-9.54-20.85,6.41-36.05,10.43-30.94-4.97,0,0,33.01-18.2,15.07-26.33s-42.68-10.34-30.46-20.75-3.7-18.47-10.69-23.35"/>
            <path id="Path_289" data-name="Path 289" class="cls-17" d="M2756.05,5418.75s50.89,10.03,85.38-14.88c0,0-21.6,227.56-18.1,240.92l2.35,42.36s31.3,48.51,28.19,58.56c-3.11,10.05-4.55,51.44-1.86,75.93s5.54,19.4,1.86,43.83c-3.68,24.43-5.17,39.57-5.17,39.57,0,0-1.79,27.47,15.84,37.18s-145.72,4.55-145.72,4.55l37.24-528.01Z"/>
            <path id="Path_290" data-name="Path 290" class="cls-10" d="M2774.79,5369.72s-17.27,47.29-23.37,53.61c-6.1,6.31,77.92,5.6,101.98-17.75l2.9-51.46-81.51,15.6Z"/>
            <path id="Path_291" data-name="Path 291" class="cls-21" d="M2756.05,5614.75c15.6,21.77-17.03,308.95-17.03,308.95,0,0-8.2,19.98-29.72,27.67-21.52,7.68-62.51-43.04-62.51-43.04,0,0-18.96-67.62,14.35-189.57,33.3-121.95,11.27-114.77,11.27-114.77,0,0-50.72,43.55-124.5,65.07-73.78,21.52-82.49-28.18-82.49-28.18-18.96-7.68,70.19-217.24,104.53-232.61,34.33-15.37,68.14,35.86,68.14,35.86,0,0-149.61,205.96-59.94,108.11,89.66-97.85,177.91-132.7,177.91-132.7,0,0-8.08,183.93,0,195.21"/>
            <path id="Path_292" data-name="Path 292" class="cls-4" d="M2756.05,5614.75c15.6,21.77-17.03,308.95-17.03,308.95,0,0-8.2,19.98-29.72,27.67-21.52,7.68-62.51-43.04-62.51-43.04,0,0-18.96-67.62,14.35-189.57,33.3-121.95,11.27-114.77,11.27-114.77,0,0-50.72,43.55-124.5,65.07-73.78,21.52-82.49-28.18-82.49-28.18-18.96-7.68,70.19-217.24,104.53-232.61,34.33-15.37,68.14,35.86,68.14,35.86,0,0-149.61,205.96-59.94,108.11,89.66-97.85,177.91-132.7,177.91-132.7,0,0-8.07,183.93,0,195.21Z"/>
            <path id="Path_293" data-name="Path 293" class="cls-21" d="M2841.49,5403.86s-30.74,254.45-12.81,291.85c17.93,37.4,15.88,91.19,24.59,134.24,8.71,43.04-22.03,86.59,10.24,111.69,32.27,25.11,112.21,61.99,112.21,61.99,0,0,31.77-89.66,10.24-187.52-21.53-97.86-8.2-126.04-8.2-126.04l43.55,53.29s-60.46,194.17-116.31,231.58l68.14,31.26,115.79-186.5s47.65-68.14,0-130.65c0,0-131.68-251.06-162.42-254.65,0,0-44.06-30.35-85.05-30.54"/>
            <path id="Path_294" data-name="Path 294" class="cls-10" d="M2592.5,5407.59s43.24-98.08,62.66-86.79c19.42,11.3-31.33,60.79-31.33,60.79,0,0,88.21,1.11,2.21,49.74l-33.54-23.75Z"/>
            <path id="Path_295" data-name="Path 295" class="cls-21" d="M2961.37,5975.63l11.77,564.56c.15,7.29-4.36,13.3-9.97,13.3h-75.54c-4.98,0-9.19-4.76-9.88-11.16l-61.38-569.15c-1.27-11.73-12.99-15.28-18.12-5.5l-13.92,26.52c-.48,.93-.87,1.9-1.15,2.91-.1,.37-.2,.74-.31,1.12-.38,1.4-.76,2.88-1.15,4.45-15.6,63.51-35.84,263.78-38.52,290.72-.2,1.97-.04,3.97,.47,5.88l50.52,189.25c1.32,4.73,.34,9.81-2.63,13.72l-50.26,60.73c-5.02,6.08-13.18,3.89-15.94-4.29l-73.52-218.13c-.59-1.62-1.45-3.13-2.53-4.47-16.26-21.45,2.68-344.5,6.74-410.63,.41-6.68,4.67-11.83,9.83-11.91l282.84-4.24c3.41,.14,6.48,2.09,8.06,5.11,1.25,2.14,1.94,4.56,2.01,7.04l2.58,54.17Z"/>
            <path id="Path_296" data-name="Path 296" class="cls-2" d="M2961.37,5975.63l11.77,564.56c.15,7.29-4.36,13.3-9.97,13.3h-75.54c-4.98,0-9.19-4.76-9.88-11.16l-61.38-569.15c-1.27-11.73-12.99-15.28-18.12-5.5l-13.92,26.52c-.48,.93-.87,1.9-1.15,2.91-.1,.37-.2,.74-.31,1.12-.38,1.4-.76,2.88-1.15,4.45-15.6,63.51-35.84,263.78-38.52,290.72-.2,1.97-.04,3.97,.47,5.88l50.52,189.25c1.32,4.73,.34,9.81-2.63,13.72l-50.26,60.73c-5.02,6.08-13.18,3.89-15.94-4.29l-73.52-218.13c-.59-1.62-1.45-3.13-2.53-4.47-16.26-21.45,2.68-344.5,6.74-410.63,.41-6.68,4.67-11.83,9.83-11.91l282.84-4.24c5.31-.08,9.75,5.26,10.07,12.15l2.58,54.17Z"/>
            <path id="Path_297" data-name="Path 297" class="cls-23" d="M2724.56,6509.62s-101.43,21.8-111.1,56.22c-9.66,34.43,42.22,20.52,42.22,20.52,0,0,103.9-25.5,116.9-30.76s28.42-17.35,28.42-17.35c0,0,28.09-11.76,11.66-32.52-16.43-20.75-88.1,3.86-88.1,3.86"/>
            <path id="Path_298" data-name="Path 298" class="cls-3" d="M2724.56,6509.62s-101.43,21.8-111.1,56.22c-9.66,34.43,42.22,20.52,42.22,20.52,0,0,103.9-25.5,116.9-30.76s28.42-17.35,28.42-17.35c0,0,28.09-11.76,11.66-32.52-16.43-20.75-88.11,3.88-88.11,3.88Z"/>
            <path id="Path_299" data-name="Path 299" class="cls-23" d="M2899.79,6537.46s-103.74-1.68-120.93,29.67c-17.19,31.36,36.5,29.53,36.5,29.53,0,0,106.98-1.35,120.83-3.54s31.6-10.48,31.6-10.48c0,0,30.02-5.11,18.7-29.04s-86.71-16.14-86.71-16.14"/>
            <path id="Path_300" data-name="Path 300" class="cls-3" d="M2899.79,6537.46s-103.74-1.68-120.93,29.67c-17.19,31.36,36.5,29.53,36.5,29.53,0,0,106.98-1.35,120.83-3.54s31.6-10.48,31.6-10.48c0,0,30.02-5.11,18.7-29.04s-86.71-16.14-86.71-16.14Z"/>
            <path id="Path_301" data-name="Path 301" class="cls-23" d="M2676.68,6319.03v-301.73h432.36v301.73h-432.36Z"/>
            <path id="Path_302" data-name="Path 302" class="cls-5" d="M2676.68,6319.03v-301.73h432.36v301.73h-432.36Z"/>
            <path id="Path_303" data-name="Path 303" class="cls-23" d="M2814.24,6023.69c14.91-15.98,34.17-27.25,55.4-32.42,52.15-12.21,103.11,22.92,101.84,26.66-.74,2.19-19.28-6.07-51.18-8.84-35.99-2.84-72.17,2.14-106.06,14.6"/>
            <path id="Path_304" data-name="Path 304" class="cls-5" d="M2814.24,6023.69c14.91-15.98,34.17-27.25,55.4-32.42,52.15-12.21,103.11,22.92,101.84,26.66-.74,2.19-19.28-6.07-51.18-8.84-35.99-2.85-72.17,2.13-106.06,14.6Z"/>
            <path id="Path_305" data-name="Path 305" class="cls-10" d="M2913.09,5979.31s-61.42,1.28-47.24,30.23c14.19,28.95,96.04-8.5,96.04-8.5l-48.81-21.73Z"/>
            <path id="Path_673" data-name="Path 673" class="cls-21" d="M2738.5,5909.31s-71.13-11.09-80.29,5.84c-9.16,16.93,83.17,0,83.17,0l-2.88-5.84Z"/>
          </g>
        </g>
      </g>
    </g>
    <path id="Path_674" data-name="Path 674" class="cls-21" d="M2841.26,5943.72s112.04-13.5,127.12,0c15.07,13.5-1.21,98.95-1.21,98.95l-6.21-2.04-8.05-87.51-113.17-3.09,1.52-6.31Z"/>
  </g>
  <g id="Røg_med_tekst" data-name="Røg med tekst">
    <g class="cls-29">
      <g id="røg">
        <path id="Path_672" data-name="Path 672" class="cls-11" d="M2571.69,5393.46c90.95-140.01,42.38-332.98-108.45-430.96-31.66-20.51-66.45-35.71-103-45.01,11.52-114.82-72.21-217.24-187.03-228.76-114.82-11.52-217.24,72.21-228.76,187.03-.86,8.6-1.19,17.25-.98,25.9-122.03-34.31-250.53,27.47-299.94,144.21-1.06-.72-2.07-1.57-3.14-2.27-97.33-63.35-227.59-35.81-290.94,61.52-59.68,91.69-39.08,213.84,47.38,280.88-130.44,40.06-203.7,178.28-163.64,308.71,40.06,130.44,178.28,203.7,308.71,163.64,15.14-4.65,29.8-10.74,43.77-18.2,2.03,10.64,4.78,21.14,8.25,31.4-55.02,11.02-103.25,43.79-133.77,90.88-8.08,12.49-14.81,25.8-20.08,39.7-90.08-15.98-176.05,44.1-192.03,134.17-15.98,90.08,44.1,176.05,134.17,192.03,61.78,10.96,124.44-13.93,161.87-64.28,103.59,50.58,228.57,7.62,279.15-95.97,20.77-42.54,26.47-90.88,16.15-137.08,125.56-11.47,219.75-119.88,213.55-245.81,137.82,21.43,266.92-72.92,288.35-210.74,2.57-16.5,3.49-33.22,2.76-49.91,91.36-6.75,176.28-52,227.66-131.09"/>
      </g>
    </g>
  </g>
  <g class="cls-28">
    <g id="elbil">
      <path id="Path_550" data-name="Path 550" class="cls-14" d="M942.77,1000.91c4.05-32.29-18.85-61.75-51.14-65.8-32.29-4.05-61.75,18.85-65.8,51.14-4.05,32.29,18.85,61.75,51.14,65.8,.05,0,.1,.01,.15,.02,32.25,4,61.65-18.9,65.65-51.16"/>
      <path id="Path_551" data-name="Path 551" class="cls-14" d="M1217.9,1034.68c4.05-32.29-18.85-61.75-51.14-65.8-32.29-4.05-61.75,18.85-65.8,51.14-4.05,32.29,18.85,61.75,51.14,65.8,.05,0,.1,.01,.15,.02,32.25,4,61.65-18.9,65.65-51.16"/>
      <path id="Path_552" data-name="Path 552" class="cls-14" d="M1132.87,965.03c7.72-61.58-35.94-117.76-97.52-125.48-61.58-7.72-117.76,35.94-125.48,97.52-7.72,61.58,35.94,117.76,97.52,125.48,.1,.01,.19,.02,.29,.04,61.51,7.63,117.56-36.05,125.19-97.55h0"/>
      <rect id="Rectangle_110" data-name="Rectangle 110" class="cls-14" x="964.75" y="870.54" width="117.55" height="280.56" transform="translate(-104.47 1903.56) rotate(-83)"/>
      <path id="Path_553" data-name="Path 553" class="cls-21" d="M928.89,939.98s27.26-89.02,102.64-71.73c75.38,17.29,74.82,56.62,76.56,93.73l-179.2-22Z"/>
      <path id="Path_554" data-name="Path 554" class="cls-13" d="M1214.52,1006.79c-6.87-18.1-22.19-31.68-40.99-36.31-9.09,12.15-6.61,29.37,5.54,38.45,10.75,8.04,25.74,7.13,35.45-2.15"/>
      <line id="Line_71" data-name="Line 71" class="cls-1" x1="1032.4" y1="861.19" x2="1018.77" y2="972.21"/>
      <path id="Path_575" data-name="Path 575" class="cls-6" d="M1032.4,861.19l-20.71,168.74"/>
      <path id="Path_555" data-name="Path 555" class="cls-15" d="M830.45,969.81l31.37,3.85c3.23,.39,6.16-1.9,6.57-5.12l2.8-22.78c.38-3.23-1.91-6.16-5.14-6.56l-2.86-.35c-14.59,5.57-26.37,16.71-32.75,30.96"/>
      <path id="Path_556" data-name="Path 556" class="cls-19" d="M1133.57,1083.38c-2.87,23.9-24.58,40.95-48.48,38.08-23.9-2.87-40.95-24.58-38.08-48.48,2.87-23.9,24.58-40.95,48.48-38.08,.04,0,.08,0,.12,.01,23.87,2.9,40.86,24.6,37.97,48.46"/>
      <path id="Path_557" data-name="Path 557" class="cls-16" d="M1095.6,1034.92c23.87,2.9,40.86,24.6,37.97,48.46l13.25,1.63c3.67-31.23-18.67-59.53-49.91-63.2-31-3.64-59.16,18.36-63.12,49.32l13.25,1.63c2.96-23.86,24.7-40.8,48.56-37.84"/>
      <path id="Path_558" data-name="Path 558" class="cls-19" d="M963.63,1062.88c-2.87,23.9-24.58,40.95-48.48,38.08-23.9-2.87-40.95-24.58-38.08-48.48,2.87-23.9,24.58-40.95,48.48-38.08,.04,0,.07,0,.11,.01,23.87,2.9,40.86,24.6,37.97,48.46"/>
      <path id="Path_559" data-name="Path 559" class="cls-16" d="M925.66,1014.42c23.87,2.9,40.87,24.59,37.97,48.46h0s13.25,1.63,13.25,1.63c3.83-31.21-18.37-59.62-49.58-63.45-31.21-3.83-59.62,18.37-63.45,49.58l13.25,1.63c2.96-23.86,24.7-40.8,48.55-37.84"/>
    </g>
  </g>
  <g id="skilt">
    <g id="Group_191" data-name="Group 191">
      <g class="cls-27">
        <g id="Group_190" data-name="Group 190">
          <path id="Path_689" data-name="Path 689" class="cls-21" d="M2209.6,867.97l10.86-111.76c.47-4.8-7-5.54-7.46-.73l-10.86,111.76c-.47,4.8,7,5.54,7.46,.73"/>
          <path id="Path_690" data-name="Path 690" class="cls-9" d="M2216.92,756.13l97.07,69.67-8.21,75.73-96.84-61.23,7.98-84.17Z"/>
          <path id="Path_691" data-name="Path 691" class="cls-21" d="M2306.35,930.05l10.19-104.84c.47-4.8-7-5.54-7.46-.73l-10.19,104.84c-.47,4.8,7,5.54,7.46,.73"/>
        </g>
      </g>
    </g>
    <path id="Path_692" data-name="Path 692" class="cls-21" d="M2239.58,813.55l.82-8.42,34.14,24.56,.41-4.21,8.87,13.61-10.51,3.22,.41-4.21-34.14-24.56Z"/>
    <path id="Path_693" data-name="Path 693" class="cls-21" d="M2237.04,839.64l5.56,3.94,2.53-26.03-5.56-4-2.54,26.09Z"/>
  </g>
</svg>