<?xml version="1.0" encoding="UTF-8"?>
<svg id="Lag_1" data-name="Lag 1" xmlns="http://www.w3.org/2000/svg" viewBox="0 0 2214.2 8192">
  <defs>
    <style>
      .cls-1 {
        fill: #fff;
      }

      .cls-2 {
        fill: #e4eddf;
      }

      .cls-3 {
        fill: #cac9c9;
      }
    </style>
  </defs>
  <rect class="cls-2" x="-575.28" y="-113.62" width="3455.24" height="8261.92"/>
  <g id="Lag_1-2" data-name="Lag 1">
    <path class="cls-3" d="M2257.29,527.97c-20.88,25.44-51.9,62.19-90.57,105.13-126.89,141.15-229.66,255.39-358.75,336.85-179.52,113.07-361.99,132.77-449.18,141-278.47,26.17-394.48-70.87-650.46-96.16-170.41-16.91-415.21-3.23-726.92,141v-227.31c201.43-93.66,375.81-122.33,487.99-132.03,133.65-11.47,323.17-27.79,535.19,41.46,168.79,55.14,155.41,50.14,238.78,53.67,286.71,12.2,514.46-180.7,569.15-227.16,68.81-58.22,51.31-59.84,229.37-240.54,90.28-91.6,167.32-164.67,219.81-213.63-1.32,105.86-2.79,211.72-4.41,317.73h0Z"/>
    <path class="cls-3" d="M2405.94,1391.03c18.67,116.45,37.49,232.9,56.31,349.34-39.11-28.08-106.3-74.1-194.96-124.09-319.79-180.11-500.49-174.38-667.66-326.26-54.7-49.55-129.53-135.71-176.58-282,104.39-34.85,208.78-69.69,313.17-104.54,7.94,54.7,30.58,132.03,93.95,202.9,70.87,79.1,160.56,114.54,220.55,138.06,82.63,32.64,112.92,23.82,200.84,59.84,69.69,28.96,121.45,62.63,154.38,86.75h0Z"/>
    <path class="cls-3" d="M2336.54,2445.24c-309.65,329.64-577.39,381.1-758.97,383.16-206.14,2.35-339.05-83.37-667.96-53.67-124.98,11.32-260.68,48.81-421.09,88.95-247.16,61.9-392.13,134.97-527.1,187.32-5-90.57-10.29-181.14-15.29-271.71,77.78-32.64,186.43-75.28,319.5-118.51,116.89-37.93,213.19-69.25,345.52-94.83,71.75-13.82,228.19-40.29,427.56-40.29,242.31-.15,345.23,38.96,461.82,46.17,184.82,11.62,453.44-53.22,810.72-402.86,8.53,91.89,16.91,184.08,25.29,276.27h0Z"/>
    <path class="cls-3" d="M2299.19,5127.65c-313.47-436.53-563.12-521.22-737.21-512.69-142.18,7.2-280.24,78.81-471.67,7.65-144.38-53.67-134.39-119.98-293.62-193.05-217.31-99.83-324.2-16.91-507.69-91.01-101.3-40.87-231.43-131.89-346.84-355.22,12.5-106.16,24.7-212.31,37.2-318.32,136.15,252.89,286.27,353.17,400.95,397.28,178.64,68.81,270.54,1.18,484.91,94.54,195.4,84.98,183.2,168.94,348.9,223.04,205.99,67.05,314.06-33.38,506.96-23.82,146.88,7.2,359.05,79.25,604.44,400.95-8.97,123.65-17.64,247.16-26.32,370.66h0Z"/>
    <path class="cls-3" d="M-41.38,7039.78c430.06-614.29,806.02-837.78,1077.88-924.67,128.95-41.17,320.23-79.25,576.06-208.93,156.15-79.25,270.39-159.09,502.99-253.33,112.48-45.58,208.64-76.75,273.18-96.16-7.06-93.07-14.11-186.29-21.03-279.21-83.22,6.91-213.05,24.85-356.4,78.66-213.93,80.13-287.74,176.58-481.82,279.21-210.84,111.6-383.01,135.27-502.99,165.56-263.18,66.46-631.64,255.54-1079.05,803.67,3.68,144.82,7.35,290.09,11.17,435.21h0Z"/>
    <path class="cls-3" d="M2344.33,8269.98c-99.83-158.2-275.39-321.7-563.42-427.86-300.82-110.86-411.39,16.76-720.01-101.89-345.37-132.77-371.54-356.25-735-468.44-173.5-53.67-331.26-53.23-438.3-44.55-7.5-95.72-15-191.29-22.5-286.86,157.03-3.53,388.16,10.73,632.23,111.3,336.85,138.65,337.73,292.88,657.37,409.92,324.64,118.95,458,8.97,782.64,146.29,194.08,82.04,327.44,198.05,406.98,278.77v383.31h0Z"/>
    <path class="cls-1" d="M2223.62,382.7c-16.32,16.76-32.93,33.52-49.26,50.43-4.85,5,3.38,12.35,8.38,7.35,16.32-16.76,32.93-33.52,49.26-50.43,4.85-5-3.53-12.35-8.38-7.35h0Z"/>
    <path class="cls-1" d="M2111.43,500.77c-18.67,19.41-36.9,39.26-54.4,59.4-4.56,5.29,5.73,10.44,10.15,5.15,16.91-19.55,34.55-38.67,52.64-57.49,4.7-4.7-3.53-12.06-8.38-7.06h0Z"/>
    <path class="cls-1" d="M1996.16,632.06c-16.91,18.53-35.14,36.02-54.4,52.64-6.47,5.59,3.38,14.26,10,8.82,19.41-16.61,37.49-34.11,54.4-52.64,5.73-6.32-4.26-15-10-8.82h0Z"/>
    <path class="cls-1" d="M1884.71,744.1c-18.53,19.26-39.7,36.46-63.37,50.73-7.35,4.56-.44,15.29,7.2,10.73,24.55-15,46.76-32.64,66.16-52.64,5.73-6.03-4.12-14.85-10-8.82h0Z"/>
    <path class="cls-1" d="M1736.36,853.64c-12.5,8.38-24.85,17.35-38.37,24.41-13.53,7.06-27.79,12.2-41.9,17.64-8.38,3.09-1.18,13.82,7.2,10.73,14.7-5.59,29.7-11.17,43.37-18.38,13.97-7.5,26.91-16.61,39.85-25.44,7.06-5-3.09-13.82-10.15-8.97h0Z"/>
    <path class="cls-1" d="M663.34,885.69c-34.99-5.73-70.43-3.82-105.57-.15-8.82,1.03-8.97,13.38,0,12.5,33.82-3.53,68.22-5.88,101.89-.29,8.97,1.32,12.79-10.59,3.68-12.06h0Z"/>
    <polygon class="cls-1" points="1650.94 1071.98 1639.17 1062.71 1626.53 1053.45 1641.67 1048.75 1656.82 1044.19 1654.02 1057.57 1650.94 1071.98"/>
    <polygon class="cls-1" points="1718.72 1046.54 1705.93 1038.31 1692.25 1030.37 1706.81 1024.34 1721.22 1018.16 1720.04 1031.84 1718.72 1046.54"/>
    <polygon class="cls-1" points="1685.19 1060.22 1672.7 1051.54 1659.61 1043.01 1674.31 1037.57 1689.31 1032.13 1687.25 1045.66 1685.19 1060.22"/>
    <polygon class="cls-1" points="1751.36 1031.54 1737.98 1024.34 1723.57 1017.28 1737.68 1010.23 1751.51 1003.31 1751.51 1016.99 1751.36 1031.54"/>
    <path class="cls-1" d="M1547.13,942.44c-25.88,10.88-53.37,18.53-81.45,23.08-8.82,1.47-5.15,13.38,3.68,11.91,29.41-4.7,57.93-12.94,84.84-24.41,8.23-3.38,1.03-13.97-7.06-10.59h0Z"/>
    <path class="cls-1" d="M1322.18,986.41c-28.52,2.65-57.34,2.21-85.42-1.76-8.82-1.18-12.64,10.73-3.68,11.91,29.55,4.12,59.55,5,89.25,2.35,8.67-.88,8.82-13.23-.15-12.5h0Z"/>
    <path class="cls-1" d="M1091.05,969.06c-27.79-3.23-55.14-10.15-80.57-20.58-8.09-3.38-15.44,7.35-7.2,10.73,27.79,11.47,57.19,18.82,87.63,22.35,3.82,.44,7.06-3.09,7.06-6.18,.29-3.82-3.09-5.73-6.91-6.32h0Z"/>
    <path class="cls-1" d="M788.31,911.42c28.67,2.35,56.75,8.23,83.81,17.06,8.53,2.79,12.2-9.26,3.68-11.91-28.23-9.26-57.64-15-87.63-17.5-8.82-.74-8.82,11.62,.15,12.35h0Z"/>
    <path class="cls-1" d="M441.47,893.48c-14.26-.44-29.41,1.18-43.67,3.09-18.23,2.5-36.02,7.2-53.22,12.94-8.38,2.79-4.85,14.85,3.68,11.91,29.26-9.7,61.46-16.61,93.07-15.59,9.26,.29,9.26-12.2,.15-12.35h0Z"/>
    <path class="cls-1" d="M233.71,936.27c-32.35,4.41-63.37,15-92.19,28.52-7.94,3.82-.88,14.56,7.2,10.73,27.79-13.09,57.49-22.79,88.66-27.2,8.97-1.32,5.15-13.23-3.68-12.06h0Z"/>
    <path class="cls-1" d="M49.78,994.93c-31.91,6.47-61.9,18.82-89.54,34.26-7.65,4.26-.59,15,7.2,10.73,26.61-14.85,55.28-26.76,86.16-33.08,8.82-1.76,5-13.67-3.82-11.91h0Z"/>
    <path class="cls-1" d="M1723.42,1189.01c-9.12-8.23-18.38-16.61-26.47-25.58-8.38-9.26-15.14-19.55-22.05-29.55-4.7-6.76-16.91-.59-12.2,6.32,7.2,10.44,14.26,21.17,22.94,30.58,8.53,9.56,18.23,18.38,27.79,26.91,6.32,5.88,16.32-2.94,10-8.67h0Z"/>
    <path class="cls-1" d="M1866.34,1295.46c-11.17-6.03-22.5-11.91-33.08-18.82-10.73-7.06-20.29-15.44-29.85-23.67-6.47-5.59-16.47,3.09-10,8.82,10,8.53,20,17.06,31.02,24.55,11.03,7.35,22.94,13.53,34.7,19.85,7.79,4.12,14.85-6.62,7.2-10.73h0Z"/>
    <path class="cls-1" d="M2042.33,1362.66c-13.23-3.68-26.76-7.2-39.7-11.62-11.91-3.97-24.7-9.41-37.05-14.7-8.09-3.53-15.29,7.2-7.2,10.73,12.64,5.44,25.58,10.88,38.82,15.44,13.53,4.7,27.64,8.38,41.46,12.2,8.53,2.35,12.2-9.56,3.68-12.06h0Z"/>
    <path class="cls-1" d="M2125.26,1405.88c13.09,4.26,26.17,8.67,38.82,13.82,12.64,5.15,24.11,10.88,36.02,16.61,7.94,3.97,15-6.76,7.2-10.73-12.35-6.03-24.7-12.2-37.64-17.35-13.23-5.29-26.91-9.7-40.58-14.41-8.67-2.79-12.35,9.26-3.82,12.06h0Z"/>
    <path class="cls-1" d="M139.32,2826.93c-30.44,9.56-60.14,20.73-89.25,33.08-6.76,2.79-.88,11.76,5.88,8.82,28.23-11.91,57.05-22.64,86.45-31.91,7.2-2.35,4.12-12.2-3.09-10h0Z"/>
    <path class="cls-1" d="M252.68,2798.7c27.79-10.44,56.61-18.67,85.87-24.7,7.35-1.47,4.12-11.47-3.09-10-30.44,6.32-59.99,15-88.66,25.73-7.06,2.65-1.03,11.47,5.88,8.97h0Z"/>
    <path class="cls-1" d="M467.93,2734.15c28.96-8.97,58.81-15.73,88.95-20,7.5-1.03,4.26-11.03-3.09-10-30.29,4.26-59.99,11.03-88.95,20-7.2,2.21-4.12,12.2,3.09,10h0Z"/>
    <path class="cls-1" d="M674.07,2688.13c28.67-7.65,58.96-11.32,88.51-15.88,7.35-1.03,4.26-11.03-3.09-10-29.41,4.41-59.69,8.23-88.51,15.88-7.2,1.76-4.12,11.91,3.09,10h0Z"/>
    <path class="cls-1" d="M886.38,2652.26c15.59-2.35,31.46-2.65,46.9-3.53,15.59-.74,32.05-1.32,48.23-1.62,7.5-.15,7.65-10.44,0-10.29-32.49,.74-66.02,.88-98.22,5.59-7.5,.88-4.41,10.88,3.09,9.85h0Z"/>
    <path class="cls-1" d="M1110.45,2645.79c29.99,.59,60.43,4.7,89.98,8.23,7.35,.88,10.59-9.12,3.09-10-30.73-3.68-62.05-8.09-93.07-8.67-7.65,.15-7.65,10.44,0,10.44h0Z"/>
    <path class="cls-1" d="M1337.32,2680.04c30.14,3.97,60.14,11.76,89.54,18.82,7.2,1.76,10.44-8.23,3.09-10-29.41-7.06-59.4-14.7-89.54-18.82-7.35-.88-10.44,8.97-3.09,10h0Z"/>
    <path class="cls-1" d="M1653.14,2693.87c-29.7,3.68-60.43,3.68-90.42,4.26-7.5,.15-7.65,10.44,0,10.29,31.02-.59,62.63-.88,93.51-4.7,7.5-.88,4.26-10.73-3.09-9.85h0Z"/>
    <path class="cls-1" d="M1885.6,2626.67c-26.17,13.67-54.99,24.26-82.92,35.14-6.91,2.65-1.03,11.62,5.88,8.82,27.79-10.88,56.61-21.47,82.92-35.14,6.62-3.38,.59-12.2-5.88-8.82h0Z"/>
    <path class="cls-1" d="M2075.56,2526.25c-24.7,15.88-52.05,28.96-78.66,42.2-6.47,3.23-.59,12.2,5.88,8.82,26.47-13.23,53.96-26.17,78.66-42.2,6.03-3.82,.29-12.94-5.88-8.82h0Z"/>
    <path class="cls-1" d="M2239.06,2410.69c-22.2,17.79-45.73,34.26-68.81,50.87-5.88,4.26,2.5,11.47,8.38,7.35,23.23-16.61,46.76-33.08,68.81-50.87,5.44-4.56-2.94-11.91-8.38-7.35h0Z"/>
    <path class="cls-1" d="M55.81,3995.82c18.38,23.23,38.37,45.73,59.4,67.34,4.85,5.15,13.23-2.35,8.38-7.35-20.29-20.88-39.85-42.64-57.49-65.28-4.41-5.44-14.7-.15-10.29,5.29h0Z"/>
    <path class="cls-1" d="M217.98,4137.41c25,17.94,51.31,34.7,78.07,50.28,6.32,3.68,12.2-5.29,5.88-8.82-26.17-15.14-51.46-31.17-75.72-48.67-5.73-4.26-14.11,3.09-8.23,7.2h0Z"/>
    <path class="cls-1" d="M424.85,4217.54c31.91,4.56,64.11,7.35,96.3,8.82,7.5,.29,7.5-10,0-10.29-31.46-1.47-62.78-4.26-93.22-8.53-7.35-1.03-10.59,8.82-3.09,10h0Z"/>
    <path class="cls-1" d="M757.44,4257.24c-29.99-9.41-60.43-17.06-91.45-23.67-7.35-1.62-10.44,8.38-3.09,10,30.88,6.62,61.46,14.41,91.45,23.67,7.06,2.21,10-7.79,3.09-10h0Z"/>
    <path class="cls-1" d="M952.69,4364.42c-25-17.94-51.17-34.85-77.93-50.43-6.32-3.68-12.2,5.29-5.88,8.82,26.17,15.14,51.46,31.32,75.57,48.81,5.59,4.26,13.97-2.94,8.23-7.2h0Z"/>
    <path class="cls-1" d="M1121.63,4478.52c-25-17.94-51.17-34.85-77.93-50.43-6.32-3.68-12.2,5.29-5.88,8.82,26.17,15.14,51.46,31.32,75.57,48.81,5.73,4.26,14.11-3.09,8.23-7.2h0Z"/>
    <path class="cls-1" d="M1227.49,4518.95c34.41,3.53,68.81,4.26,103.36,3.82,7.5-.15,7.65-10.44,0-10.29-34.55,.44-68.96-.29-103.36-3.82-7.5-.88-7.5,9.56,0,10.29h0Z"/>
    <path class="cls-1" d="M1450.53,4507.78c34.99-2.65,69.55-8.23,103.66-15,7.35-1.47,4.26-11.47-3.09-10-33.08,6.62-66.6,12.06-100.57,14.7-7.5,.59-7.65,11.03,0,10.29h0Z"/>
    <path class="cls-1" d="M1783.85,4476.6c-36.32-7.5-74.1-9.41-111.15-5.88-7.35,.74-7.5,11.03,0,10.29,36.02-3.53,72.63-1.91,107.92,5.59,7.5,1.47,10.59-8.53,3.23-10h0Z"/>
    <path class="cls-1" d="M1951.61,4561c-24.7-19.26-51.31-36.46-78.81-52.49-6.32-3.68-12.2,5.15-5.88,8.82,26.61,15.59,52.49,32.2,76.31,50.87,5.73,4.56,14.11-2.79,8.38-7.2h0Z"/>
    <path class="cls-1" d="M2082.76,4670.98c-20.14-22.5-42.34-43.23-65.72-63.22-5.44-4.7-13.82,2.65-8.38,7.35,23.38,20,45.73,40.58,65.72,63.22,4.7,5.29,13.09-2.21,8.38-7.35h0Z"/>
    <path class="cls-1" d="M2202.74,4806.98c-18.53-24.11-39.55-46.46-61.61-68.07-5-5-13.23,2.35-8.38,7.35,21.47,20.88,41.76,42.64,59.69,66.02,4.26,5.44,14.56,.29,10.29-5.29h0Z"/>
    <path class="cls-1" d="M2189.8,5433.92c-31.46,8.38-62.05,19.56-92.04,31.61-6.91,2.79-.88,11.76,5.88,8.82,29.11-11.76,58.67-22.5,89.25-30.58,7.2-1.91,4.12-11.91-3.09-9.85h0Z"/>
    <path class="cls-1" d="M1994.84,5507.73c-29.26,14.12-58.22,28.38-87.34,42.64-6.62,3.23-.74,12.2,5.88,8.82,29.11-14.26,58.08-28.52,87.34-42.64,6.76-3.23,.74-12.06-5.88-8.82h0Z"/>
    <path class="cls-1" d="M1790.32,5618.15c-28.52,13.82-55.14,29.99-81.31,47.05-6.03,3.82-.15,12.94,5.88,8.82,26.02-17.06,52.78-33.23,81.31-47.05,6.62-3.23,.74-12.06-5.88-8.82h0Z"/>
    <path class="cls-1" d="M1529.2,5775.03c29.7-11.76,57.78-26.02,85.42-41.17,6.47-3.53,.44-12.5-5.88-8.82-27.49,15.14-55.72,29.41-85.42,41.17-6.91,2.65-1.03,11.62,5.88,8.82h0Z"/>
    <path class="cls-1" d="M1320.56,5846.34c31.76-6.32,62.63-15,93.07-25,7.06-2.35,3.97-12.35-3.09-10-30.44,10-61.31,18.82-93.07,25-7.5,1.47-4.26,11.62,3.09,10h0Z"/>
    <path class="cls-1" d="M1187.94,5873.1c-31.91,7.65-62.63,17.94-93.07,29.26-6.91,2.65-1.03,11.47,5.88,8.82,29.41-10.88,59.4-20.73,90.28-28.23,7.35-1.62,4.26-11.47-3.09-9.85h0Z"/>
    <path class="cls-1" d="M982.83,5937.35c-32.2,8.82-62.93,20.73-93.07,33.96-6.76,3.09-.88,11.91,5.88,8.82,29.26-12.94,58.96-24.55,90.13-33.08,7.35-1.62,4.26-11.62-2.94-9.7h0Z"/>
    <path class="cls-1" d="M799.49,6010.72c-29.7,13.09-57.34,29.11-83.95,46.31-6.03,3.82-.15,12.94,5.88,8.82,26.76-17.2,54.25-33.23,83.95-46.31,6.91-2.79,.88-11.76-5.88-8.82h0Z"/>
    <path class="cls-1" d="M632.17,6119.37c-29.7,14.12-57.05,31.17-83.51,49.4-5.88,4.12,2.5,11.32,8.38,7.35,25.73-17.64,52.49-34.11,81.16-47.78,6.47-3.23,.59-12.06-6.03-8.97h0Z"/>
    <path class="cls-1" d="M461.32,6239.35c-25.44,18.82-48.23,39.99-69.55,62.19-4.85,5.15,3.38,12.35,8.38,7.35,21.47-22.2,44.26-43.37,69.55-62.19,5.73-4.41-2.65-11.62-8.38-7.35h0Z"/>
    <path class="cls-1" d="M329.58,6362.12c-24.11,20.73-45.14,43.81-64.99,67.63-4.41,5.44,5.73,10.44,10.15,5.15,19.26-23.23,39.85-45.43,63.22-65.58,5.29-4.41-2.94-11.76-8.38-7.2h0Z"/>
    <path class="cls-1" d="M203.28,6496.94c-22.05,22.35-41.17,46.76-58.67,71.9-3.97,5.73,6.18,10.88,10.15,5.15,17.06-24.55,35.29-48.23,56.75-69.84,5-4.85-3.23-12.2-8.23-7.2h0Z"/>
    <path class="cls-1" d="M91.54,6637.5c-22.05,22.35-41.17,46.76-58.67,71.9-3.97,5.73,6.18,10.88,10.15,5.15,17.06-24.55,35.29-48.23,56.75-69.84,5-4.7-3.23-12.2-8.23-7.2h0Z"/>
    <path class="cls-1" d="M142.7,7083.59c-33.08-5.88-66.46-8.38-100.27-9.26-7.5-.15-7.5,10.14,0,10.29,32.64,1.03,64.99,3.23,97.04,8.97,7.5,1.18,10.73-8.68,3.23-10h0Z"/>
    <path class="cls-1" d="M372.95,7135.2c-30.88-11.76-62.93-20.44-95.72-27.64-7.35-1.62-10.44,8.38-3.09,10,31.61,6.91,62.93,15,92.92,26.47,6.91,2.79,12.79-6.03,5.88-8.82h0Z"/>
    <path class="cls-1" d="M571.15,7228.57c-26.91-17.06-55.87-31.02-85.57-43.96-6.76-2.94-12.64,6.03-5.88,8.82,29.85,12.79,58.81,26.91,85.57,43.96,6.18,3.97,12.06-4.85,5.88-8.82h0Z"/>
    <path class="cls-1" d="M729.5,7352.07c-21.76-22.05-46.31-41.61-71.9-60.14-5.73-4.26-14.11,3.09-8.38,7.35,25.58,18.53,50.14,38.08,71.9,60.14,5,5,13.23-2.5,8.38-7.35h0Z"/>
    <path class="cls-1" d="M802.57,7438.67c23.52,21.17,49.7,39.7,77.04,57.05,6.18,3.82,11.91-5.15,5.88-8.82-26.32-16.91-51.75-34.99-74.54-55.58-5.29-4.85-13.53,2.65-8.38,7.35h0Z"/>
    <path class="cls-1" d="M982.1,7559.53c29.41,14.41,60.43,25.73,92.19,35.73,7.2,2.35,10.29-7.79,3.09-10-30.73-9.7-60.87-20.73-89.25-34.7-6.62-3.23-12.64,5.59-6.03,8.97h0Z"/>
    <path class="cls-1" d="M1190.44,7635.25c32.79,6.47,65.87,10.59,99.25,13.67,7.5,.59,7.5-9.7,0-10.29-32.2-3.09-64.4-7.06-96.16-13.38-7.5-1.47-10.59,8.68-3.09,10h0Z"/>
    <path class="cls-1" d="M1413.92,7659.07c32.93,2.21,65.87,2.21,98.95,1.03,7.5-.15,7.65-10.59,0-10.29-33.08,1.03-66.02,1.18-98.95-1.03-7.65-.44-7.5,9.85,0,10.29h0Z"/>
    <path class="cls-1" d="M1772.82,7683.18c-36.02-10-72.93-17.06-110.13-22.79-7.35-1.18-10.59,8.82-3.09,10,37.2,5.73,74.1,12.79,110.13,22.79,7.35,1.91,10.44-8.09,3.09-10h0Z"/>
    <path class="cls-1" d="M1984.11,7776.4c-29.99-20.14-61.9-37.79-94.69-54.25-6.47-3.38-12.5,5.59-5.88,8.82,32.79,16.47,64.69,34.11,94.69,54.25,5.88,4.12,11.76-4.85,5.88-8.82h0Z"/>
    <path class="cls-1" d="M2170.83,7911.81c-25.44-24.55-53.37-46.9-82.34-68.22-5.73-4.26-14.11,3.09-8.38,7.35,28.96,21.32,56.75,43.67,82.34,68.22,5.15,5,13.38-2.35,8.38-7.35h0Z"/>
  </g>
</svg>