<?xml version="1.0" encoding="UTF-8"?>
<svg xmlns="http://www.w3.org/2000/svg" viewBox="0 0 2214.2 11622.97">
  <defs>
    <style>
      .cls-1 {
        fill: #fff;
      }

      .cls-2 {
        fill: #e4eddf;
      }

      .cls-3 {
        fill: #cac9c9;
      }
    </style>
  </defs>
  <g id="Lag_2" data-name="Lag 2">
    <rect class="cls-2" x="-14.33" y="-6.52" width="2228.57" height="11567.52"/>
  </g>
  <g id="Lag_1" data-name="Lag 1">
    <path class="cls-3" d="M2207.49,690.34c-20.21,24.57-50.04,60.01-87.37,101.51-122.43,136.22-221.57,246.4-346.14,325.01-173.19,109.14-349.35,128.17-433.51,136.01-268.76,25.3-380.73-68.37-627.62-92.83-164.51-16.31-400.7-3.14-701.44,136.01v-219.22c194.35-90.32,362.67-118.03,470.95-127.43,128.97-11.08,311.79-26.87,516.48,40.04,162.85,53.21,150.01,48.4,230.37,51.85,276.72,11.81,496.39-174.37,549.29-219.22,66.33-56.24,49.45-57.81,221.33-232.08,87.13-88.34,161.42-158.9,212.18-206.15-1.43,102.14-2.97,204.27-4.52,306.51Z"/>
    <path class="cls-3" d="M2350.97,1523.2c18.07,112.38,36.14,224.76,54.32,337.14-37.8-27.08-102.58-71.51-188.17-119.7-308.58-173.74-482.96-168.31-644.26-314.77-52.78-47.88-125.05-130.99-170.34-272.12,100.68-33.56,201.48-67.22,302.16-100.88,7.73,52.79,29.48,127.43,90.7,195.8,68.35,76.31,155,110.5,212.77,133.29,79.76,31.47,109,23,193.75,57.81,67.4,27.7,117.32,60.21,149.06,83.42h0Z"/>
    <path class="cls-3" d="M2284.05,2540.48c-298.83,318.11-557.13,367.77-732.46,369.76-198.98,2.2-327.24-80.5-644.62-51.85-120.53,10.87-251.52,47.15-406.29,85.83-238.57,59.69-378.36,130.26-508.64,180.75-4.87-87.4-9.87-174.79-14.74-262.19,75.12-31.47,179.97-72.66,308.34-114.37,112.81-36.59,205.76-66.8,333.42-91.47,69.3-13.38,220.26-38.89,412.59-38.89,233.81-.1,333.19,37.53,445.64,44.53,178.3,11.19,437.55-51.33,782.39-388.78,8.2,88.86,16.29,177.82,24.37,266.68h0Z"/>
    <path class="cls-3" d="M2247.91,5128.98c-302.52-421.29-543.34-503.04-711.42-494.68-137.17,6.9-270.42,76.1-455.14,7.42-139.31-51.85-129.68-115.73-283.38-186.29-209.68-96.28-312.86-16.31-489.97-87.81-97.71-39.41-223.35-127.22-334.73-342.79,12.01-102.45,23.89-204.9,35.9-307.24,131.35,244,276.25,340.8,386.91,383.35,172.36,66.38,261.03,1.15,467.98,91.26,188.52,82.06,176.76,163.08,336.75,215.25,198.75,64.71,303.11-32.2,489.14-23,141.81,7,346.5,76.42,583.28,386.9-8.44,119.28-16.88,238.45-25.32,357.63h0Z"/>
    <path class="cls-3" d="M-10.58,6974.21c414.97-592.84,777.75-808.51,1040.09-892.35,124.45-39.73,309.06-76.42,555.94-201.66,150.72-76.42,260.91-153.57,485.34-244.52,108.53-44.01,201.36-74.12,263.65-92.83-6.78-89.8-13.55-179.7-20.33-269.5-80.24,6.69-205.52,24.04-343.88,75.9-206.47,77.36-277.68,170.4-464.89,269.5-203.5,107.68-369.56,130.47-485.34,159.74-253.9,64.19-609.55,246.61-1041.28,775.58,3.45,139.98,7.01,280.06,10.7,420.14h0Z"/>
    <path class="cls-3" d="M2291.53,8161.36c-96.4-152.73-265.79-310.38-543.7-412.83-290.28-106.94-397.02,16.2-694.78-98.27-333.31-128.17-358.51-343.73-709.28-452.03-167.37-51.75-319.64-51.43-422.93-42.97-7.25-92.31-14.5-184.62-21.75-276.82,151.56-3.45,374.55,10.35,610.15,107.36,325.1,133.81,325.94,282.57,634.4,395.58,313.34,114.78,441.95,8.68,755.17,141.23,187.22,79.24,315.95,191.1,392.74,268.98v369.76h0Z"/>
    <path class="cls-3" d="M-27.1,8957.85c96.16-65.13,270.66-185.98,475.59-233.54,426.85-99,655.2,100.46,1085.03,46.94,168.91-21.01,407.72-81.12,680.99-262.5v-286.44c-406.77,245.67-728.07,285.6-949.87,274.52-287.9-14.43-477.61-118.44-794.39-62.93-223.47,39.2-391.08,136.95-497.11,212.63v311.32h-.24Z"/>
    <path class="cls-1" d="M2175.04,550.15c-15.81,16.2-31.74,32.41-47.55,48.61-4.75,4.81,3.21,11.92,8.08,7.11,15.81-16.2,31.74-32.41,47.55-48.61,4.64-4.81-3.33-11.92-8.08-7.11h0Z"/>
    <path class="cls-1" d="M2066.76,664.2c-18.07,18.71-35.66,37.84-52.54,57.39-4.4,5.12,5.47,10.14,9.75,5.02,16.28-18.82,33.28-37.32,50.76-55.41,4.75-4.81-3.21-11.92-7.96-7h0Z"/>
    <path class="cls-1" d="M1955.61,790.8c-16.28,17.88-33.88,34.81-52.54,50.81-6.3,5.33,3.33,13.8,9.63,8.47,18.66-15.99,36.25-32.93,52.54-50.81,5.47-5.96-4.16-14.43-9.63-8.47h0Z"/>
    <path class="cls-1" d="M1848.04,899c-17.83,18.61-38.28,35.13-61.1,48.92-7.13,4.39-.36,14.74,6.89,10.35,23.65-14.43,45.17-31.47,63.83-50.81,5.59-5.85-3.92-14.32-9.63-8.47h0Z"/>
    <path class="cls-1" d="M1704.92,1004.69c-12.01,8.15-24.01,16.73-37.09,23.52-13.08,6.8-26.75,11.81-40.42,17.04-8.08,3.03-1.07,13.38,6.89,10.35,14.15-5.33,28.65-10.77,41.84-17.77,13.43-7.21,25.91-16.1,38.39-24.57,6.89-4.81-2.85-13.28-9.63-8.57h0Z"/>
    <path class="cls-1" d="M669.46,1035.53c-33.76-5.54-67.99-3.66-101.87-.1-8.56,.94-8.68,12.86,0,12.02,32.57-3.45,65.85-5.65,98.3-.31,8.56,1.36,12.24-10.14,3.57-11.6h0Z"/>
    <polygon class="cls-1" points="1622.43 1215.33 1611.02 1206.45 1598.89 1197.46 1613.51 1192.96 1628.13 1188.47 1625.4 1201.43 1622.43 1215.33"/>
    <polygon class="cls-1" points="1687.8 1190.77 1675.44 1182.93 1662.25 1175.19 1676.27 1169.34 1690.3 1163.48 1689.11 1176.65 1687.8 1190.77"/>
    <polygon class="cls-1" points="1655.47 1203.94 1643.47 1195.68 1630.75 1187.42 1645.01 1182.09 1659.4 1176.86 1657.49 1189.93 1655.47 1203.94"/>
    <polygon class="cls-1" points="1719.3 1176.34 1706.35 1169.44 1692.56 1162.54 1706.11 1155.75 1719.54 1149.06 1719.42 1162.23 1719.3 1176.34"/>
    <path class="cls-1" d="M1522.22,1090.3c-24.96,10.45-51.47,17.88-78.57,22.27-8.56,1.36-4.99,12.96,3.57,11.5,28.41-4.6,55.87-12.54,81.9-23.52,7.85-3.24,.95-13.49-6.89-10.24h0Z"/>
    <path class="cls-1" d="M1305.17,1132.85c-27.46,2.51-55.27,2.09-82.49-1.67-8.56-1.15-12.24,10.35-3.57,11.5,28.53,3.97,57.41,4.81,86.18,2.2,8.44-.84,8.56-12.86-.12-12.02h0Z"/>
    <path class="cls-1" d="M1082.17,1116.02c-26.86-3.14-53.25-9.83-77.74-19.86-7.85-3.24-14.86,7.11-6.89,10.35,26.86,11.08,55.15,18.09,84.63,21.54,3.68,.42,6.78-3.03,6.78-5.96,.12-3.66-3.09-5.54-6.78-6.06h0Z"/>
    <path class="cls-1" d="M790,1060.41c27.7,2.3,54.8,7.94,80.83,16.52,8.2,2.72,11.77-8.89,3.57-11.5-27.22-8.89-55.63-14.53-84.51-16.94-8.56-.73-8.56,11.19,.12,11.92h0Z"/>
    <path class="cls-1" d="M455.26,1043.05c-13.79-.42-28.41,1.15-42.08,3.03-17.59,2.4-34.71,6.9-51.35,12.44-8.08,2.72-4.64,14.32,3.57,11.5,28.29-9.41,59.32-15.99,89.86-15.05,8.8,.31,8.8-11.71,0-11.92h0Z"/>
    <path class="cls-1" d="M254.85,1084.45c-31.26,4.29-61.1,14.43-88.91,27.49-7.73,3.66-.83,14.01,6.89,10.35,26.86-12.65,55.51-22.06,85.58-26.24,8.68-1.25,4.99-12.75-3.57-11.6h0Z"/>
    <path class="cls-1" d="M77.26,1141.01c-30.79,6.27-59.79,18.19-86.42,33.03-7.37,4.08-.59,14.53,6.89,10.35,25.68-14.32,53.37-25.82,83.09-31.88,8.68-1.67,4.99-13.17-3.57-11.5h0Z"/>
    <path class="cls-1" d="M1692.44,1328.34c-8.8-7.94-17.71-15.99-25.56-24.67-8.08-8.89-14.62-18.92-21.28-28.54-4.52-6.59-16.28-.63-11.77,6.06,6.89,10.14,13.79,20.39,22.11,29.58,8.2,9.2,17.59,17.67,26.86,26.03,6.06,5.54,15.69-2.93,9.63-8.47h0Z"/>
    <path class="cls-1" d="M1830.21,1431c-10.82-5.75-21.75-11.5-31.86-18.09-10.34-6.8-19.61-14.95-28.77-22.89-6.3-5.33-15.93,3.03-9.63,8.47,9.63,8.26,19.26,16.52,29.95,23.63,10.58,7.11,22.11,13.07,33.52,19.13,7.37,4.08,14.26-6.27,6.78-10.24h0Z"/>
    <path class="cls-1" d="M2000.07,1495.92c-12.84-3.55-25.79-7-38.28-11.19-11.53-3.87-23.77-9.09-35.78-14.22-7.85-3.35-14.74,7-6.89,10.35,12.24,5.23,24.72,10.45,37.44,14.84,13.08,4.5,26.63,8.05,39.94,11.71,8.32,2.4,11.89-9.2,3.57-11.5h0Z"/>
    <path class="cls-1" d="M2080.07,1537.52c12.6,4.18,25.2,8.36,37.44,13.28,12.24,4.91,23.3,10.56,34.71,16.1,7.61,3.76,14.5-6.59,6.89-10.35-11.89-5.85-23.89-11.81-36.37-16.73-12.84-5.12-25.91-9.41-39.11-13.9-8.2-2.72-11.77,8.89-3.57,11.6h0Z"/>
    <path class="cls-1" d="M163.8,2908.88c-29.36,9.2-58.01,20.07-86.18,31.88-6.54,2.72-.83,11.39,5.71,8.57,27.22-11.5,55.04-21.85,83.45-30.84,6.89-2.2,3.92-11.81-2.97-9.62h0Z"/>
    <path class="cls-1" d="M273.16,2881.59c26.75-10.14,54.56-17.98,82.85-23.84,7.13-1.46,4.04-11.08-2.97-9.62-29.36,6.06-57.89,14.43-85.58,24.78-6.78,2.61-.95,11.19,5.71,8.68h0Z"/>
    <path class="cls-1" d="M480.82,2819.29c27.93-8.68,56.7-15.16,85.82-19.34,7.25-1.05,4.16-10.66-2.97-9.62-29.24,4.18-57.89,10.66-85.82,19.34-6.89,2.09-3.92,11.81,2.97,9.62h0Z"/>
    <path class="cls-1" d="M679.81,2774.86c27.7-7.32,56.94-10.98,85.35-15.26,7.13-1.05,4.16-10.66-2.97-9.62-28.41,4.29-57.65,7.95-85.35,15.26-7.01,1.78-4.04,11.5,2.97,9.62h0Z"/>
    <path class="cls-1" d="M884.61,2740.25c14.98-2.2,30.31-2.61,45.29-3.35,15.1-.73,30.91-1.25,46.48-1.57,7.25-.21,7.37-10.14,0-9.93-31.38,.73-63.71,.84-94.74,5.33-7.25,.94-4.28,10.56,2.97,9.51h0Z"/>
    <path class="cls-1" d="M1100.84,2734.09c29,.52,58.25,4.5,86.89,7.95,7.13,.84,10.22-8.78,2.97-9.62-29.72-3.55-59.91-7.84-89.86-8.36-7.37,0-7.37,9.93,0,10.04h0Z"/>
    <path class="cls-1" d="M1319.79,2767.12c29.12,3.87,58.01,11.29,86.42,18.09,7.01,1.67,10.1-7.95,2.97-9.62-28.41-6.8-57.29-14.22-86.42-18.09-7.13-.94-10.1,8.68-2.97,9.62h0Z"/>
    <path class="cls-1" d="M1624.57,2780.4c-28.65,3.55-58.36,3.55-87.25,4.18-7.25,.21-7.37,10.14,0,9.93,29.95-.63,60.5-.84,90.22-4.5,7.25-.84,4.16-10.45-2.97-9.62h0Z"/>
    <path class="cls-1" d="M1848.87,2715.58c-25.32,13.17-53.13,23.42-80,33.98-6.66,2.61-.95,11.19,5.71,8.57,26.86-10.56,54.68-20.7,80-33.98,6.3-3.24,.59-11.81-5.71-8.57h0Z"/>
    <path class="cls-1" d="M2032.16,2618.67c-23.77,15.37-50.28,27.91-75.84,40.67-6.3,3.14-.59,11.81,5.71,8.57,25.56-12.75,52.06-25.3,75.84-40.67,5.82-3.76,.24-12.44-5.71-8.57h0Z"/>
    <path class="cls-1" d="M2189.9,2507.13c-21.4,17.14-44.1,33.03-66.45,49.13-5.71,4.08,2.38,11.08,8.08,7.11,22.35-16.1,45.17-31.99,66.45-49.13,5.35-4.39-2.73-11.39-8.08-7.11h0Z"/>
    <path class="cls-1" d="M83.09,4036.86c17.71,22.48,37.09,44.12,57.29,64.92,4.75,4.91,12.72-2.2,8.08-7.11-19.61-20.18-38.39-41.08-55.51-62.93-4.16-5.23-14.03-.21-9.87,5.12h0Z"/>
    <path class="cls-1" d="M239.64,4173.49c24.13,17.35,49.45,33.45,75.36,48.51,6.06,3.55,11.77-5.12,5.71-8.57-25.2-14.64-49.69-30.11-73.1-46.94-5.59-4.08-13.67,2.93-7.96,7h0Z"/>
    <path class="cls-1" d="M439.34,4250.75c30.79,4.39,61.81,7.11,92.95,8.57,7.25,.31,7.25-9.62,0-9.93-30.31-1.46-60.62-4.08-89.98-8.26-7.13-1.05-10.22,8.57-2.97,9.62h0Z"/>
    <path class="cls-1" d="M760.16,4289.11c-28.88-9.09-58.36-16.52-88.2-22.89-7.13-1.57-10.1,8.15-2.97,9.62,29.84,6.38,59.32,13.9,88.2,22.89,6.78,2.09,9.75-7.53,2.97-9.62h0Z"/>
    <path class="cls-1" d="M948.57,4392.5c-24.13-17.35-49.33-33.56-75.24-48.61-6.06-3.55-11.77,5.12-5.71,8.57,25.2,14.64,49.69,30.21,72.98,47.04,5.47,4.08,13.55-2.93,7.96-7h0Z"/>
    <path class="cls-1" d="M1111.65,4502.58c-24.13-17.35-49.33-33.56-75.24-48.61-6.06-3.55-11.77,5.12-5.71,8.57,25.2,14.64,49.69,30.21,72.98,47.04,5.59,4.08,13.67-2.93,7.96-7h0Z"/>
    <path class="cls-1" d="M1213.76,4541.68c33.16,3.45,66.45,4.18,99.73,3.66,7.25-.1,7.37-10.04,0-9.93-33.28,.42-66.57-.31-99.73-3.66-7.25-.84-7.25,9.2,0,9.93h0Z"/>
    <path class="cls-1" d="M1429.03,4530.91c33.76-2.61,67.04-7.95,99.97-14.53,7.13-1.46,4.16-11.08-2.97-9.62-31.98,6.38-64.31,11.6-97,14.22-7.25,.52-7.37,10.56,0,9.93h0Z"/>
    <path class="cls-1" d="M1750.69,4500.8c-35.07-7.21-71.44-9.09-107.22-5.65-7.13,.73-7.25,10.66,0,9.93,34.83-3.45,70.13-1.78,104.13,5.33,7.25,1.46,10.22-8.15,3.09-9.62h0Z"/>
    <path class="cls-1" d="M1912.58,4582.24c-23.89-18.61-49.57-35.13-76.08-50.7-6.06-3.55-11.77,5.02-5.71,8.57,25.68,15.05,50.64,31.05,73.7,49.13,5.47,4.29,13.55-2.72,8.08-7h0Z"/>
    <path class="cls-1" d="M2039.18,4688.35c-19.38-21.74-40.89-41.71-63.48-60.95-5.23-4.5-13.31,2.61-8.08,7.11,22.58,19.24,44.1,39.2,63.48,60.95,4.52,5.02,12.6-2.09,8.08-7.11h0Z"/>
    <path class="cls-1" d="M2154.84,4819.65c-17.83-23.21-38.16-44.85-59.43-65.65-4.87-4.81-12.84,2.3-8.08,7.11,20.68,20.18,40.3,41.08,57.65,63.66,4.16,5.23,14.03,.21,9.87-5.12h0Z"/>
    <path class="cls-1" d="M2142.36,5424.52c-30.43,8.15-59.91,18.82-88.79,30.53-6.66,2.72-.83,11.29,5.71,8.57,28.05-11.39,56.58-21.64,86.18-29.58,6.89-1.78,3.92-11.4-3.09-9.51h0Z"/>
    <path class="cls-1" d="M1954.31,5495.81c-28.17,13.69-56.22,27.39-84.28,41.19-6.42,3.14-.71,11.71,5.71,8.57,28.05-13.8,56.11-27.49,84.28-41.19,6.42-3.14,.71-11.71-5.71-8.57h0Z"/>
    <path class="cls-1" d="M1756.87,5602.34c-27.46,13.38-53.25,28.96-78.45,45.47-5.82,3.76-.12,12.44,5.71,8.57,25.08-16.52,50.99-32.09,78.45-45.47,6.42-3.14,.71-11.71-5.71-8.57h0Z"/>
    <path class="cls-1" d="M1504.99,5753.71c28.65-11.39,55.75-25.09,82.38-39.73,6.18-3.45,.48-12.02-5.71-8.57-26.51,14.64-53.73,28.33-82.38,39.73-6.66,2.61-.95,11.29,5.71,8.57h0Z"/>
    <path class="cls-1" d="M1303.62,5822.6c30.67-6.06,60.38-14.53,89.86-24.15,6.78-2.2,3.8-11.92-2.97-9.62-29.36,9.62-59.2,18.19-89.86,24.15-7.25,1.36-4.16,11.08,2.97,9.62h0Z"/>
    <path class="cls-1" d="M1175.6,5848.42c-30.79,7.32-60.5,17.25-89.86,28.23-6.66,2.51-.95,11.08,5.71,8.57,28.41-10.56,57.29-20.07,87.13-27.18,7.13-1.67,4.16-11.29-2.97-9.62h0Z"/>
    <path class="cls-1" d="M977.69,5910.42c-31.02,8.47-60.74,19.97-89.75,32.83-6.54,2.93-.83,11.5,5.71,8.57,28.17-12.44,56.94-23.63,87.01-31.88,7.01-1.78,4.04-11.39-2.97-9.51h0Z"/>
    <path class="cls-1" d="M800.81,5981.19c-28.65,12.65-55.27,28.12-81.07,44.74-5.82,3.76-.12,12.44,5.71,8.57,25.79-16.62,52.42-32.09,81.07-44.74,6.54-2.82,.83-11.4-5.71-8.57h0Z"/>
    <path class="cls-1" d="M639.27,6086.04c-28.65,13.59-55.04,30.11-80.59,47.67-5.71,3.97,2.38,10.98,8.08,7.11,24.84-17.04,50.64-32.93,78.33-46.1,6.3-3.14,.59-11.71-5.82-8.68h0Z"/>
    <path class="cls-1" d="M474.4,6201.77c-24.49,18.09-46.48,38.58-67.16,60.01-4.75,4.91,3.33,11.92,8.08,7.11,20.68-21.43,42.67-41.92,67.16-60.01,5.59-4.18-2.5-11.19-8.08-7.11h0Z"/>
    <path class="cls-1" d="M347.33,6320.32c-23.3,19.97-43.62,42.23-62.76,65.23-4.28,5.23,5.59,10.14,9.75,5.02,18.54-22.37,38.39-43.91,60.98-63.25,5.23-4.39-2.73-11.39-7.96-7h0Z"/>
    <path class="cls-1" d="M225.49,6450.36c-21.28,21.54-39.7,45.06-56.58,69.41-3.8,5.54,5.94,10.56,9.75,5.02,16.4-23.63,34.12-46.52,54.8-67.43,4.75-4.7-3.21-11.81-7.96-7h0Z"/>
    <path class="cls-1" d="M117.68,6586.06c-21.28,21.54-39.7,45.06-56.58,69.41-3.8,5.54,5.94,10.56,9.75,5.02,16.4-23.63,34.12-46.52,54.8-67.43,4.75-4.7-3.21-11.81-7.96-7h0Z"/>
    <path class="cls-1" d="M167.01,7016.45c-31.86-5.65-64.19-8.05-96.76-8.99-7.25-.21-7.25,9.72,0,9.93,31.5,.94,62.76,3.14,93.67,8.68,7.25,1.25,10.34-8.36,3.09-9.62h0Z"/>
    <path class="cls-1" d="M389.17,7066.31c-29.84-11.39-60.74-19.76-92.36-26.66-7.13-1.57-10.1,8.05-2.97,9.62,30.55,6.69,60.74,14.53,89.63,25.61,6.66,2.61,12.36-5.96,5.71-8.57h0Z"/>
    <path class="cls-1" d="M580.43,7156.42c-26.03-16.41-53.97-30-82.61-42.44-6.54-2.82-12.24,5.75-5.71,8.57,28.77,12.34,56.7,26.03,82.61,42.44,5.94,3.76,11.65-4.81,5.71-8.57h0Z"/>
    <path class="cls-1" d="M733.18,7275.49c-21.04-21.22-44.69-40.14-69.42-58.02-5.59-4.08-13.67,2.93-8.08,7.11,24.72,17.88,48.38,36.8,69.42,58.02,4.87,4.81,12.84-2.3,8.08-7.11h0Z"/>
    <path class="cls-1" d="M803.78,7359.13c22.7,20.39,48.02,38.37,74.29,55.09,5.94,3.76,11.53-4.91,5.71-8.57-25.44-16.31-49.92-33.77-71.92-53.63-5.11-4.6-13.08,2.51-8.08,7.11h0Z"/>
    <path class="cls-1" d="M976.98,7475.69c28.41,13.9,58.36,24.88,88.91,34.5,6.89,2.2,9.87-7.53,2.97-9.62-29.72-9.3-58.72-19.97-86.18-33.45-6.3-3.14-12.01,5.44-5.71,8.57h0Z"/>
    <path class="cls-1" d="M1177.98,7548.87c31.62,6.27,63.59,10.24,95.81,13.17,7.25,.63,7.25-9.3,0-9.93-31.14-2.93-62.17-6.8-92.84-12.86-7.13-1.46-10.1,8.26-2.97,9.62h0Z"/>
    <path class="cls-1" d="M1393.73,7571.86c31.74,2.09,63.59,2.09,95.45,.94,7.25-.21,7.37-10.24,0-9.93-31.86,1.05-63.71,1.15-95.45-.94-7.37-.52-7.25,9.41,0,9.93h0Z"/>
    <path class="cls-1" d="M1740.11,7595.07c-34.71-9.62-70.37-16.52-106.27-22.06-7.13-1.15-10.22,8.47-2.97,9.62,35.9,5.54,71.44,12.34,106.27,22.06,7.01,1.88,9.98-7.74,2.97-9.62h0Z"/>
    <path class="cls-1" d="M1943.96,7684.98c-29-19.44-59.79-36.48-91.41-52.37-6.3-3.24-12.12,5.44-5.71,8.57,31.62,15.89,62.41,32.93,91.41,52.37,5.71,3.97,11.41-4.7,5.71-8.57h0Z"/>
    <path class="cls-1" d="M2124.05,7815.76c-24.61-23.63-51.47-45.27-79.4-65.86-5.59-4.08-13.67,2.93-8.08,7.11,27.93,20.59,54.8,42.13,79.4,65.86,4.99,4.7,12.96-2.4,8.08-7.11h0Z"/>
    <path class="cls-1" d="M2044.53,8481.46c32.09-15.05,62.52-32.72,92.24-51.33,5.82-3.76,.24-12.34-5.71-8.57-29.6,18.71-60.03,36.28-92.24,51.33-6.42,3.03-.71,11.6,5.71,8.57h0Z"/>
    <path class="cls-1" d="M1815.83,8560.39c35.07-9.93,69.3-21.85,103.3-34.5,6.66-2.51,.95-11.08-5.71-8.57-33.05,12.34-66.45,23.73-100.56,33.45-6.89,1.99-3.92,11.6,2.97,9.62h0Z"/>
    <path class="cls-1" d="M1594.02,8619.87c35.9-5.02,71.32-11.92,106.62-19.76,7.13-1.57,4.04-11.19-2.97-9.62-35.3,7.84-70.73,14.74-106.62,19.76-7.25,1.05-4.28,10.66,2.97,9.62h0Z"/>
    <path class="cls-1" d="M1346.42,8629.7c36.25,1.88,72.63,1.78,109,.84,7.25-.21,7.37-10.14,0-9.93-36.37,.94-72.63,1.05-109-.84-7.37-.52-7.37,9.51,0,9.93h0Z"/>
    <path class="cls-1" d="M1095.61,8608.17c35.78,5.44,71.56,10.24,107.46,14.84,7.13,.94,10.22-8.68,2.97-9.62-35.9-4.6-71.8-9.41-107.46-14.84-7.01-1.15-10.1,8.47-2.97,9.62h0Z"/>
    <path class="cls-1" d="M964.97,8580.46c-36.37-4.81-72.98-8.57-109.6-11.81-7.25-.63-7.25,9.3,0,9.93,35.66,3.14,71.2,6.8,106.51,11.39,7.25,1.05,10.22-8.57,3.09-9.51h0Z"/>
    <path class="cls-1" d="M750.65,8555.37c-36.37-4.6-72.98-8.26-109.6-11.39-7.25-.63-7.25,9.41,0,9.93,35.66,3.03,71.2,6.48,106.62,11.08,7.01,.84,10.1-8.68,2.97-9.62h0Z"/>
    <path class="cls-1" d="M530.27,8545.86c-35.9,5.02-71.44,11.08-106.98,17.67-7.13,1.36-4.16,10.98,2.97,9.62,35.54-6.59,71.2-12.65,106.98-17.67,7.25-.94,4.16-10.56-2.97-9.62h0Z"/>
    <path class="cls-1" d="M323.92,8598.76c-33.28,12.75-66.09,26.45-98.66,40.56-6.54,2.82-.83,11.5,5.71,8.57,32.57-14.11,65.38-27.81,98.66-40.56,6.78-2.51,.95-11.08-5.71-8.57h0Z"/>
    <path class="cls-1" d="M135.75,8687.3c-30.31,17.56-59.91,36.07-89.15,54.99-5.82,3.76-.24,12.44,5.71,8.57,29.24-18.82,58.84-37.32,89.15-54.99,6.06-3.45,.36-12.13-5.71-8.57h0Z"/>
    <path class="cls-3" d="M-25.15,10347.45c96.16-65.13,270.66-185.98,475.59-233.54,426.85-99,655.2,100.46,1085.03,46.94,168.91-21.01,407.72-81.12,680.99-262.5v-286.44c-406.77,245.67-728.07,285.6-949.87,274.52-287.9-14.43-477.61-118.44-794.39-62.93-223.47,39.2-391.08,136.95-497.11,212.63v311.32h-.24Z"/>
    <path class="cls-1" d="M2046.48,9871.06c32.09-15.05,62.52-32.72,92.24-51.33,5.82-3.76,.24-12.34-5.71-8.57-29.6,18.71-60.03,36.28-92.24,51.33-6.42,3.03-.71,11.6,5.71,8.57h0Z"/>
    <path class="cls-1" d="M1817.78,9949.99c35.07-9.93,69.3-21.85,103.3-34.5,6.66-2.51,.95-11.08-5.71-8.57-33.05,12.34-66.45,23.73-100.56,33.45-6.89,1.99-3.92,11.6,2.97,9.62h0Z"/>
    <path class="cls-1" d="M1595.97,10009.47c35.9-5.02,71.32-11.92,106.62-19.76,7.13-1.57,4.04-11.19-2.97-9.62-35.3,7.84-70.73,14.74-106.62,19.76-7.25,1.05-4.28,10.66,2.97,9.62h0Z"/>
    <path class="cls-1" d="M1348.37,10019.3c36.25,1.88,72.63,1.78,109,.84,7.25-.21,7.37-10.14,0-9.93-36.37,.94-72.63,1.05-109-.84-7.37-.52-7.37,9.51,0,9.93h0Z"/>
    <path class="cls-1" d="M1097.56,9997.77c35.78,5.44,71.56,10.24,107.46,14.84,7.13,.94,10.22-8.68,2.97-9.62-35.9-4.6-71.8-9.41-107.46-14.84-7.01-1.15-10.1,8.47-2.97,9.62h0Z"/>
    <path class="cls-1" d="M966.92,9970.06c-36.37-4.81-72.98-8.57-109.6-11.81-7.25-.63-7.25,9.3,0,9.93,35.66,3.14,71.2,6.8,106.51,11.39,7.25,1.05,10.22-8.57,3.09-9.51h0Z"/>
    <path class="cls-1" d="M752.6,9944.97c-36.37-4.6-72.98-8.26-109.6-11.39-7.25-.63-7.25,9.41,0,9.93,35.66,3.03,71.2,6.48,106.62,11.08,7.01,.84,10.1-8.68,2.97-9.62h0Z"/>
    <path class="cls-1" d="M532.22,9935.46c-35.9,5.02-71.44,11.08-106.98,17.67-7.13,1.36-4.16,10.98,2.97,9.62,35.54-6.59,71.2-12.65,106.98-17.67,7.25-.94,4.16-10.56-2.97-9.62h0Z"/>
    <path class="cls-1" d="M325.87,9988.36c-33.28,12.75-66.09,26.45-98.66,40.56-6.54,2.82-.83,11.5,5.71,8.57,32.57-14.11,65.38-27.81,98.66-40.56,6.78-2.51,.95-11.08-5.71-8.57h0Z"/>
    <path class="cls-1" d="M137.7,10076.9c-30.31,17.56-59.91,36.07-89.15,54.99-5.82,3.76-.24,12.44,5.71,8.57,29.24-18.82,58.84-37.32,89.15-54.99,6.06-3.45,.36-12.13-5.71-8.57h0Z"/>
  </g>
</svg>