<?xml version="1.0" encoding="UTF-8"?>
<svg id="Lag_1" data-name="Lag 1" xmlns="http://www.w3.org/2000/svg" viewBox="0 0 1288.22 713.44">
  <defs>
    <style>
      .cls-1, .cls-2 {
        fill: #fff;
      }

      .cls-2 {
        stroke: #fff;
        stroke-miterlimit: 10;
      }
    </style>
  </defs>
  <path class="cls-1" d="M383.49,135.17c5.33,58.09,19.88,117.15,44.21,170.23,23.24,50.7,57.74,95.91,103.54,128.2,42.6,30.04,93.1,46.86,144.82,51.65,51.63,4.78,104.91-2.42,153.02-21.96,49.91-20.27,93.84-53.86,123.29-99.31,4.46-6.89,8.54-14,12.27-21.31,2.93-5.72-5.7-10.78-8.63-5.05-24.93,48.7-66.05,86.29-115.22,109.67-45.09,21.44-95.73,30.86-145.52,29.16-49.42-1.68-98.96-14.58-141.52-40.12-46.74-28.05-83.14-69.52-108.38-117.56-25.72-48.95-40.13-103.26-48.64-157.67-1.35-8.62-2.46-17.26-3.25-25.95-.58-6.36-10.59-6.42-10,0h0Z"/>
  <g>
    <path class="cls-2" d="M518.88,253.75c-3.21,0-6.15-.79-8.81-2.39-2.66-1.59-4.8-3.72-6.41-6.36-1.61-2.65-2.41-5.57-2.42-8.76l-.05-55.74c0-3.19,.8-6.12,2.4-8.77,1.6-2.65,3.74-4.77,6.4-6.37,2.66-1.6,5.6-2.4,8.81-2.4l55.92-.05c3.21,0,6.17,.79,8.88,2.39,2.71,1.6,4.86,3.72,6.47,6.36,1.61,2.65,2.41,5.57,2.42,8.76v4.83c0,1.24-1,2.24-2.24,2.24h-12.37c-1.24,.01-2.25-.99-2.25-2.22v-4.07c0-.42-.17-.78-.51-1.07-.34-.29-.72-.44-1.14-.44l-54.52,.05c-.42,0-.78,.15-1.08,.44-.3,.3-.44,.65-.44,1.07l.05,54.23c0,.42,.15,.78,.44,1.07,.3,.3,.65,.44,1.08,.44l54.52-.05c.42,0,.8-.15,1.14-.44,.34-.29,.51-.65,.51-1.07v-14.16c-.01-1.24-1.02-2.24-2.26-2.24h-16.17c-1.24,.01-2.25-.99-2.25-2.22v-12.3c-.01-1.24,.99-2.24,2.24-2.24l33.03-.03c1.24,0,2.25,1,2.25,2.24l.03,31.69c0,3.2-.8,6.12-2.4,8.77-1.6,2.65-3.76,4.78-6.46,6.37-2.71,1.6-5.66,2.4-8.87,2.4l-55.92,.05Z"/>
    <path class="cls-2" d="M608.24,253.68c-1.24,0-2.25-1-2.25-2.24l-.05-53.5c0-3.19,.8-6.1,2.4-8.7,1.6-2.61,3.74-4.71,6.4-6.31,2.66-1.6,5.56-2.4,8.68-2.4l38.58-.03c1.24,0,2.25,1,2.25,2.24v12.05c.01,1.24-.99,2.24-2.24,2.24l-37.95,.03c-.42,0-.78,.15-1.08,.44-.3,.3-.44,.65-.44,1.07l.05,52.87c0,1.24-1.01,2.24-2.25,2.24h-12.11Z"/>
    <path class="cls-2" d="M681.75,251.22c-2.66-1.59-4.8-3.72-6.41-6.36-1.61-2.65-2.41-5.53-2.42-8.64l-.03-38.34c0-3.19,.8-6.1,2.4-8.7,1.6-2.61,3.74-4.71,6.4-6.31,2.66-1.6,5.56-2.4,8.68-2.4l39.69-.03c3.21,0,6.15,.77,8.81,2.33,2.66,1.55,4.78,3.65,6.35,6.3,1.57,2.65,2.35,5.57,2.35,8.76l.02,25.26c0,1.24-1.01,2.24-2.25,2.24l-53.58,.05c-1.24,0-2.25,1-2.25,2.24v7.98c0,.42,.15,.78,.45,1.07,.3,.3,.65,.44,1.08,.44l54.3-.05c1.24,0,2.25,1,2.25,2.24v12.05c.01,1.24-.99,2.24-2.24,2.24l-54.94,.05c-3.13,0-6.02-.79-8.69-2.39Zm10.01-40.74l36.97-.03c1.24,0,2.25-1,2.25-2.24v-9.74c0-.42-.16-.78-.45-1.07-.3-.29-.66-.44-1.08-.44l-38.42,.03c-.42,0-.78,.15-1.08,.44s-.44,.65-.44,1.07v9.74c0,1.24,1.02,2.24,2.26,2.24Z"/>
    <path class="cls-2" d="M766.71,251.15c-2.66-1.59-4.8-3.72-6.41-6.36-1.61-2.65-2.41-5.53-2.42-8.64l-.03-38.34c0-3.19,.8-6.1,2.4-8.7,1.6-2.61,3.74-4.71,6.4-6.31,2.66-1.6,5.56-2.4,8.68-2.4l39.69-.03c3.21,0,6.15,.77,8.81,2.33,2.66,1.55,4.78,3.65,6.35,6.3,1.57,2.65,2.35,5.57,2.35,8.76l.02,25.26c0,1.24-1.01,2.24-2.25,2.24l-53.58,.05c-1.24,0-2.25,1-2.25,2.24v7.98c0,.42,.15,.78,.45,1.07,.3,.3,.65,.44,1.08,.44l54.3-.05c1.24,0,2.25,1,2.25,2.24v12.05c.01,1.24-.99,2.24-2.24,2.24l-54.94,.05c-3.13,0-6.02-.79-8.69-2.39Zm10.01-40.74l36.96-.03c1.24,0,2.25-1,2.25-2.24v-9.74c0-.42-.16-.78-.45-1.07-.3-.29-.66-.44-1.08-.44l-38.42,.03c-.42,0-.78,.15-1.08,.44-.3,.3-.44,.65-.44,1.07v9.74c0,1.24,1.02,2.24,2.26,2.24Z"/>
    <path class="cls-2" d="M846.02,251.24l-.06-68.67c0-1.24,1.01-2.24,2.25-2.24l54.94-.05c3.21,0,6.15,.79,8.81,2.39,2.66,1.6,4.78,3.7,6.35,6.3,1.56,2.61,2.35,5.51,2.35,8.7l.05,53.5c0,1.24-1.01,2.24-2.25,2.24h-12.11c-1.24,.01-2.25-.99-2.25-2.22l-.05-52.87c0-.42-.15-.78-.44-1.07-.3-.29-.66-.44-1.08-.44l-38.42,.03c-.42,0-.78,.15-1.08,.44-.3,.3-.44,.65-.44,1.07l.05,52.87c0,1.24-1.01,2.24-2.25,2.24h-12.11c-1.24,.01-2.25-.99-2.25-2.22Z"/>
    <path class="cls-2" d="M512.66,372.05l-31.66-86.3c-.54-1.46,.55-3,2.11-3h12.97c.94-.01,1.79,.57,2.11,1.45l19.46,52.68c.72,1.96,3.51,1.95,4.22,0l19.37-52.72c.32-.88,1.17-1.47,2.11-1.47h13.21c.94-.01,1.79,.57,2.11,1.45l19.45,52.67c.72,1.96,3.51,1.95,4.23,0l19.24-52.69c.32-.88,1.17-1.47,2.11-1.47h13.09c1.56-.01,2.65,1.53,2.12,2.99l-31.51,86.35c-.32,.88-1.17,1.47-2.11,1.47h-10.04c-.94,0-1.79-.58-2.11-1.46l-21.1-57.09c-.72-1.96-3.51-1.95-4.23,0l-20.89,57.12c-.32,.88-1.17,1.47-2.11,1.47h-10.04c-.95,0-1.79-.58-2.11-1.46Z"/>
    <path class="cls-2" d="M629.22,371.19l-.08-92.63c0-1.24,1.01-2.24,2.25-2.24h12.11c1.24-.01,2.25,.99,2.25,2.22l.02,19.49c0,1.24,1.01,2.24,2.25,2.24l38.33-.03c3.21,0,6.13,.79,8.75,2.39,2.62,1.6,4.74,3.7,6.35,6.3,1.61,2.61,2.41,5.51,2.42,8.7l.05,53.5c0,1.24-1.01,2.24-2.25,2.24h-12.11c-1.24,.01-2.25-.99-2.25-2.22l-.05-52.87c0-.42-.15-.78-.44-1.07-.3-.29-.66-.44-1.08-.44l-38.42,.03c-.42,0-.78,.15-1.08,.44-.3,.3-.44,.65-.44,1.07l.05,52.87c0,1.24-1.01,2.24-2.25,2.24h-12.11c-1.24,.01-2.25-.99-2.25-2.22Z"/>
    <path class="cls-2" d="M722.23,370.95c-2.66-1.59-4.8-3.72-6.41-6.36-1.61-2.65-2.41-5.53-2.42-8.64l-.03-38.34c0-3.19,.8-6.1,2.4-8.7,1.6-2.61,3.74-4.71,6.4-6.31,2.66-1.6,5.56-2.4,8.68-2.4l39.69-.03c3.21,0,6.15,.77,8.81,2.33,2.66,1.55,4.78,3.65,6.35,6.3,1.57,2.65,2.35,5.57,2.35,8.76l.02,25.26c0,1.24-1.01,2.24-2.25,2.24l-53.58,.05c-1.24,0-2.25,1-2.25,2.24v7.98c0,.42,.15,.78,.45,1.07,.3,.3,.65,.44,1.08,.44l54.3-.05c1.24,0,2.25,1,2.25,2.24v12.05c.01,1.24-.99,2.24-2.24,2.24l-54.94,.05c-3.13,0-6.02-.79-8.69-2.39Zm10.01-40.74l36.96-.03c1.24,0,2.25-1,2.25-2.24v-9.74c0-.42-.16-.78-.45-1.07-.3-.29-.66-.44-1.08-.44l-38.42,.03c-.42,0-.78,.15-1.08,.44s-.44,.65-.44,1.07v9.74c0,1.24,1.02,2.24,2.26,2.24Z"/>
    <path class="cls-2" d="M807.19,370.88c-2.66-1.59-4.8-3.72-6.41-6.36-1.61-2.65-2.41-5.53-2.42-8.64l-.03-38.34c0-3.19,.8-6.1,2.4-8.7,1.6-2.61,3.74-4.71,6.4-6.31,2.66-1.6,5.56-2.4,8.68-2.4l39.69-.03c3.21,0,6.15,.77,8.81,2.33,2.66,1.55,4.78,3.65,6.35,6.3,1.57,2.65,2.35,5.57,2.35,8.76l.02,25.26c0,1.24-1.01,2.24-2.25,2.24l-53.58,.05c-1.24,0-2.25,1-2.25,2.24v7.98c0,.42,.15,.78,.45,1.07,.3,.3,.65,.44,1.08,.44l54.3-.05c1.24,0,2.25,1,2.25,2.24v12.05c.01,1.24-.99,2.24-2.24,2.24l-54.94,.05c-3.13,0-6.02-.79-8.69-2.39Zm10.01-40.74l36.96-.03c1.24,0,2.25-1,2.25-2.24v-9.74c0-.42-.16-.78-.45-1.07-.3-.29-.66-.44-1.08-.44l-38.42,.03c-.42,0-.78,.15-1.08,.44s-.44,.65-.44,1.07v9.74c0,1.24,1.02,2.24,2.26,2.24Z"/>
    <path class="cls-2" d="M892.02,370.81c-2.66-1.59-4.8-3.72-6.41-6.36-1.61-2.65-2.41-5.53-2.42-8.64l-.07-77.59c0-1.24,1.01-2.24,2.25-2.24h12.24c1.24-.01,2.25,.99,2.25,2.22l.07,76.96c0,.42,.15,.78,.44,1.07,.3,.3,.65,.44,1.08,.44h14.07s.01,16.51,.01,16.51h-14.84c-3.13,.02-6.02-.78-8.69-2.38Z"/>
    <path id="Path_13" data-name="Path 13" class="cls-2" d="M948.03,272.46l36-2.86c3.27-.26,5.25,3.52,3.16,6.04l-34.25,41.28c-1.28,1.54-1.1,3.81,.41,5.13,5.48,4.8,22.52,9.73,18.36,18.8-1.83,3.99-5.82,10.46-8.72,13.64-3.07,3.36-23.31,29.96-27.59,31.75-7.55,3.15,12.6-35.28,10.89-39.94-2.45-6.68-14.25-4.76-20.17-8.46-3.81-2.38-11.83-5.24-10.29-10.57,.75-2.6,2.96-5.35,4.26-7.7,6.27-11.34,12.53-22.68,18.8-34.02,2.06-3.73,4.12-7.46,6.18-11.19,.6-1.09,1.72-1.81,2.96-1.9Z"/>
  </g>
  <rect class="cls-2" x="329.05" y="76.27" width="130.71" height="75.24" rx="8.31" ry="8.31"/>
  <rect class="cls-2" x="344.38" y="141.15" width="100.93" height="44.87" rx="8.65" ry="8.65"/>
  <rect class="cls-2" x="356.52" y="40.26" width="17.92" height="53.64" rx="8.96" ry="8.96"/>
  <rect class="cls-2" x="411.15" y="41" width="17.47" height="52.29" rx="8.73" ry="8.73"/>
</svg>