<?xml version="1.0" encoding="UTF-8"?>
<svg id="Lag_1" data-name="Lag 1" xmlns="http://www.w3.org/2000/svg" xmlns:xlink="http://www.w3.org/1999/xlink" viewBox="0 0 1751.3 15413.46">
  <defs>
    <style>
      .cls-1, .cls-2, .cls-3, .cls-4, .cls-5, .cls-6 {
        fill: none;
      }

      .cls-7 {
        letter-spacing: -.01em;
      }

      .cls-8 {
        letter-spacing: -.04em;
      }

      .cls-9 {
        clip-path: url(#clippath);
      }

      .cls-10, .cls-11, .cls-12, .cls-13 {
        fill: #f8d7ee;
      }

      .cls-14 {
        fill: #efa919;
      }

      .cls-15 {
        fill: #fff;
      }

      .cls-16 {
        fill: #ffe300;
      }

      .cls-17 {
        fill: #ffe200;
      }

      .cls-18 {
        fill: #edb92e;
      }

      .cls-19 {
        fill: #e82d41;
      }

      .cls-20 {
        fill: #e3ae21;
      }

      .cls-21 {
        fill: #edcde4;
      }

      .cls-22 {
        fill: #e4eddf;
      }

      .cls-23 {
        fill: #aeb0b3;
      }

      .cls-24 {
        fill: #cac9c9;
      }

      .cls-25, .cls-26 {
        fill: #1f4acd;
      }

      .cls-27, .cls-28, .cls-29 {
        fill: #21471d;
      }

      .cls-30 {
        fill: #5272d5;
      }

      .cls-31 {
        fill: #818080;
      }

      .cls-11 {
        font-size: 20.43px;
      }

      .cls-11, .cls-12 {
        isolation: isolate;
      }

      .cls-11, .cls-12, .cls-28 {
        font-family: KohinoorDevanagari-Bold, 'Kohinoor Devanagari';
      }

      .cls-2 {
        stroke-width: .22px;
      }

      .cls-2, .cls-4 {
        stroke: #21471d;
      }

      .cls-2, .cls-4, .cls-5, .cls-6 {
        stroke-miterlimit: 3.73;
      }

      .cls-12 {
        font-size: 35.02px;
      }

      .cls-32 {
        letter-spacing: 0em;
      }

      .cls-33 {
        clip-path: url(#clippath-1);
      }

      .cls-34 {
        clip-path: url(#clippath-4);
      }

      .cls-35 {
        clip-path: url(#clippath-3);
      }

      .cls-36 {
        clip-path: url(#clippath-2);
      }

      .cls-37 {
        clip-path: url(#clippath-5);
      }

      .cls-26 {
        stroke: #1f4acd;
        stroke-miterlimit: 4;
        stroke-width: 5px;
      }

      .cls-28 {
        font-size: 25.65px;
      }

      .cls-3 {
        stroke: #edb92e;
        stroke-miterlimit: 2.81;
        stroke-width: 3.51px;
      }

      .cls-38 {
        letter-spacing: -.02em;
      }

      .cls-39 {
        letter-spacing: 0em;
      }

      .cls-40 {
        letter-spacing: 0em;
      }

      .cls-4 {
        stroke-width: .44px;
      }

      .cls-13 {
        fill-rule: evenodd;
      }

      .cls-5 {
        stroke-width: .48px;
      }

      .cls-5, .cls-6 {
        stroke: #10418f;
      }

      .cls-41 {
        letter-spacing: 0em;
      }

      .cls-6 {
        stroke-width: .37px;
      }

      .cls-42 {
        letter-spacing: -.06em;
      }

      .cls-29 {
        font-family: KohinoorDevanagari-Regular, 'Kohinoor Devanagari';
        font-size: 35.59px;
      }
    </style>
    <clipPath id="clippath">
      <rect class="cls-1" x="1291.33" y="5776.99" width="304.51" height="637.74"/>
    </clipPath>
    <clipPath id="clippath-1">
      <polygon class="cls-1" points="-845.88 4450.88 -74.51 4119.81 145.74 4597.22 -625.63 4928.29 -845.88 4450.88"/>
    </clipPath>
    <clipPath id="clippath-2">
      <rect class="cls-1" x="1198.29" y="435.63" width="103.27" height="155.96"/>
    </clipPath>
    <clipPath id="clippath-3">
      <polygon class="cls-1" points="462.26 613.47 482.36 429.05 758.16 457.01 738.06 641.43 462.26 613.47"/>
    </clipPath>
    <clipPath id="clippath-4">
      <polygon class="cls-1" points="1008.13 5685.59 1325.42 5884.39 1004.2 6361.36 686.91 6162.55 1008.13 5685.59"/>
    </clipPath>
    <clipPath id="clippath-5">
      <polygon class="cls-1" points="552.96 6085.69 883.82 6147.72 846 6335.41 515.13 6273.38 552.96 6085.69"/>
    </clipPath>
  </defs>
  <rect class="cls-22" x="24.98" y="-104.48" width="1784.48" height="15623.18"/>
  <path class="cls-24" d="M1848.91,408.01c-17.06,19.02-42.5,46.52-74.15,78.62-103.88,105.54-188.04,191.02-293.66,251.91-146.98,84.55-296.38,99.32-367.7,105.43-227.95,19.54-322.9-53.03-532.46-71.93-139.51-12.62-339.9-2.38-595.1,105.43v-169.97c164.95-70.01,307.65-91.47,399.47-98.74,109.42-8.61,264.54-20.76,438.11,30.99,138.18,41.23,127.27,37.51,195.45,40.12,234.7,9.13,421.17-135.08,465.97-169.86,56.31-43.5,42.02-44.78,187.74-179.86,73.91-68.5,136.97-123.16,179.9-159.74-1.02,79.2-2.23,158.34-3.56,237.6h0Z"/>
  <path class="cls-24" d="M1970.57,1053.42c15.25,87.11,30.69,174.16,46.12,261.27-32.01-21.05-87-55.42-159.58-92.81-261.77-134.68-409.72-130.37-546.57-244-44.79-37.04-106.05-101.53-144.51-210.85,85.43-26.05,170.92-52.1,256.41-78.15,6.51,40.88,25.08,98.74,76.93,151.71,58,59.14,131.43,85.66,180.5,103.22,67.64,24.42,92.48,17.85,164.41,44.78,57.03,21.63,99.35,46.81,126.3,64.84h0Z"/>
  <path class="cls-24" d="M1962.82,3925.94c-259.36,246.5-483.63,285-635.74,286.51-172.67,1.8-284.02-62.34-559.53-40.12-104.66,8.43-218.36,36.52-352.69,66.52-207.03,46.29-328.45,100.95-441.55,140.08-4.16-67.75-8.62-135.49-12.84-203.24,65.17-24.42,156.15-56.29,267.62-88.62,97.91-28.38,178.63-51.81,289.44-70.94,60.11-10.35,191.17-30.12,358.17-30.12,202.99-.12,289.2,29.13,386.87,34.54,154.82,8.72,379.81-39.77,679.15-301.28,7.05,68.79,14.05,137.76,21.1,206.67h0Z"/>
  <path class="cls-24" d="M1978.22,7087.62c-264.66-355.53-475.43-424.44-622.41-417.52-120.03,5.87-236.63,64.2-398.26,6.22-121.9-43.73-113.46-97.69-247.9-157.24-183.52-81.29-273.71-13.78-428.65-74.14-85.55-33.32-195.39-107.4-292.88-289.3,10.55-86.47,20.86-172.88,31.41-259.24,114.97,205.91,241.69,287.61,338.52,323.55,150.84,56.06,228.43,.93,409.42,76.99,164.95,69.2,154.7,137.58,294.63,181.66,173.93,54.6,265.15-27.16,428.05-19.42,124.01,5.87,303.13,64.55,510.34,326.52-7.54,100.77-14.89,201.32-22.25,301.92h0Z"/>
  <path class="cls-24" d="M29.04,9301.56c351.32-484.1,658.56-660.15,880.6-728.66,105.33-32.42,261.68-62.44,470.63-164.65,127.57-62.44,220.96-125.37,410.92-199.64,91.87-35.91,170.45-60.48,223.18-75.8-5.78-73.29-11.5-146.82-17.15-219.99-67.98,5.45-174.07,19.55-291.16,62.01-174.77,63.18-235.06,139.16-393.64,219.99-172.23,87.93-312.89,106.56-410.92,130.46-215.05,52.39-516.06,201.36-881.61,633.31,2.99,114.1,5.97,228.57,9.15,342.97h0Z"/>
  <path class="cls-24" d="M1973.27,10264.06c-81.57-124.7-224.96-253.51-460.28-337.15-245.8-87.32-336.14,13.17-588.23-80.27-282.2-104.72-303.55-280.78-600.55-369.2-141.74-42.28-270.64-41.91-358.12-35.11-6.1-75.43-12.26-150.74-18.36-226.06,128.33-2.76,317.08,8.46,516.57,87.75,275.21,109.26,275.91,230.83,537.02,323.06,265.18,93.76,374.19,7.05,639.43,115.33,158.57,64.65,267.46,156.08,332.52,219.68v301.98h0Z"/>
  <path class="cls-24" d="M65.63,12247.1c81.45-53.19,229.15-151.91,402.66-190.7,361.3-80.89,554.75,82.05,918.59,38.36,142.94-17.16,345.23-66.3,576.6-214.35v-233.9c-344.34,200.69-616.5,233.29-804.17,224.22-243.7-11.83-404.31-96.76-672.6-51.41-189.19,31.99-331.06,111.83-420.89,173.72v254.18h-.19v-.12Z"/>
  <path class="cls-15" d="M1729.54,387.65c-15.25,14.54-30.2,29.37-44.49,44.43-3.74,3.95,4.7,7.79,8.32,3.84,13.87-14.65,28.28-28.96,43.11-42.97,3.74-3.49-3.01-9.01-6.93-5.29h0Z"/>
  <path class="cls-15" d="M1635.13,485.87c-13.87,13.84-28.76,26.92-44.49,39.37-5.25,4.19,2.77,10.64,8.2,6.63,15.86-12.44,30.69-25.53,44.49-39.37,4.7-4.77-3.44-11.22-8.2-6.63h0Z"/>
  <path class="cls-15" d="M1543.91,569.67c-15.19,14.42-32.5,27.27-51.85,37.97-6.03,3.43-.36,11.46,5.91,8.02,20.14-11.22,38.28-24.42,54.14-39.37,4.7-4.54-3.38-11.16-8.2-6.63h0Z"/>
  <path class="cls-15" d="M1422.43,651.54c-10.25,6.28-20.32,12.97-31.41,18.26-11.09,5.29-22.79,9.13-34.3,13.2-6.87,2.33-.96,10.35,5.91,8.02,12-4.19,24.3-8.32,35.51-13.72,11.39-5.58,22.01-12.44,32.62-19.02,5.85-3.72-2.47-10.35-8.32-6.75h0Z"/>
  <path class="cls-15" d="M544.03,675.5c-28.64-4.3-57.7-2.91-86.45-.12-7.23,.81-7.36,10,0,9.3,27.67-2.62,55.83-4.42,83.44-.23,7.42,1.05,10.55-7.85,3.01-8.96h0Z"/>
  <polygon class="cls-15" points="1352.56 814.83 1342.91 807.91 1332.54 800.99 1344.96 797.44 1357.32 794.07 1355.03 804.07 1352.56 814.83"/>
  <polygon class="cls-15" points="1408.02 795.81 1397.53 789.65 1386.38 783.72 1398.26 779.24 1410.07 774.59 1409.11 784.82 1408.02 795.81"/>
  <polygon class="cls-15" points="1380.59 806.05 1370.4 799.53 1359.67 793.14 1371.67 789.13 1383.97 785.05 1382.28 795.17 1380.59 806.05"/>
  <polygon class="cls-15" points="1434.73 784.59 1423.82 779.24 1412 773.95 1423.52 768.66 1434.91 763.48 1434.91 773.72 1434.73 784.59"/>
  <path class="cls-15" d="M1267.61,718.01c-21.22,8.14-43.71,13.84-66.68,17.27-7.23,1.1-4.22,10,3.01,8.9,24.05-3.49,47.39-9.71,69.45-18.26,6.69-2.56,.78-10.47-5.79-7.91h0Z"/>
  <path class="cls-15" d="M1083.43,750.86c-23.39,1.98-46.96,1.63-69.93-1.34-7.23-.87-10.31,8.02-3.01,8.9,24.18,3.08,48.77,3.72,73.07,1.8,7.11-.7,7.23-9.94-.12-9.36h0Z"/>
  <path class="cls-15" d="M894.25,737.84c-22.79-2.38-45.1-7.62-65.96-15.41-6.63-2.5-12.66,5.52-5.91,8.02,22.79,8.61,46.78,14.07,71.74,16.75,3.13,.29,5.79-2.33,5.79-4.59,.18-2.85-2.59-4.3-5.67-4.77h0Z"/>
  <path class="cls-15" d="M646.34,694.75c23.45,1.8,46.48,6.11,68.61,12.73,6.93,2.09,10.01-6.92,3.01-8.9-23.09-6.92-47.21-11.22-71.74-13.08-7.17-.52-7.17,8.72,.12,9.25h0Z"/>
  <path class="cls-15" d="M362.45,681.31c-11.7-.29-24.05,.87-35.75,2.33-14.95,1.86-29.54,5.41-43.59,9.71-6.87,2.09-3.98,11.11,3.01,8.9,23.99-7.21,50.34-12.44,76.2-11.63,7.6,.17,7.6-9.13,.12-9.3h0Z"/>
  <path class="cls-15" d="M192.37,713.36c-26.47,3.31-51.85,11.22-75.42,21.34-6.51,2.91-.72,10.93,5.91,8.02,22.79-9.83,47.08-17.04,72.59-20.35,7.23-.99,4.16-9.89-3.07-9.01h0Z"/>
  <path class="cls-15" d="M1411.88,902.34c-7.48-6.11-15.07-12.44-21.7-19.13-6.87-6.92-12.42-14.65-18.03-22.1-3.86-5.06-13.87-.41-10.01,4.71,5.91,7.79,11.7,15.82,18.75,22.85,6.93,7.15,14.95,13.72,22.79,20.12,5.18,4.42,13.38-2.15,8.2-6.45h0Z"/>
  <path class="cls-15" d="M1528.9,981.95c-9.1-4.54-18.45-8.9-27.07-14.07-8.8-5.29-16.64-11.51-24.48-17.74-5.25-4.19-13.5,2.33-8.2,6.63,8.2,6.4,16.34,12.73,25.38,18.38,9.04,5.52,18.75,10.12,28.46,14.83,6.39,3.08,12.12-4.94,5.91-8.02h0Z"/>
  <path class="cls-15" d="M1672.93,1032.19c-10.79-2.73-21.88-5.41-32.5-8.72-9.71-2.97-20.2-7.04-30.32-10.99-6.63-2.62-12.48,5.41-5.91,8.02,10.31,4.07,20.92,8.14,31.77,11.51,11.09,3.49,22.61,6.28,33.94,9.13,7.05,1.86,10.01-7.09,3.01-8.96h0Z"/>
  <path class="cls-15" d="M1740.81,1064.53c10.73,3.2,21.4,6.51,31.77,10.35,10.37,3.84,19.71,8.14,29.54,12.44,6.51,2.97,12.3-5.06,5.91-8.02-10.13-4.54-20.2-9.13-30.81-12.97-10.79-3.95-22.01-7.21-33.22-10.82-7.17-2.09-10.13,6.92-3.2,9.01h0Z"/>
  <path class="cls-15" d="M217.18,4190.23c23.27-7.79,47.39-13.96,71.92-18.43,6.15-1.1,3.44-8.61-2.59-7.5-25.5,4.71-50.22,11.22-74.27,19.25-5.85,1.98-.78,8.61,4.94,6.69h0Z"/>
  <path class="cls-15" d="M397.5,4142.03c24.24-6.69,49.26-11.75,74.52-14.94,6.33-.81,3.62-8.26-2.59-7.5-25.38,3.2-50.22,8.26-74.52,14.94-6.03,1.63-3.44,9.13,2.59,7.5h0Z"/>
  <path class="cls-15" d="M570.16,4107.6c24.05-5.7,49.44-8.43,74.15-11.86,6.15-.81,3.62-8.26-2.59-7.5-24.6,3.31-49.98,6.11-74.15,11.86-5.97,1.34-3.44,8.9,2.59,7.5h0Z"/>
  <path class="cls-15" d="M748.01,4080.74c13.02-1.8,26.35-1.98,39.31-2.62,13.02-.52,26.83-.99,40.39-1.22,6.33-.12,6.39-7.79,0-7.73-27.25,.52-55.28,.7-82.29,4.19-6.27,.7-3.62,8.14,2.59,7.39h0Z"/>
  <path class="cls-15" d="M935.75,4075.91c25.14,.41,50.58,3.49,75.42,6.11,6.15,.7,8.86-6.8,2.59-7.5-25.74-2.73-51.97-6.05-77.95-6.51-6.45,.17-6.45,7.91-.06,7.91h0Z"/>
  <path class="cls-15" d="M1125.84,4101.55c25.26,2.97,50.4,8.78,75,14.07,6.03,1.34,8.74-6.11,2.59-7.5-24.6-5.29-49.74-10.99-75-14.07-6.21-.64-8.8,6.69-2.59,7.5h0Z"/>
  <path class="cls-15" d="M1390.38,4111.85c-24.9,2.73-50.58,2.73-75.78,3.2-6.33,.12-6.39,7.79,0,7.73,25.98-.41,52.45-.7,78.31-3.49,6.33-.7,3.56-8.08-2.53-7.44h0Z"/>
  <path class="cls-15" d="M1585.05,4061.66c-21.88,10.23-46.06,18.14-69.45,26.28-5.79,1.98-.84,8.72,4.94,6.63,23.27-8.14,47.39-16.05,69.45-26.28,5.55-2.62,.48-9.19-4.94-6.63h0Z"/>
  <path class="cls-15" d="M1743.39,3988.89c-20.74,11.86-43.59,21.63-65.89,31.58-5.43,2.38-.48,9.13,4.94,6.63,22.19-9.89,45.22-19.54,65.89-31.58,5-2.85,.24-9.71-4.94-6.63h0Z"/>
  <path class="cls-15" d="M180.56,6190.59c15.07,18.38,31.47,36.11,48.65,53.21,3.98,4.07,10.79-1.86,6.87-5.82-16.64-16.51-32.68-33.73-47.15-51.58-3.56-4.3-11.94-.12-8.38,4.19h0Z"/>
  <path class="cls-15" d="M271.05,6297.59c20.5,14.13,42.08,27.45,63.97,39.72,5.18,2.91,10.01-4.19,4.82-6.98-21.46-11.98-42.2-24.66-62.1-38.5-4.64-3.26-11.52,2.5-6.69,5.76h0Z"/>
  <path class="cls-15" d="M440.58,6360.92c26.17,3.61,52.51,5.82,78.92,6.98,6.15,.23,6.15-7.91,0-8.14-25.74-1.16-51.43-3.37-76.38-6.75-6.09-.76-8.68,7.04-2.53,7.91h0Z"/>
  <path class="cls-15" d="M713.08,6392.32c-24.6-7.44-49.5-13.49-74.94-18.72-6.03-1.28-8.56,6.63-2.53,7.91,25.26,5.23,50.4,11.4,74.94,18.72,5.79,1.74,8.2-6.16,2.53-7.91h0Z"/>
  <path class="cls-15" d="M873.08,6477.04c-20.5-14.13-41.9-27.51-63.85-39.83-5.18-2.91-10.01,4.19-4.82,6.98,21.46,11.98,42.2,24.77,61.92,38.61,4.58,3.31,11.39-2.38,6.75-5.76h0Z"/>
  <path class="cls-15" d="M1011.51,6567.24c-20.5-14.13-41.9-27.51-63.85-39.83-5.18-2.91-10.01,4.19-4.82,6.98,21.46,11.98,42.2,24.77,61.92,38.61,4.7,3.31,11.64-2.5,6.75-5.76h0Z"/>
  <path class="cls-15" d="M1098.26,6599.16c28.21,2.79,56.37,3.37,84.7,3.02,6.15-.12,6.27-8.26,0-8.14-28.34,.35-56.55-.23-84.7-3.02-6.15-.64-6.15,7.56,0,8.14h0Z"/>
  <path class="cls-15" d="M1280.99,6590.38c28.7-2.09,56.97-6.51,84.95-11.86,6.03-1.16,3.5-9.07-2.53-7.91-27.13,5.23-54.56,9.54-82.41,11.63-6.09,.47-6.21,8.72,0,8.14h0Z"/>
  <path class="cls-15" d="M1554.16,6565.72c-29.72-5.93-60.71-7.44-91.1-4.65-6.03,.58-6.15,8.72,0,8.14,29.54-2.79,59.5-1.51,88.44,4.42,6.15,1.16,8.68-6.75,2.65-7.91h0Z"/>
  <path class="cls-15" d="M1691.62,6632.42c-20.2-15.18-42.08-28.84-64.57-41.46-5.18-2.91-10.01,4.07-4.82,6.98,21.82,12.33,42.99,25.41,62.52,40.24,4.7,3.55,11.64-2.27,6.87-5.76h0Z"/>
  <path class="cls-15" d="M1799.11,6719.36c-16.52-17.79-34.67-34.19-53.84-49.95-4.46-3.72-11.33,2.09-6.87,5.82,19.11,15.76,37.44,32.1,53.84,49.95,3.86,4.19,10.73-1.74,6.87-5.82h0Z"/>
  <path class="cls-15" d="M1692.59,8094.26c-23.89,11.09-47.52,22.37-71.34,33.58-5.4,2.51-.57,9.62,4.83,6.99,23.76-11.21,47.46-22.49,71.34-33.58,5.46-2.57,.51-9.5-4.83-6.99h0Z"/>
  <path class="cls-15" d="M1525.5,8181.28c-23.32,10.91-45.04,23.65-66.45,37.07-4.96,3.06-.13,10.23,4.83,6.99,21.22-13.42,43.14-26.17,66.45-37.07,5.34-2.57,.57-9.5-4.83-6.99h0Z"/>
  <path class="cls-15" d="M1312.1,8304.94c24.27-9.25,47.2-20.47,69.76-32.42,5.27-2.76,.32-9.8-4.83-6.99-22.43,11.95-45.55,23.16-69.76,32.42-5.59,2.08-.76,9.13,4.83,6.99h0Z"/>
  <path class="cls-15" d="M1141.65,8361.13c25.92-4.96,51.14-11.83,75.98-19.73,5.78-1.9,3.24-9.74-2.54-7.9-24.84,7.9-50.13,14.83-75.98,19.73-6.1,1.16-3.49,9.13,2.54,7.9h0Z"/>
  <path class="cls-15" d="M1033.33,8382.15c-26.05,6.01-51.14,14.16-75.98,23.04-5.65,2.08-.89,9.07,4.83,6.99,24.01-8.58,48.54-16.36,73.76-22.24,5.97-1.23,3.43-9.07-2.6-7.78h0Z"/>
  <path class="cls-15" d="M865.74,8432.82c-26.3,6.99-51.46,16.36-75.98,26.72-5.53,2.45-.76,9.38,4.83,6.99,23.89-10.23,48.16-19.36,73.63-26.1,5.97-1.23,3.43-9.07-2.48-7.6h0Z"/>
  <path class="cls-15" d="M715.93,8490.61c-24.27,10.36-46.89,22.92-68.55,36.52-4.96,3.06-.13,10.23,4.83,6.99,21.85-13.54,44.34-26.17,68.55-36.52,5.65-2.21,.7-9.31-4.83-6.99h0Z"/>
  <path class="cls-15" d="M579.22,8576.27c-24.27,11.09-46.63,24.57-68.23,38.97-4.83,3.25,2.03,8.89,6.86,5.82,21.03-13.91,42.88-26.9,66.33-37.69,5.34-2.63,.51-9.56-4.96-7.11h0Z"/>
  <path class="cls-15" d="M439.7,8670.77c-20.77,14.83-39.39,31.5-56.8,49.02-3.94,4.04,2.73,9.74,6.86,5.82,17.53-17.53,36.15-34.19,56.8-49.02,4.64-3.49-2.22-9.19-6.86-5.82h0Z"/>
  <path class="cls-15" d="M332.08,8767.52c-19.69,16.36-36.91,34.56-53.11,53.31-3.62,4.29,4.7,8.21,8.32,4.04,15.76-18.26,32.53-35.79,51.65-51.66,4.32-3.49-2.48-9.31-6.86-5.7h0Z"/>
  <path class="cls-15" d="M224.02,8866.79c-18.04,17.65-33.61,36.83-47.97,56.62-3.24,4.53,5.02,8.58,8.32,4.04,13.91-19.36,28.84-37.99,46.31-55.03,4.19-3.74-2.6-9.56-6.67-5.64h0Z"/>
  <path class="cls-15" d="M132.72,8977.59c-18.04,17.65-33.61,36.83-47.97,56.62-3.24,4.53,5.02,8.58,8.32,4.04,13.91-19.36,28.84-37.99,46.31-55.03,4.19-3.68-2.54-9.56-6.67-5.64h0Z"/>
  <path class="cls-15" d="M171.98,9321.35c-27.06-4.66-54.32-6.62-81.89-7.29-6.1-.12-6.1,8.03,0,8.15,26.68,.86,53.11,2.51,79.29,7.05,6.1,.92,8.7-6.8,2.6-7.9h0Z"/>
  <path class="cls-15" d="M360.1,9362.04c-25.22-9.25-51.46-16.12-78.21-21.75-6.04-1.29-8.51,6.62-2.54,7.91,25.86,5.45,51.46,11.83,75.92,20.83,5.65,2.21,10.48-4.78,4.83-6.99h0Z"/>
  <path class="cls-15" d="M522.04,9435.64c-21.98-13.42-45.68-24.45-69.95-34.62-5.53-2.33-10.29,4.78-4.83,6.99,24.4,10.05,48.03,21.2,69.95,34.62,5.02,3.06,9.85-3.92,4.83-6.99h0Z"/>
  <path class="cls-15" d="M651.39,9532.95c-17.73-17.4-37.86-32.78-58.77-47.43-4.7-3.37-11.5,2.45-6.86,5.82,20.9,14.58,40.98,30.03,58.77,47.43,4.13,3.92,10.86-1.96,6.86-5.82h0Z"/>
  <path class="cls-15" d="M711.1,9601.21c19.25,16.67,40.6,31.25,62.96,44.98,5.02,3.06,9.72-4.04,4.83-6.99-21.47-13.3-42.25-27.58-60.86-43.81-4.45-3.8-11.12,2.14-6.92,5.82h0Z"/>
  <path class="cls-15" d="M857.8,9696.44c24.01,11.4,49.36,20.28,75.35,28.19,5.91,1.9,8.45-6.13,2.54-7.91-25.09-7.6-49.74-16.36-72.93-27.33-5.46-2.57-10.42,4.35-4.96,7.05h0Z"/>
  <path class="cls-15" d="M1027.93,9756.12c26.81,5.09,53.87,8.33,81.13,10.78,6.1,.43,6.1-7.6,0-8.15-26.3-2.45-52.67-5.58-78.59-10.54-6.1-1.16-8.64,6.86-2.54,7.91h0Z"/>
  <path class="cls-15" d="M1210.58,9774.87c26.94,1.72,53.87,1.72,80.81,.86,6.1-.12,6.23-8.33,0-8.15-27.06,.86-53.94,.92-80.81-.86-6.29-.31-6.16,7.78,0,8.15h0Z"/>
  <path class="cls-15" d="M1503.78,9793.87c-29.41-7.91-59.59-13.42-89.96-17.95-6.04-.92-8.64,6.99-2.54,7.91,30.43,4.53,60.54,10.05,89.96,17.95,6.04,1.47,8.58-6.43,2.54-7.91h0Z"/>
  <path class="cls-15" d="M1676.39,9867.34c-24.52-15.87-50.57-29.78-77.38-42.77-5.27-2.63-10.16,4.41-4.83,6.99,26.81,12.99,52.86,26.9,77.38,42.77,4.83,3.19,9.66-3.86,4.83-6.99h0Z"/>
  <path class="cls-15" d="M1625.94,11922.57c29.67-8.15,58.58-17.83,87.48-28.19,5.65-2.08,.89-9.07-4.83-6.99-28.02,10.05-56.16,19.36-85.19,27.33-5.78,1.59-3.24,9.44,2.54,7.84h0Z"/>
  <path class="cls-15" d="M1438.15,11971.1c30.43-4.04,60.42-9.74,90.21-16.12,6.04-1.29,3.37-9.19-2.54-7.91-29.92,6.37-59.91,12.07-90.21,16.05-6.1,.92-3.56,8.76,2.54,7.97h0Z"/>
  <path class="cls-15" d="M1228.56,11979.13c30.62,1.47,61.5,1.47,92.25,.74,6.1-.12,6.23-8.21,0-8.15-30.75,.86-61.5,.86-92.25-.74-6.23-.43-6.23,7.78,0,8.15h0Z"/>
  <path class="cls-15" d="M1016.18,11961.54c30.24,4.41,60.54,8.33,90.98,12.13,6.04,.86,8.64-7.05,2.54-7.91-30.43-3.68-60.8-7.6-90.98-12.13-6.04-.98-8.51,6.92-2.54,7.91h0Z"/>
  <path class="cls-15" d="M905.51,11938.93c-30.75-3.92-61.75-6.99-92.75-9.62-6.1-.43-6.1,7.6,0,8.15,30.11,2.51,60.29,5.58,90.21,9.25,6.16,.86,8.58-7.05,2.54-7.78h0Z"/>
  <path class="cls-15" d="M724.19,11918.4c-30.75-3.68-61.75-6.74-92.75-9.25-6.1-.43-6.1,7.6,0,8.15,30.11,2.45,60.29,5.33,90.21,9.07,5.84,.61,8.58-7.17,2.54-7.97h0Z"/>
  <path class="cls-15" d="M537.54,11910.62c-30.43,4.04-60.54,9.07-90.53,14.46-6.04,1.16-3.49,8.89,2.54,7.91,29.99-5.33,60.29-10.36,90.53-14.46,6.1-.8,3.56-8.58-2.54-7.91h0Z"/>
  <path class="cls-15" d="M362.89,11953.82c-28.21,10.42-55.97,21.57-83.54,33.15-5.53,2.33-.76,9.38,4.83,6.99,27.64-11.52,55.4-22.73,83.54-33.15,5.72-1.96,.76-9.01-4.83-6.99h0Z"/>
  <path class="cls-15" d="M203.56,12026.13c-25.73,14.34-50.7,29.47-75.41,44.98-4.96,3.06-.25,10.23,4.83,6.99,24.71-15.44,49.81-30.52,75.41-44.98,5.15-2.82,.32-9.8-4.83-6.99h0Z"/>
  <g id="mand">
    <g id="mand-2">
      <g id="Group_106" data-name="Group 106">
        <g class="cls-9">
          <g id="Group_105" data-name="Group 105">
            <path id="Path_287" data-name="Path 287" class="cls-27" d="M1450.49,5784.2s-15.01-13.96-23.21-3.2c-5.67,7.5,1.27,14.89,6.09,18.72,.18,.12,.36,.29,.54,.41,.12,.06,.3,.23,.48,.35,.24,.17,.48,.35,.54,.41,1.39,.99,2.29,1.51,2.29,1.51,0,0,8.62,2.15,1.87,9.19,0,0-5,3.61,11.39,7.33,0,0,13.56,3.02,.96,9.94-12.54,6.86,1.33,8.66,1.33,8.66,0,0,18.21-8.66,17.3,.87,0,0-16.88,24.19,3.62,15.41,20.5-8.78,20.62-11.63,20.62-11.63,3.92-5.06,4.34-11.92,1.15-17.39,0,0,11.09-19.83,0-28.96,0,0-.54-3.9-17.91-3.78,0,0-1.33-9.19-12.54-11.98-11.21-2.62-14.53,4.13-14.53,4.13"/>
            <path id="Path_288" data-name="Path 288" class="cls-14" d="M1435.66,5799.73s-29.3,27.39-20.98,28.03c8.32,.64-6.09,20.29-6.09,20.29,0,0-5.43,7.09,7.6,7.97,7.36,2.21,15.01,3.49,22.79,3.72h.36c11.64,.06,23.21-4.59,23.21-4.59l2.11-1.74s-3.26-.52,6.09-15.18c0,0,1.51-7.21-8.32-4.3s-16.94,4.71-14.53-2.27c0,0,15.49-8.26,7.11-11.92s-20.08-4.65-14.35-9.42-1.75-8.37-5-10.58"/>
            <path id="Path_289" data-name="Path 289" class="cls-21" d="M1429.51,5880.44s23.93,4.54,40.09-6.75c0,0-10.13,103.16-8.5,109.15l1.09,19.19s14.71,21.98,13.26,26.57c-1.45,4.54-2.11,23.32-.9,34.37,1.27,11.11,2.59,8.78,.9,19.83-1.75,11.05-2.47,17.97-2.47,17.97,0,0-.84,12.44,7.42,16.86s-68.43,2.04-68.43,2.04l17.54-239.23Z"/>
            <path id="Path_290" data-name="Path 290" class="cls-14" d="M1438.32,5858.23s-8.14,21.46-10.97,24.31c-2.83,2.85,36.59,2.56,47.93-8.08l1.39-23.32-38.34,7.09Z"/>
            <path id="Path_291" data-name="Path 291" class="cls-25" d="M1429.51,5969.24c7.36,9.89-7.96,140.03-7.96,140.03,0,0-3.86,9.07-13.93,12.56-10.07,3.49-29.36-19.48-29.36-19.48,0,0-8.92-30.65,6.69-85.95,15.61-55.24,5.31-52.04,5.31-52.04,0,0-23.81,19.71-58.48,29.48-34.67,9.77-38.77-12.79-38.77-12.79-8.92-3.49,32.98-98.45,49.07-105.43,16.1-6.98,32.01,16.28,32.01,16.28,0,0-70.3,93.33-28.15,48.96,42.14-44.37,83.56-60.13,83.56-60.13,0,0-3.8,83.39,0,88.5"/>
            <path id="Path_292" data-name="Path 292" class="cls-6" d="M1429.51,5969.24c7.36,9.89-7.96,140.03-7.96,140.03,0,0-3.86,9.07-13.93,12.56-10.07,3.49-29.36-19.48-29.36-19.48,0,0-8.92-30.65,6.69-85.95,15.61-55.24,5.31-52.04,5.31-52.04,0,0-23.81,19.71-58.48,29.48-34.67,9.77-38.77-12.79-38.77-12.79-8.92-3.49,32.98-98.45,49.07-105.43,16.1-6.98,32.01,16.28,32.01,16.28,0,0-70.3,93.33-28.15,48.96,42.14-44.37,83.56-60.13,83.56-60.13,0,0-3.8,83.39,0,88.5Z"/>
            <path id="Path_293" data-name="Path 293" class="cls-25" d="M1469.67,5873.64s-14.41,115.25-6.03,132.23c8.38,16.92,7.48,41.35,11.58,60.83,4.1,19.48-10.31,39.25,4.76,50.59,15.13,11.4,52.69,28.09,52.69,28.09,0,0,14.95-40.65,4.76-84.96-10.13-44.37-3.86-57.1-3.86-57.1l20.44,24.13s-28.4,87.98-54.62,104.96l32.01,14.19,54.38-84.49s22.43-30.88,0-59.26c0,0-61.86-113.8-76.32-115.37,.18,.06-20.56-13.72-39.79-13.84"/>
            <path id="Path_294" data-name="Path 294" class="cls-14" d="M1352.71,5875.33s20.32-44.43,29.48-39.31c9.1,5.12-14.71,27.56-14.71,27.56,0,0,41.42,.52,1.02,22.5l-15.8-10.76Z"/>
            <path id="Path_295" data-name="Path 295" class="cls-25" d="M1525.97,6132.76l5.55,255.86c.12,3.31-2.05,6.05-4.7,6.05h-35.45c-2.35,0-4.34-2.15-4.64-5.06l-28.82-257.96c-.6-5.29-6.09-6.92-8.5-2.5l-6.51,12.04c-.24,.41-.42,.87-.54,1.34-.06,.17-.12,.29-.12,.52-.18,.64-.36,1.34-.54,2.04-7.36,28.78-16.82,119.56-18.09,131.71-.12,.93,0,1.8,.24,2.67l23.75,85.77c.6,2.15,.12,4.42-1.21,6.22l-23.63,27.51c-2.35,2.79-6.21,1.74-7.48-1.98l-34.61-98.86c-.3-.7-.66-1.4-1.15-2.04-7.66-9.71,1.27-156.13,3.13-186.08,.18-3.02,2.23-5.35,4.58-5.41l132.87-1.92c1.57,.06,3.07,.93,3.8,2.33,.54,.93,.9,2.09,.96,3.2l1.09,24.54Z"/>
            <path id="Path_296" data-name="Path 296" class="cls-5" d="M1525.97,6132.76l5.55,255.86c.12,3.31-2.05,6.05-4.7,6.05h-35.45c-2.35,0-4.34-2.15-4.64-5.06l-28.82-257.96c-.6-5.29-6.09-6.92-8.5-2.5l-6.51,12.04c-.24,.41-.42,.87-.54,1.34-.06,.17-.12,.29-.12,.52-.18,.64-.36,1.34-.54,2.04-7.36,28.78-16.82,119.56-18.09,131.71-.12,.93,0,1.8,.24,2.67l23.75,85.77c.6,2.15,.12,4.42-1.21,6.22l-23.63,27.51c-2.35,2.79-6.21,1.74-7.48-1.98l-34.61-98.86c-.3-.7-.66-1.4-1.15-2.04-7.66-9.71,1.27-156.13,3.13-186.08,.18-3.02,2.23-5.35,4.58-5.41l132.87-1.92c2.47-.06,4.58,2.38,4.76,5.47l1.09,24.6Z"/>
            <path id="Path_297" data-name="Path 297" class="cls-27" d="M1414.74,6374.78s-47.63,9.89-52.21,25.47c-4.58,15.58,19.83,9.3,19.83,9.3,0,0,48.83-11.57,54.92-13.96s13.32-7.91,13.32-7.91c0,0,13.2-5.35,5.49-14.71-7.66-9.42-41.36,1.8-41.36,1.8"/>
            <path id="Path_298" data-name="Path 298" class="cls-4" d="M1414.74,6374.78s-47.63,9.89-52.21,25.47c-4.58,15.58,19.83,9.3,19.83,9.3,0,0,48.83-11.57,54.92-13.96s13.32-7.91,13.32-7.91c0,0,13.2-5.35,5.49-14.71-7.66-9.42-41.36,1.8-41.36,1.8Z"/>
            <path id="Path_299" data-name="Path 299" class="cls-27" d="M1497.04,6387.34s-48.71-.76-56.79,13.43c-8.08,14.25,17.12,13.37,17.12,13.37,0,0,50.28-.64,56.73-1.57,6.51-.99,14.83-4.77,14.83-4.77,0,0,14.11-2.33,8.8-13.14-5.25-10.82-40.69-7.33-40.69-7.33"/>
            <path id="Path_300" data-name="Path 300" class="cls-4" d="M1497.04,6387.34s-48.71-.76-56.79,13.43c-8.08,14.25,17.12,13.37,17.12,13.37,0,0,50.28-.64,56.73-1.57,6.51-.99,14.83-4.77,14.83-4.77,0,0,14.11-2.33,8.8-13.14-5.25-10.82-40.69-7.33-40.69-7.33Z"/>
            <path id="Path_301" data-name="Path 301" class="cls-27" d="M1392.26,6288.37v-136.71h203.17v136.71h-203.17Z"/>
            <path id="Path_302" data-name="Path 302" class="cls-2" d="M1392.26,6288.37v-136.71h203.17v136.71h-203.17Z"/>
            <path id="Path_303" data-name="Path 303" class="cls-27" d="M1456.88,6154.51c6.99-7.27,16.1-12.33,26.04-14.65,24.54-5.52,48.41,10.35,47.81,12.1-.3,.99-9.04-2.79-24.05-4.01-16.88-1.28-33.88,.99-49.8,6.57"/>
            <path id="Path_304" data-name="Path 304" class="cls-2" d="M1456.88,6154.51c6.99-7.27,16.1-12.33,26.04-14.65,24.54-5.52,48.41,10.35,47.81,12.1-.3,.99-9.04-2.79-24.05-4.01-16.88-1.28-33.88,.99-49.8,6.57Z"/>
            <path id="Path_305" data-name="Path 305" class="cls-14" d="M1503.31,6134.45s-28.82,.58-22.19,13.67c6.63,13.08,45.1-3.84,45.1-3.84l-22.91-9.83Z"/>
            <path id="Path_673" data-name="Path 673" class="cls-25" d="M1421.25,6102.75s-33.4-5.06-37.74,2.62c-4.34,7.68,39.07,0,39.07,0l-1.33-2.62Z"/>
          </g>
        </g>
      </g>
      <text class="cls-12" transform="translate(1398.91 6251.15) scale(1.04 1)"><tspan x="0" y="0">17 ton CO</tspan></text>
      <text class="cls-11" transform="translate(1558.23 6262.82) scale(1.04 1)"><tspan x="0" y="0">2</tspan></text>
    </g>
    <path id="Path_674" data-name="Path 674" class="cls-25" d="M1469.54,6118.34s52.63-6.11,59.69,0c7.11,6.11-.54,44.83-.54,44.83l-2.89-.93-3.74-39.66-53.17-1.4,.66-2.85Z"/>
  </g>
  <g class="cls-33">
    <g id="røg">
      <path id="Path_672" data-name="Path 672" class="cls-15" d="M1315.11,4468.63c41.66-61.86,19.4-147.13-49.7-190.42-14.47-9.06-30.43-15.8-47.16-19.9,5.26-50.75-33.09-96-85.7-101.08-52.61-5.08-99.53,31.92-104.8,82.66-.39,3.78-.54,7.64-.44,11.45-55.88-15.17-114.78,12.16-137.4,63.69-.51-.32-.98-.68-1.43-.97-44.58-28-104.29-15.81-133.32,27.19-27.35,40.51-17.9,94.51,21.71,124.12-59.76,17.71-93.32,78.76-74.95,136.4,18.36,57.64,81.65,90.01,141.41,72.3,6.92-2.05,13.64-4.77,20.03-8.06,.94,4.68,2.19,9.35,3.75,13.87-25.22,4.87-47.27,19.36-61.27,40.14-3.71,5.51-6.82,11.41-9.22,17.53-41.28-7.06-80.65,19.47-87.97,59.28-7.32,39.81,20.18,77.79,61.46,84.85,28.32,4.84,57.02-6.17,74.15-28.4,47.44,22.37,104.69,3.36,127.88-42.39,9.5-18.81,12.14-40.13,7.42-60.57,57.52-5.1,100.7-52.97,97.82-108.61,63.17,9.47,122.27-32.24,132.1-93.1,1.18-7.31,1.61-14.67,1.25-22.04,41.99-2.97,80.87-23.01,104.4-57.94"/>
    </g>
  </g>
  <g id="lille_faktaboks" data-name="lille faktaboks">
    <path id="Rectangle_122-2" data-name="Rectangle 122-2" class="cls-10" d="M298.84,6334.98h831.13c9.77,0,17.72,7.62,17.72,17.1v251.85c0,9.42-7.9,17.1-17.72,17.1H298.84c-9.77,0-17.72-7.62-17.72-17.1v-251.85c0-9.42,7.96-17.1,17.72-17.1Z"/>
  </g>
  <g id="skilt">
    <g id="Group_191" data-name="Group 191">
      <g class="cls-36">
        <g id="Group_190" data-name="Group 190">
          <path id="Path_689" data-name="Path 689" class="cls-25" d="M1205.35,540.76v-101.88c0-4.36-7.05-4.36-7.05,0v101.88c0,4.36,7.05,4.36,7.05,0"/>
          <path id="Path_690" data-name="Path 690" class="cls-13" d="M1202.03,439.12l97.18,54.37-.78,69.08-96.22-46.75-.18-76.7Z"/>
          <path id="Path_691" data-name="Path 691" class="cls-25" d="M1301.57,588.33v-95.54c0-4.36-7.05-4.36-7.05,0v95.54c0,4.36,7.05,4.36,7.05,0"/>
        </g>
      </g>
    </g>
    <path id="Path_692" data-name="Path 692" class="cls-25" d="M1228.44,489.01v-7.68l34.18,19.19v-3.84l9.53,11.51-9.53,3.84v-3.84l-34.18-19.19Z"/>
    <path id="Path_693" data-name="Path 693" class="cls-25" d="M1228.44,512.79l5.55,3.08v-23.73l-5.55-3.14v23.78Z"/>
  </g>
  <g id="elbil">
    <g class="cls-35">
      <g id="elbil-2">
        <path id="Path_550" data-name="Path 550" class="cls-18" d="M553.08,555.53c1.2-22.01-16.32-40.77-39.14-41.92s-42.27,15.74-43.47,37.75c-1.2,22.01,16.32,40.77,39.14,41.92h0c22.82,1.15,42.27-15.74,43.47-37.75"/>
        <path id="Path_551" data-name="Path 551" class="cls-18" d="M747.36,565.35c1.2-22.01-16.32-40.77-39.14-41.92-22.82-1.15-42.27,15.74-43.47,37.75-1.2,22.01,16.32,40.77,39.14,41.92h0c22.82,1.15,42.27-15.74,43.47-37.75"/>
        <path id="Path_552" data-name="Path 552" class="cls-18" d="M684.44,522.28c2.28-41.99-31.09-77.8-74.62-80-43.53-2.2-80.65,29.99-82.94,71.97-2.28,41.99,31.09,77.8,74.62,80h.06c43.47,2.2,80.6-30.05,82.88-71.97h0"/>
        <polygon id="Rectangle_110" data-name="Rectangle 110" class="cls-18" points="710.62 523.61 706.29 603.23 509.6 593.29 513.93 513.67 710.62 523.61"/>
        <path id="Path_553" data-name="Path 553" class="cls-25" d="M540.37,515s14.75-61.56,68.35-53.44c53.59,8.12,55.16,34.76,58.21,59.83l-126.55-6.4Z"/>
        <path id="Path_554" data-name="Path 554" class="cls-17" d="M743.67,546.65c-5.69-11.93-17.06-20.37-30.47-22.62-5.78,8.62-3.27,20.16,5.67,25.73,7.94,5,18.46,3.67,24.8-3.11"/>
        <line id="Line_71" data-name="Line 71" class="cls-1" x1="609.04" y1="456.75" x2="604.92" y2="532.53"/>
        <path id="Path_575" data-name="Path 575" class="cls-3" d="M609.04,456.75l-4.12,75.78"/>
        <path id="Path_555" data-name="Path 555" class="cls-19" d="M472.91,539.83l22.16,1.12c2.29,.12,4.19-1.59,4.37-3.8l.85-15.56c.12-2.21-1.65-4.1-3.94-4.22l-2.05-.1c-9.9,4.51-17.65,12.62-21.39,22.56"/>
        <path id="Path_556" data-name="Path 556" class="cls-23" d="M690.72,602.32c-.88,16.26-15.27,28.81-32.13,27.96-16.86-.85-29.87-14.73-28.98-30.99,.88-16.26,15.27-28.81,32.13-27.96h0c16.92,.86,29.87,14.73,28.98,30.99"/>
        <path id="Path_557" data-name="Path 557" class="cls-20" d="M661.79,571.33c16.86,.85,29.81,14.73,28.98,30.99l9.33,.47c1.15-21.25-15.79-39.4-37.82-40.52-22.04-1.11-40.85,15.23-42.01,36.48l9.33,.47c.88-16.26,15.27-28.75,32.18-27.9"/>
        <path id="Path_558" data-name="Path 558" class="cls-23" d="M570.72,596.49c-.88,16.26-15.27,28.81-32.13,27.96-16.86-.85-29.87-14.73-28.98-30.99,.88-16.26,15.27-28.81,32.13-27.96h0c16.92,.86,29.87,14.73,28.98,30.99"/>
        <path id="Path_559" data-name="Path 559" class="cls-20" d="M541.79,565.5c16.86,.85,29.81,14.73,28.92,30.98l9.33,.47c1.15-21.25-15.79-39.4-37.82-40.52-22.04-1.11-40.85,15.23-42.01,36.48h0l9.33,.47c.94-16.26,15.33-28.75,32.24-27.89"/>
      </g>
    </g>
  </g>
  <text class="cls-29" transform="translate(343.22 6438.37) scale(1.04 1)"><tspan x="0" y="0">FN’s klimapanel mene</tspan><tspan class="cls-42" x="355.33" y="0">r</tspan><tspan x="366.11" y="0" xml:space="preserve">, at dette skal helt  </tspan><tspan x="0" y="42.71">ned på 2</tspan><tspan class="cls-8" x="137.28" y="42.71">-</tspan><tspan class="cls-41" x="147.92" y="42.71">3 tons </tspan><tspan class="cls-38" x="257.34" y="42.71">C</tspan><tspan x="277.02" y="42.71">O2, </tspan><tspan class="cls-39" x="337.31" y="42.71">f</tspan><tspan x="349.95" y="42.71">or at være med til at </tspan><tspan x="0" y="85.42">sæn</tspan><tspan class="cls-32" x="67.52" y="85.42">k</tspan><tspan x="85.14" y="85.42">e den globale o</tspan><tspan class="cls-40" x="333.54" y="85.42">p</tspan><tspan class="cls-7" x="353.16" y="85.42">v</tspan><tspan x="369.99" y="85.42">armning</tspan></text>
  <g class="cls-34">
    <g id="røg-2" data-name="røg">
      <path id="Path_672-2" data-name="Path 672" class="cls-15" d="M1256.18,5987.21c29.11-43.23,13.57-102.81-34.72-133.06-10.13-6.33-21.27-11.03-32.97-13.9,3.69-35.45-23.12-67.07-59.87-70.63-36.75-3.56-69.54,22.3-73.23,57.75-.28,2.66-.38,5.33-.31,8-39.06-10.59-80.19,8.48-96.01,44.52-.34-.22-.66-.49-1-.7-31.15-19.56-72.85-11.06-93.13,18.99-19.1,28.31-12.51,66.02,15.17,86.72-41.75,12.37-65.2,55.04-52.38,95.31,12.82,40.27,57.07,62.89,98.82,50.52,4.85-1.44,9.54-3.32,14.01-5.62,.65,3.29,1.53,6.53,2.64,9.7-17.61,3.4-33.05,13.52-42.82,28.06-2.59,3.86-4.74,7.96-6.43,12.26-28.83-4.93-56.35,13.61-61.47,41.43-5.11,27.81,14.11,54.35,42.95,59.29,19.77,3.38,39.83-4.3,51.81-19.85,33.16,15.62,73.16,2.35,89.35-29.63,6.65-13.13,8.47-28.06,5.17-42.32,40.19-3.54,70.34-37.01,68.36-75.89,44.12,6.62,85.44-22.51,92.3-65.06,.82-5.1,1.12-10.26,.88-15.41,29.24-2.08,56.43-16.05,72.87-40.47"/>
    </g>
  </g>
  <g id="brændstofsbil">
    <polygon id="Rectangle_112" data-name="Rectangle 112" class="cls-31" points="734.83 6256.17 775.16 6263.73 772.73 6275.8 732.4 6268.24 734.83 6256.17"/>
    <g id="Group_170" data-name="Group 170">
      <g class="cls-37">
        <g id="Group_169" data-name="Group 169">
          <path id="Path_561" data-name="Path 561" class="cls-25" d="M696.48,6247.35c3.69-18.33,22.84-30.16,42.76-26.42,19.93,3.74,33.08,21.62,29.39,39.95-3.69,18.33-22.84,30.16-42.76,26.42-19.93-3.74-33.08-21.62-29.39-39.95"/>
          <path id="Path_562" data-name="Path 562" class="cls-25" d="M526.79,6215.53c3.69-18.33,22.84-30.16,42.76-26.42,19.93,3.74,33.08,21.62,29.39,39.95s-22.84,30.16-42.76,26.42c-19.93-3.74-33.08-21.62-29.39-39.95"/>
          <path id="Path_563" data-name="Path 563" class="cls-25" d="M590.34,6193.01c7.04-34.95,43.55-57.51,81.54-50.39,37.99,7.12,63.08,41.23,56.04,76.18-7.04,34.95-43.55,57.51-81.55,50.39-37.99-7.12-63.08-41.23-56.04-76.18"/>
          <path id="Path_573" data-name="Path 573" class="cls-25" d="M739.24,6220.93l-171.76-32.2-13.38,66.37,171.76,32.2,13.38-66.37Z"/>
          <path id="Path_564" data-name="Path 564" class="cls-10" d="M716.15,6216.6s.51-53.63-47.49-57.95c-48-4.33-55.04,17.26-63.04,37.23l110.53,20.72Z"/>
          <path id="Path_565" data-name="Path 565" class="cls-16" d="M534.03,6200.91c7.7-8.73,19.31-13.33,31.15-12.35,1.01,2.6,1.25,5.42,.7,8.15-1.72,8.55-10.66,14.07-19.96,12.33-5.01-.91-9.35-3.88-11.89-8.14"/>
          <path id="Path_574" data-name="Path 574" class="cls-26" d="M669.47,6154.63l-12.73,63.15"/>
          <path id="Path_566" data-name="Path 566" class="cls-19" d="M769.01,6250.88l-19.35-3.63c-1.95-.33-3.27-2.11-2.94-4l2.61-12.96c.43-1.87,2.34-3.05,4.28-2.65l1.76,.33c7.53,5.57,12.44,13.82,13.64,22.9"/>
          <path id="Path_567" data-name="Path 567" class="cls-23" d="M567.73,6257.55c-2.73,13.56,7,26.79,21.74,29.55,14.74,2.76,28.9-5.99,31.63-19.54,2.73-13.56-7-26.79-21.74-29.55-14.74-2.76-28.9,5.99-31.63,19.54"/>
          <path id="Path_568" data-name="Path 568" class="cls-30" d="M599.36,6238.01c-14.74-2.76-28.9,5.99-31.63,19.54l-8.17-1.53c3.57-17.71,22.07-29.14,41.32-25.53,19.25,3.61,31.96,20.89,28.4,38.6l-8.17-1.53c2.73-13.56-7-26.79-21.74-29.55"/>
          <path id="Path_569" data-name="Path 569" class="cls-23" d="M672.48,6277.4c-2.73,13.56,7,26.79,21.74,29.55,14.74,2.76,28.9-5.99,31.63-19.54,2.73-13.56-7-26.79-21.74-29.55-14.74-2.76-28.9,5.99-31.63,19.54"/>
          <path id="Path_570" data-name="Path 570" class="cls-30" d="M704.11,6257.86c-14.74-2.76-28.9,5.99-31.63,19.54l-8.17-1.53c3.57-17.71,22.07-29.14,41.32-25.53,19.25,3.61,31.96,20.89,28.4,38.6l-8.17-1.53c2.73-13.56-7-26.79-21.74-29.55"/>
        </g>
      </g>
    </g>
  </g>
  <text class="cls-28" transform="translate(913.48 5939.19) scale(1.04 1)"><tspan x="0" y="0">En gennemsnitlig person </tspan><tspan x="9.31" y="30.78">udleder 17 tons CO2 om </tspan><tspan x="95.71" y="61.56">måneden</tspan></text>
  <path class="cls-24" d="M49.05,14157.39c81.45-53.19,229.15-151.91,402.66-190.7,361.3-80.89,554.75,82.05,918.59,38.36,142.94-17.16,345.23-66.3,576.6-214.35v-233.9c-344.34,200.69-616.5,233.29-804.17,224.22-243.7-11.83-404.31-96.76-672.6-51.41-189.19,31.99-331.06,111.83-420.89,173.72v254.18h-.19v-.12Z"/>
  <path class="cls-15" d="M1609.36,13832.86c29.67-8.15,58.58-17.83,87.48-28.19,5.65-2.08,.89-9.07-4.83-6.99-28.02,10.05-56.16,19.36-85.19,27.33-5.78,1.59-3.24,9.44,2.54,7.84h0Z"/>
  <path class="cls-15" d="M1421.56,13881.39c30.43-4.04,60.42-9.74,90.21-16.12,6.04-1.29,3.37-9.19-2.54-7.91-29.92,6.37-59.91,12.07-90.21,16.05-6.1,.92-3.56,8.76,2.54,7.97h0Z"/>
  <path class="cls-15" d="M1211.98,13889.42c30.62,1.47,61.5,1.47,92.25,.74,6.1-.12,6.23-8.21,0-8.15-30.75,.86-61.5,.86-92.25-.74-6.23-.43-6.23,7.78,0,8.15h0Z"/>
  <path class="cls-15" d="M999.59,13871.83c30.24,4.41,60.54,8.33,90.98,12.13,6.04,.86,8.64-7.05,2.54-7.91-30.43-3.68-60.8-7.6-90.98-12.13-6.04-.98-8.51,6.92-2.54,7.91h0Z"/>
  <path class="cls-15" d="M888.92,13849.22c-30.75-3.92-61.75-6.99-92.75-9.62-6.1-.43-6.1,7.6,0,8.15,30.11,2.51,60.29,5.58,90.21,9.25,6.16,.86,8.58-7.05,2.54-7.78h0Z"/>
  <path class="cls-15" d="M707.61,13828.69c-30.75-3.68-61.75-6.74-92.75-9.25-6.1-.43-6.1,7.6,0,8.15,30.11,2.45,60.29,5.33,90.21,9.07,5.84,.61,8.58-7.17,2.54-7.97h0Z"/>
  <path class="cls-15" d="M520.95,13820.91c-30.43,4.04-60.54,9.07-90.53,14.46-6.04,1.16-3.49,8.89,2.54,7.91,29.99-5.33,60.29-10.36,90.53-14.46,6.1-.8,3.56-8.58-2.54-7.91h0Z"/>
  <path class="cls-15" d="M346.31,13864.11c-28.21,10.42-55.97,21.57-83.54,33.15-5.53,2.33-.76,9.38,4.83,6.99,27.64-11.52,55.4-22.73,83.54-33.15,5.72-1.96,.76-9.01-4.83-6.99h0Z"/>
  <path class="cls-15" d="M186.97,13936.42c-25.73,14.34-50.7,29.47-75.41,44.98-4.96,3.06-.25,10.23,4.83,6.99,24.71-15.44,49.81-30.52,75.41-44.98,5.15-2.82,.32-9.8-4.83-6.99h0Z"/>
  <path class="cls-24" d="M80.52,15710.42c81.45-53.19,229.15-151.91,402.66-190.7,361.3-80.89,554.75,82.05,918.59,38.36,142.94-17.16,345.23-66.3,576.6-214.35v-233.9c-344.34,200.69-616.5,233.29-804.17,224.22-243.7-11.83-404.31-96.76-672.6-51.41-189.19,31.99-331.06,111.83-420.89,173.72v254.18h-.19v-.12Z"/>
  <path class="cls-15" d="M1640.83,15385.89c29.67-8.15,58.58-17.83,87.48-28.19,5.65-2.08,.89-9.07-4.83-6.99-28.02,10.05-56.16,19.36-85.19,27.33-5.78,1.59-3.24,9.44,2.54,7.84h0Z"/>
  <path class="cls-15" d="M1453.03,15434.42c30.43-4.04,60.42-9.74,90.21-16.12,6.04-1.29,3.37-9.19-2.54-7.91-29.92,6.37-59.91,12.07-90.21,16.05-6.1,.92-3.56,8.76,2.54,7.97h0Z"/>
  <path class="cls-15" d="M920.39,15402.25c-30.75-3.92-61.75-6.99-92.75-9.62-6.1-.43-6.1,7.6,0,8.15,30.11,2.51,60.29,5.58,90.21,9.25,6.16,.86,8.58-7.05,2.54-7.78h0Z"/>
  <path class="cls-15" d="M739.07,15381.72c-30.75-3.68-61.75-6.74-92.75-9.25-6.1-.43-6.1,7.6,0,8.15,30.11,2.45,60.29,5.33,90.21,9.07,5.84,.61,8.58-7.17,2.54-7.97h0Z"/>
  <path class="cls-15" d="M552.42,15373.94c-30.43,4.04-60.54,9.07-90.53,14.46-6.04,1.16-3.49,8.89,2.54,7.91,29.99-5.33,60.29-10.36,90.53-14.46,6.1-.8,3.56-8.58-2.54-7.91h0Z"/>
</svg>